<?xml version="1.0" encoding="us-ascii" standalone="no"?><svg xmlns="http://www.w3.org/2000/svg" xmlns:xlink="http://www.w3.org/1999/xlink" contentStyleType="text/css" height="840px" preserveAspectRatio="none" style="width:903px;height:840px;background:#FFFFFF;" version="1.1" viewBox="0 0 903 840" width="903px" zoomAndPan="magnify"><defs/><g><rect fill="#FFFFFF" height="57.8789" style="stroke:#181818;stroke-width:1.0;" width="10" x="660" y="114.9609"/><rect fill="#FFFFFF" height="57.8789" style="stroke:#181818;stroke-width:1.0;" width="10" x="660" y="230.7188"/><rect fill="#FFFFFF" height="57.8789" style="stroke:#181818;stroke-width:1.0;" width="10" x="660" y="346.4766"/><rect fill="#FFFFFF" height="77.2305" style="stroke:#181818;stroke-width:1.0;" width="10" x="660" y="481.5859"/><rect fill="#FFFFFF" height="77.2305" style="stroke:#181818;stroke-width:1.0;" width="10" x="660" y="636.0469"/><line style="stroke:#181818;stroke-width:0.5;stroke-dasharray:5.0,5.0;" x1="253" x2="253" y1="82.6094" y2="758.8047"/><line style="stroke:#181818;stroke-width:0.5;stroke-dasharray:5.0,5.0;" x1="664.5" x2="664.5" y1="82.6094" y2="758.8047"/><text fill="#000000" font-family="sans-serif" font-size="14" lengthAdjust="spacing" textLength="124" x="188" y="79.5332">GHNShipmentClient</text><ellipse cx="253" cy="13.5" fill="#E2E2F0" rx="8" ry="8" style="stroke:#181818;stroke-width:0.5;"/><path d="M253,21.5 L253,48.5 M240,29.5 L266,29.5 M253,48.5 L240,63.5 M253,48.5 L266,63.5 " fill="none" style="stroke:#181818;stroke-width:0.5;"/><text fill="#000000" font-family="sans-serif" font-size="14" lengthAdjust="spacing" textLength="124" x="188" y="772.3379">GHNShipmentClient</text><ellipse cx="253" cy="783.9141" fill="#E2E2F0" rx="8" ry="8" style="stroke:#181818;stroke-width:0.5;"/><path d="M253,791.9141 L253,818.9141 M240,799.9141 L266,799.9141 M253,818.9141 L240,833.9141 M253,818.9141 L266,833.9141 " fill="none" style="stroke:#181818;stroke-width:0.5;"/><rect fill="#E2E2F0" height="31.6094" rx="2.5" ry="2.5" style="stroke:#181818;stroke-width:0.5;" width="139" x="595.5" y="50"/><text fill="#000000" font-family="sans-serif" font-size="14" lengthAdjust="spacing" textLength="125" x="602.5" y="71.5332">GiaoHangNhanhAPI</text><rect fill="#E2E2F0" height="31.6094" rx="2.5" ry="2.5" style="stroke:#181818;stroke-width:0.5;" width="139" x="595.5" y="757.8047"/><text fill="#000000" font-family="sans-serif" font-size="14" lengthAdjust="spacing" textLength="125" x="602.5" y="779.3379">GiaoHangNhanhAPI</text><rect fill="#FFFFFF" height="57.8789" style="stroke:#181818;stroke-width:1.0;" width="10" x="660" y="114.9609"/><rect fill="#FFFFFF" height="57.8789" style="stroke:#181818;stroke-width:1.0;" width="10" x="660" y="230.7188"/><rect fill="#FFFFFF" height="57.8789" style="stroke:#181818;stroke-width:1.0;" width="10" x="660" y="346.4766"/><rect fill="#FFFFFF" height="77.2305" style="stroke:#181818;stroke-width:1.0;" width="10" x="660" y="481.5859"/><rect fill="#FFFFFF" height="77.2305" style="stroke:#181818;stroke-width:1.0;" width="10" x="660" y="636.0469"/><polygon fill="#181818" points="648,110.9609,658,114.9609,648,118.9609,652,114.9609" style="stroke:#181818;stroke-width:1.0;"/><line style="stroke:#181818;stroke-width:1.0;" x1="253" x2="654" y1="114.9609" y2="114.9609"/><text fill="#000000" font-family="sans-serif" font-size="13" lengthAdjust="spacing" textLength="306" x="260" y="110.1045">Get supported provinces (GET /master-data/province)</text><polygon fill="#181818" points="264,168.8398,254,172.8398,264,176.8398,260,172.8398" style="stroke:#181818;stroke-width:1.0;"/><line style="stroke:#181818;stroke-width:1.0;stroke-dasharray:2.0,2.0;" x1="258" x2="664" y1="172.8398" y2="172.8398"/><text fill="#000000" font-family="sans-serif" font-size="13" lengthAdjust="spacing" textLength="96" x="270" y="167.9834">Return provinces</text><path d="M25,127.9609 L25,202.9609 L248,202.9609 L248,137.9609 L238,127.9609 L25,127.9609 " fill="#FEFFDD" style="stroke:#181818;stroke-width:0.5;"/><path d="M238,127.9609 L238,137.9609 L248,137.9609 L238,127.9609 " fill="#FEFFDD" style="stroke:#181818;stroke-width:0.5;"/><text fill="#000000" font-family="sans-serif" font-size="13" lengthAdjust="spacing" textLength="8" x="31" y="146.4561">{[</text><text fill="#000000" font-family="sans-serif" font-size="13" lengthAdjust="spacing" textLength="108" x="47" y="162.8076">{"ProvinceID": 202,</text><text fill="#000000" font-family="sans-serif" font-size="13" lengthAdjust="spacing" textLength="186" x="47" y="179.1592">"ProvinceName": "H&#7891; Ch&#237; Minh"}</text><text fill="#000000" font-family="sans-serif" font-size="13" lengthAdjust="spacing" textLength="8" x="31" y="195.5107">]}</text><polygon fill="#181818" points="648,226.7188,658,230.7188,648,234.7188,652,230.7188" style="stroke:#181818;stroke-width:1.0;"/><line style="stroke:#181818;stroke-width:1.0;" x1="253" x2="654" y1="230.7188" y2="230.7188"/><text fill="#000000" font-family="sans-serif" font-size="13" lengthAdjust="spacing" textLength="308" x="260" y="225.8623">Get districts (GET /master-data/district?province_id=)</text><polygon fill="#181818" points="264,284.5977,254,288.5977,264,292.5977,260,288.5977" style="stroke:#181818;stroke-width:1.0;"/><line style="stroke:#181818;stroke-width:1.0;stroke-dasharray:2.0,2.0;" x1="258" x2="664" y1="288.5977" y2="288.5977"/><text fill="#000000" font-family="sans-serif" font-size="13" lengthAdjust="spacing" textLength="88" x="270" y="283.7412">Return districts</text><path d="M5,243.7188 L5,318.7188 L248,318.7188 L248,253.7188 L238,243.7188 L5,243.7188 " fill="#FEFFDD" style="stroke:#181818;stroke-width:0.5;"/><path d="M238,243.7188 L238,253.7188 L248,253.7188 L238,243.7188 " fill="#FEFFDD" style="stroke:#181818;stroke-width:0.5;"/><text fill="#000000" font-family="sans-serif" font-size="13" lengthAdjust="spacing" textLength="8" x="11" y="262.2139">{[</text><text fill="#000000" font-family="sans-serif" font-size="13" lengthAdjust="spacing" textLength="107" x="27" y="278.5654">{"DistrictID": 1457,</text><text fill="#000000" font-family="sans-serif" font-size="13" lengthAdjust="spacing" textLength="206" x="27" y="294.917">"DistrictName": "Qu&#7853;n Ph&#250; Nhu&#7853;n"}</text><text fill="#000000" font-family="sans-serif" font-size="13" lengthAdjust="spacing" textLength="8" x="11" y="311.2686">]}</text><polygon fill="#181818" points="648,342.4766,658,346.4766,648,350.4766,652,346.4766" style="stroke:#181818;stroke-width:1.0;"/><line style="stroke:#181818;stroke-width:1.0;" x1="253" x2="654" y1="346.4766" y2="346.4766"/><text fill="#000000" font-family="sans-serif" font-size="13" lengthAdjust="spacing" textLength="276" x="260" y="341.6201">Get wards (GET /master-data/ward?district_id=)</text><polygon fill="#181818" points="264,400.3555,254,404.3555,264,408.3555,260,404.3555" style="stroke:#181818;stroke-width:1.0;"/><line style="stroke:#181818;stroke-width:1.0;stroke-dasharray:2.0,2.0;" x1="258" x2="664" y1="404.3555" y2="404.3555"/><text fill="#000000" font-family="sans-serif" font-size="13" lengthAdjust="spacing" textLength="76" x="270" y="399.499">Return wards</text><path d="M48,359.4766 L48,434.4766 L248,434.4766 L248,369.4766 L238,359.4766 L48,359.4766 " fill="#FEFFDD" style="stroke:#181818;stroke-width:0.5;"/><path d="M238,359.4766 L238,369.4766 L248,369.4766 L238,359.4766 " fill="#FEFFDD" style="stroke:#181818;stroke-width:0.5;"/><text fill="#000000" font-family="sans-serif" font-size="13" lengthAdjust="spacing" textLength="8" x="54" y="377.9717">{[</text><text fill="#000000" font-family="sans-serif" font-size="13" lengthAdjust="spacing" textLength="132" x="70" y="394.3232">{"WardCode": "21715",</text><text fill="#000000" font-family="sans-serif" font-size="13" lengthAdjust="spacing" textLength="163" x="70" y="410.6748">"WardName": "Ph&#432;&#7901;ng 17"}</text><text fill="#000000" font-family="sans-serif" font-size="13" lengthAdjust="spacing" textLength="8" x="54" y="427.0264">]}</text><polygon fill="#181818" points="648,477.5859,658,481.5859,648,485.5859,652,481.5859" style="stroke:#181818;stroke-width:1.0;"/><line style="stroke:#181818;stroke-width:1.0;" x1="253" x2="654" y1="481.5859" y2="481.5859"/><text fill="#000000" font-family="sans-serif" font-size="13" lengthAdjust="spacing" textLength="388" x="260" y="476.7295">Get available services (POST /v2/shipping-order/available-services?)</text><path d="M675,444.8828 L675,503.8828 L775,503.8828 L775,454.8828 L765,444.8828 L675,444.8828 " fill="#FEFFDD" style="stroke:#181818;stroke-width:0.5;"/><path d="M765,444.8828 L765,454.8828 L775,454.8828 L765,444.8828 " fill="#FEFFDD" style="stroke:#181818;stroke-width:0.5;"/><text fill="#000000" font-family="sans-serif" font-size="13" lengthAdjust="spacing" textLength="49" x="681" y="463.3779">Queries:</text><text fill="#000000" font-family="sans-serif" font-size="13" lengthAdjust="spacing" textLength="79" x="681" y="479.7295">- from_district</text><text fill="#000000" font-family="sans-serif" font-size="13" lengthAdjust="spacing" textLength="65" x="681" y="496.0811">- to_district</text><polygon fill="#181818" points="264,554.8164,254,558.8164,264,562.8164,260,558.8164" style="stroke:#181818;stroke-width:1.0;"/><line style="stroke:#181818;stroke-width:1.0;stroke-dasharray:2.0,2.0;" x1="258" x2="664" y1="558.8164" y2="558.8164"/><text fill="#000000" font-family="sans-serif" font-size="13" lengthAdjust="spacing" textLength="89" x="270" y="553.96">Return services</text><path d="M56,513.9375 L56,588.9375 L248,588.9375 L248,523.9375 L238,513.9375 L56,513.9375 " fill="#FEFFDD" style="stroke:#181818;stroke-width:0.5;"/><path d="M238,513.9375 L238,523.9375 L248,523.9375 L238,513.9375 " fill="#FEFFDD" style="stroke:#181818;stroke-width:0.5;"/><text fill="#000000" font-family="sans-serif" font-size="13" lengthAdjust="spacing" textLength="8" x="62" y="532.4326">{[</text><text fill="#000000" font-family="sans-serif" font-size="13" lengthAdjust="spacing" textLength="118" x="78" y="548.7842">{"service_id": 53322,</text><text fill="#000000" font-family="sans-serif" font-size="13" lengthAdjust="spacing" textLength="155" x="78" y="565.1357">"short_name": "H&#224;ng nh&#7865;"}</text><text fill="#000000" font-family="sans-serif" font-size="13" lengthAdjust="spacing" textLength="8" x="62" y="581.4873">]}</text><polygon fill="#181818" points="648,632.0469,658,636.0469,648,640.0469,652,636.0469" style="stroke:#181818;stroke-width:1.0;"/><line style="stroke:#181818;stroke-width:1.0;" x1="253" x2="654" y1="636.0469" y2="636.0469"/><text fill="#000000" font-family="sans-serif" font-size="13" lengthAdjust="spacing" textLength="320" x="260" y="631.1904">Create shipment order (POST /v2/shipping-order/create)</text><path d="M675,599.3438 L675,658.3438 L896,658.3438 L896,609.3438 L886,599.3438 L675,599.3438 " fill="#FEFFDD" style="stroke:#181818;stroke-width:0.5;"/><path d="M886,599.3438 L886,609.3438 L896,609.3438 L886,599.3438 " fill="#FEFFDD" style="stroke:#181818;stroke-width:0.5;"/><text fill="#000000" font-family="sans-serif" font-size="13" lengthAdjust="spacing" textLength="196" x="681" y="617.8389">Body={from_address, to_address,</text><text fill="#000000" font-family="sans-serif" font-size="13" lengthAdjust="spacing" textLength="168" x="681" y="634.1904">service_id, payment_type_id,</text><text fill="#000000" font-family="sans-serif" font-size="13" lengthAdjust="spacing" textLength="165" x="681" y="650.542">weight, length, width, height}</text><polygon fill="#181818" points="264,709.2773,254,713.2773,264,717.2773,260,713.2773" style="stroke:#181818;stroke-width:1.0;"/><line style="stroke:#181818;stroke-width:1.0;stroke-dasharray:2.0,2.0;" x1="258" x2="664" y1="713.2773" y2="713.2773"/><text fill="#000000" font-family="sans-serif" font-size="13" lengthAdjust="spacing" textLength="160" x="270" y="708.4209">Return created order details</text><path d="M71,668.3984 L71,743.3984 L248,743.3984 L248,678.3984 L238,668.3984 L71,668.3984 " fill="#FEFFDD" style="stroke:#181818;stroke-width:0.5;"/><path d="M238,668.3984 L238,678.3984 L248,678.3984 L238,668.3984 " fill="#FEFFDD" style="stroke:#181818;stroke-width:0.5;"/><text fill="#000000" font-family="sans-serif" font-size="13" lengthAdjust="spacing" textLength="4" x="77" y="686.8936">{</text><text fill="#000000" font-family="sans-serif" font-size="13" lengthAdjust="spacing" textLength="140" x="93" y="703.2451">"order_code": AAAAAA,</text><text fill="#000000" font-family="sans-serif" font-size="13" lengthAdjust="spacing" textLength="102" x="93" y="719.5967">"total_fee": 20000</text><text fill="#000000" font-family="sans-serif" font-size="13" lengthAdjust="spacing" textLength="4" x="77" y="735.9482">}</text><!--SRC=[dPJ1QXin48RlUeh1fmQyk7Pg38RKf4wnSwZhD8KUIbdKrMGbiAL5acsCyLFq7EWB17gjSpJqFVmcrMfNwxOaT1CTTgMPqSny_qfB4wiqZCQJQowoEKexd0dt16eWvR9Oa8ngAnAHKUSO2Qh6LAOJJYK_drwMaMv6gWqGlIvjVHYX1RF8CgKjCiYqMWgPe84NexSVeJMdngAE6BMq5NmdX2PMBAd5FnBdbQ8YRL6Z3n_GBhGyfYGC_zqebPlFyCQIpMS2RcmQqpByygBHXyxBJjFRA_E4pj4v6kF3_JSOylqTl1EIDxRaovQWP91dV1oK2MErIEn3UC4t20t7WfqzaRNANu_reWpthErNtLu96-m1zcfnsDr9cFBz3YRSB-eIhwXc3z7cza5ezncaFcyzoaykTAYO9-cqU-rkeyJC7G5nod_zEDpVoXJQlRfiT4d5Z7wT8HZKI-5FxVJzjIDTTbh6tPTCo3HIcg5kLR5HY1sS5CrgaN9BhXQe1Pe-a0Xkj9h7GHktjkgughfwabgXPZt1ocZtLPmotTFJJhW4XhjR6ijm1VRVdLoI7tO_woWsr9YNDUL_1BmkZmkM-F2_D7gZsFfiuzMXZ6aqffbhKyt9iV4cP7ITbudjElC6ii8yITEnojJo9gm4or_ScxVF5BReafKm3AtxolzHkP3IRuYJubYU-r6AR9Mbi_W6qVz_t237vdu3]--></g></svg>