<?xml version="1.0" encoding="us-ascii" standalone="no"?><svg xmlns="http://www.w3.org/2000/svg" xmlns:xlink="http://www.w3.org/1999/xlink" contentStyleType="text/css" height="2105px" preserveAspectRatio="none" style="width:1671px;height:2105px;background:#FFFFFF;" version="1.1" viewBox="0 0 1671 2105" width="1671px" zoomAndPan="magnify"><defs/><g><rect fill="#D6EAF8" height="2093.5547" style="stroke:#181818;stroke-width:0.5;" width="1245" x="274.5" y="6"/><text fill="#000000" font-family="sans-serif" font-size="13" font-weight="bold" lengthAdjust="spacing" textLength="26" x="884" y="19.4951">YAS</text><rect fill="#FFFFFF" height="91.0547" style="stroke:#181818;stroke-width:1.0;" width="10" x="312" y="159.3125"/><rect fill="#FFFFFF" height="176.4609" style="stroke:#181818;stroke-width:1.0;" width="10" x="312" y="325.0703"/><rect fill="#FFFFFF" height="151.7578" style="stroke:#181818;stroke-width:1.0;" width="10" x="312" y="576.2344"/><rect fill="#FFFFFF" height="91.0547" style="stroke:#181818;stroke-width:1.0;" width="10" x="312" y="802.6953"/><rect fill="#FFFFFF" height="493.6797" style="stroke:#181818;stroke-width:1.0;" width="10" x="312" y="968.4531"/><rect fill="#FFFFFF" height="395.0547" style="stroke:#181818;stroke-width:1.0;" width="10" x="312" y="1613.8906"/><rect fill="#FFFFFF" height="30.3516" style="stroke:#181818;stroke-width:1.0;" width="10" x="589" y="189.6641"/><rect fill="#FFFFFF" height="30.3516" style="stroke:#181818;stroke-width:1.0;" width="10" x="589" y="1193.9688"/><rect fill="#FFFFFF" height="30.3516" style="stroke:#181818;stroke-width:1.0;" width="10" x="698" y="1133.2656"/><rect fill="#FFFFFF" height="57.8789" style="stroke:#181818;stroke-width:1.0;" width="10" x="994" y="382.9492"/><rect fill="#FFFFFF" height="30.3516" style="stroke:#181818;stroke-width:1.0;" width="10" x="994" y="606.5859"/><rect fill="#FFFFFF" height="203.8125" style="stroke:#181818;stroke-width:1.0;" width="10" x="994" y="1050.8594"/><rect fill="#FFFFFF" height="30.3516" style="stroke:#181818;stroke-width:1.0;" width="10" x="994" y="1765.6484"/><rect fill="#FFFFFF" height="30.3516" style="stroke:#181818;stroke-width:1.0;" width="10" x="994" y="1826.3516"/><rect fill="#FFFFFF" height="30.3516" style="stroke:#181818;stroke-width:1.0;" width="10" x="1114" y="667.2891"/><rect fill="#FFFFFF" height="30.3516" style="stroke:#181818;stroke-width:1.0;" width="10" x="1114" y="833.0469"/><rect fill="#FFFFFF" height="151.7578" style="stroke:#181818;stroke-width:1.0;" width="10" x="1268" y="1735.2969"/><rect fill="#FFFFFF" height="91.0547" style="stroke:#181818;stroke-width:1.0;" width="10" x="1458" y="1340.7266"/><rect fill="#FFFFFF" height="273.1641" style="stroke:#181818;stroke-width:1.0;" width="10" x="1458" y="1644.2422"/><rect fill="#FFFFFF" height="30.3516" style="stroke:#181818;stroke-width:1.0;" width="10" x="1600" y="1371.0781"/><rect fill="#FFFFFF" height="91.0547" style="stroke:#181818;stroke-width:1.0;" width="10" x="1600" y="1492.4844"/><rect fill="#FFFFFF" height="30.3516" style="stroke:#181818;stroke-width:1.0;" width="10" x="1600" y="1674.5938"/><rect fill="none" height="701.9219" style="stroke:#000000;stroke-width:1.5;" width="1644" x="10" y="1300.0234"/><line style="stroke:#181818;stroke-width:0.5;stroke-dasharray:5.0,5.0;" x1="41" x2="41" y1="82.6094" y2="2018.9453"/><line style="stroke:#181818;stroke-width:0.5;stroke-dasharray:5.0,5.0;" x1="316.5" x2="316.5" y1="82.6094" y2="2018.9453"/><line style="stroke:#181818;stroke-width:0.5;stroke-dasharray:5.0,5.0;" x1="594" x2="594" y1="82.6094" y2="2018.9453"/><line style="stroke:#181818;stroke-width:0.5;stroke-dasharray:5.0,5.0;" x1="703" x2="703" y1="82.6094" y2="2018.9453"/><line style="stroke:#181818;stroke-width:0.5;stroke-dasharray:5.0,5.0;" x1="999" x2="999" y1="82.6094" y2="2018.9453"/><line style="stroke:#181818;stroke-width:0.5;stroke-dasharray:5.0,5.0;" x1="1119" x2="1119" y1="82.6094" y2="2018.9453"/><line style="stroke:#181818;stroke-width:0.5;stroke-dasharray:5.0,5.0;" x1="1273" x2="1273" y1="82.6094" y2="2018.9453"/><line style="stroke:#181818;stroke-width:0.5;stroke-dasharray:5.0,5.0;" x1="1462.5" x2="1462.5" y1="82.6094" y2="2018.9453"/><line style="stroke:#181818;stroke-width:0.5;stroke-dasharray:5.0,5.0;" x1="1605" x2="1605" y1="82.6094" y2="2018.9453"/><text fill="#000000" font-family="sans-serif" font-size="14" lengthAdjust="spacing" textLength="36" x="20" y="79.5332">Client</text><ellipse cx="41" cy="13.5" fill="#E2E2F0" rx="8" ry="8" style="stroke:#181818;stroke-width:0.5;"/><path d="M41,21.5 L41,48.5 M28,29.5 L54,29.5 M41,48.5 L28,63.5 M41,48.5 L54,63.5 " fill="none" style="stroke:#181818;stroke-width:0.5;"/><text fill="#000000" font-family="sans-serif" font-size="14" lengthAdjust="spacing" textLength="36" x="20" y="2032.4785">Client</text><ellipse cx="41" cy="2044.0547" fill="#E2E2F0" rx="8" ry="8" style="stroke:#181818;stroke-width:0.5;"/><path d="M41,2052.0547 L41,2079.0547 M28,2060.0547 L54,2060.0547 M41,2079.0547 L28,2094.0547 M41,2079.0547 L54,2094.0547 " fill="none" style="stroke:#181818;stroke-width:0.5;"/><rect fill="#E2E2F0" height="31.6094" rx="2.5" ry="2.5" style="stroke:#181818;stroke-width:0.5;" width="77" x="278.5" y="50"/><text fill="#000000" font-family="sans-serif" font-size="14" lengthAdjust="spacing" textLength="63" x="285.5" y="71.5332">Storefront</text><rect fill="#E2E2F0" height="31.6094" rx="2.5" ry="2.5" style="stroke:#181818;stroke-width:0.5;" width="77" x="278.5" y="2017.9453"/><text fill="#000000" font-family="sans-serif" font-size="14" lengthAdjust="spacing" textLength="63" x="285.5" y="2039.4785">Storefront</text><rect fill="#E2E2F0" height="31.6094" rx="2.5" ry="2.5" style="stroke:#181818;stroke-width:0.5;" width="88" x="550" y="50"/><text fill="#000000" font-family="sans-serif" font-size="14" lengthAdjust="spacing" textLength="74" x="557" y="71.5332">CartService</text><rect fill="#E2E2F0" height="31.6094" rx="2.5" ry="2.5" style="stroke:#181818;stroke-width:0.5;" width="88" x="550" y="2017.9453"/><text fill="#000000" font-family="sans-serif" font-size="14" lengthAdjust="spacing" textLength="74" x="557" y="2039.4785">CartService</text><rect fill="#E2E2F0" height="31.6094" rx="2.5" ry="2.5" style="stroke:#181818;stroke-width:0.5;" width="110" x="648" y="50"/><text fill="#000000" font-family="sans-serif" font-size="14" lengthAdjust="spacing" textLength="96" x="655" y="71.5332">ProductService</text><rect fill="#E2E2F0" height="31.6094" rx="2.5" ry="2.5" style="stroke:#181818;stroke-width:0.5;" width="110" x="648" y="2017.9453"/><text fill="#000000" font-family="sans-serif" font-size="14" lengthAdjust="spacing" textLength="96" x="655" y="2039.4785">ProductService</text><rect fill="#E2E2F0" height="31.6094" rx="2.5" ry="2.5" style="stroke:#181818;stroke-width:0.5;" width="98" x="950" y="50"/><text fill="#000000" font-family="sans-serif" font-size="14" lengthAdjust="spacing" textLength="84" x="957" y="71.5332">OrderService</text><rect fill="#E2E2F0" height="31.6094" rx="2.5" ry="2.5" style="stroke:#181818;stroke-width:0.5;" width="98" x="950" y="2017.9453"/><text fill="#000000" font-family="sans-serif" font-size="14" lengthAdjust="spacing" textLength="84" x="957" y="2039.4785">OrderService</text><rect fill="#E2E2F0" height="31.6094" rx="2.5" ry="2.5" style="stroke:#181818;stroke-width:0.5;" width="122" x="1058" y="50"/><text fill="#000000" font-family="sans-serif" font-size="14" lengthAdjust="spacing" textLength="108" x="1065" y="71.5332">CustomerService</text><rect fill="#E2E2F0" height="31.6094" rx="2.5" ry="2.5" style="stroke:#181818;stroke-width:0.5;" width="122" x="1058" y="2017.9453"/><text fill="#000000" font-family="sans-serif" font-size="14" lengthAdjust="spacing" textLength="108" x="1065" y="2039.4785">CustomerService</text><rect fill="#E2E2F0" height="31.6094" rx="2.5" ry="2.5" style="stroke:#181818;stroke-width:0.5;" width="116" x="1215" y="50"/><text fill="#000000" font-family="sans-serif" font-size="14" lengthAdjust="spacing" textLength="102" x="1222" y="71.5332">PaymentService</text><rect fill="#E2E2F0" height="31.6094" rx="2.5" ry="2.5" style="stroke:#181818;stroke-width:0.5;" width="116" x="1215" y="2017.9453"/><text fill="#000000" font-family="sans-serif" font-size="14" lengthAdjust="spacing" textLength="102" x="1222" y="2039.4785">PaymentService</text><rect fill="#E2E2F0" height="31.6094" rx="2.5" ry="2.5" style="stroke:#181818;stroke-width:0.5;" width="105" x="1410.5" y="50"/><text fill="#000000" font-family="sans-serif" font-size="14" lengthAdjust="spacing" textLength="91" x="1417.5" y="71.5332">PayPalService</text><rect fill="#E2E2F0" height="31.6094" rx="2.5" ry="2.5" style="stroke:#181818;stroke-width:0.5;" width="105" x="1410.5" y="2017.9453"/><text fill="#000000" font-family="sans-serif" font-size="14" lengthAdjust="spacing" textLength="91" x="1417.5" y="2039.4785">PayPalService</text><rect fill="#E2E2F0" height="31.6094" rx="2.5" ry="2.5" style="stroke:#181818;stroke-width:0.5;" width="78" x="1566" y="50"/><text fill="#000000" font-family="sans-serif" font-size="14" lengthAdjust="spacing" textLength="64" x="1573" y="71.5332">PaypalAPI</text><rect fill="#E2E2F0" height="31.6094" rx="2.5" ry="2.5" style="stroke:#181818;stroke-width:0.5;" width="78" x="1566" y="2017.9453"/><text fill="#000000" font-family="sans-serif" font-size="14" lengthAdjust="spacing" textLength="64" x="1573" y="2039.4785">PaypalAPI</text><rect fill="#FFFFFF" height="91.0547" style="stroke:#181818;stroke-width:1.0;" width="10" x="312" y="159.3125"/><rect fill="#FFFFFF" height="176.4609" style="stroke:#181818;stroke-width:1.0;" width="10" x="312" y="325.0703"/><rect fill="#FFFFFF" height="151.7578" style="stroke:#181818;stroke-width:1.0;" width="10" x="312" y="576.2344"/><rect fill="#FFFFFF" height="91.0547" style="stroke:#181818;stroke-width:1.0;" width="10" x="312" y="802.6953"/><rect fill="#FFFFFF" height="493.6797" style="stroke:#181818;stroke-width:1.0;" width="10" x="312" y="968.4531"/><rect fill="#FFFFFF" height="395.0547" style="stroke:#181818;stroke-width:1.0;" width="10" x="312" y="1613.8906"/><rect fill="#FFFFFF" height="30.3516" style="stroke:#181818;stroke-width:1.0;" width="10" x="589" y="189.6641"/><rect fill="#FFFFFF" height="30.3516" style="stroke:#181818;stroke-width:1.0;" width="10" x="589" y="1193.9688"/><rect fill="#FFFFFF" height="30.3516" style="stroke:#181818;stroke-width:1.0;" width="10" x="698" y="1133.2656"/><rect fill="#FFFFFF" height="57.8789" style="stroke:#181818;stroke-width:1.0;" width="10" x="994" y="382.9492"/><rect fill="#FFFFFF" height="30.3516" style="stroke:#181818;stroke-width:1.0;" width="10" x="994" y="606.5859"/><rect fill="#FFFFFF" height="203.8125" style="stroke:#181818;stroke-width:1.0;" width="10" x="994" y="1050.8594"/><rect fill="#FFFFFF" height="30.3516" style="stroke:#181818;stroke-width:1.0;" width="10" x="994" y="1765.6484"/><rect fill="#FFFFFF" height="30.3516" style="stroke:#181818;stroke-width:1.0;" width="10" x="994" y="1826.3516"/><rect fill="#FFFFFF" height="30.3516" style="stroke:#181818;stroke-width:1.0;" width="10" x="1114" y="667.2891"/><rect fill="#FFFFFF" height="30.3516" style="stroke:#181818;stroke-width:1.0;" width="10" x="1114" y="833.0469"/><rect fill="#FFFFFF" height="151.7578" style="stroke:#181818;stroke-width:1.0;" width="10" x="1268" y="1735.2969"/><rect fill="#FFFFFF" height="91.0547" style="stroke:#181818;stroke-width:1.0;" width="10" x="1458" y="1340.7266"/><rect fill="#FFFFFF" height="273.1641" style="stroke:#181818;stroke-width:1.0;" width="10" x="1458" y="1644.2422"/><rect fill="#FFFFFF" height="30.3516" style="stroke:#181818;stroke-width:1.0;" width="10" x="1600" y="1371.0781"/><rect fill="#FFFFFF" height="91.0547" style="stroke:#181818;stroke-width:1.0;" width="10" x="1600" y="1492.4844"/><rect fill="#FFFFFF" height="30.3516" style="stroke:#181818;stroke-width:1.0;" width="10" x="1600" y="1674.5938"/><rect fill="#EEEEEE" height="3" style="stroke:#EEEEEE;stroke-width:1.0;" width="1664" x="0" y="113.7852"/><line style="stroke:#000000;stroke-width:1.0;" x1="0" x2="1664" y1="113.7852" y2="113.7852"/><line style="stroke:#000000;stroke-width:1.0;" x1="0" x2="1664" y1="116.7852" y2="116.7852"/><rect fill="#EEEEEE" height="24.3516" style="stroke:#000000;stroke-width:2.0;" width="112" x="776" y="102.6094"/><text fill="#000000" font-family="sans-serif" font-size="13" font-weight="bold" lengthAdjust="spacing" textLength="98" x="782" y="120.1045">Go to cart page</text><polygon fill="#181818" points="300,155.3125,310,159.3125,300,163.3125,304,159.3125" style="stroke:#181818;stroke-width:1.0;"/><line style="stroke:#181818;stroke-width:1.0;" x1="41" x2="306" y1="159.3125" y2="159.3125"/><text fill="#000000" font-family="sans-serif" font-size="13" lengthAdjust="spacing" textLength="138" x="48" y="154.4561">Browse /storefront/carts</text><polygon fill="#181818" points="577,185.6641,587,189.6641,577,193.6641,581,189.6641" style="stroke:#181818;stroke-width:1.0;"/><line style="stroke:#181818;stroke-width:1.0;" x1="322" x2="583" y1="189.6641" y2="189.6641"/><text fill="#000000" font-family="sans-serif" font-size="13" lengthAdjust="spacing" textLength="248" x="329" y="184.8076">GET /api/cart/storefront/carts/{customer-id}</text><polygon fill="#181818" points="333,216.0156,323,220.0156,333,224.0156,329,220.0156" style="stroke:#181818;stroke-width:1.0;"/><line style="stroke:#181818;stroke-width:1.0;stroke-dasharray:2.0,2.0;" x1="327" x2="593" y1="220.0156" y2="220.0156"/><text fill="#000000" font-family="sans-serif" font-size="13" lengthAdjust="spacing" textLength="44" x="339" y="215.1592">200 OK</text><polygon fill="#181818" points="52,246.3672,42,250.3672,52,254.3672,48,250.3672" style="stroke:#181818;stroke-width:1.0;"/><line style="stroke:#181818;stroke-width:1.0;stroke-dasharray:2.0,2.0;" x1="46" x2="316" y1="250.3672" y2="250.3672"/><text fill="#000000" font-family="sans-serif" font-size="13" lengthAdjust="spacing" textLength="44" x="58" y="245.5107">200 OK</text><rect fill="#EEEEEE" height="3" style="stroke:#EEEEEE;stroke-width:1.0;" width="1664" x="0" y="279.543"/><line style="stroke:#000000;stroke-width:1.0;" x1="0" x2="1664" y1="279.543" y2="279.543"/><line style="stroke:#000000;stroke-width:1.0;" x1="0" x2="1664" y1="282.543" y2="282.543"/><rect fill="#EEEEEE" height="24.3516" style="stroke:#000000;stroke-width:2.0;" width="117" x="773.5" y="268.3672"/><text fill="#000000" font-family="sans-serif" font-size="13" font-weight="bold" lengthAdjust="spacing" textLength="103" x="779.5" y="285.8623">Create checkout</text><polygon fill="#181818" points="300,321.0703,310,325.0703,300,329.0703,304,325.0703" style="stroke:#181818;stroke-width:1.0;"/><line style="stroke:#181818;stroke-width:1.0;" x1="41" x2="306" y1="325.0703" y2="325.0703"/><text fill="#000000" font-family="sans-serif" font-size="13" lengthAdjust="spacing" textLength="167" x="48" y="320.2139">Click "Proceed to check out"</text><polygon fill="#181818" points="982,378.9492,992,382.9492,982,386.9492,986,382.9492" style="stroke:#181818;stroke-width:1.0;"/><line style="stroke:#181818;stroke-width:1.0;" x1="322" x2="988" y1="382.9492" y2="382.9492"/><text fill="#000000" font-family="sans-serif" font-size="13" lengthAdjust="spacing" textLength="215" x="329" y="378.0928">POST /api/order/storefront/checkouts</text><path d="M1009,338.0703 L1009,413.0703 L1244,413.0703 L1244,348.0703 L1234,338.0703 L1009,338.0703 " fill="#FEFFDD" style="stroke:#181818;stroke-width:0.5;"/><path d="M1234,338.0703 L1234,348.0703 L1244,348.0703 L1234,338.0703 " fill="#FEFFDD" style="stroke:#181818;stroke-width:0.5;"/><text fill="#000000" font-family="sans-serif" font-size="13" lengthAdjust="spacing" textLength="160" x="1015" y="356.5654">Body={email, note, coupon,</text><text fill="#000000" font-family="sans-serif" font-size="13" lengthAdjust="spacing" textLength="214" x="1015" y="372.917">products:[{id, name, quantity, price}]}</text><text fill="#000000" font-family="sans-serif" font-size="13" lengthAdjust="spacing" textLength="4" x="1015" y="389.2686">&#160;</text><text fill="#000000" font-family="sans-serif" font-size="13" lengthAdjust="spacing" textLength="125" x="1015" y="405.6201">Header: Authorization</text><polygon fill="#181818" points="333,436.8281,323,440.8281,333,444.8281,329,440.8281" style="stroke:#181818;stroke-width:1.0;"/><line style="stroke:#181818;stroke-width:1.0;stroke-dasharray:2.0,2.0;" x1="327" x2="998" y1="440.8281" y2="440.8281"/><text fill="#000000" font-family="sans-serif" font-size="13" lengthAdjust="spacing" textLength="86" x="339" y="435.9717">201 CREATED</text><polygon fill="#181818" points="52,467.1797,42,471.1797,52,475.1797,48,471.1797" style="stroke:#181818;stroke-width:1.0;"/><line style="stroke:#181818;stroke-width:1.0;stroke-dasharray:2.0,2.0;" x1="46" x2="311" y1="471.1797" y2="471.1797"/><text fill="#000000" font-family="sans-serif" font-size="13" lengthAdjust="spacing" textLength="86" x="58" y="466.3232">201 CREATED</text><polygon fill="#181818" points="52,497.5313,42,501.5313,52,505.5313,48,501.5313" style="stroke:#181818;stroke-width:1.0;"/><line style="stroke:#181818;stroke-width:1.0;stroke-dasharray:2.0,2.0;" x1="46" x2="316" y1="501.5313" y2="501.5313"/><text fill="#000000" font-family="sans-serif" font-size="13" lengthAdjust="spacing" textLength="247" x="58" y="496.6748">Route to /storefront/checkout/{checkout-id}</text><rect fill="#EEEEEE" height="3" style="stroke:#EEEEEE;stroke-width:1.0;" width="1664" x="0" y="530.707"/><line style="stroke:#000000;stroke-width:1.0;" x1="0" x2="1664" y1="530.707" y2="530.707"/><line style="stroke:#000000;stroke-width:1.0;" x1="0" x2="1664" y1="533.707" y2="533.707"/><rect fill="#EEEEEE" height="24.3516" style="stroke:#000000;stroke-width:2.0;" width="145" x="759.5" y="519.5313"/><text fill="#000000" font-family="sans-serif" font-size="13" font-weight="bold" lengthAdjust="spacing" textLength="131" x="765.5" y="537.0264">Go to checkout page</text><polygon fill="#181818" points="300,572.2344,310,576.2344,300,580.2344,304,576.2344" style="stroke:#181818;stroke-width:1.0;"/><line style="stroke:#181818;stroke-width:1.0;" x1="41" x2="306" y1="576.2344" y2="576.2344"/><text fill="#000000" font-family="sans-serif" font-size="13" lengthAdjust="spacing" textLength="241" x="48" y="571.3779">Browse /storefront/checkout/{checkout-id}</text><polygon fill="#181818" points="982,602.5859,992,606.5859,982,610.5859,986,606.5859" style="stroke:#181818;stroke-width:1.0;"/><line style="stroke:#181818;stroke-width:1.0;" x1="322" x2="988" y1="606.5859" y2="606.5859"/><text fill="#000000" font-family="sans-serif" font-size="13" lengthAdjust="spacing" textLength="278" x="329" y="601.7295">GET /api/order/storefront/checkout/{checkout-id}</text><polygon fill="#181818" points="333,632.9375,323,636.9375,333,640.9375,329,636.9375" style="stroke:#181818;stroke-width:1.0;"/><line style="stroke:#181818;stroke-width:1.0;stroke-dasharray:2.0,2.0;" x1="327" x2="998" y1="636.9375" y2="636.9375"/><text fill="#000000" font-family="sans-serif" font-size="13" lengthAdjust="spacing" textLength="44" x="339" y="632.0811">200 OK</text><polygon fill="#181818" points="1102,663.2891,1112,667.2891,1102,671.2891,1106,667.2891" style="stroke:#181818;stroke-width:1.0;"/><line style="stroke:#181818;stroke-width:1.0;" x1="322" x2="1108" y1="667.2891" y2="667.2891"/><text fill="#000000" font-family="sans-serif" font-size="13" lengthAdjust="spacing" textLength="299" x="329" y="662.4326">GET /api/storefront/addresses?customerId={user-id}</text><polygon fill="#181818" points="333,693.6406,323,697.6406,333,701.6406,329,697.6406" style="stroke:#181818;stroke-width:1.0;"/><line style="stroke:#181818;stroke-width:1.0;stroke-dasharray:2.0,2.0;" x1="327" x2="1118" y1="697.6406" y2="697.6406"/><text fill="#000000" font-family="sans-serif" font-size="13" lengthAdjust="spacing" textLength="44" x="339" y="692.7842">200 OK</text><polygon fill="#181818" points="52,723.9922,42,727.9922,52,731.9922,48,727.9922" style="stroke:#181818;stroke-width:1.0;"/><line style="stroke:#181818;stroke-width:1.0;stroke-dasharray:2.0,2.0;" x1="46" x2="316" y1="727.9922" y2="727.9922"/><text fill="#000000" font-family="sans-serif" font-size="13" lengthAdjust="spacing" textLength="44" x="58" y="723.1357">200 OK</text><rect fill="#EEEEEE" height="3" style="stroke:#EEEEEE;stroke-width:1.0;" width="1664" x="0" y="757.168"/><line style="stroke:#000000;stroke-width:1.0;" x1="0" x2="1664" y1="757.168" y2="757.168"/><line style="stroke:#000000;stroke-width:1.0;" x1="0" x2="1664" y1="760.168" y2="760.168"/><rect fill="#EEEEEE" height="24.3516" style="stroke:#000000;stroke-width:2.0;" width="357" x="653.5" y="745.9922"/><text fill="#000000" font-family="sans-serif" font-size="13" font-weight="bold" lengthAdjust="spacing" textLength="343" x="659.5" y="763.4873">Add new address (optional) if user has default address</text><polygon fill="#181818" points="300,798.6953,310,802.6953,300,806.6953,304,802.6953" style="stroke:#181818;stroke-width:1.0;"/><line style="stroke:#181818;stroke-width:1.0;" x1="41" x2="306" y1="802.6953" y2="802.6953"/><text fill="#000000" font-family="sans-serif" font-size="13" lengthAdjust="spacing" textLength="143" x="48" y="797.8389">Click "Add new address"</text><polygon fill="#181818" points="1102,829.0469,1112,833.0469,1102,837.0469,1106,833.0469" style="stroke:#181818;stroke-width:1.0;"/><line style="stroke:#181818;stroke-width:1.0;" x1="322" x2="1108" y1="833.0469" y2="833.0469"/><text fill="#000000" font-family="sans-serif" font-size="13" lengthAdjust="spacing" textLength="255" x="329" y="828.1904">POST /api/customer/storefront/user-address</text><polygon fill="#181818" points="333,859.3984,323,863.3984,333,867.3984,329,863.3984" style="stroke:#181818;stroke-width:1.0;"/><line style="stroke:#181818;stroke-width:1.0;stroke-dasharray:2.0,2.0;" x1="327" x2="1118" y1="863.3984" y2="863.3984"/><text fill="#000000" font-family="sans-serif" font-size="13" lengthAdjust="spacing" textLength="86" x="339" y="858.542">201 CREATED</text><polygon fill="#181818" points="52,889.75,42,893.75,52,897.75,48,893.75" style="stroke:#181818;stroke-width:1.0;"/><line style="stroke:#181818;stroke-width:1.0;stroke-dasharray:2.0,2.0;" x1="46" x2="316" y1="893.75" y2="893.75"/><text fill="#000000" font-family="sans-serif" font-size="13" lengthAdjust="spacing" textLength="86" x="58" y="888.8936">201 CREATED</text><rect fill="#EEEEEE" height="3" style="stroke:#EEEEEE;stroke-width:1.0;" width="1664" x="0" y="922.9258"/><line style="stroke:#000000;stroke-width:1.0;" x1="0" x2="1664" y1="922.9258" y2="922.9258"/><line style="stroke:#000000;stroke-width:1.0;" x1="0" x2="1664" y1="925.9258" y2="925.9258"/><rect fill="#EEEEEE" height="24.3516" style="stroke:#000000;stroke-width:2.0;" width="94" x="785" y="911.75"/><text fill="#000000" font-family="sans-serif" font-size="13" font-weight="bold" lengthAdjust="spacing" textLength="80" x="791" y="929.2451">Create order</text><polygon fill="#181818" points="300,964.4531,310,968.4531,300,972.4531,304,968.4531" style="stroke:#181818;stroke-width:1.0;"/><line style="stroke:#181818;stroke-width:1.0;" x1="41" x2="306" y1="968.4531" y2="968.4531"/><text fill="#000000" font-family="sans-serif" font-size="13" lengthAdjust="spacing" textLength="160" x="48" y="963.5967">Click "Proceed to payment"</text><polygon fill="#181818" points="982,1046.8594,992,1050.8594,982,1054.8594,986,1050.8594" style="stroke:#181818;stroke-width:1.0;"/><line style="stroke:#181818;stroke-width:1.0;" x1="322" x2="988" y1="1050.8594" y2="1050.8594"/><text fill="#000000" font-family="sans-serif" font-size="13" lengthAdjust="spacing" textLength="191" x="329" y="1046.0029">POST /api/order/storefront/orders</text><path d="M1009,981.4531 L1009,1105.4531 L1380,1105.4531 L1380,991.4531 L1370,981.4531 L1009,981.4531 " fill="#FEFFDD" style="stroke:#181818;stroke-width:0.5;"/><path d="M1370,981.4531 L1370,991.4531 L1380,991.4531 L1370,981.4531 " fill="#FEFFDD" style="stroke:#181818;stroke-width:0.5;"/><text fill="#000000" font-family="sans-serif" font-size="13" lengthAdjust="spacing" textLength="215" x="1015" y="999.9482">Body = {checkoutId, email, note, tax,</text><text fill="#000000" font-family="sans-serif" font-size="13" lengthAdjust="spacing" textLength="291" x="1015" y="1016.2998">discount, number of items, total price, delivery fee,</text><text fill="#000000" font-family="sans-serif" font-size="13" lengthAdjust="spacing" textLength="350" x="1015" y="1032.6514">coupon code, delivery method, payment status="PENDING",</text><text fill="#000000" font-family="sans-serif" font-size="13" lengthAdjust="spacing" textLength="301" x="1015" y="1049.0029">order items: [{id, product id, product name, quantity,</text><text fill="#000000" font-family="sans-serif" font-size="13" lengthAdjust="spacing" textLength="347" x="1015" y="1065.3545">product price, note?, discount?, taxAmount?, taxPercent?}]}</text><text fill="#000000" font-family="sans-serif" font-size="13" lengthAdjust="spacing" textLength="4" x="1015" y="1081.7061">&#160;</text><text fill="#000000" font-family="sans-serif" font-size="13" lengthAdjust="spacing" textLength="125" x="1015" y="1098.0576">Header: Authorization</text><polygon fill="#181818" points="719,1129.2656,709,1133.2656,719,1137.2656,715,1133.2656" style="stroke:#181818;stroke-width:1.0;"/><line style="stroke:#181818;stroke-width:1.0;" x1="713" x2="993" y1="1133.2656" y2="1133.2656"/><text fill="#000000" font-family="sans-serif" font-size="13" lengthAdjust="spacing" textLength="267" x="725" y="1128.4092">PUT /api/backoffice/products/subtract-quantity</text><polygon fill="#181818" points="982,1159.6172,992,1163.6172,982,1167.6172,986,1163.6172" style="stroke:#181818;stroke-width:1.0;"/><line style="stroke:#181818;stroke-width:1.0;stroke-dasharray:2.0,2.0;" x1="703" x2="988" y1="1163.6172" y2="1163.6172"/><text fill="#000000" font-family="sans-serif" font-size="13" lengthAdjust="spacing" textLength="108" x="710" y="1158.7607">204 NO CONTENT</text><polygon fill="#181818" points="610,1189.9688,600,1193.9688,610,1197.9688,606,1193.9688" style="stroke:#181818;stroke-width:1.0;"/><line style="stroke:#181818;stroke-width:1.0;" x1="604" x2="993" y1="1193.9688" y2="1193.9688"/><text fill="#000000" font-family="sans-serif" font-size="13" lengthAdjust="spacing" textLength="302" x="616" y="1189.1123">DELETE /api/storefront/carts/multi-item?productIds=</text><polygon fill="#181818" points="982,1220.3203,992,1224.3203,982,1228.3203,986,1224.3203" style="stroke:#181818;stroke-width:1.0;"/><line style="stroke:#181818;stroke-width:1.0;stroke-dasharray:2.0,2.0;" x1="594" x2="988" y1="1224.3203" y2="1224.3203"/><text fill="#000000" font-family="sans-serif" font-size="13" lengthAdjust="spacing" textLength="108" x="601" y="1219.4639">204 NO CONTENT</text><polygon fill="#181818" points="333,1250.6719,323,1254.6719,333,1258.6719,329,1254.6719" style="stroke:#181818;stroke-width:1.0;"/><line style="stroke:#181818;stroke-width:1.0;stroke-dasharray:2.0,2.0;" x1="327" x2="998" y1="1254.6719" y2="1254.6719"/><text fill="#000000" font-family="sans-serif" font-size="13" lengthAdjust="spacing" textLength="86" x="339" y="1249.8154">201 CREATED</text><polygon fill="#181818" points="52,1281.0234,42,1285.0234,52,1289.0234,48,1285.0234" style="stroke:#181818;stroke-width:1.0;"/><line style="stroke:#181818;stroke-width:1.0;stroke-dasharray:2.0,2.0;" x1="46" x2="311" y1="1285.0234" y2="1285.0234"/><text fill="#000000" font-family="sans-serif" font-size="13" lengthAdjust="spacing" textLength="86" x="58" y="1280.167">201 CREATED</text><path d="M10,1300.0234 L71,1300.0234 L71,1308.375 L61,1318.375 L10,1318.375 L10,1300.0234 " fill="#EEEEEE" style="stroke:#000000;stroke-width:1.5;"/><rect fill="none" height="701.9219" style="stroke:#000000;stroke-width:1.5;" width="1644" x="10" y="1300.0234"/><text fill="#000000" font-family="sans-serif" font-size="13" font-weight="bold" lengthAdjust="spacing" textLength="16" x="25" y="1314.5186">alt</text><text fill="#000000" font-family="sans-serif" font-size="11" font-weight="bold" lengthAdjust="spacing" textLength="72" x="86" y="1313.4424">[Paypal case]</text><polygon fill="#181818" points="1446,1336.7266,1456,1340.7266,1446,1344.7266,1450,1340.7266" style="stroke:#181818;stroke-width:1.0;"/><line style="stroke:#181818;stroke-width:1.0;" x1="322" x2="1452" y1="1340.7266" y2="1340.7266"/><text fill="#000000" font-family="sans-serif" font-size="13" lengthAdjust="spacing" textLength="177" x="329" y="1335.8701">POST /api/payment-paypal/init</text><polygon fill="#181818" points="1588,1367.0781,1598,1371.0781,1588,1375.0781,1592,1371.0781" style="stroke:#181818;stroke-width:1.0;"/><line style="stroke:#181818;stroke-width:1.0;" x1="1468" x2="1594" y1="1371.0781" y2="1371.0781"/><text fill="#000000" font-family="sans-serif" font-size="13" lengthAdjust="spacing" textLength="79" x="1475" y="1366.2217">POST /orders</text><polygon fill="#181818" points="1479,1397.4297,1469,1401.4297,1479,1405.4297,1475,1401.4297" style="stroke:#181818;stroke-width:1.0;"/><line style="stroke:#181818;stroke-width:1.0;stroke-dasharray:2.0,2.0;" x1="1473" x2="1604" y1="1401.4297" y2="1401.4297"/><text fill="#000000" font-family="sans-serif" font-size="13" lengthAdjust="spacing" textLength="73" x="1485" y="1396.5732">Redirect API</text><polygon fill="#181818" points="333,1427.7813,323,1431.7813,333,1435.7813,329,1431.7813" style="stroke:#181818;stroke-width:1.0;"/><line style="stroke:#181818;stroke-width:1.0;stroke-dasharray:2.0,2.0;" x1="327" x2="1462" y1="1431.7813" y2="1431.7813"/><text fill="#000000" font-family="sans-serif" font-size="13" lengthAdjust="spacing" textLength="73" x="339" y="1426.9248">Redirect API</text><polygon fill="#181818" points="52,1458.1328,42,1462.1328,52,1466.1328,48,1462.1328" style="stroke:#181818;stroke-width:1.0;"/><line style="stroke:#181818;stroke-width:1.0;stroke-dasharray:2.0,2.0;" x1="46" x2="316" y1="1462.1328" y2="1462.1328"/><text fill="#000000" font-family="sans-serif" font-size="13" lengthAdjust="spacing" textLength="163" x="58" y="1457.2764">Redirect to PayPal payment</text><polygon fill="#181818" points="1588,1488.4844,1598,1492.4844,1588,1496.4844,1592,1492.4844" style="stroke:#181818;stroke-width:1.0;"/><line style="stroke:#181818;stroke-width:1.0;" x1="41" x2="1594" y1="1492.4844" y2="1492.4844"/><text fill="#000000" font-family="sans-serif" font-size="13" lengthAdjust="spacing" textLength="112" x="48" y="1487.6279">GET payment page</text><polygon fill="#181818" points="52,1518.8359,42,1522.8359,52,1526.8359,48,1522.8359" style="stroke:#181818;stroke-width:1.0;"/><line style="stroke:#181818;stroke-width:1.0;stroke-dasharray:2.0,2.0;" x1="46" x2="1599" y1="1522.8359" y2="1522.8359"/><text fill="#000000" font-family="sans-serif" font-size="13" lengthAdjust="spacing" textLength="44" x="58" y="1517.9795">200 OK</text><polygon fill="#181818" points="1588,1549.1875,1598,1553.1875,1588,1557.1875,1592,1553.1875" style="stroke:#181818;stroke-width:1.0;"/><line style="stroke:#181818;stroke-width:1.0;" x1="41" x2="1594" y1="1553.1875" y2="1553.1875"/><text fill="#000000" font-family="sans-serif" font-size="13" lengthAdjust="spacing" textLength="89" x="48" y="1548.3311">POST payment</text><polygon fill="#181818" points="52,1579.5391,42,1583.5391,52,1587.5391,48,1583.5391" style="stroke:#181818;stroke-width:1.0;"/><line style="stroke:#181818;stroke-width:1.0;stroke-dasharray:2.0,2.0;" x1="46" x2="1604" y1="1583.5391" y2="1583.5391"/><text fill="#000000" font-family="sans-serif" font-size="13" lengthAdjust="spacing" textLength="210" x="58" y="1578.6826">Redirect /complete-payment/capture</text><polygon fill="#181818" points="300,1609.8906,310,1613.8906,300,1617.8906,304,1613.8906" style="stroke:#181818;stroke-width:1.0;"/><line style="stroke:#181818;stroke-width:1.0;" x1="41" x2="306" y1="1613.8906" y2="1613.8906"/><text fill="#000000" font-family="sans-serif" font-size="13" lengthAdjust="spacing" textLength="188" x="48" y="1609.0342">GET /complete-payment/capture</text><polygon fill="#181818" points="1446,1640.2422,1456,1644.2422,1446,1648.2422,1450,1644.2422" style="stroke:#181818;stroke-width:1.0;"/><line style="stroke:#181818;stroke-width:1.0;" x1="322" x2="1452" y1="1644.2422" y2="1644.2422"/><text fill="#000000" font-family="sans-serif" font-size="13" lengthAdjust="spacing" textLength="203" x="329" y="1639.3857">POST /api/payment-paypal/capture</text><polygon fill="#181818" points="1588,1670.5938,1598,1674.5938,1588,1678.5938,1592,1674.5938" style="stroke:#181818;stroke-width:1.0;"/><line style="stroke:#181818;stroke-width:1.0;" x1="1468" x2="1594" y1="1674.5938" y2="1674.5938"/><text fill="#000000" font-family="sans-serif" font-size="13" lengthAdjust="spacing" textLength="113" x="1475" y="1669.7373">GET order captures</text><polygon fill="#181818" points="1479,1700.9453,1469,1704.9453,1479,1708.9453,1475,1704.9453" style="stroke:#181818;stroke-width:1.0;"/><line style="stroke:#181818;stroke-width:1.0;stroke-dasharray:2.0,2.0;" x1="1473" x2="1604" y1="1704.9453" y2="1704.9453"/><text fill="#000000" font-family="sans-serif" font-size="13" lengthAdjust="spacing" textLength="44" x="1485" y="1700.0889">200 OK</text><polygon fill="#181818" points="1289,1731.2969,1279,1735.2969,1289,1739.2969,1285,1735.2969" style="stroke:#181818;stroke-width:1.0;"/><line style="stroke:#181818;stroke-width:1.0;" x1="1283" x2="1457" y1="1735.2969" y2="1735.2969"/><text fill="#000000" font-family="sans-serif" font-size="13" lengthAdjust="spacing" textLength="161" x="1295" y="1730.4404">POST /api/payment/capture</text><polygon fill="#181818" points="1015,1761.6484,1005,1765.6484,1015,1769.6484,1011,1765.6484" style="stroke:#181818;stroke-width:1.0;"/><line style="stroke:#181818;stroke-width:1.0;" x1="1009" x2="1267" y1="1765.6484" y2="1765.6484"/><text fill="#000000" font-family="sans-serif" font-size="13" lengthAdjust="spacing" textLength="245" x="1021" y="1760.792">PUT /api/order/storefront/checkouts/status</text><polygon fill="#181818" points="1256,1792,1266,1796,1256,1800,1260,1796" style="stroke:#181818;stroke-width:1.0;"/><line style="stroke:#181818;stroke-width:1.0;stroke-dasharray:2.0,2.0;" x1="999" x2="1262" y1="1796" y2="1796"/><text fill="#000000" font-family="sans-serif" font-size="13" lengthAdjust="spacing" textLength="44" x="1006" y="1791.1436">200 OK</text><polygon fill="#181818" points="1015,1822.3516,1005,1826.3516,1015,1830.3516,1011,1826.3516" style="stroke:#181818;stroke-width:1.0;"/><line style="stroke:#181818;stroke-width:1.0;" x1="1009" x2="1267" y1="1826.3516" y2="1826.3516"/><text fill="#000000" font-family="sans-serif" font-size="13" lengthAdjust="spacing" textLength="221" x="1021" y="1821.4951">PUT /api/order/storefront/orders/status</text><polygon fill="#181818" points="1256,1852.7031,1266,1856.7031,1256,1860.7031,1260,1856.7031" style="stroke:#181818;stroke-width:1.0;"/><line style="stroke:#181818;stroke-width:1.0;stroke-dasharray:2.0,2.0;" x1="999" x2="1262" y1="1856.7031" y2="1856.7031"/><text fill="#000000" font-family="sans-serif" font-size="13" lengthAdjust="spacing" textLength="44" x="1006" y="1851.8467">200 OK</text><polygon fill="#181818" points="1446,1883.0547,1456,1887.0547,1446,1891.0547,1450,1887.0547" style="stroke:#181818;stroke-width:1.0;"/><line style="stroke:#181818;stroke-width:1.0;stroke-dasharray:2.0,2.0;" x1="1273" x2="1452" y1="1887.0547" y2="1887.0547"/><text fill="#000000" font-family="sans-serif" font-size="13" lengthAdjust="spacing" textLength="86" x="1280" y="1882.1982">201 CREATED</text><polygon fill="#181818" points="333,1913.4063,323,1917.4063,333,1921.4063,329,1917.4063" style="stroke:#181818;stroke-width:1.0;"/><line style="stroke:#181818;stroke-width:1.0;stroke-dasharray:2.0,2.0;" x1="327" x2="1462" y1="1917.4063" y2="1917.4063"/><text fill="#000000" font-family="sans-serif" font-size="13" lengthAdjust="spacing" textLength="86" x="339" y="1912.5498">201 CREATED</text><polygon fill="#181818" points="52,1943.7578,42,1947.7578,52,1951.7578,48,1947.7578" style="stroke:#181818;stroke-width:1.0;"/><line style="stroke:#181818;stroke-width:1.0;stroke-dasharray:2.0,2.0;" x1="46" x2="311" y1="1947.7578" y2="1947.7578"/><text fill="#000000" font-family="sans-serif" font-size="13" lengthAdjust="spacing" textLength="44" x="58" y="1942.9014">200 OK</text><line style="stroke:#000000;stroke-width:1.0;stroke-dasharray:2.0,2.0;" x1="10" x2="1654" y1="1956.7578" y2="1956.7578"/><text fill="#000000" font-family="sans-serif" font-size="11" font-weight="bold" lengthAdjust="spacing" textLength="60" x="15" y="1968.1768">[COD case]</text><polygon fill="#181818" points="52,1989.9453,42,1993.9453,52,1997.9453,48,1993.9453" style="stroke:#181818;stroke-width:1.0;"/><line style="stroke:#181818;stroke-width:1.0;" x1="46" x2="311" y1="1993.9453" y2="1993.9453"/><text fill="#000000" font-family="sans-serif" font-size="13" lengthAdjust="spacing" textLength="98" x="58" y="1989.0889">Not implemented</text><!--SRC=[jLPRRzis57xNhpZmNZh0Wh9Y60O3Yk7QRkPji8t4VHYAFZ0ItH2LJ4saqcH1_liERn8botAoTdbmAF9SltFEHv94yXBc6QC76Tpo1nZzDRiPmG-BNvQpzxz2K91IieGLv23X1aNflkIu90BMz47-Bbe2SrpVqFAU9LH99FZPEj-MFAqINwGmEosfJPdIqfFXwhljfnAIvosXn6wr_P777FFo_PcThjIMPBvGGRA07b90FBgIU3JRhemKBe8ulk8WkSuLhN-cSHmOD26yj1XDu5t9lmeAaQWHZ9I224WYsJsHrA5f_YbLTJw1g-KE8b8mBNwa7Zsvj4EMFZV6DF0wej0Bukt51Mp-25BQbdCkKT84tYTfmulZUKcrvXrDll1AzcQBEyaN666r4qfJZOuI1vGV3MIiwpo1xUR6vgmtMabRho8uSBHGiiztCdZ7qyVuYUQ4PMDG-sD8U5NmmpYmtIKc7vzOYeSanyE_AombauzZR3ui-FEdvo3uZHBjUrR9ErwoVuXa_A1RG1biOZQjg7yxqFu4y-lbRBTS-AWPyLw06_cUuslCaIhS-fB7ejkLBdfVaMnBMh7NjMM_bxDLgnlrPD5EMJoDQRS9st1UrZFlUVVyaZGjgH1KJ9tSAesVAd4qB8uvtEBSq3ZvrmtEBCLceb_1XWLlUA6QZ6G_0jk32Wlka5LIkYTL9ftOq7nrB0wDLeDKCrrkpyTCesFjlHoXtjuVXgbNfKiokjulP1XBx2Fu9eBH6qVi0Z7KlRj27cbnZIGFOmXI9f1q3X9tg_mM4U9xO9Bc0WMu99dXcZ6MDsFtj7o4FSMlm10LybNgd-KKMGZzs9n0I28h4O-so_LYjRuQZUsqQ0SJCEHckGxyTOVm71-wO5G2K_HhOv_gP6PvizxICi40fl-T8ozTB0Zx1ulwBK4aztiC8N847OdgLfPe8dJ1DlRg9u8DFcmg-VRYPrXlOBvPxvRhdTzAJgaEmrodY-MVoztoY2hCPPhZtB5GWJgrwgjKnATkrRCXQF7lUrMGpBr1qBgW0U1VqzxgsU9tjssViD0Q4JimgJKQaDGxH-seXR60Jnfdmiv2HqEzUOoAUWQ5jTjhchAIOdcSW5yCJqivyj0OLhFXzTsGJWz7txpVwgTTnufb0RNRy8XDL5qRRiZK9Na-sGxHzrhLyFdH7AlNuKS9pukCIXfQ1Up5GbObFOtXCHlgss_GK1yQBswSNaEdUaV5OfhUghsuWpn81thdqY7R4_29IFrAs69xby67iu_DoF1lswgPLxNLZ7WTMNygZSfhmZ1Z-3_6u1MWOPfk5LhTt9dX8Rs14RO1qWnVeFFDee_HdEYQuxscsbi5GLDrwGoC-V6Juby0]--></g></svg>