<?xml version="1.0" encoding="us-ascii" standalone="no"?><svg xmlns="http://www.w3.org/2000/svg" xmlns:xlink="http://www.w3.org/1999/xlink" contentStyleType="text/css" height="2105px" preserveAspectRatio="none" style="width:1890px;height:2105px;background:#FFFFFF;" version="1.1" viewBox="0 0 1890 2105" width="1890px" zoomAndPan="magnify"><defs/><g><rect fill="#D6EAF8" height="2093.5547" style="stroke:#181818;stroke-width:0.5;" width="1391" x="296.5" y="6"/><text fill="#000000" font-family="sans-serif" font-size="13" font-weight="bold" lengthAdjust="spacing" textLength="26" x="979" y="19.4951">YAS</text><rect fill="#FFFFFF" height="91.0547" style="stroke:#181818;stroke-width:1.0;" width="10" x="334" y="159.3125"/><rect fill="#FFFFFF" height="176.4609" style="stroke:#181818;stroke-width:1.0;" width="10" x="334" y="325.0703"/><rect fill="#FFFFFF" height="151.7578" style="stroke:#181818;stroke-width:1.0;" width="10" x="334" y="576.2344"/><rect fill="#FFFFFF" height="91.0547" style="stroke:#181818;stroke-width:1.0;" width="10" x="334" y="802.6953"/><rect fill="#FFFFFF" height="493.6797" style="stroke:#181818;stroke-width:1.0;" width="10" x="334" y="968.4531"/><rect fill="#FFFFFF" height="395.0547" style="stroke:#181818;stroke-width:1.0;" width="10" x="334" y="1613.8906"/><rect fill="#FFFFFF" height="30.3516" style="stroke:#181818;stroke-width:1.0;" width="10" x="633" y="189.6641"/><rect fill="#FFFFFF" height="30.3516" style="stroke:#181818;stroke-width:1.0;" width="10" x="633" y="1193.9688"/><rect fill="#FFFFFF" height="30.3516" style="stroke:#181818;stroke-width:1.0;" width="10" x="742" y="1133.2656"/><rect fill="#FFFFFF" height="57.8789" style="stroke:#181818;stroke-width:1.0;" width="10" x="1060" y="382.9492"/><rect fill="#FFFFFF" height="30.3516" style="stroke:#181818;stroke-width:1.0;" width="10" x="1060" y="606.5859"/><rect fill="#FFFFFF" height="203.8125" style="stroke:#181818;stroke-width:1.0;" width="10" x="1060" y="1050.8594"/><rect fill="#FFFFFF" height="30.3516" style="stroke:#181818;stroke-width:1.0;" width="10" x="1060" y="1765.6484"/><rect fill="#FFFFFF" height="30.3516" style="stroke:#181818;stroke-width:1.0;" width="10" x="1060" y="1826.3516"/><rect fill="#FFFFFF" height="30.3516" style="stroke:#181818;stroke-width:1.0;" width="10" x="1180" y="667.2891"/><rect fill="#FFFFFF" height="30.3516" style="stroke:#181818;stroke-width:1.0;" width="10" x="1180" y="833.0469"/><rect fill="#FFFFFF" height="151.7578" style="stroke:#181818;stroke-width:1.0;" width="10" x="1385" y="1735.2969"/><rect fill="#FFFFFF" height="91.0547" style="stroke:#181818;stroke-width:1.0;" width="10" x="1626" y="1340.7266"/><rect fill="#FFFFFF" height="273.1641" style="stroke:#181818;stroke-width:1.0;" width="10" x="1626" y="1644.2422"/><rect fill="#FFFFFF" height="30.3516" style="stroke:#181818;stroke-width:1.0;" width="10" x="1819" y="1371.0781"/><rect fill="#FFFFFF" height="91.0547" style="stroke:#181818;stroke-width:1.0;" width="10" x="1819" y="1492.4844"/><rect fill="#FFFFFF" height="30.3516" style="stroke:#181818;stroke-width:1.0;" width="10" x="1819" y="1674.5938"/><rect fill="none" height="701.9219" style="stroke:#000000;stroke-width:1.5;" width="1863" x="10" y="1300.0234"/><line style="stroke:#181818;stroke-width:0.5;stroke-dasharray:5.0,5.0;" x1="41" x2="41" y1="82.6094" y2="2018.9453"/><line style="stroke:#181818;stroke-width:0.5;stroke-dasharray:5.0,5.0;" x1="338.5" x2="338.5" y1="82.6094" y2="2018.9453"/><line style="stroke:#181818;stroke-width:0.5;stroke-dasharray:5.0,5.0;" x1="638" x2="638" y1="82.6094" y2="2018.9453"/><line style="stroke:#181818;stroke-width:0.5;stroke-dasharray:5.0,5.0;" x1="747" x2="747" y1="82.6094" y2="2018.9453"/><line style="stroke:#181818;stroke-width:0.5;stroke-dasharray:5.0,5.0;" x1="1065" x2="1065" y1="82.6094" y2="2018.9453"/><line style="stroke:#181818;stroke-width:0.5;stroke-dasharray:5.0,5.0;" x1="1185" x2="1185" y1="82.6094" y2="2018.9453"/><line style="stroke:#181818;stroke-width:0.5;stroke-dasharray:5.0,5.0;" x1="1390" x2="1390" y1="82.6094" y2="2018.9453"/><line style="stroke:#181818;stroke-width:0.5;stroke-dasharray:5.0,5.0;" x1="1630.5" x2="1630.5" y1="82.6094" y2="2018.9453"/><line style="stroke:#181818;stroke-width:0.5;stroke-dasharray:5.0,5.0;" x1="1824" x2="1824" y1="82.6094" y2="2018.9453"/><text fill="#000000" font-family="sans-serif" font-size="14" lengthAdjust="spacing" textLength="36" x="20" y="79.5332">Client</text><ellipse cx="41" cy="13.5" fill="#E2E2F0" rx="8" ry="8" style="stroke:#181818;stroke-width:0.5;"/><path d="M41,21.5 L41,48.5 M28,29.5 L54,29.5 M41,48.5 L28,63.5 M41,48.5 L54,63.5 " fill="none" style="stroke:#181818;stroke-width:0.5;"/><text fill="#000000" font-family="sans-serif" font-size="14" lengthAdjust="spacing" textLength="36" x="20" y="2032.4785">Client</text><ellipse cx="41" cy="2044.0547" fill="#E2E2F0" rx="8" ry="8" style="stroke:#181818;stroke-width:0.5;"/><path d="M41,2052.0547 L41,2079.0547 M28,2060.0547 L54,2060.0547 M41,2079.0547 L28,2094.0547 M41,2079.0547 L54,2094.0547 " fill="none" style="stroke:#181818;stroke-width:0.5;"/><rect fill="#E2E2F0" height="31.6094" rx="2.5" ry="2.5" style="stroke:#181818;stroke-width:0.5;" width="77" x="300.5" y="50"/><text fill="#000000" font-family="sans-serif" font-size="14" lengthAdjust="spacing" textLength="63" x="307.5" y="71.5332">Storefront</text><rect fill="#E2E2F0" height="31.6094" rx="2.5" ry="2.5" style="stroke:#181818;stroke-width:0.5;" width="77" x="300.5" y="2017.9453"/><text fill="#000000" font-family="sans-serif" font-size="14" lengthAdjust="spacing" textLength="63" x="307.5" y="2039.4785">Storefront</text><rect fill="#E2E2F0" height="31.6094" rx="2.5" ry="2.5" style="stroke:#181818;stroke-width:0.5;" width="88" x="594" y="50"/><text fill="#000000" font-family="sans-serif" font-size="14" lengthAdjust="spacing" textLength="74" x="601" y="71.5332">CartService</text><rect fill="#E2E2F0" height="31.6094" rx="2.5" ry="2.5" style="stroke:#181818;stroke-width:0.5;" width="88" x="594" y="2017.9453"/><text fill="#000000" font-family="sans-serif" font-size="14" lengthAdjust="spacing" textLength="74" x="601" y="2039.4785">CartService</text><rect fill="#E2E2F0" height="31.6094" rx="2.5" ry="2.5" style="stroke:#181818;stroke-width:0.5;" width="110" x="692" y="50"/><text fill="#000000" font-family="sans-serif" font-size="14" lengthAdjust="spacing" textLength="96" x="699" y="71.5332">ProductService</text><rect fill="#E2E2F0" height="31.6094" rx="2.5" ry="2.5" style="stroke:#181818;stroke-width:0.5;" width="110" x="692" y="2017.9453"/><text fill="#000000" font-family="sans-serif" font-size="14" lengthAdjust="spacing" textLength="96" x="699" y="2039.4785">ProductService</text><rect fill="#E2E2F0" height="31.6094" rx="2.5" ry="2.5" style="stroke:#181818;stroke-width:0.5;" width="98" x="1016" y="50"/><text fill="#000000" font-family="sans-serif" font-size="14" lengthAdjust="spacing" textLength="84" x="1023" y="71.5332">OrderService</text><rect fill="#E2E2F0" height="31.6094" rx="2.5" ry="2.5" style="stroke:#181818;stroke-width:0.5;" width="98" x="1016" y="2017.9453"/><text fill="#000000" font-family="sans-serif" font-size="14" lengthAdjust="spacing" textLength="84" x="1023" y="2039.4785">OrderService</text><rect fill="#E2E2F0" height="31.6094" rx="2.5" ry="2.5" style="stroke:#181818;stroke-width:0.5;" width="122" x="1124" y="50"/><text fill="#000000" font-family="sans-serif" font-size="14" lengthAdjust="spacing" textLength="108" x="1131" y="71.5332">CustomerService</text><rect fill="#E2E2F0" height="31.6094" rx="2.5" ry="2.5" style="stroke:#181818;stroke-width:0.5;" width="122" x="1124" y="2017.9453"/><text fill="#000000" font-family="sans-serif" font-size="14" lengthAdjust="spacing" textLength="108" x="1131" y="2039.4785">CustomerService</text><rect fill="#E2E2F0" height="31.6094" rx="2.5" ry="2.5" style="stroke:#181818;stroke-width:0.5;" width="116" x="1332" y="50"/><text fill="#000000" font-family="sans-serif" font-size="14" lengthAdjust="spacing" textLength="102" x="1339" y="71.5332">PaymentService</text><rect fill="#E2E2F0" height="31.6094" rx="2.5" ry="2.5" style="stroke:#181818;stroke-width:0.5;" width="116" x="1332" y="2017.9453"/><text fill="#000000" font-family="sans-serif" font-size="14" lengthAdjust="spacing" textLength="102" x="1339" y="2039.4785">PaymentService</text><rect fill="#E2E2F0" height="31.6094" rx="2.5" ry="2.5" style="stroke:#181818;stroke-width:0.5;" width="105" x="1578.5" y="50"/><text fill="#000000" font-family="sans-serif" font-size="14" lengthAdjust="spacing" textLength="91" x="1585.5" y="71.5332">PayPalService</text><rect fill="#E2E2F0" height="31.6094" rx="2.5" ry="2.5" style="stroke:#181818;stroke-width:0.5;" width="105" x="1578.5" y="2017.9453"/><text fill="#000000" font-family="sans-serif" font-size="14" lengthAdjust="spacing" textLength="91" x="1585.5" y="2039.4785">PayPalService</text><rect fill="#E2E2F0" height="31.6094" rx="2.5" ry="2.5" style="stroke:#181818;stroke-width:0.5;" width="78" x="1785" y="50"/><text fill="#000000" font-family="sans-serif" font-size="14" lengthAdjust="spacing" textLength="64" x="1792" y="71.5332">PaypalAPI</text><rect fill="#E2E2F0" height="31.6094" rx="2.5" ry="2.5" style="stroke:#181818;stroke-width:0.5;" width="78" x="1785" y="2017.9453"/><text fill="#000000" font-family="sans-serif" font-size="14" lengthAdjust="spacing" textLength="64" x="1792" y="2039.4785">PaypalAPI</text><rect fill="#FFFFFF" height="91.0547" style="stroke:#181818;stroke-width:1.0;" width="10" x="334" y="159.3125"/><rect fill="#FFFFFF" height="176.4609" style="stroke:#181818;stroke-width:1.0;" width="10" x="334" y="325.0703"/><rect fill="#FFFFFF" height="151.7578" style="stroke:#181818;stroke-width:1.0;" width="10" x="334" y="576.2344"/><rect fill="#FFFFFF" height="91.0547" style="stroke:#181818;stroke-width:1.0;" width="10" x="334" y="802.6953"/><rect fill="#FFFFFF" height="493.6797" style="stroke:#181818;stroke-width:1.0;" width="10" x="334" y="968.4531"/><rect fill="#FFFFFF" height="395.0547" style="stroke:#181818;stroke-width:1.0;" width="10" x="334" y="1613.8906"/><rect fill="#FFFFFF" height="30.3516" style="stroke:#181818;stroke-width:1.0;" width="10" x="633" y="189.6641"/><rect fill="#FFFFFF" height="30.3516" style="stroke:#181818;stroke-width:1.0;" width="10" x="633" y="1193.9688"/><rect fill="#FFFFFF" height="30.3516" style="stroke:#181818;stroke-width:1.0;" width="10" x="742" y="1133.2656"/><rect fill="#FFFFFF" height="57.8789" style="stroke:#181818;stroke-width:1.0;" width="10" x="1060" y="382.9492"/><rect fill="#FFFFFF" height="30.3516" style="stroke:#181818;stroke-width:1.0;" width="10" x="1060" y="606.5859"/><rect fill="#FFFFFF" height="203.8125" style="stroke:#181818;stroke-width:1.0;" width="10" x="1060" y="1050.8594"/><rect fill="#FFFFFF" height="30.3516" style="stroke:#181818;stroke-width:1.0;" width="10" x="1060" y="1765.6484"/><rect fill="#FFFFFF" height="30.3516" style="stroke:#181818;stroke-width:1.0;" width="10" x="1060" y="1826.3516"/><rect fill="#FFFFFF" height="30.3516" style="stroke:#181818;stroke-width:1.0;" width="10" x="1180" y="667.2891"/><rect fill="#FFFFFF" height="30.3516" style="stroke:#181818;stroke-width:1.0;" width="10" x="1180" y="833.0469"/><rect fill="#FFFFFF" height="151.7578" style="stroke:#181818;stroke-width:1.0;" width="10" x="1385" y="1735.2969"/><rect fill="#FFFFFF" height="91.0547" style="stroke:#181818;stroke-width:1.0;" width="10" x="1626" y="1340.7266"/><rect fill="#FFFFFF" height="273.1641" style="stroke:#181818;stroke-width:1.0;" width="10" x="1626" y="1644.2422"/><rect fill="#FFFFFF" height="30.3516" style="stroke:#181818;stroke-width:1.0;" width="10" x="1819" y="1371.0781"/><rect fill="#FFFFFF" height="91.0547" style="stroke:#181818;stroke-width:1.0;" width="10" x="1819" y="1492.4844"/><rect fill="#FFFFFF" height="30.3516" style="stroke:#181818;stroke-width:1.0;" width="10" x="1819" y="1674.5938"/><rect fill="#EEEEEE" height="3" style="stroke:#EEEEEE;stroke-width:1.0;" width="1883" x="0" y="113.7852"/><line style="stroke:#000000;stroke-width:1.0;" x1="0" x2="1883" y1="113.7852" y2="113.7852"/><line style="stroke:#000000;stroke-width:1.0;" x1="0" x2="1883" y1="116.7852" y2="116.7852"/><rect fill="#EEEEEE" height="24.3516" style="stroke:#000000;stroke-width:2.0;" width="112" x="885.5" y="102.6094"/><text fill="#000000" font-family="sans-serif" font-size="13" font-weight="bold" lengthAdjust="spacing" textLength="98" x="891.5" y="120.1045">Go to cart page</text><polygon fill="#181818" points="322,155.3125,332,159.3125,322,163.3125,326,159.3125" style="stroke:#181818;stroke-width:1.0;"/><line style="stroke:#181818;stroke-width:1.0;" x1="41" x2="328" y1="159.3125" y2="159.3125"/><text fill="#000000" font-family="sans-serif" font-size="13" font-weight="bold" lengthAdjust="spacing" textLength="18" x="48" y="154.4561">1.1</text><text fill="#000000" font-family="sans-serif" font-size="13" lengthAdjust="spacing" textLength="138" x="70" y="154.4561">Browse /storefront/carts</text><polygon fill="#181818" points="621,185.6641,631,189.6641,621,193.6641,625,189.6641" style="stroke:#181818;stroke-width:1.0;"/><line style="stroke:#181818;stroke-width:1.0;" x1="344" x2="627" y1="189.6641" y2="189.6641"/><text fill="#000000" font-family="sans-serif" font-size="13" font-weight="bold" lengthAdjust="spacing" textLength="18" x="351" y="184.8076">1.2</text><text fill="#000000" font-family="sans-serif" font-size="13" lengthAdjust="spacing" textLength="248" x="373" y="184.8076">GET /api/cart/storefront/carts/{customer-id}</text><polygon fill="#181818" points="355,216.0156,345,220.0156,355,224.0156,351,220.0156" style="stroke:#181818;stroke-width:1.0;"/><line style="stroke:#181818;stroke-width:1.0;stroke-dasharray:2.0,2.0;" x1="349" x2="637" y1="220.0156" y2="220.0156"/><text fill="#000000" font-family="sans-serif" font-size="13" font-weight="bold" lengthAdjust="spacing" textLength="18" x="361" y="215.1592">1.3</text><text fill="#000000" font-family="sans-serif" font-size="13" lengthAdjust="spacing" textLength="44" x="383" y="215.1592">200 OK</text><polygon fill="#181818" points="52,246.3672,42,250.3672,52,254.3672,48,250.3672" style="stroke:#181818;stroke-width:1.0;"/><line style="stroke:#181818;stroke-width:1.0;stroke-dasharray:2.0,2.0;" x1="46" x2="338" y1="250.3672" y2="250.3672"/><text fill="#000000" font-family="sans-serif" font-size="13" font-weight="bold" lengthAdjust="spacing" textLength="18" x="58" y="245.5107">1.4</text><text fill="#000000" font-family="sans-serif" font-size="13" lengthAdjust="spacing" textLength="44" x="80" y="245.5107">200 OK</text><rect fill="#EEEEEE" height="3" style="stroke:#EEEEEE;stroke-width:1.0;" width="1883" x="0" y="279.543"/><line style="stroke:#000000;stroke-width:1.0;" x1="0" x2="1883" y1="279.543" y2="279.543"/><line style="stroke:#000000;stroke-width:1.0;" x1="0" x2="1883" y1="282.543" y2="282.543"/><rect fill="#EEEEEE" height="24.3516" style="stroke:#000000;stroke-width:2.0;" width="117" x="883" y="268.3672"/><text fill="#000000" font-family="sans-serif" font-size="13" font-weight="bold" lengthAdjust="spacing" textLength="103" x="889" y="285.8623">Create checkout</text><polygon fill="#181818" points="322,321.0703,332,325.0703,322,329.0703,326,325.0703" style="stroke:#181818;stroke-width:1.0;"/><line style="stroke:#181818;stroke-width:1.0;" x1="41" x2="328" y1="325.0703" y2="325.0703"/><text fill="#000000" font-family="sans-serif" font-size="13" font-weight="bold" lengthAdjust="spacing" textLength="18" x="48" y="320.2139">2.1</text><text fill="#000000" font-family="sans-serif" font-size="13" lengthAdjust="spacing" textLength="167" x="70" y="320.2139">Click "Proceed to check out"</text><polygon fill="#181818" points="1048,378.9492,1058,382.9492,1048,386.9492,1052,382.9492" style="stroke:#181818;stroke-width:1.0;"/><line style="stroke:#181818;stroke-width:1.0;" x1="344" x2="1054" y1="382.9492" y2="382.9492"/><text fill="#000000" font-family="sans-serif" font-size="13" font-weight="bold" lengthAdjust="spacing" textLength="18" x="351" y="378.0928">2.2</text><text fill="#000000" font-family="sans-serif" font-size="13" lengthAdjust="spacing" textLength="215" x="373" y="378.0928">POST /api/order/storefront/checkouts</text><path d="M1075,338.0703 L1075,413.0703 L1310,413.0703 L1310,348.0703 L1300,338.0703 L1075,338.0703 " fill="#FEFFDD" style="stroke:#181818;stroke-width:0.5;"/><path d="M1300,338.0703 L1300,348.0703 L1310,348.0703 L1300,338.0703 " fill="#FEFFDD" style="stroke:#181818;stroke-width:0.5;"/><text fill="#000000" font-family="sans-serif" font-size="13" lengthAdjust="spacing" textLength="160" x="1081" y="356.5654">Body={email, note, coupon,</text><text fill="#000000" font-family="sans-serif" font-size="13" lengthAdjust="spacing" textLength="214" x="1081" y="372.917">products:[{id, name, quantity, price}]}</text><text fill="#000000" font-family="sans-serif" font-size="13" lengthAdjust="spacing" textLength="4" x="1081" y="389.2686">&#160;</text><text fill="#000000" font-family="sans-serif" font-size="13" lengthAdjust="spacing" textLength="125" x="1081" y="405.6201">Header: Authorization</text><polygon fill="#181818" points="355,436.8281,345,440.8281,355,444.8281,351,440.8281" style="stroke:#181818;stroke-width:1.0;"/><line style="stroke:#181818;stroke-width:1.0;stroke-dasharray:2.0,2.0;" x1="349" x2="1064" y1="440.8281" y2="440.8281"/><text fill="#000000" font-family="sans-serif" font-size="13" font-weight="bold" lengthAdjust="spacing" textLength="18" x="361" y="435.9717">2.3</text><text fill="#000000" font-family="sans-serif" font-size="13" lengthAdjust="spacing" textLength="86" x="383" y="435.9717">201 CREATED</text><polygon fill="#181818" points="52,467.1797,42,471.1797,52,475.1797,48,471.1797" style="stroke:#181818;stroke-width:1.0;"/><line style="stroke:#181818;stroke-width:1.0;stroke-dasharray:2.0,2.0;" x1="46" x2="333" y1="471.1797" y2="471.1797"/><text fill="#000000" font-family="sans-serif" font-size="13" font-weight="bold" lengthAdjust="spacing" textLength="18" x="58" y="466.3232">2.4</text><text fill="#000000" font-family="sans-serif" font-size="13" lengthAdjust="spacing" textLength="86" x="80" y="466.3232">201 CREATED</text><polygon fill="#181818" points="52,497.5313,42,501.5313,52,505.5313,48,501.5313" style="stroke:#181818;stroke-width:1.0;"/><line style="stroke:#181818;stroke-width:1.0;stroke-dasharray:2.0,2.0;" x1="46" x2="338" y1="501.5313" y2="501.5313"/><text fill="#000000" font-family="sans-serif" font-size="13" font-weight="bold" lengthAdjust="spacing" textLength="18" x="58" y="496.6748">2.5</text><text fill="#000000" font-family="sans-serif" font-size="13" lengthAdjust="spacing" textLength="247" x="80" y="496.6748">Route to /storefront/checkout/{checkout-id}</text><rect fill="#EEEEEE" height="3" style="stroke:#EEEEEE;stroke-width:1.0;" width="1883" x="0" y="530.707"/><line style="stroke:#000000;stroke-width:1.0;" x1="0" x2="1883" y1="530.707" y2="530.707"/><line style="stroke:#000000;stroke-width:1.0;" x1="0" x2="1883" y1="533.707" y2="533.707"/><rect fill="#EEEEEE" height="24.3516" style="stroke:#000000;stroke-width:2.0;" width="145" x="869" y="519.5313"/><text fill="#000000" font-family="sans-serif" font-size="13" font-weight="bold" lengthAdjust="spacing" textLength="131" x="875" y="537.0264">Go to checkout page</text><polygon fill="#181818" points="322,572.2344,332,576.2344,322,580.2344,326,576.2344" style="stroke:#181818;stroke-width:1.0;"/><line style="stroke:#181818;stroke-width:1.0;" x1="41" x2="328" y1="576.2344" y2="576.2344"/><text fill="#000000" font-family="sans-serif" font-size="13" font-weight="bold" lengthAdjust="spacing" textLength="18" x="48" y="571.3779">3.1</text><text fill="#000000" font-family="sans-serif" font-size="13" lengthAdjust="spacing" textLength="241" x="70" y="571.3779">Browse /storefront/checkout/{checkout-id}</text><polygon fill="#181818" points="1048,602.5859,1058,606.5859,1048,610.5859,1052,606.5859" style="stroke:#181818;stroke-width:1.0;"/><line style="stroke:#181818;stroke-width:1.0;" x1="344" x2="1054" y1="606.5859" y2="606.5859"/><text fill="#000000" font-family="sans-serif" font-size="13" font-weight="bold" lengthAdjust="spacing" textLength="18" x="351" y="601.7295">3.2</text><text fill="#000000" font-family="sans-serif" font-size="13" lengthAdjust="spacing" textLength="278" x="373" y="601.7295">GET /api/order/storefront/checkout/{checkout-id}</text><polygon fill="#181818" points="355,632.9375,345,636.9375,355,640.9375,351,636.9375" style="stroke:#181818;stroke-width:1.0;"/><line style="stroke:#181818;stroke-width:1.0;stroke-dasharray:2.0,2.0;" x1="349" x2="1064" y1="636.9375" y2="636.9375"/><text fill="#000000" font-family="sans-serif" font-size="13" font-weight="bold" lengthAdjust="spacing" textLength="18" x="361" y="632.0811">3.3</text><text fill="#000000" font-family="sans-serif" font-size="13" lengthAdjust="spacing" textLength="44" x="383" y="632.0811">200 OK</text><polygon fill="#181818" points="1168,663.2891,1178,667.2891,1168,671.2891,1172,667.2891" style="stroke:#181818;stroke-width:1.0;"/><line style="stroke:#181818;stroke-width:1.0;" x1="344" x2="1174" y1="667.2891" y2="667.2891"/><text fill="#000000" font-family="sans-serif" font-size="13" font-weight="bold" lengthAdjust="spacing" textLength="18" x="351" y="662.4326">3.4</text><text fill="#000000" font-family="sans-serif" font-size="13" lengthAdjust="spacing" textLength="299" x="373" y="662.4326">GET /api/storefront/addresses?customerId={user-id}</text><polygon fill="#181818" points="355,693.6406,345,697.6406,355,701.6406,351,697.6406" style="stroke:#181818;stroke-width:1.0;"/><line style="stroke:#181818;stroke-width:1.0;stroke-dasharray:2.0,2.0;" x1="349" x2="1184" y1="697.6406" y2="697.6406"/><text fill="#000000" font-family="sans-serif" font-size="13" font-weight="bold" lengthAdjust="spacing" textLength="18" x="361" y="692.7842">3.5</text><text fill="#000000" font-family="sans-serif" font-size="13" lengthAdjust="spacing" textLength="44" x="383" y="692.7842">200 OK</text><polygon fill="#181818" points="52,723.9922,42,727.9922,52,731.9922,48,727.9922" style="stroke:#181818;stroke-width:1.0;"/><line style="stroke:#181818;stroke-width:1.0;stroke-dasharray:2.0,2.0;" x1="46" x2="338" y1="727.9922" y2="727.9922"/><text fill="#000000" font-family="sans-serif" font-size="13" font-weight="bold" lengthAdjust="spacing" textLength="18" x="58" y="723.1357">3.6</text><text fill="#000000" font-family="sans-serif" font-size="13" lengthAdjust="spacing" textLength="44" x="80" y="723.1357">200 OK</text><rect fill="#EEEEEE" height="3" style="stroke:#EEEEEE;stroke-width:1.0;" width="1883" x="0" y="757.168"/><line style="stroke:#000000;stroke-width:1.0;" x1="0" x2="1883" y1="757.168" y2="757.168"/><line style="stroke:#000000;stroke-width:1.0;" x1="0" x2="1883" y1="760.168" y2="760.168"/><rect fill="#EEEEEE" height="24.3516" style="stroke:#000000;stroke-width:2.0;" width="357" x="763" y="745.9922"/><text fill="#000000" font-family="sans-serif" font-size="13" font-weight="bold" lengthAdjust="spacing" textLength="343" x="769" y="763.4873">Add new address (optional) if user has default address</text><polygon fill="#181818" points="322,798.6953,332,802.6953,322,806.6953,326,802.6953" style="stroke:#181818;stroke-width:1.0;"/><line style="stroke:#181818;stroke-width:1.0;" x1="41" x2="328" y1="802.6953" y2="802.6953"/><text fill="#000000" font-family="sans-serif" font-size="13" font-weight="bold" lengthAdjust="spacing" textLength="18" x="48" y="797.8389">4.1</text><text fill="#000000" font-family="sans-serif" font-size="13" lengthAdjust="spacing" textLength="143" x="70" y="797.8389">Click "Add new address"</text><polygon fill="#181818" points="1168,829.0469,1178,833.0469,1168,837.0469,1172,833.0469" style="stroke:#181818;stroke-width:1.0;"/><line style="stroke:#181818;stroke-width:1.0;" x1="344" x2="1174" y1="833.0469" y2="833.0469"/><text fill="#000000" font-family="sans-serif" font-size="13" font-weight="bold" lengthAdjust="spacing" textLength="18" x="351" y="828.1904">4.2</text><text fill="#000000" font-family="sans-serif" font-size="13" lengthAdjust="spacing" textLength="255" x="373" y="828.1904">POST /api/customer/storefront/user-address</text><polygon fill="#181818" points="355,859.3984,345,863.3984,355,867.3984,351,863.3984" style="stroke:#181818;stroke-width:1.0;"/><line style="stroke:#181818;stroke-width:1.0;stroke-dasharray:2.0,2.0;" x1="349" x2="1184" y1="863.3984" y2="863.3984"/><text fill="#000000" font-family="sans-serif" font-size="13" font-weight="bold" lengthAdjust="spacing" textLength="18" x="361" y="858.542">4.3</text><text fill="#000000" font-family="sans-serif" font-size="13" lengthAdjust="spacing" textLength="86" x="383" y="858.542">201 CREATED</text><polygon fill="#181818" points="52,889.75,42,893.75,52,897.75,48,893.75" style="stroke:#181818;stroke-width:1.0;"/><line style="stroke:#181818;stroke-width:1.0;stroke-dasharray:2.0,2.0;" x1="46" x2="338" y1="893.75" y2="893.75"/><text fill="#000000" font-family="sans-serif" font-size="13" font-weight="bold" lengthAdjust="spacing" textLength="18" x="58" y="888.8936">4.4</text><text fill="#000000" font-family="sans-serif" font-size="13" lengthAdjust="spacing" textLength="86" x="80" y="888.8936">201 CREATED</text><rect fill="#EEEEEE" height="3" style="stroke:#EEEEEE;stroke-width:1.0;" width="1883" x="0" y="922.9258"/><line style="stroke:#000000;stroke-width:1.0;" x1="0" x2="1883" y1="922.9258" y2="922.9258"/><line style="stroke:#000000;stroke-width:1.0;" x1="0" x2="1883" y1="925.9258" y2="925.9258"/><rect fill="#EEEEEE" height="24.3516" style="stroke:#000000;stroke-width:2.0;" width="94" x="894.5" y="911.75"/><text fill="#000000" font-family="sans-serif" font-size="13" font-weight="bold" lengthAdjust="spacing" textLength="80" x="900.5" y="929.2451">Create order</text><polygon fill="#181818" points="322,964.4531,332,968.4531,322,972.4531,326,968.4531" style="stroke:#181818;stroke-width:1.0;"/><line style="stroke:#181818;stroke-width:1.0;" x1="41" x2="328" y1="968.4531" y2="968.4531"/><text fill="#000000" font-family="sans-serif" font-size="13" font-weight="bold" lengthAdjust="spacing" textLength="18" x="48" y="963.5967">5.1</text><text fill="#000000" font-family="sans-serif" font-size="13" lengthAdjust="spacing" textLength="160" x="70" y="963.5967">Click "Proceed to payment"</text><polygon fill="#181818" points="1048,1046.8594,1058,1050.8594,1048,1054.8594,1052,1050.8594" style="stroke:#181818;stroke-width:1.0;"/><line style="stroke:#181818;stroke-width:1.0;" x1="344" x2="1054" y1="1050.8594" y2="1050.8594"/><text fill="#000000" font-family="sans-serif" font-size="13" font-weight="bold" lengthAdjust="spacing" textLength="18" x="351" y="1046.0029">5.2</text><text fill="#000000" font-family="sans-serif" font-size="13" lengthAdjust="spacing" textLength="191" x="373" y="1046.0029">POST /api/order/storefront/orders</text><path d="M1075,981.4531 L1075,1105.4531 L1446,1105.4531 L1446,991.4531 L1436,981.4531 L1075,981.4531 " fill="#FEFFDD" style="stroke:#181818;stroke-width:0.5;"/><path d="M1436,981.4531 L1436,991.4531 L1446,991.4531 L1436,981.4531 " fill="#FEFFDD" style="stroke:#181818;stroke-width:0.5;"/><text fill="#000000" font-family="sans-serif" font-size="13" lengthAdjust="spacing" textLength="215" x="1081" y="999.9482">Body = {checkoutId, email, note, tax,</text><text fill="#000000" font-family="sans-serif" font-size="13" lengthAdjust="spacing" textLength="291" x="1081" y="1016.2998">discount, number of items, total price, delivery fee,</text><text fill="#000000" font-family="sans-serif" font-size="13" lengthAdjust="spacing" textLength="350" x="1081" y="1032.6514">coupon code, delivery method, payment status="PENDING",</text><text fill="#000000" font-family="sans-serif" font-size="13" lengthAdjust="spacing" textLength="301" x="1081" y="1049.0029">order items: [{id, product id, product name, quantity,</text><text fill="#000000" font-family="sans-serif" font-size="13" lengthAdjust="spacing" textLength="347" x="1081" y="1065.3545">product price, note?, discount?, taxAmount?, taxPercent?}]}</text><text fill="#000000" font-family="sans-serif" font-size="13" lengthAdjust="spacing" textLength="4" x="1081" y="1081.7061">&#160;</text><text fill="#000000" font-family="sans-serif" font-size="13" lengthAdjust="spacing" textLength="125" x="1081" y="1098.0576">Header: Authorization</text><polygon fill="#181818" points="763,1129.2656,753,1133.2656,763,1137.2656,759,1133.2656" style="stroke:#181818;stroke-width:1.0;"/><line style="stroke:#181818;stroke-width:1.0;" x1="757" x2="1059" y1="1133.2656" y2="1133.2656"/><text fill="#000000" font-family="sans-serif" font-size="13" font-weight="bold" lengthAdjust="spacing" textLength="18" x="769" y="1128.4092">5.3</text><text fill="#000000" font-family="sans-serif" font-size="13" lengthAdjust="spacing" textLength="267" x="791" y="1128.4092">PUT /api/backoffice/products/subtract-quantity</text><polygon fill="#181818" points="1048,1159.6172,1058,1163.6172,1048,1167.6172,1052,1163.6172" style="stroke:#181818;stroke-width:1.0;"/><line style="stroke:#181818;stroke-width:1.0;stroke-dasharray:2.0,2.0;" x1="747" x2="1054" y1="1163.6172" y2="1163.6172"/><text fill="#000000" font-family="sans-serif" font-size="13" font-weight="bold" lengthAdjust="spacing" textLength="18" x="754" y="1158.7607">5.4</text><text fill="#000000" font-family="sans-serif" font-size="13" lengthAdjust="spacing" textLength="108" x="776" y="1158.7607">204 NO CONTENT</text><polygon fill="#181818" points="654,1189.9688,644,1193.9688,654,1197.9688,650,1193.9688" style="stroke:#181818;stroke-width:1.0;"/><line style="stroke:#181818;stroke-width:1.0;" x1="648" x2="1059" y1="1193.9688" y2="1193.9688"/><text fill="#000000" font-family="sans-serif" font-size="13" font-weight="bold" lengthAdjust="spacing" textLength="18" x="660" y="1189.1123">5.5</text><text fill="#000000" font-family="sans-serif" font-size="13" lengthAdjust="spacing" textLength="302" x="682" y="1189.1123">DELETE /api/storefront/carts/multi-item?productIds=</text><polygon fill="#181818" points="1048,1220.3203,1058,1224.3203,1048,1228.3203,1052,1224.3203" style="stroke:#181818;stroke-width:1.0;"/><line style="stroke:#181818;stroke-width:1.0;stroke-dasharray:2.0,2.0;" x1="638" x2="1054" y1="1224.3203" y2="1224.3203"/><text fill="#000000" font-family="sans-serif" font-size="13" font-weight="bold" lengthAdjust="spacing" textLength="18" x="645" y="1219.4639">5.6</text><text fill="#000000" font-family="sans-serif" font-size="13" lengthAdjust="spacing" textLength="108" x="667" y="1219.4639">204 NO CONTENT</text><polygon fill="#181818" points="355,1250.6719,345,1254.6719,355,1258.6719,351,1254.6719" style="stroke:#181818;stroke-width:1.0;"/><line style="stroke:#181818;stroke-width:1.0;stroke-dasharray:2.0,2.0;" x1="349" x2="1064" y1="1254.6719" y2="1254.6719"/><text fill="#000000" font-family="sans-serif" font-size="13" font-weight="bold" lengthAdjust="spacing" textLength="18" x="361" y="1249.8154">5.7</text><text fill="#000000" font-family="sans-serif" font-size="13" lengthAdjust="spacing" textLength="86" x="383" y="1249.8154">201 CREATED</text><polygon fill="#181818" points="52,1281.0234,42,1285.0234,52,1289.0234,48,1285.0234" style="stroke:#181818;stroke-width:1.0;"/><line style="stroke:#181818;stroke-width:1.0;stroke-dasharray:2.0,2.0;" x1="46" x2="333" y1="1285.0234" y2="1285.0234"/><text fill="#000000" font-family="sans-serif" font-size="13" font-weight="bold" lengthAdjust="spacing" textLength="18" x="58" y="1280.167">5.8</text><text fill="#000000" font-family="sans-serif" font-size="13" lengthAdjust="spacing" textLength="86" x="80" y="1280.167">201 CREATED</text><path d="M10,1300.0234 L71,1300.0234 L71,1308.375 L61,1318.375 L10,1318.375 L10,1300.0234 " fill="#EEEEEE" style="stroke:#000000;stroke-width:1.5;"/><rect fill="none" height="701.9219" style="stroke:#000000;stroke-width:1.5;" width="1863" x="10" y="1300.0234"/><text fill="#000000" font-family="sans-serif" font-size="13" font-weight="bold" lengthAdjust="spacing" textLength="16" x="25" y="1314.5186">alt</text><text fill="#000000" font-family="sans-serif" font-size="11" font-weight="bold" lengthAdjust="spacing" textLength="72" x="86" y="1313.4424">[Paypal case]</text><polygon fill="#181818" points="1614,1336.7266,1624,1340.7266,1614,1344.7266,1618,1340.7266" style="stroke:#181818;stroke-width:1.0;"/><line style="stroke:#181818;stroke-width:1.0;" x1="344" x2="1620" y1="1340.7266" y2="1340.7266"/><text fill="#000000" font-family="sans-serif" font-size="13" font-weight="bold" lengthAdjust="spacing" textLength="40" x="351" y="1335.8701">5.9.1.1</text><text fill="#000000" font-family="sans-serif" font-size="13" lengthAdjust="spacing" textLength="177" x="395" y="1335.8701">POST /api/payment-paypal/init</text><polygon fill="#181818" points="1807,1367.0781,1817,1371.0781,1807,1375.0781,1811,1371.0781" style="stroke:#181818;stroke-width:1.0;"/><line style="stroke:#181818;stroke-width:1.0;" x1="1636" x2="1813" y1="1371.0781" y2="1371.0781"/><text fill="#000000" font-family="sans-serif" font-size="13" font-weight="bold" lengthAdjust="spacing" textLength="40" x="1643" y="1366.2217">5.9.1.2</text><text fill="#000000" font-family="sans-serif" font-size="13" lengthAdjust="spacing" textLength="79" x="1687" y="1366.2217">POST /orders</text><polygon fill="#181818" points="1647,1397.4297,1637,1401.4297,1647,1405.4297,1643,1401.4297" style="stroke:#181818;stroke-width:1.0;"/><line style="stroke:#181818;stroke-width:1.0;stroke-dasharray:2.0,2.0;" x1="1641" x2="1823" y1="1401.4297" y2="1401.4297"/><text fill="#000000" font-family="sans-serif" font-size="13" font-weight="bold" lengthAdjust="spacing" textLength="40" x="1653" y="1396.5732">5.9.1.3</text><text fill="#000000" font-family="sans-serif" font-size="13" lengthAdjust="spacing" textLength="73" x="1697" y="1396.5732">Redirect API</text><polygon fill="#181818" points="355,1427.7813,345,1431.7813,355,1435.7813,351,1431.7813" style="stroke:#181818;stroke-width:1.0;"/><line style="stroke:#181818;stroke-width:1.0;stroke-dasharray:2.0,2.0;" x1="349" x2="1630" y1="1431.7813" y2="1431.7813"/><text fill="#000000" font-family="sans-serif" font-size="13" font-weight="bold" lengthAdjust="spacing" textLength="40" x="361" y="1426.9248">5.9.1.4</text><text fill="#000000" font-family="sans-serif" font-size="13" lengthAdjust="spacing" textLength="73" x="405" y="1426.9248">Redirect API</text><polygon fill="#181818" points="52,1458.1328,42,1462.1328,52,1466.1328,48,1462.1328" style="stroke:#181818;stroke-width:1.0;"/><line style="stroke:#181818;stroke-width:1.0;stroke-dasharray:2.0,2.0;" x1="46" x2="338" y1="1462.1328" y2="1462.1328"/><text fill="#000000" font-family="sans-serif" font-size="13" font-weight="bold" lengthAdjust="spacing" textLength="40" x="58" y="1457.2764">5.9.1.5</text><text fill="#000000" font-family="sans-serif" font-size="13" lengthAdjust="spacing" textLength="163" x="102" y="1457.2764">Redirect to PayPal payment</text><polygon fill="#181818" points="1807,1488.4844,1817,1492.4844,1807,1496.4844,1811,1492.4844" style="stroke:#181818;stroke-width:1.0;"/><line style="stroke:#181818;stroke-width:1.0;" x1="41" x2="1813" y1="1492.4844" y2="1492.4844"/><text fill="#000000" font-family="sans-serif" font-size="13" font-weight="bold" lengthAdjust="spacing" textLength="40" x="48" y="1487.6279">5.9.1.6</text><text fill="#000000" font-family="sans-serif" font-size="13" lengthAdjust="spacing" textLength="112" x="92" y="1487.6279">GET payment page</text><polygon fill="#181818" points="52,1518.8359,42,1522.8359,52,1526.8359,48,1522.8359" style="stroke:#181818;stroke-width:1.0;"/><line style="stroke:#181818;stroke-width:1.0;stroke-dasharray:2.0,2.0;" x1="46" x2="1818" y1="1522.8359" y2="1522.8359"/><text fill="#000000" font-family="sans-serif" font-size="13" font-weight="bold" lengthAdjust="spacing" textLength="40" x="58" y="1517.9795">5.9.1.7</text><text fill="#000000" font-family="sans-serif" font-size="13" lengthAdjust="spacing" textLength="44" x="102" y="1517.9795">200 OK</text><polygon fill="#181818" points="1807,1549.1875,1817,1553.1875,1807,1557.1875,1811,1553.1875" style="stroke:#181818;stroke-width:1.0;"/><line style="stroke:#181818;stroke-width:1.0;" x1="41" x2="1813" y1="1553.1875" y2="1553.1875"/><text fill="#000000" font-family="sans-serif" font-size="13" font-weight="bold" lengthAdjust="spacing" textLength="40" x="48" y="1548.3311">5.9.1.8</text><text fill="#000000" font-family="sans-serif" font-size="13" lengthAdjust="spacing" textLength="89" x="92" y="1548.3311">POST payment</text><polygon fill="#181818" points="52,1579.5391,42,1583.5391,52,1587.5391,48,1583.5391" style="stroke:#181818;stroke-width:1.0;"/><line style="stroke:#181818;stroke-width:1.0;stroke-dasharray:2.0,2.0;" x1="46" x2="1823" y1="1583.5391" y2="1583.5391"/><text fill="#000000" font-family="sans-serif" font-size="13" font-weight="bold" lengthAdjust="spacing" textLength="40" x="58" y="1578.6826">5.9.1.9</text><text fill="#000000" font-family="sans-serif" font-size="13" lengthAdjust="spacing" textLength="210" x="102" y="1578.6826">Redirect /complete-payment/capture</text><polygon fill="#181818" points="322,1609.8906,332,1613.8906,322,1617.8906,326,1613.8906" style="stroke:#181818;stroke-width:1.0;"/><line style="stroke:#181818;stroke-width:1.0;" x1="41" x2="328" y1="1613.8906" y2="1613.8906"/><text fill="#000000" font-family="sans-serif" font-size="13" font-weight="bold" lengthAdjust="spacing" textLength="47" x="48" y="1609.0342">5.9.1.10</text><text fill="#000000" font-family="sans-serif" font-size="13" lengthAdjust="spacing" textLength="188" x="99" y="1609.0342">GET /complete-payment/capture</text><polygon fill="#181818" points="1614,1640.2422,1624,1644.2422,1614,1648.2422,1618,1644.2422" style="stroke:#181818;stroke-width:1.0;"/><line style="stroke:#181818;stroke-width:1.0;" x1="344" x2="1620" y1="1644.2422" y2="1644.2422"/><text fill="#000000" font-family="sans-serif" font-size="13" font-weight="bold" lengthAdjust="spacing" textLength="47" x="351" y="1639.3857">5.9.1.11</text><text fill="#000000" font-family="sans-serif" font-size="13" lengthAdjust="spacing" textLength="203" x="402" y="1639.3857">POST /api/payment-paypal/capture</text><polygon fill="#181818" points="1807,1670.5938,1817,1674.5938,1807,1678.5938,1811,1674.5938" style="stroke:#181818;stroke-width:1.0;"/><line style="stroke:#181818;stroke-width:1.0;" x1="1636" x2="1813" y1="1674.5938" y2="1674.5938"/><text fill="#000000" font-family="sans-serif" font-size="13" font-weight="bold" lengthAdjust="spacing" textLength="47" x="1643" y="1669.7373">5.9.1.12</text><text fill="#000000" font-family="sans-serif" font-size="13" lengthAdjust="spacing" textLength="113" x="1694" y="1669.7373">GET order captures</text><polygon fill="#181818" points="1647,1700.9453,1637,1704.9453,1647,1708.9453,1643,1704.9453" style="stroke:#181818;stroke-width:1.0;"/><line style="stroke:#181818;stroke-width:1.0;stroke-dasharray:2.0,2.0;" x1="1641" x2="1823" y1="1704.9453" y2="1704.9453"/><text fill="#000000" font-family="sans-serif" font-size="13" font-weight="bold" lengthAdjust="spacing" textLength="47" x="1653" y="1700.0889">5.9.1.13</text><text fill="#000000" font-family="sans-serif" font-size="13" lengthAdjust="spacing" textLength="44" x="1704" y="1700.0889">200 OK</text><polygon fill="#181818" points="1406,1731.2969,1396,1735.2969,1406,1739.2969,1402,1735.2969" style="stroke:#181818;stroke-width:1.0;"/><line style="stroke:#181818;stroke-width:1.0;" x1="1400" x2="1625" y1="1735.2969" y2="1735.2969"/><text fill="#000000" font-family="sans-serif" font-size="13" font-weight="bold" lengthAdjust="spacing" textLength="47" x="1412" y="1730.4404">5.9.1.14</text><text fill="#000000" font-family="sans-serif" font-size="13" lengthAdjust="spacing" textLength="161" x="1463" y="1730.4404">POST /api/payment/capture</text><polygon fill="#181818" points="1081,1761.6484,1071,1765.6484,1081,1769.6484,1077,1765.6484" style="stroke:#181818;stroke-width:1.0;"/><line style="stroke:#181818;stroke-width:1.0;" x1="1075" x2="1384" y1="1765.6484" y2="1765.6484"/><text fill="#000000" font-family="sans-serif" font-size="13" font-weight="bold" lengthAdjust="spacing" textLength="47" x="1087" y="1760.792">5.9.1.15</text><text fill="#000000" font-family="sans-serif" font-size="13" lengthAdjust="spacing" textLength="245" x="1138" y="1760.792">PUT /api/order/storefront/checkouts/status</text><polygon fill="#181818" points="1373,1792,1383,1796,1373,1800,1377,1796" style="stroke:#181818;stroke-width:1.0;"/><line style="stroke:#181818;stroke-width:1.0;stroke-dasharray:2.0,2.0;" x1="1065" x2="1379" y1="1796" y2="1796"/><text fill="#000000" font-family="sans-serif" font-size="13" font-weight="bold" lengthAdjust="spacing" textLength="47" x="1072" y="1791.1436">5.9.1.16</text><text fill="#000000" font-family="sans-serif" font-size="13" lengthAdjust="spacing" textLength="44" x="1123" y="1791.1436">200 OK</text><polygon fill="#181818" points="1081,1822.3516,1071,1826.3516,1081,1830.3516,1077,1826.3516" style="stroke:#181818;stroke-width:1.0;"/><line style="stroke:#181818;stroke-width:1.0;" x1="1075" x2="1384" y1="1826.3516" y2="1826.3516"/><text fill="#000000" font-family="sans-serif" font-size="13" font-weight="bold" lengthAdjust="spacing" textLength="47" x="1087" y="1821.4951">5.9.1.17</text><text fill="#000000" font-family="sans-serif" font-size="13" lengthAdjust="spacing" textLength="221" x="1138" y="1821.4951">PUT /api/order/storefront/orders/status</text><polygon fill="#181818" points="1373,1852.7031,1383,1856.7031,1373,1860.7031,1377,1856.7031" style="stroke:#181818;stroke-width:1.0;"/><line style="stroke:#181818;stroke-width:1.0;stroke-dasharray:2.0,2.0;" x1="1065" x2="1379" y1="1856.7031" y2="1856.7031"/><text fill="#000000" font-family="sans-serif" font-size="13" font-weight="bold" lengthAdjust="spacing" textLength="47" x="1072" y="1851.8467">5.9.1.18</text><text fill="#000000" font-family="sans-serif" font-size="13" lengthAdjust="spacing" textLength="44" x="1123" y="1851.8467">200 OK</text><polygon fill="#181818" points="1614,1883.0547,1624,1887.0547,1614,1891.0547,1618,1887.0547" style="stroke:#181818;stroke-width:1.0;"/><line style="stroke:#181818;stroke-width:1.0;stroke-dasharray:2.0,2.0;" x1="1390" x2="1620" y1="1887.0547" y2="1887.0547"/><text fill="#000000" font-family="sans-serif" font-size="13" font-weight="bold" lengthAdjust="spacing" textLength="47" x="1397" y="1882.1982">5.9.1.19</text><text fill="#000000" font-family="sans-serif" font-size="13" lengthAdjust="spacing" textLength="86" x="1448" y="1882.1982">201 CREATED</text><polygon fill="#181818" points="355,1913.4063,345,1917.4063,355,1921.4063,351,1917.4063" style="stroke:#181818;stroke-width:1.0;"/><line style="stroke:#181818;stroke-width:1.0;stroke-dasharray:2.0,2.0;" x1="349" x2="1630" y1="1917.4063" y2="1917.4063"/><text fill="#000000" font-family="sans-serif" font-size="13" font-weight="bold" lengthAdjust="spacing" textLength="47" x="361" y="1912.5498">5.9.1.20</text><text fill="#000000" font-family="sans-serif" font-size="13" lengthAdjust="spacing" textLength="86" x="412" y="1912.5498">201 CREATED</text><polygon fill="#181818" points="52,1943.7578,42,1947.7578,52,1951.7578,48,1947.7578" style="stroke:#181818;stroke-width:1.0;"/><line style="stroke:#181818;stroke-width:1.0;stroke-dasharray:2.0,2.0;" x1="46" x2="333" y1="1947.7578" y2="1947.7578"/><text fill="#000000" font-family="sans-serif" font-size="13" font-weight="bold" lengthAdjust="spacing" textLength="47" x="58" y="1942.9014">5.9.1.21</text><text fill="#000000" font-family="sans-serif" font-size="13" lengthAdjust="spacing" textLength="44" x="109" y="1942.9014">200 OK</text><line style="stroke:#000000;stroke-width:1.0;stroke-dasharray:2.0,2.0;" x1="10" x2="1873" y1="1956.7578" y2="1956.7578"/><text fill="#000000" font-family="sans-serif" font-size="11" font-weight="bold" lengthAdjust="spacing" textLength="60" x="15" y="1968.1768">[COD case]</text><polygon fill="#181818" points="52,1989.9453,42,1993.9453,52,1997.9453,48,1993.9453" style="stroke:#181818;stroke-width:1.0;"/><line style="stroke:#181818;stroke-width:1.0;" x1="46" x2="333" y1="1993.9453" y2="1993.9453"/><text fill="#000000" font-family="sans-serif" font-size="13" font-weight="bold" lengthAdjust="spacing" textLength="40" x="58" y="1989.0889">5.9.2.1</text><text fill="#000000" font-family="sans-serif" font-size="13" lengthAdjust="spacing" textLength="98" x="102" y="1989.0889">Not implemented</text><!--SRC=[jLTTRzis57tNhxZmNZR0ZfrY6pfZSk3QNkPki8t4VHY6FT0ItH2LH4sYqcH1_dilloHAfksas_hGqjIzbuU7vnwo91AyW5d2Q2Q27N-0tX_JsnvyC_znCVtbBGGvAGIBM4uo0RSOIlS5no4fOKKVnFko5J33yIqjxbb4PKI4FrlVDmMFgyWDoVLCAsfTnBHmOhZytLwdAWLFMq6HcMglHnvJt9UxdfxfHcr8uWRb90be5WFoqOt4JzFDKaVX80Z3Qmw2gxrYzOyq30DI2PvLwOuMS7bn2RsVTnCONOnwWQOP1XD3tXZU5VnpIM5OrjGEPQKo895WzqHGIxF-HwRAxsEuNcnXI7AcmW_IXq-MZm6BdvjYwaGKr843uire1ElVWfYsu-oI6Ac1-o8Dl32S5LHbtj7e4wz4cmQMHJ3rR1zdea_GGrr4bCQAHvaFMA1tWWAbY35irhU613NHOi70A8ECOuM2VRmJmJiUFuPFD2KiwOESxqF4gvnd_S3ei1p_-SHY_4XI_FXtXOVEn6CVPOhIUFxhEGX-fKIjFQt47I_OFqGmdYcno88DPYrQzNU7wqkOtIocsyNSfL67UnbluZsVRt2FLFBcspogm8oK2dodPiHhmZm2FdPoFk7wbprxZBMKZvxYiOh7IUxAjCtlfBOBPtLdNHB71IrBMbxPk6KSFbNbGJjPqx63Ssrbur_NMjCOrKK_Wu45t_9Sgeuatm7RWuG5TsX8CTsJAX4sx5KTs5dYLFCrr3NzP-TS4XLTfjxBAVDsnsdUl2bTNr82-5fJChT63_wL9wc90qE246frBz5wMlOao4CVWfYLw5EPm5cDdE-12PgM6C05IRGzzL402RkdnIFiAVuAjBUXnSNkjvIYSU4wPazG2YAgCknj5glvSdNTwvj-KWkCGVkXiKTmnnsFj1PgmSWDNE6w1lkLsimqRSORMaG8uEhhRNLYiI3j7mphEu9CxlS8OMWzVLXMEr5WYO45szIhtny6_A0voJUZxs6rXjbwjLsijgwsR58DGr_9yyNlY-tYm4pqXPnYPxA19FNAf2_ZCZnsCv-5eCB_szk59FQ1WzLB6W3-SRhbXukVBl0rewORrSkdaYjwewf1hWeDMSQ4BbHp9zzMSaOET0LyHjaIfaKw6VATfLFaqsjGBtj3OrPGF3KRu9wHaoKNSaWwdMRW-UvQcuUEeD-CzNEoKyMOWvnjxCLiLDutjlVaTNj-ivqRmbjLqUUYEKoluGyZdkO95NHW4b2YkQWAUfp3GvDKr-R9GZusNYmSRw5Zsf5OT2-Oj1ShoA7qX7OcbbaFu2D8tPCmX-tS4H_EFbk7sfRRLNKRowccysja_gqqAQ-1eTlmVyJW741ZGDrJQAcvqyEdyawqi0584towpjPphz79Py6ierQRl-9u1qhDIsGqbXTKqFB8ov7ptps_8nnEVm40]--></g></svg>