<?xml version="1.0" encoding="us-ascii" standalone="no"?><svg xmlns="http://www.w3.org/2000/svg" xmlns:xlink="http://www.w3.org/1999/xlink" contentStyleType="text/css" height="2105px" preserveAspectRatio="none" style="width:1664px;height:2105px;background:#FFFFFF;" version="1.1" viewBox="0 0 1664 2105" width="1664px" zoomAndPan="magnify"><defs/><g><rect fill="#D6EAF8" height="2093.5547" style="stroke:#181818;stroke-width:0.5;" width="1238" x="274.5" y="6"/><text fill="#000000" font-family="sans-serif" font-size="13" font-weight="bold" lengthAdjust="spacing" textLength="26" x="880.5" y="19.4951">YAS</text><rect fill="#FFFFFF" height="91.0547" style="stroke:#181818;stroke-width:1.0;" width="10" x="312" y="159.3125"/><rect fill="#FFFFFF" height="176.4609" style="stroke:#181818;stroke-width:1.0;" width="10" x="312" y="325.0703"/><rect fill="#FFFFFF" height="151.7578" style="stroke:#181818;stroke-width:1.0;" width="10" x="312" y="576.2344"/><rect fill="#FFFFFF" height="91.0547" style="stroke:#181818;stroke-width:1.0;" width="10" x="312" y="802.6953"/><rect fill="#FFFFFF" height="493.6797" style="stroke:#181818;stroke-width:1.0;" width="10" x="312" y="968.4531"/><rect fill="#FFFFFF" height="395.0547" style="stroke:#181818;stroke-width:1.0;" width="10" x="312" y="1613.8906"/><rect fill="#FFFFFF" height="30.3516" style="stroke:#181818;stroke-width:1.0;" width="10" x="589" y="189.6641"/><rect fill="#FFFFFF" height="30.3516" style="stroke:#181818;stroke-width:1.0;" width="10" x="589" y="1193.9688"/><rect fill="#FFFFFF" height="30.3516" style="stroke:#181818;stroke-width:1.0;" width="10" x="698" y="1133.2656"/><rect fill="#FFFFFF" height="57.8789" style="stroke:#181818;stroke-width:1.0;" width="10" x="994" y="382.9492"/><rect fill="#FFFFFF" height="30.3516" style="stroke:#181818;stroke-width:1.0;" width="10" x="994" y="606.5859"/><rect fill="#FFFFFF" height="203.8125" style="stroke:#181818;stroke-width:1.0;" width="10" x="994" y="1050.8594"/><rect fill="#FFFFFF" height="30.3516" style="stroke:#181818;stroke-width:1.0;" width="10" x="994" y="1765.6484"/><rect fill="#FFFFFF" height="30.3516" style="stroke:#181818;stroke-width:1.0;" width="10" x="994" y="1826.3516"/><rect fill="#FFFFFF" height="30.3516" style="stroke:#181818;stroke-width:1.0;" width="10" x="1114" y="667.2891"/><rect fill="#FFFFFF" height="30.3516" style="stroke:#181818;stroke-width:1.0;" width="10" x="1114" y="833.0469"/><rect fill="#FFFFFF" height="151.7578" style="stroke:#181818;stroke-width:1.0;" width="10" x="1261" y="1735.2969"/><rect fill="#FFFFFF" height="91.0547" style="stroke:#181818;stroke-width:1.0;" width="10" x="1451" y="1340.7266"/><rect fill="#FFFFFF" height="273.1641" style="stroke:#181818;stroke-width:1.0;" width="10" x="1451" y="1644.2422"/><rect fill="#FFFFFF" height="30.3516" style="stroke:#181818;stroke-width:1.0;" width="10" x="1593" y="1371.0781"/><rect fill="#FFFFFF" height="91.0547" style="stroke:#181818;stroke-width:1.0;" width="10" x="1593" y="1492.4844"/><rect fill="#FFFFFF" height="30.3516" style="stroke:#181818;stroke-width:1.0;" width="10" x="1593" y="1674.5938"/><rect fill="none" height="701.9219" style="stroke:#000000;stroke-width:1.5;" width="1637" x="10" y="1300.0234"/><line style="stroke:#181818;stroke-width:0.5;stroke-dasharray:5.0,5.0;" x1="41" x2="41" y1="82.6094" y2="2018.9453"/><line style="stroke:#181818;stroke-width:0.5;stroke-dasharray:5.0,5.0;" x1="316.5" x2="316.5" y1="82.6094" y2="2018.9453"/><line style="stroke:#181818;stroke-width:0.5;stroke-dasharray:5.0,5.0;" x1="594" x2="594" y1="82.6094" y2="2018.9453"/><line style="stroke:#181818;stroke-width:0.5;stroke-dasharray:5.0,5.0;" x1="703" x2="703" y1="82.6094" y2="2018.9453"/><line style="stroke:#181818;stroke-width:0.5;stroke-dasharray:5.0,5.0;" x1="999" x2="999" y1="82.6094" y2="2018.9453"/><line style="stroke:#181818;stroke-width:0.5;stroke-dasharray:5.0,5.0;" x1="1119" x2="1119" y1="82.6094" y2="2018.9453"/><line style="stroke:#181818;stroke-width:0.5;stroke-dasharray:5.0,5.0;" x1="1266" x2="1266" y1="82.6094" y2="2018.9453"/><line style="stroke:#181818;stroke-width:0.5;stroke-dasharray:5.0,5.0;" x1="1455.5" x2="1455.5" y1="82.6094" y2="2018.9453"/><line style="stroke:#181818;stroke-width:0.5;stroke-dasharray:5.0,5.0;" x1="1598" x2="1598" y1="82.6094" y2="2018.9453"/><text fill="#000000" font-family="sans-serif" font-size="14" lengthAdjust="spacing" textLength="36" x="20" y="79.5332">Client</text><ellipse cx="41" cy="13.5" fill="#E2E2F0" rx="8" ry="8" style="stroke:#181818;stroke-width:0.5;"/><path d="M41,21.5 L41,48.5 M28,29.5 L54,29.5 M41,48.5 L28,63.5 M41,48.5 L54,63.5 " fill="none" style="stroke:#181818;stroke-width:0.5;"/><text fill="#000000" font-family="sans-serif" font-size="14" lengthAdjust="spacing" textLength="36" x="20" y="2032.4785">Client</text><ellipse cx="41" cy="2044.0547" fill="#E2E2F0" rx="8" ry="8" style="stroke:#181818;stroke-width:0.5;"/><path d="M41,2052.0547 L41,2079.0547 M28,2060.0547 L54,2060.0547 M41,2079.0547 L28,2094.0547 M41,2079.0547 L54,2094.0547 " fill="none" style="stroke:#181818;stroke-width:0.5;"/><rect fill="#E2E2F0" height="31.6094" rx="2.5" ry="2.5" style="stroke:#181818;stroke-width:0.5;" width="77" x="278.5" y="50"/><text fill="#000000" font-family="sans-serif" font-size="14" lengthAdjust="spacing" textLength="63" x="285.5" y="71.5332">Storefront</text><rect fill="#E2E2F0" height="31.6094" rx="2.5" ry="2.5" style="stroke:#181818;stroke-width:0.5;" width="77" x="278.5" y="2017.9453"/><text fill="#000000" font-family="sans-serif" font-size="14" lengthAdjust="spacing" textLength="63" x="285.5" y="2039.4785">Storefront</text><rect fill="#E2E2F0" height="31.6094" rx="2.5" ry="2.5" style="stroke:#181818;stroke-width:0.5;" width="88" x="550" y="50"/><text fill="#000000" font-family="sans-serif" font-size="14" lengthAdjust="spacing" textLength="74" x="557" y="71.5332">CartService</text><rect fill="#E2E2F0" height="31.6094" rx="2.5" ry="2.5" style="stroke:#181818;stroke-width:0.5;" width="88" x="550" y="2017.9453"/><text fill="#000000" font-family="sans-serif" font-size="14" lengthAdjust="spacing" textLength="74" x="557" y="2039.4785">CartService</text><rect fill="#E2E2F0" height="31.6094" rx="2.5" ry="2.5" style="stroke:#181818;stroke-width:0.5;" width="110" x="648" y="50"/><text fill="#000000" font-family="sans-serif" font-size="14" lengthAdjust="spacing" textLength="96" x="655" y="71.5332">ProductService</text><rect fill="#E2E2F0" height="31.6094" rx="2.5" ry="2.5" style="stroke:#181818;stroke-width:0.5;" width="110" x="648" y="2017.9453"/><text fill="#000000" font-family="sans-serif" font-size="14" lengthAdjust="spacing" textLength="96" x="655" y="2039.4785">ProductService</text><rect fill="#E2E2F0" height="31.6094" rx="2.5" ry="2.5" style="stroke:#181818;stroke-width:0.5;" width="98" x="950" y="50"/><text fill="#000000" font-family="sans-serif" font-size="14" lengthAdjust="spacing" textLength="84" x="957" y="71.5332">OrderService</text><rect fill="#E2E2F0" height="31.6094" rx="2.5" ry="2.5" style="stroke:#181818;stroke-width:0.5;" width="98" x="950" y="2017.9453"/><text fill="#000000" font-family="sans-serif" font-size="14" lengthAdjust="spacing" textLength="84" x="957" y="2039.4785">OrderService</text><rect fill="#E2E2F0" height="31.6094" rx="2.5" ry="2.5" style="stroke:#181818;stroke-width:0.5;" width="122" x="1058" y="50"/><text fill="#000000" font-family="sans-serif" font-size="14" lengthAdjust="spacing" textLength="108" x="1065" y="71.5332">CustomerService</text><rect fill="#E2E2F0" height="31.6094" rx="2.5" ry="2.5" style="stroke:#181818;stroke-width:0.5;" width="122" x="1058" y="2017.9453"/><text fill="#000000" font-family="sans-serif" font-size="14" lengthAdjust="spacing" textLength="108" x="1065" y="2039.4785">CustomerService</text><rect fill="#E2E2F0" height="31.6094" rx="2.5" ry="2.5" style="stroke:#181818;stroke-width:0.5;" width="116" x="1208" y="50"/><text fill="#000000" font-family="sans-serif" font-size="14" lengthAdjust="spacing" textLength="102" x="1215" y="71.5332">PaymentService</text><rect fill="#E2E2F0" height="31.6094" rx="2.5" ry="2.5" style="stroke:#181818;stroke-width:0.5;" width="116" x="1208" y="2017.9453"/><text fill="#000000" font-family="sans-serif" font-size="14" lengthAdjust="spacing" textLength="102" x="1215" y="2039.4785">PaymentService</text><rect fill="#E2E2F0" height="31.6094" rx="2.5" ry="2.5" style="stroke:#181818;stroke-width:0.5;" width="105" x="1403.5" y="50"/><text fill="#000000" font-family="sans-serif" font-size="14" lengthAdjust="spacing" textLength="91" x="1410.5" y="71.5332">PayPalService</text><rect fill="#E2E2F0" height="31.6094" rx="2.5" ry="2.5" style="stroke:#181818;stroke-width:0.5;" width="105" x="1403.5" y="2017.9453"/><text fill="#000000" font-family="sans-serif" font-size="14" lengthAdjust="spacing" textLength="91" x="1410.5" y="2039.4785">PayPalService</text><rect fill="#E2E2F0" height="31.6094" rx="2.5" ry="2.5" style="stroke:#181818;stroke-width:0.5;" width="78" x="1559" y="50"/><text fill="#000000" font-family="sans-serif" font-size="14" lengthAdjust="spacing" textLength="64" x="1566" y="71.5332">PaypalAPI</text><rect fill="#E2E2F0" height="31.6094" rx="2.5" ry="2.5" style="stroke:#181818;stroke-width:0.5;" width="78" x="1559" y="2017.9453"/><text fill="#000000" font-family="sans-serif" font-size="14" lengthAdjust="spacing" textLength="64" x="1566" y="2039.4785">PaypalAPI</text><rect fill="#FFFFFF" height="91.0547" style="stroke:#181818;stroke-width:1.0;" width="10" x="312" y="159.3125"/><rect fill="#FFFFFF" height="176.4609" style="stroke:#181818;stroke-width:1.0;" width="10" x="312" y="325.0703"/><rect fill="#FFFFFF" height="151.7578" style="stroke:#181818;stroke-width:1.0;" width="10" x="312" y="576.2344"/><rect fill="#FFFFFF" height="91.0547" style="stroke:#181818;stroke-width:1.0;" width="10" x="312" y="802.6953"/><rect fill="#FFFFFF" height="493.6797" style="stroke:#181818;stroke-width:1.0;" width="10" x="312" y="968.4531"/><rect fill="#FFFFFF" height="395.0547" style="stroke:#181818;stroke-width:1.0;" width="10" x="312" y="1613.8906"/><rect fill="#FFFFFF" height="30.3516" style="stroke:#181818;stroke-width:1.0;" width="10" x="589" y="189.6641"/><rect fill="#FFFFFF" height="30.3516" style="stroke:#181818;stroke-width:1.0;" width="10" x="589" y="1193.9688"/><rect fill="#FFFFFF" height="30.3516" style="stroke:#181818;stroke-width:1.0;" width="10" x="698" y="1133.2656"/><rect fill="#FFFFFF" height="57.8789" style="stroke:#181818;stroke-width:1.0;" width="10" x="994" y="382.9492"/><rect fill="#FFFFFF" height="30.3516" style="stroke:#181818;stroke-width:1.0;" width="10" x="994" y="606.5859"/><rect fill="#FFFFFF" height="203.8125" style="stroke:#181818;stroke-width:1.0;" width="10" x="994" y="1050.8594"/><rect fill="#FFFFFF" height="30.3516" style="stroke:#181818;stroke-width:1.0;" width="10" x="994" y="1765.6484"/><rect fill="#FFFFFF" height="30.3516" style="stroke:#181818;stroke-width:1.0;" width="10" x="994" y="1826.3516"/><rect fill="#FFFFFF" height="30.3516" style="stroke:#181818;stroke-width:1.0;" width="10" x="1114" y="667.2891"/><rect fill="#FFFFFF" height="30.3516" style="stroke:#181818;stroke-width:1.0;" width="10" x="1114" y="833.0469"/><rect fill="#FFFFFF" height="151.7578" style="stroke:#181818;stroke-width:1.0;" width="10" x="1261" y="1735.2969"/><rect fill="#FFFFFF" height="91.0547" style="stroke:#181818;stroke-width:1.0;" width="10" x="1451" y="1340.7266"/><rect fill="#FFFFFF" height="273.1641" style="stroke:#181818;stroke-width:1.0;" width="10" x="1451" y="1644.2422"/><rect fill="#FFFFFF" height="30.3516" style="stroke:#181818;stroke-width:1.0;" width="10" x="1593" y="1371.0781"/><rect fill="#FFFFFF" height="91.0547" style="stroke:#181818;stroke-width:1.0;" width="10" x="1593" y="1492.4844"/><rect fill="#FFFFFF" height="30.3516" style="stroke:#181818;stroke-width:1.0;" width="10" x="1593" y="1674.5938"/><rect fill="#EEEEEE" height="3" style="stroke:#EEEEEE;stroke-width:1.0;" width="1657" x="0" y="113.7852"/><line style="stroke:#000000;stroke-width:1.0;" x1="0" x2="1657" y1="113.7852" y2="113.7852"/><line style="stroke:#000000;stroke-width:1.0;" x1="0" x2="1657" y1="116.7852" y2="116.7852"/><rect fill="#EEEEEE" height="24.3516" style="stroke:#000000;stroke-width:2.0;" width="112" x="772.5" y="102.6094"/><text fill="#000000" font-family="sans-serif" font-size="13" font-weight="bold" lengthAdjust="spacing" textLength="98" x="778.5" y="120.1045">Go to cart page</text><polygon fill="#181818" points="300,155.3125,310,159.3125,300,163.3125,304,159.3125" style="stroke:#181818;stroke-width:1.0;"/><line style="stroke:#181818;stroke-width:1.0;" x1="41" x2="306" y1="159.3125" y2="159.3125"/><text fill="#000000" font-family="sans-serif" font-size="13" lengthAdjust="spacing" textLength="138" x="48" y="154.4561">Browse /storefront/carts</text><polygon fill="#181818" points="577,185.6641,587,189.6641,577,193.6641,581,189.6641" style="stroke:#181818;stroke-width:1.0;"/><line style="stroke:#181818;stroke-width:1.0;" x1="322" x2="583" y1="189.6641" y2="189.6641"/><text fill="#000000" font-family="sans-serif" font-size="13" lengthAdjust="spacing" textLength="248" x="329" y="184.8076">GET /api/cart/storefront/carts/{customer-id}</text><polygon fill="#181818" points="333,216.0156,323,220.0156,333,224.0156,329,220.0156" style="stroke:#181818;stroke-width:1.0;"/><line style="stroke:#181818;stroke-width:1.0;stroke-dasharray:2.0,2.0;" x1="327" x2="593" y1="220.0156" y2="220.0156"/><text fill="#000000" font-family="sans-serif" font-size="13" lengthAdjust="spacing" textLength="44" x="339" y="215.1592">200 OK</text><polygon fill="#181818" points="52,246.3672,42,250.3672,52,254.3672,48,250.3672" style="stroke:#181818;stroke-width:1.0;"/><line style="stroke:#181818;stroke-width:1.0;stroke-dasharray:2.0,2.0;" x1="46" x2="316" y1="250.3672" y2="250.3672"/><text fill="#000000" font-family="sans-serif" font-size="13" lengthAdjust="spacing" textLength="44" x="58" y="245.5107">200 OK</text><rect fill="#EEEEEE" height="3" style="stroke:#EEEEEE;stroke-width:1.0;" width="1657" x="0" y="279.543"/><line style="stroke:#000000;stroke-width:1.0;" x1="0" x2="1657" y1="279.543" y2="279.543"/><line style="stroke:#000000;stroke-width:1.0;" x1="0" x2="1657" y1="282.543" y2="282.543"/><rect fill="#EEEEEE" height="24.3516" style="stroke:#000000;stroke-width:2.0;" width="117" x="770" y="268.3672"/><text fill="#000000" font-family="sans-serif" font-size="13" font-weight="bold" lengthAdjust="spacing" textLength="103" x="776" y="285.8623">Create checkout</text><polygon fill="#181818" points="300,321.0703,310,325.0703,300,329.0703,304,325.0703" style="stroke:#181818;stroke-width:1.0;"/><line style="stroke:#181818;stroke-width:1.0;" x1="41" x2="306" y1="325.0703" y2="325.0703"/><text fill="#000000" font-family="sans-serif" font-size="13" lengthAdjust="spacing" textLength="167" x="48" y="320.2139">Click "Proceed to check out"</text><polygon fill="#181818" points="982,378.9492,992,382.9492,982,386.9492,986,382.9492" style="stroke:#181818;stroke-width:1.0;"/><line style="stroke:#181818;stroke-width:1.0;" x1="322" x2="988" y1="382.9492" y2="382.9492"/><text fill="#000000" font-family="sans-serif" font-size="13" lengthAdjust="spacing" textLength="215" x="329" y="378.0928">POST /api/order/storefront/checkouts</text><path d="M1009,338.0703 L1009,413.0703 L1244,413.0703 L1244,348.0703 L1234,338.0703 L1009,338.0703 " fill="#FEFFDD" style="stroke:#181818;stroke-width:0.5;"/><path d="M1234,338.0703 L1234,348.0703 L1244,348.0703 L1234,338.0703 " fill="#FEFFDD" style="stroke:#181818;stroke-width:0.5;"/><text fill="#000000" font-family="sans-serif" font-size="13" lengthAdjust="spacing" textLength="160" x="1015" y="356.5654">Body={email, note, coupon,</text><text fill="#000000" font-family="sans-serif" font-size="13" lengthAdjust="spacing" textLength="214" x="1015" y="372.917">products:[{id, name, quantity, price}]}</text><text fill="#000000" font-family="sans-serif" font-size="13" lengthAdjust="spacing" textLength="4" x="1015" y="389.2686">&#160;</text><text fill="#000000" font-family="sans-serif" font-size="13" lengthAdjust="spacing" textLength="125" x="1015" y="405.6201">Header: Authorization</text><polygon fill="#181818" points="333,436.8281,323,440.8281,333,444.8281,329,440.8281" style="stroke:#181818;stroke-width:1.0;"/><line style="stroke:#181818;stroke-width:1.0;stroke-dasharray:2.0,2.0;" x1="327" x2="998" y1="440.8281" y2="440.8281"/><text fill="#000000" font-family="sans-serif" font-size="13" lengthAdjust="spacing" textLength="86" x="339" y="435.9717">201 CREATED</text><polygon fill="#181818" points="52,467.1797,42,471.1797,52,475.1797,48,471.1797" style="stroke:#181818;stroke-width:1.0;"/><line style="stroke:#181818;stroke-width:1.0;stroke-dasharray:2.0,2.0;" x1="46" x2="311" y1="471.1797" y2="471.1797"/><text fill="#000000" font-family="sans-serif" font-size="13" lengthAdjust="spacing" textLength="86" x="58" y="466.3232">201 CREATED</text><polygon fill="#181818" points="52,497.5313,42,501.5313,52,505.5313,48,501.5313" style="stroke:#181818;stroke-width:1.0;"/><line style="stroke:#181818;stroke-width:1.0;stroke-dasharray:2.0,2.0;" x1="46" x2="316" y1="501.5313" y2="501.5313"/><text fill="#000000" font-family="sans-serif" font-size="13" lengthAdjust="spacing" textLength="247" x="58" y="496.6748">Route to /storefront/checkout/{checkout-id}</text><rect fill="#EEEEEE" height="3" style="stroke:#EEEEEE;stroke-width:1.0;" width="1657" x="0" y="530.707"/><line style="stroke:#000000;stroke-width:1.0;" x1="0" x2="1657" y1="530.707" y2="530.707"/><line style="stroke:#000000;stroke-width:1.0;" x1="0" x2="1657" y1="533.707" y2="533.707"/><rect fill="#EEEEEE" height="24.3516" style="stroke:#000000;stroke-width:2.0;" width="145" x="756" y="519.5313"/><text fill="#000000" font-family="sans-serif" font-size="13" font-weight="bold" lengthAdjust="spacing" textLength="131" x="762" y="537.0264">Go to checkout page</text><polygon fill="#181818" points="300,572.2344,310,576.2344,300,580.2344,304,576.2344" style="stroke:#181818;stroke-width:1.0;"/><line style="stroke:#181818;stroke-width:1.0;" x1="41" x2="306" y1="576.2344" y2="576.2344"/><text fill="#000000" font-family="sans-serif" font-size="13" lengthAdjust="spacing" textLength="241" x="48" y="571.3779">Browse /storefront/checkout/{checkout-id}</text><polygon fill="#181818" points="982,602.5859,992,606.5859,982,610.5859,986,606.5859" style="stroke:#181818;stroke-width:1.0;"/><line style="stroke:#181818;stroke-width:1.0;" x1="322" x2="988" y1="606.5859" y2="606.5859"/><text fill="#000000" font-family="sans-serif" font-size="13" lengthAdjust="spacing" textLength="278" x="329" y="601.7295">GET /api/order/storefront/checkout/{checkout-id}</text><polygon fill="#181818" points="333,632.9375,323,636.9375,333,640.9375,329,636.9375" style="stroke:#181818;stroke-width:1.0;"/><line style="stroke:#181818;stroke-width:1.0;stroke-dasharray:2.0,2.0;" x1="327" x2="998" y1="636.9375" y2="636.9375"/><text fill="#000000" font-family="sans-serif" font-size="13" lengthAdjust="spacing" textLength="44" x="339" y="632.0811">200 OK</text><polygon fill="#181818" points="1102,663.2891,1112,667.2891,1102,671.2891,1106,667.2891" style="stroke:#181818;stroke-width:1.0;"/><line style="stroke:#181818;stroke-width:1.0;" x1="322" x2="1108" y1="667.2891" y2="667.2891"/><text fill="#000000" font-family="sans-serif" font-size="13" lengthAdjust="spacing" textLength="299" x="329" y="662.4326">GET /api/storefront/addresses?customerId={user-id}</text><polygon fill="#181818" points="333,693.6406,323,697.6406,333,701.6406,329,697.6406" style="stroke:#181818;stroke-width:1.0;"/><line style="stroke:#181818;stroke-width:1.0;stroke-dasharray:2.0,2.0;" x1="327" x2="1118" y1="697.6406" y2="697.6406"/><text fill="#000000" font-family="sans-serif" font-size="13" lengthAdjust="spacing" textLength="44" x="339" y="692.7842">200 OK</text><polygon fill="#181818" points="52,723.9922,42,727.9922,52,731.9922,48,727.9922" style="stroke:#181818;stroke-width:1.0;"/><line style="stroke:#181818;stroke-width:1.0;stroke-dasharray:2.0,2.0;" x1="46" x2="316" y1="727.9922" y2="727.9922"/><text fill="#000000" font-family="sans-serif" font-size="13" lengthAdjust="spacing" textLength="44" x="58" y="723.1357">200 OK</text><rect fill="#EEEEEE" height="3" style="stroke:#EEEEEE;stroke-width:1.0;" width="1657" x="0" y="757.168"/><line style="stroke:#000000;stroke-width:1.0;" x1="0" x2="1657" y1="757.168" y2="757.168"/><line style="stroke:#000000;stroke-width:1.0;" x1="0" x2="1657" y1="760.168" y2="760.168"/><rect fill="#EEEEEE" height="24.3516" style="stroke:#000000;stroke-width:2.0;" width="357" x="650" y="745.9922"/><text fill="#000000" font-family="sans-serif" font-size="13" font-weight="bold" lengthAdjust="spacing" textLength="343" x="656" y="763.4873">Add new address (optional) if user has default address</text><polygon fill="#181818" points="300,798.6953,310,802.6953,300,806.6953,304,802.6953" style="stroke:#181818;stroke-width:1.0;"/><line style="stroke:#181818;stroke-width:1.0;" x1="41" x2="306" y1="802.6953" y2="802.6953"/><text fill="#000000" font-family="sans-serif" font-size="13" lengthAdjust="spacing" textLength="143" x="48" y="797.8389">Click "Add new address"</text><polygon fill="#181818" points="1102,829.0469,1112,833.0469,1102,837.0469,1106,833.0469" style="stroke:#181818;stroke-width:1.0;"/><line style="stroke:#181818;stroke-width:1.0;" x1="322" x2="1108" y1="833.0469" y2="833.0469"/><text fill="#000000" font-family="sans-serif" font-size="13" lengthAdjust="spacing" textLength="255" x="329" y="828.1904">POST /api/customer/storefront/user-address</text><polygon fill="#181818" points="333,859.3984,323,863.3984,333,867.3984,329,863.3984" style="stroke:#181818;stroke-width:1.0;"/><line style="stroke:#181818;stroke-width:1.0;stroke-dasharray:2.0,2.0;" x1="327" x2="1118" y1="863.3984" y2="863.3984"/><text fill="#000000" font-family="sans-serif" font-size="13" lengthAdjust="spacing" textLength="86" x="339" y="858.542">201 CREATED</text><polygon fill="#181818" points="52,889.75,42,893.75,52,897.75,48,893.75" style="stroke:#181818;stroke-width:1.0;"/><line style="stroke:#181818;stroke-width:1.0;stroke-dasharray:2.0,2.0;" x1="46" x2="316" y1="893.75" y2="893.75"/><text fill="#000000" font-family="sans-serif" font-size="13" lengthAdjust="spacing" textLength="86" x="58" y="888.8936">201 CREATED</text><rect fill="#EEEEEE" height="3" style="stroke:#EEEEEE;stroke-width:1.0;" width="1657" x="0" y="922.9258"/><line style="stroke:#000000;stroke-width:1.0;" x1="0" x2="1657" y1="922.9258" y2="922.9258"/><line style="stroke:#000000;stroke-width:1.0;" x1="0" x2="1657" y1="925.9258" y2="925.9258"/><rect fill="#EEEEEE" height="24.3516" style="stroke:#000000;stroke-width:2.0;" width="94" x="781.5" y="911.75"/><text fill="#000000" font-family="sans-serif" font-size="13" font-weight="bold" lengthAdjust="spacing" textLength="80" x="787.5" y="929.2451">Create order</text><polygon fill="#181818" points="300,964.4531,310,968.4531,300,972.4531,304,968.4531" style="stroke:#181818;stroke-width:1.0;"/><line style="stroke:#181818;stroke-width:1.0;" x1="41" x2="306" y1="968.4531" y2="968.4531"/><text fill="#000000" font-family="sans-serif" font-size="13" lengthAdjust="spacing" textLength="160" x="48" y="963.5967">Click "Proceed to payment"</text><polygon fill="#181818" points="982,1046.8594,992,1050.8594,982,1054.8594,986,1050.8594" style="stroke:#181818;stroke-width:1.0;"/><line style="stroke:#181818;stroke-width:1.0;" x1="322" x2="988" y1="1050.8594" y2="1050.8594"/><text fill="#000000" font-family="sans-serif" font-size="13" lengthAdjust="spacing" textLength="191" x="329" y="1046.0029">POST /api/order/storefront/orders</text><path d="M1009,981.4531 L1009,1105.4531 L1380,1105.4531 L1380,991.4531 L1370,981.4531 L1009,981.4531 " fill="#FEFFDD" style="stroke:#181818;stroke-width:0.5;"/><path d="M1370,981.4531 L1370,991.4531 L1380,991.4531 L1370,981.4531 " fill="#FEFFDD" style="stroke:#181818;stroke-width:0.5;"/><text fill="#000000" font-family="sans-serif" font-size="13" lengthAdjust="spacing" textLength="215" x="1015" y="999.9482">Body = {checkoutId, email, note, tax,</text><text fill="#000000" font-family="sans-serif" font-size="13" lengthAdjust="spacing" textLength="291" x="1015" y="1016.2998">discount, number of items, total price, delivery fee,</text><text fill="#000000" font-family="sans-serif" font-size="13" lengthAdjust="spacing" textLength="350" x="1015" y="1032.6514">coupon code, delivery method, payment status="PENDING",</text><text fill="#000000" font-family="sans-serif" font-size="13" lengthAdjust="spacing" textLength="301" x="1015" y="1049.0029">order items: [{id, product id, product name, quantity,</text><text fill="#000000" font-family="sans-serif" font-size="13" lengthAdjust="spacing" textLength="347" x="1015" y="1065.3545">product price, note?, discount?, taxAmount?, taxPercent?}]}</text><text fill="#000000" font-family="sans-serif" font-size="13" lengthAdjust="spacing" textLength="4" x="1015" y="1081.7061">&#160;</text><text fill="#000000" font-family="sans-serif" font-size="13" lengthAdjust="spacing" textLength="125" x="1015" y="1098.0576">Header: Authorization</text><polygon fill="#181818" points="719,1129.2656,709,1133.2656,719,1137.2656,715,1133.2656" style="stroke:#181818;stroke-width:1.0;"/><line style="stroke:#181818;stroke-width:1.0;" x1="713" x2="993" y1="1133.2656" y2="1133.2656"/><text fill="#000000" font-family="sans-serif" font-size="13" lengthAdjust="spacing" textLength="267" x="725" y="1128.4092">PUT /api/backoffice/products/subtract-quantity</text><polygon fill="#181818" points="982,1159.6172,992,1163.6172,982,1167.6172,986,1163.6172" style="stroke:#181818;stroke-width:1.0;"/><line style="stroke:#181818;stroke-width:1.0;stroke-dasharray:2.0,2.0;" x1="703" x2="988" y1="1163.6172" y2="1163.6172"/><text fill="#000000" font-family="sans-serif" font-size="13" lengthAdjust="spacing" textLength="108" x="710" y="1158.7607">204 NO CONTENT</text><polygon fill="#181818" points="610,1189.9688,600,1193.9688,610,1197.9688,606,1193.9688" style="stroke:#181818;stroke-width:1.0;"/><line style="stroke:#181818;stroke-width:1.0;" x1="604" x2="993" y1="1193.9688" y2="1193.9688"/><text fill="#000000" font-family="sans-serif" font-size="13" lengthAdjust="spacing" textLength="302" x="616" y="1189.1123">DELETE /api/storefront/carts/multi-item?productIds=</text><polygon fill="#181818" points="982,1220.3203,992,1224.3203,982,1228.3203,986,1224.3203" style="stroke:#181818;stroke-width:1.0;"/><line style="stroke:#181818;stroke-width:1.0;stroke-dasharray:2.0,2.0;" x1="594" x2="988" y1="1224.3203" y2="1224.3203"/><text fill="#000000" font-family="sans-serif" font-size="13" lengthAdjust="spacing" textLength="108" x="601" y="1219.4639">204 NO CONTENT</text><polygon fill="#181818" points="333,1250.6719,323,1254.6719,333,1258.6719,329,1254.6719" style="stroke:#181818;stroke-width:1.0;"/><line style="stroke:#181818;stroke-width:1.0;stroke-dasharray:2.0,2.0;" x1="327" x2="998" y1="1254.6719" y2="1254.6719"/><text fill="#000000" font-family="sans-serif" font-size="13" lengthAdjust="spacing" textLength="86" x="339" y="1249.8154">201 CREATED</text><polygon fill="#181818" points="52,1281.0234,42,1285.0234,52,1289.0234,48,1285.0234" style="stroke:#181818;stroke-width:1.0;"/><line style="stroke:#181818;stroke-width:1.0;stroke-dasharray:2.0,2.0;" x1="46" x2="311" y1="1285.0234" y2="1285.0234"/><text fill="#000000" font-family="sans-serif" font-size="13" lengthAdjust="spacing" textLength="86" x="58" y="1280.167">201 CREATED</text><path d="M10,1300.0234 L71,1300.0234 L71,1308.375 L61,1318.375 L10,1318.375 L10,1300.0234 " fill="#EEEEEE" style="stroke:#000000;stroke-width:1.5;"/><rect fill="none" height="701.9219" style="stroke:#000000;stroke-width:1.5;" width="1637" x="10" y="1300.0234"/><text fill="#000000" font-family="sans-serif" font-size="13" font-weight="bold" lengthAdjust="spacing" textLength="16" x="25" y="1314.5186">alt</text><text fill="#000000" font-family="sans-serif" font-size="11" font-weight="bold" lengthAdjust="spacing" textLength="72" x="86" y="1313.4424">[Paypal case]</text><polygon fill="#181818" points="1439,1336.7266,1449,1340.7266,1439,1344.7266,1443,1340.7266" style="stroke:#181818;stroke-width:1.0;"/><line style="stroke:#181818;stroke-width:1.0;" x1="322" x2="1445" y1="1340.7266" y2="1340.7266"/><text fill="#000000" font-family="sans-serif" font-size="13" lengthAdjust="spacing" textLength="177" x="329" y="1335.8701">POST /api/payment-paypal/init</text><polygon fill="#181818" points="1581,1367.0781,1591,1371.0781,1581,1375.0781,1585,1371.0781" style="stroke:#181818;stroke-width:1.0;"/><line style="stroke:#181818;stroke-width:1.0;" x1="1461" x2="1587" y1="1371.0781" y2="1371.0781"/><text fill="#000000" font-family="sans-serif" font-size="13" lengthAdjust="spacing" textLength="79" x="1468" y="1366.2217">POST /orders</text><polygon fill="#181818" points="1472,1397.4297,1462,1401.4297,1472,1405.4297,1468,1401.4297" style="stroke:#181818;stroke-width:1.0;"/><line style="stroke:#181818;stroke-width:1.0;stroke-dasharray:2.0,2.0;" x1="1466" x2="1597" y1="1401.4297" y2="1401.4297"/><text fill="#000000" font-family="sans-serif" font-size="13" lengthAdjust="spacing" textLength="73" x="1478" y="1396.5732">Redirect API</text><polygon fill="#181818" points="333,1427.7813,323,1431.7813,333,1435.7813,329,1431.7813" style="stroke:#181818;stroke-width:1.0;"/><line style="stroke:#181818;stroke-width:1.0;stroke-dasharray:2.0,2.0;" x1="327" x2="1455" y1="1431.7813" y2="1431.7813"/><text fill="#000000" font-family="sans-serif" font-size="13" lengthAdjust="spacing" textLength="73" x="339" y="1426.9248">Redirect API</text><polygon fill="#181818" points="52,1458.1328,42,1462.1328,52,1466.1328,48,1462.1328" style="stroke:#181818;stroke-width:1.0;"/><line style="stroke:#181818;stroke-width:1.0;stroke-dasharray:2.0,2.0;" x1="46" x2="316" y1="1462.1328" y2="1462.1328"/><text fill="#000000" font-family="sans-serif" font-size="13" lengthAdjust="spacing" textLength="163" x="58" y="1457.2764">Redirect to PayPal payment</text><polygon fill="#181818" points="1581,1488.4844,1591,1492.4844,1581,1496.4844,1585,1492.4844" style="stroke:#181818;stroke-width:1.0;"/><line style="stroke:#181818;stroke-width:1.0;" x1="41" x2="1587" y1="1492.4844" y2="1492.4844"/><text fill="#000000" font-family="sans-serif" font-size="13" lengthAdjust="spacing" textLength="112" x="48" y="1487.6279">GET payment page</text><polygon fill="#181818" points="52,1518.8359,42,1522.8359,52,1526.8359,48,1522.8359" style="stroke:#181818;stroke-width:1.0;"/><line style="stroke:#181818;stroke-width:1.0;stroke-dasharray:2.0,2.0;" x1="46" x2="1592" y1="1522.8359" y2="1522.8359"/><text fill="#000000" font-family="sans-serif" font-size="13" lengthAdjust="spacing" textLength="44" x="58" y="1517.9795">200 OK</text><polygon fill="#181818" points="1581,1549.1875,1591,1553.1875,1581,1557.1875,1585,1553.1875" style="stroke:#181818;stroke-width:1.0;"/><line style="stroke:#181818;stroke-width:1.0;" x1="41" x2="1587" y1="1553.1875" y2="1553.1875"/><text fill="#000000" font-family="sans-serif" font-size="13" lengthAdjust="spacing" textLength="89" x="48" y="1548.3311">POST payment</text><polygon fill="#181818" points="52,1579.5391,42,1583.5391,52,1587.5391,48,1583.5391" style="stroke:#181818;stroke-width:1.0;"/><line style="stroke:#181818;stroke-width:1.0;stroke-dasharray:2.0,2.0;" x1="46" x2="1597" y1="1583.5391" y2="1583.5391"/><text fill="#000000" font-family="sans-serif" font-size="13" lengthAdjust="spacing" textLength="210" x="58" y="1578.6826">Redirect /complete-payment/capture</text><polygon fill="#181818" points="300,1609.8906,310,1613.8906,300,1617.8906,304,1613.8906" style="stroke:#181818;stroke-width:1.0;"/><line style="stroke:#181818;stroke-width:1.0;" x1="41" x2="306" y1="1613.8906" y2="1613.8906"/><text fill="#000000" font-family="sans-serif" font-size="13" lengthAdjust="spacing" textLength="188" x="48" y="1609.0342">GET /complete-payment/capture</text><polygon fill="#181818" points="1439,1640.2422,1449,1644.2422,1439,1648.2422,1443,1644.2422" style="stroke:#181818;stroke-width:1.0;"/><line style="stroke:#181818;stroke-width:1.0;" x1="322" x2="1445" y1="1644.2422" y2="1644.2422"/><text fill="#000000" font-family="sans-serif" font-size="13" lengthAdjust="spacing" textLength="203" x="329" y="1639.3857">POST /api/payment-paypal/capture</text><polygon fill="#181818" points="1581,1670.5938,1591,1674.5938,1581,1678.5938,1585,1674.5938" style="stroke:#181818;stroke-width:1.0;"/><line style="stroke:#181818;stroke-width:1.0;" x1="1461" x2="1587" y1="1674.5938" y2="1674.5938"/><text fill="#000000" font-family="sans-serif" font-size="13" lengthAdjust="spacing" textLength="113" x="1468" y="1669.7373">GET order captures</text><polygon fill="#181818" points="1472,1700.9453,1462,1704.9453,1472,1708.9453,1468,1704.9453" style="stroke:#181818;stroke-width:1.0;"/><line style="stroke:#181818;stroke-width:1.0;stroke-dasharray:2.0,2.0;" x1="1466" x2="1597" y1="1704.9453" y2="1704.9453"/><text fill="#000000" font-family="sans-serif" font-size="13" lengthAdjust="spacing" textLength="44" x="1478" y="1700.0889">200 OK</text><polygon fill="#181818" points="1282,1731.2969,1272,1735.2969,1282,1739.2969,1278,1735.2969" style="stroke:#181818;stroke-width:1.0;"/><line style="stroke:#181818;stroke-width:1.0;" x1="1276" x2="1450" y1="1735.2969" y2="1735.2969"/><text fill="#000000" font-family="sans-serif" font-size="13" lengthAdjust="spacing" textLength="161" x="1288" y="1730.4404">POST /api/payment/capture</text><polygon fill="#181818" points="1015,1761.6484,1005,1765.6484,1015,1769.6484,1011,1765.6484" style="stroke:#181818;stroke-width:1.0;"/><line style="stroke:#181818;stroke-width:1.0;" x1="1009" x2="1260" y1="1765.6484" y2="1765.6484"/><text fill="#000000" font-family="sans-serif" font-size="13" lengthAdjust="spacing" textLength="238" x="1021" y="1760.792">PUT /api/order/storefront/checkout/status</text><polygon fill="#181818" points="1249,1792,1259,1796,1249,1800,1253,1796" style="stroke:#181818;stroke-width:1.0;"/><line style="stroke:#181818;stroke-width:1.0;stroke-dasharray:2.0,2.0;" x1="999" x2="1255" y1="1796" y2="1796"/><text fill="#000000" font-family="sans-serif" font-size="13" lengthAdjust="spacing" textLength="44" x="1006" y="1791.1436">200 OK</text><polygon fill="#181818" points="1015,1822.3516,1005,1826.3516,1015,1830.3516,1011,1826.3516" style="stroke:#181818;stroke-width:1.0;"/><line style="stroke:#181818;stroke-width:1.0;" x1="1009" x2="1260" y1="1826.3516" y2="1826.3516"/><text fill="#000000" font-family="sans-serif" font-size="13" lengthAdjust="spacing" textLength="238" x="1021" y="1821.4951">PUT /api/order/storefront/checkout/status</text><polygon fill="#181818" points="1249,1852.7031,1259,1856.7031,1249,1860.7031,1253,1856.7031" style="stroke:#181818;stroke-width:1.0;"/><line style="stroke:#181818;stroke-width:1.0;stroke-dasharray:2.0,2.0;" x1="999" x2="1255" y1="1856.7031" y2="1856.7031"/><text fill="#000000" font-family="sans-serif" font-size="13" lengthAdjust="spacing" textLength="44" x="1006" y="1851.8467">200 OK</text><polygon fill="#181818" points="1439,1883.0547,1449,1887.0547,1439,1891.0547,1443,1887.0547" style="stroke:#181818;stroke-width:1.0;"/><line style="stroke:#181818;stroke-width:1.0;stroke-dasharray:2.0,2.0;" x1="1266" x2="1445" y1="1887.0547" y2="1887.0547"/><text fill="#000000" font-family="sans-serif" font-size="13" lengthAdjust="spacing" textLength="86" x="1273" y="1882.1982">201 CREATED</text><polygon fill="#181818" points="333,1913.4063,323,1917.4063,333,1921.4063,329,1917.4063" style="stroke:#181818;stroke-width:1.0;"/><line style="stroke:#181818;stroke-width:1.0;stroke-dasharray:2.0,2.0;" x1="327" x2="1455" y1="1917.4063" y2="1917.4063"/><text fill="#000000" font-family="sans-serif" font-size="13" lengthAdjust="spacing" textLength="86" x="339" y="1912.5498">201 CREATED</text><polygon fill="#181818" points="52,1943.7578,42,1947.7578,52,1951.7578,48,1947.7578" style="stroke:#181818;stroke-width:1.0;"/><line style="stroke:#181818;stroke-width:1.0;stroke-dasharray:2.0,2.0;" x1="46" x2="311" y1="1947.7578" y2="1947.7578"/><text fill="#000000" font-family="sans-serif" font-size="13" lengthAdjust="spacing" textLength="44" x="58" y="1942.9014">200 OK</text><line style="stroke:#000000;stroke-width:1.0;stroke-dasharray:2.0,2.0;" x1="10" x2="1647" y1="1956.7578" y2="1956.7578"/><text fill="#000000" font-family="sans-serif" font-size="11" font-weight="bold" lengthAdjust="spacing" textLength="60" x="15" y="1968.1768">[COD case]</text><polygon fill="#181818" points="52,1989.9453,42,1993.9453,52,1997.9453,48,1993.9453" style="stroke:#181818;stroke-width:1.0;"/><line style="stroke:#181818;stroke-width:1.0;" x1="46" x2="311" y1="1993.9453" y2="1993.9453"/><text fill="#000000" font-family="sans-serif" font-size="13" lengthAdjust="spacing" textLength="98" x="58" y="1989.0889">Not implemented</text><!--SRC=[pLPBR-Cs4BxhLmpSImjOSBeeYiA0OdXjDtLRs4RYFHH53un8RuYLJ5Maiac3_FSENn8botAsxQ4vE1GvpszcFfAaIfImo3WxgkXUFC7ej_dT2BvQVh-Q__W3H0Kf5KzvGOuAxb2K7Kg1Io9XmvxKpx8biC3r7IiVUSgqH8gVhVDTAMYLXYA5tMb9RKlAoa16wE-sdqegaRU4KhVLzaUUSymhz6Ttkb8xaeL21SaYTgI0U7GbyMY-MrifN4H9SYD02PChMl_8aYIoQ49yxJ2QmljIV9OC9h96SA8LP4HInH-9OXvD-q-hwlCftApsC245D-8dwfCNdtRCwMjZp01l8eg38DvTNS7sbuYojfntYP8sy3v95rwIB4fcD1zO-abKgZTRt4a_mGYhdJ963JfQ751-D92ngVCKTjixbxFPQ2NjlCheAD12oJy-gEYzeC_92yi9pyQWzyUGYgeGnt7akajEVt_X50z9ZeT_LbXAhfx7s7nOyDS_NgFe9qQCxtcb7aJ9_oAAYwDf0MsmYTcseldjGFijB6vNy_rg6Q9cnNi1RkHxZcynHwPnwqiUY-vMfkXzHN8jwSI-h2txlLoiMjsePujspk9vJBjDs8Rpkfxvm7lWbr1QCYcPd7cvDKrUAdaoB9uv_EBIq7ZvBnkSESLcOf_1XGLVYq8t6Sc-0Nu07HOy8AjGTY1LfhpOq7nrB0wDLeDKCrr-ByJCeEFilHsXtjuVXgbNfKiofjvlP1X7x2FuLmHZDaxO1HAeUtUDFDBY6aMUnX1HBf5qZWftg_mU4H87u8hb4WM48fdbcZ6MD-EFh7o60yElo18LyXKDptA6B8H-N4uW5L6LJ4QxrMQvtjoCncvQZ8CfM79pN0VXkaDudWzzC3g16VfriSzCClEyMUzOcM80it_EaTS-5eJzWqFzdY2IXmE6CF44FP7LlIhHHEo3RUpLJmGNVDnKyjtLTx3PmcAxsQys-x2Ll58TXhrEbwjVL_lL2LNOopJ7kUEn1dNcrDTK9kTkrOiX6F7_zgeWcN-3e7N98i2_fhtrioNiRjS-SM4q9lp8bT5eGDBl7BsZ5zO2Fccy2JSB7Gtzvh4g-XaKrsvl6UKbm_9uWR0OWPPs5A0nhER2wxiXlHwElds_rK-xZXN70dgtuH6NgBus_93fI_9oiXsYxxLgu0kZELMlmv-a8YyofbZi5B0N2rMLx3o6fsneRhz1GtrelBbnUWsTwnqTYsrwf_Rc3WeW7UYTQuziJy1d8WqhuOeTN0OVBhvRBFssZTfnrLlDXDU1zMVIgFpFeWWgq51DjmojTkuCyP3Um0ox05c6Jz35Tjb7QLvq8_1Yq_sjWs1Ktpe3StxwflWR]--></g></svg>