<?xml version="1.0" encoding="us-ascii" standalone="no"?><svg xmlns="http://www.w3.org/2000/svg" xmlns:xlink="http://www.w3.org/1999/xlink" contentStyleType="text/css" height="1984px" preserveAspectRatio="none" style="width:1362px;height:1984px;background:#FFFFFF;" version="1.1" viewBox="0 0 1362 1984" width="1362px" zoomAndPan="magnify"><defs/><g><rect fill="#D6EAF8" height="1972.1484" style="stroke:#181818;stroke-width:0.5;" width="936" x="274.5" y="6"/><text fill="#000000" font-family="sans-serif" font-size="13" font-weight="bold" lengthAdjust="spacing" textLength="26" x="729.5" y="19.4951">YAS</text><rect fill="#FFFFFF" height="91.0547" style="stroke:#181818;stroke-width:1.0;" width="10" x="312" y="159.3125"/><rect fill="#FFFFFF" height="176.4609" style="stroke:#181818;stroke-width:1.0;" width="10" x="312" y="325.0703"/><rect fill="#FFFFFF" height="151.7578" style="stroke:#181818;stroke-width:1.0;" width="10" x="312" y="576.2344"/><rect fill="#FFFFFF" height="91.0547" style="stroke:#181818;stroke-width:1.0;" width="10" x="312" y="802.6953"/><rect fill="#FFFFFF" height="372.2734" style="stroke:#181818;stroke-width:1.0;" width="10" x="312" y="968.4531"/><rect fill="#FFFFFF" height="395.0547" style="stroke:#181818;stroke-width:1.0;" width="10" x="312" y="1492.4844"/><rect fill="#FFFFFF" height="30.3516" style="stroke:#181818;stroke-width:1.0;" width="10" x="589" y="189.6641"/><rect fill="#FFFFFF" height="57.8789" style="stroke:#181818;stroke-width:1.0;" width="10" x="692" y="382.9492"/><rect fill="#FFFFFF" height="30.3516" style="stroke:#181818;stroke-width:1.0;" width="10" x="692" y="606.5859"/><rect fill="#FFFFFF" height="82.4063" style="stroke:#181818;stroke-width:1.0;" width="10" x="692" y="1050.8594"/><rect fill="#FFFFFF" height="30.3516" style="stroke:#181818;stroke-width:1.0;" width="10" x="692" y="1644.2422"/><rect fill="#FFFFFF" height="30.3516" style="stroke:#181818;stroke-width:1.0;" width="10" x="692" y="1704.9453"/><rect fill="#FFFFFF" height="30.3516" style="stroke:#181818;stroke-width:1.0;" width="10" x="812" y="667.2891"/><rect fill="#FFFFFF" height="30.3516" style="stroke:#181818;stroke-width:1.0;" width="10" x="812" y="833.0469"/><rect fill="#FFFFFF" height="151.7578" style="stroke:#181818;stroke-width:1.0;" width="10" x="959" y="1613.8906"/><rect fill="#FFFFFF" height="91.0547" style="stroke:#181818;stroke-width:1.0;" width="10" x="1149" y="1219.3203"/><rect fill="#FFFFFF" height="273.1641" style="stroke:#181818;stroke-width:1.0;" width="10" x="1149" y="1522.8359"/><rect fill="#FFFFFF" height="30.3516" style="stroke:#181818;stroke-width:1.0;" width="10" x="1291" y="1249.6719"/><rect fill="#FFFFFF" height="91.0547" style="stroke:#181818;stroke-width:1.0;" width="10" x="1291" y="1371.0781"/><rect fill="#FFFFFF" height="30.3516" style="stroke:#181818;stroke-width:1.0;" width="10" x="1291" y="1553.1875"/><rect fill="none" height="701.9219" style="stroke:#000000;stroke-width:1.5;" width="1335" x="10" y="1178.6172"/><line style="stroke:#181818;stroke-width:0.5;stroke-dasharray:5.0,5.0;" x1="41" x2="41" y1="82.6094" y2="1897.5391"/><line style="stroke:#181818;stroke-width:0.5;stroke-dasharray:5.0,5.0;" x1="316.5" x2="316.5" y1="82.6094" y2="1897.5391"/><line style="stroke:#181818;stroke-width:0.5;stroke-dasharray:5.0,5.0;" x1="594" x2="594" y1="82.6094" y2="1897.5391"/><line style="stroke:#181818;stroke-width:0.5;stroke-dasharray:5.0,5.0;" x1="697" x2="697" y1="82.6094" y2="1897.5391"/><line style="stroke:#181818;stroke-width:0.5;stroke-dasharray:5.0,5.0;" x1="817" x2="817" y1="82.6094" y2="1897.5391"/><line style="stroke:#181818;stroke-width:0.5;stroke-dasharray:5.0,5.0;" x1="964" x2="964" y1="82.6094" y2="1897.5391"/><line style="stroke:#181818;stroke-width:0.5;stroke-dasharray:5.0,5.0;" x1="1153.5" x2="1153.5" y1="82.6094" y2="1897.5391"/><line style="stroke:#181818;stroke-width:0.5;stroke-dasharray:5.0,5.0;" x1="1296" x2="1296" y1="82.6094" y2="1897.5391"/><text fill="#000000" font-family="sans-serif" font-size="14" lengthAdjust="spacing" textLength="36" x="20" y="79.5332">Client</text><ellipse cx="41" cy="13.5" fill="#E2E2F0" rx="8" ry="8" style="stroke:#181818;stroke-width:0.5;"/><path d="M41,21.5 L41,48.5 M28,29.5 L54,29.5 M41,48.5 L28,63.5 M41,48.5 L54,63.5 " fill="none" style="stroke:#181818;stroke-width:0.5;"/><text fill="#000000" font-family="sans-serif" font-size="14" lengthAdjust="spacing" textLength="36" x="20" y="1911.0723">Client</text><ellipse cx="41" cy="1922.6484" fill="#E2E2F0" rx="8" ry="8" style="stroke:#181818;stroke-width:0.5;"/><path d="M41,1930.6484 L41,1957.6484 M28,1938.6484 L54,1938.6484 M41,1957.6484 L28,1972.6484 M41,1957.6484 L54,1972.6484 " fill="none" style="stroke:#181818;stroke-width:0.5;"/><rect fill="#E2E2F0" height="31.6094" rx="2.5" ry="2.5" style="stroke:#181818;stroke-width:0.5;" width="77" x="278.5" y="50"/><text fill="#000000" font-family="sans-serif" font-size="14" lengthAdjust="spacing" textLength="63" x="285.5" y="71.5332">Storefront</text><rect fill="#E2E2F0" height="31.6094" rx="2.5" ry="2.5" style="stroke:#181818;stroke-width:0.5;" width="77" x="278.5" y="1896.5391"/><text fill="#000000" font-family="sans-serif" font-size="14" lengthAdjust="spacing" textLength="63" x="285.5" y="1918.0723">Storefront</text><rect fill="#E2E2F0" height="31.6094" rx="2.5" ry="2.5" style="stroke:#181818;stroke-width:0.5;" width="88" x="550" y="50"/><text fill="#000000" font-family="sans-serif" font-size="14" lengthAdjust="spacing" textLength="74" x="557" y="71.5332">CartService</text><rect fill="#E2E2F0" height="31.6094" rx="2.5" ry="2.5" style="stroke:#181818;stroke-width:0.5;" width="88" x="550" y="1896.5391"/><text fill="#000000" font-family="sans-serif" font-size="14" lengthAdjust="spacing" textLength="74" x="557" y="1918.0723">CartService</text><rect fill="#E2E2F0" height="31.6094" rx="2.5" ry="2.5" style="stroke:#181818;stroke-width:0.5;" width="98" x="648" y="50"/><text fill="#000000" font-family="sans-serif" font-size="14" lengthAdjust="spacing" textLength="84" x="655" y="71.5332">OrderService</text><rect fill="#E2E2F0" height="31.6094" rx="2.5" ry="2.5" style="stroke:#181818;stroke-width:0.5;" width="98" x="648" y="1896.5391"/><text fill="#000000" font-family="sans-serif" font-size="14" lengthAdjust="spacing" textLength="84" x="655" y="1918.0723">OrderService</text><rect fill="#E2E2F0" height="31.6094" rx="2.5" ry="2.5" style="stroke:#181818;stroke-width:0.5;" width="122" x="756" y="50"/><text fill="#000000" font-family="sans-serif" font-size="14" lengthAdjust="spacing" textLength="108" x="763" y="71.5332">CustomerService</text><rect fill="#E2E2F0" height="31.6094" rx="2.5" ry="2.5" style="stroke:#181818;stroke-width:0.5;" width="122" x="756" y="1896.5391"/><text fill="#000000" font-family="sans-serif" font-size="14" lengthAdjust="spacing" textLength="108" x="763" y="1918.0723">CustomerService</text><rect fill="#E2E2F0" height="31.6094" rx="2.5" ry="2.5" style="stroke:#181818;stroke-width:0.5;" width="116" x="906" y="50"/><text fill="#000000" font-family="sans-serif" font-size="14" lengthAdjust="spacing" textLength="102" x="913" y="71.5332">PaymentService</text><rect fill="#E2E2F0" height="31.6094" rx="2.5" ry="2.5" style="stroke:#181818;stroke-width:0.5;" width="116" x="906" y="1896.5391"/><text fill="#000000" font-family="sans-serif" font-size="14" lengthAdjust="spacing" textLength="102" x="913" y="1918.0723">PaymentService</text><rect fill="#E2E2F0" height="31.6094" rx="2.5" ry="2.5" style="stroke:#181818;stroke-width:0.5;" width="105" x="1101.5" y="50"/><text fill="#000000" font-family="sans-serif" font-size="14" lengthAdjust="spacing" textLength="91" x="1108.5" y="71.5332">PayPalService</text><rect fill="#E2E2F0" height="31.6094" rx="2.5" ry="2.5" style="stroke:#181818;stroke-width:0.5;" width="105" x="1101.5" y="1896.5391"/><text fill="#000000" font-family="sans-serif" font-size="14" lengthAdjust="spacing" textLength="91" x="1108.5" y="1918.0723">PayPalService</text><rect fill="#E2E2F0" height="31.6094" rx="2.5" ry="2.5" style="stroke:#181818;stroke-width:0.5;" width="78" x="1257" y="50"/><text fill="#000000" font-family="sans-serif" font-size="14" lengthAdjust="spacing" textLength="64" x="1264" y="71.5332">PaypalAPI</text><rect fill="#E2E2F0" height="31.6094" rx="2.5" ry="2.5" style="stroke:#181818;stroke-width:0.5;" width="78" x="1257" y="1896.5391"/><text fill="#000000" font-family="sans-serif" font-size="14" lengthAdjust="spacing" textLength="64" x="1264" y="1918.0723">PaypalAPI</text><rect fill="#FFFFFF" height="91.0547" style="stroke:#181818;stroke-width:1.0;" width="10" x="312" y="159.3125"/><rect fill="#FFFFFF" height="176.4609" style="stroke:#181818;stroke-width:1.0;" width="10" x="312" y="325.0703"/><rect fill="#FFFFFF" height="151.7578" style="stroke:#181818;stroke-width:1.0;" width="10" x="312" y="576.2344"/><rect fill="#FFFFFF" height="91.0547" style="stroke:#181818;stroke-width:1.0;" width="10" x="312" y="802.6953"/><rect fill="#FFFFFF" height="372.2734" style="stroke:#181818;stroke-width:1.0;" width="10" x="312" y="968.4531"/><rect fill="#FFFFFF" height="395.0547" style="stroke:#181818;stroke-width:1.0;" width="10" x="312" y="1492.4844"/><rect fill="#FFFFFF" height="30.3516" style="stroke:#181818;stroke-width:1.0;" width="10" x="589" y="189.6641"/><rect fill="#FFFFFF" height="57.8789" style="stroke:#181818;stroke-width:1.0;" width="10" x="692" y="382.9492"/><rect fill="#FFFFFF" height="30.3516" style="stroke:#181818;stroke-width:1.0;" width="10" x="692" y="606.5859"/><rect fill="#FFFFFF" height="82.4063" style="stroke:#181818;stroke-width:1.0;" width="10" x="692" y="1050.8594"/><rect fill="#FFFFFF" height="30.3516" style="stroke:#181818;stroke-width:1.0;" width="10" x="692" y="1644.2422"/><rect fill="#FFFFFF" height="30.3516" style="stroke:#181818;stroke-width:1.0;" width="10" x="692" y="1704.9453"/><rect fill="#FFFFFF" height="30.3516" style="stroke:#181818;stroke-width:1.0;" width="10" x="812" y="667.2891"/><rect fill="#FFFFFF" height="30.3516" style="stroke:#181818;stroke-width:1.0;" width="10" x="812" y="833.0469"/><rect fill="#FFFFFF" height="151.7578" style="stroke:#181818;stroke-width:1.0;" width="10" x="959" y="1613.8906"/><rect fill="#FFFFFF" height="91.0547" style="stroke:#181818;stroke-width:1.0;" width="10" x="1149" y="1219.3203"/><rect fill="#FFFFFF" height="273.1641" style="stroke:#181818;stroke-width:1.0;" width="10" x="1149" y="1522.8359"/><rect fill="#FFFFFF" height="30.3516" style="stroke:#181818;stroke-width:1.0;" width="10" x="1291" y="1249.6719"/><rect fill="#FFFFFF" height="91.0547" style="stroke:#181818;stroke-width:1.0;" width="10" x="1291" y="1371.0781"/><rect fill="#FFFFFF" height="30.3516" style="stroke:#181818;stroke-width:1.0;" width="10" x="1291" y="1553.1875"/><rect fill="#EEEEEE" height="3" style="stroke:#EEEEEE;stroke-width:1.0;" width="1355" x="0" y="113.7852"/><line style="stroke:#000000;stroke-width:1.0;" x1="0" x2="1355" y1="113.7852" y2="113.7852"/><line style="stroke:#000000;stroke-width:1.0;" x1="0" x2="1355" y1="116.7852" y2="116.7852"/><rect fill="#EEEEEE" height="24.3516" style="stroke:#000000;stroke-width:2.0;" width="112" x="621.5" y="102.6094"/><text fill="#000000" font-family="sans-serif" font-size="13" font-weight="bold" lengthAdjust="spacing" textLength="98" x="627.5" y="120.1045">Go to cart page</text><polygon fill="#181818" points="300,155.3125,310,159.3125,300,163.3125,304,159.3125" style="stroke:#181818;stroke-width:1.0;"/><line style="stroke:#181818;stroke-width:1.0;" x1="41" x2="306" y1="159.3125" y2="159.3125"/><text fill="#000000" font-family="sans-serif" font-size="13" lengthAdjust="spacing" textLength="138" x="48" y="154.4561">Browse /storefront/carts</text><polygon fill="#181818" points="577,185.6641,587,189.6641,577,193.6641,581,189.6641" style="stroke:#181818;stroke-width:1.0;"/><line style="stroke:#181818;stroke-width:1.0;" x1="322" x2="583" y1="189.6641" y2="189.6641"/><text fill="#000000" font-family="sans-serif" font-size="13" lengthAdjust="spacing" textLength="248" x="329" y="184.8076">GET /api/cart/storefront/carts/{customer-id}</text><polygon fill="#181818" points="333,216.0156,323,220.0156,333,224.0156,329,220.0156" style="stroke:#181818;stroke-width:1.0;"/><line style="stroke:#181818;stroke-width:1.0;stroke-dasharray:2.0,2.0;" x1="327" x2="593" y1="220.0156" y2="220.0156"/><text fill="#000000" font-family="sans-serif" font-size="13" lengthAdjust="spacing" textLength="44" x="339" y="215.1592">200 OK</text><polygon fill="#181818" points="52,246.3672,42,250.3672,52,254.3672,48,250.3672" style="stroke:#181818;stroke-width:1.0;"/><line style="stroke:#181818;stroke-width:1.0;stroke-dasharray:2.0,2.0;" x1="46" x2="316" y1="250.3672" y2="250.3672"/><text fill="#000000" font-family="sans-serif" font-size="13" lengthAdjust="spacing" textLength="44" x="58" y="245.5107">200 OK</text><rect fill="#EEEEEE" height="3" style="stroke:#EEEEEE;stroke-width:1.0;" width="1355" x="0" y="279.543"/><line style="stroke:#000000;stroke-width:1.0;" x1="0" x2="1355" y1="279.543" y2="279.543"/><line style="stroke:#000000;stroke-width:1.0;" x1="0" x2="1355" y1="282.543" y2="282.543"/><rect fill="#EEEEEE" height="24.3516" style="stroke:#000000;stroke-width:2.0;" width="117" x="619" y="268.3672"/><text fill="#000000" font-family="sans-serif" font-size="13" font-weight="bold" lengthAdjust="spacing" textLength="103" x="625" y="285.8623">Create checkout</text><polygon fill="#181818" points="300,321.0703,310,325.0703,300,329.0703,304,325.0703" style="stroke:#181818;stroke-width:1.0;"/><line style="stroke:#181818;stroke-width:1.0;" x1="41" x2="306" y1="325.0703" y2="325.0703"/><text fill="#000000" font-family="sans-serif" font-size="13" lengthAdjust="spacing" textLength="167" x="48" y="320.2139">Click "Proceed to check out"</text><polygon fill="#181818" points="680,378.9492,690,382.9492,680,386.9492,684,382.9492" style="stroke:#181818;stroke-width:1.0;"/><line style="stroke:#181818;stroke-width:1.0;" x1="322" x2="686" y1="382.9492" y2="382.9492"/><text fill="#000000" font-family="sans-serif" font-size="13" lengthAdjust="spacing" textLength="215" x="329" y="378.0928">POST /api/order/storefront/checkouts</text><path d="M707,338.0703 L707,413.0703 L942,413.0703 L942,348.0703 L932,338.0703 L707,338.0703 " fill="#FEFFDD" style="stroke:#181818;stroke-width:0.5;"/><path d="M932,338.0703 L932,348.0703 L942,348.0703 L932,338.0703 " fill="#FEFFDD" style="stroke:#181818;stroke-width:0.5;"/><text fill="#000000" font-family="sans-serif" font-size="13" lengthAdjust="spacing" textLength="160" x="713" y="356.5654">Body={email, note, coupon,</text><text fill="#000000" font-family="sans-serif" font-size="13" lengthAdjust="spacing" textLength="214" x="713" y="372.917">products:[{id, name, quantity, price}]}</text><text fill="#000000" font-family="sans-serif" font-size="13" lengthAdjust="spacing" textLength="4" x="713" y="389.2686">&#160;</text><text fill="#000000" font-family="sans-serif" font-size="13" lengthAdjust="spacing" textLength="125" x="713" y="405.6201">Header: Authorization</text><polygon fill="#181818" points="333,436.8281,323,440.8281,333,444.8281,329,440.8281" style="stroke:#181818;stroke-width:1.0;"/><line style="stroke:#181818;stroke-width:1.0;stroke-dasharray:2.0,2.0;" x1="327" x2="696" y1="440.8281" y2="440.8281"/><text fill="#000000" font-family="sans-serif" font-size="13" lengthAdjust="spacing" textLength="86" x="339" y="435.9717">201 CREATED</text><polygon fill="#181818" points="52,467.1797,42,471.1797,52,475.1797,48,471.1797" style="stroke:#181818;stroke-width:1.0;"/><line style="stroke:#181818;stroke-width:1.0;stroke-dasharray:2.0,2.0;" x1="46" x2="311" y1="471.1797" y2="471.1797"/><text fill="#000000" font-family="sans-serif" font-size="13" lengthAdjust="spacing" textLength="86" x="58" y="466.3232">201 CREATED</text><polygon fill="#181818" points="52,497.5313,42,501.5313,52,505.5313,48,501.5313" style="stroke:#181818;stroke-width:1.0;"/><line style="stroke:#181818;stroke-width:1.0;stroke-dasharray:2.0,2.0;" x1="46" x2="316" y1="501.5313" y2="501.5313"/><text fill="#000000" font-family="sans-serif" font-size="13" lengthAdjust="spacing" textLength="247" x="58" y="496.6748">Route to /storefront/checkout/{checkout-id}</text><rect fill="#EEEEEE" height="3" style="stroke:#EEEEEE;stroke-width:1.0;" width="1355" x="0" y="530.707"/><line style="stroke:#000000;stroke-width:1.0;" x1="0" x2="1355" y1="530.707" y2="530.707"/><line style="stroke:#000000;stroke-width:1.0;" x1="0" x2="1355" y1="533.707" y2="533.707"/><rect fill="#EEEEEE" height="24.3516" style="stroke:#000000;stroke-width:2.0;" width="145" x="605" y="519.5313"/><text fill="#000000" font-family="sans-serif" font-size="13" font-weight="bold" lengthAdjust="spacing" textLength="131" x="611" y="537.0264">Go to checkout page</text><polygon fill="#181818" points="300,572.2344,310,576.2344,300,580.2344,304,576.2344" style="stroke:#181818;stroke-width:1.0;"/><line style="stroke:#181818;stroke-width:1.0;" x1="41" x2="306" y1="576.2344" y2="576.2344"/><text fill="#000000" font-family="sans-serif" font-size="13" lengthAdjust="spacing" textLength="241" x="48" y="571.3779">Browse /storefront/checkout/{checkout-id}</text><polygon fill="#181818" points="680,602.5859,690,606.5859,680,610.5859,684,606.5859" style="stroke:#181818;stroke-width:1.0;"/><line style="stroke:#181818;stroke-width:1.0;" x1="322" x2="686" y1="606.5859" y2="606.5859"/><text fill="#000000" font-family="sans-serif" font-size="13" lengthAdjust="spacing" textLength="278" x="329" y="601.7295">GET /api/order/storefront/checkout/{checkout-id}</text><polygon fill="#181818" points="333,632.9375,323,636.9375,333,640.9375,329,636.9375" style="stroke:#181818;stroke-width:1.0;"/><line style="stroke:#181818;stroke-width:1.0;stroke-dasharray:2.0,2.0;" x1="327" x2="696" y1="636.9375" y2="636.9375"/><text fill="#000000" font-family="sans-serif" font-size="13" lengthAdjust="spacing" textLength="44" x="339" y="632.0811">200 OK</text><polygon fill="#181818" points="800,663.2891,810,667.2891,800,671.2891,804,667.2891" style="stroke:#181818;stroke-width:1.0;"/><line style="stroke:#181818;stroke-width:1.0;" x1="322" x2="806" y1="667.2891" y2="667.2891"/><text fill="#000000" font-family="sans-serif" font-size="13" lengthAdjust="spacing" textLength="299" x="329" y="662.4326">GET /api/storefront/addresses?customerId={user-id}</text><polygon fill="#181818" points="333,693.6406,323,697.6406,333,701.6406,329,697.6406" style="stroke:#181818;stroke-width:1.0;"/><line style="stroke:#181818;stroke-width:1.0;stroke-dasharray:2.0,2.0;" x1="327" x2="816" y1="697.6406" y2="697.6406"/><text fill="#000000" font-family="sans-serif" font-size="13" lengthAdjust="spacing" textLength="44" x="339" y="692.7842">200 OK</text><polygon fill="#181818" points="52,723.9922,42,727.9922,52,731.9922,48,727.9922" style="stroke:#181818;stroke-width:1.0;"/><line style="stroke:#181818;stroke-width:1.0;stroke-dasharray:2.0,2.0;" x1="46" x2="316" y1="727.9922" y2="727.9922"/><text fill="#000000" font-family="sans-serif" font-size="13" lengthAdjust="spacing" textLength="44" x="58" y="723.1357">200 OK</text><rect fill="#EEEEEE" height="3" style="stroke:#EEEEEE;stroke-width:1.0;" width="1355" x="0" y="757.168"/><line style="stroke:#000000;stroke-width:1.0;" x1="0" x2="1355" y1="757.168" y2="757.168"/><line style="stroke:#000000;stroke-width:1.0;" x1="0" x2="1355" y1="760.168" y2="760.168"/><rect fill="#EEEEEE" height="24.3516" style="stroke:#000000;stroke-width:2.0;" width="357" x="499" y="745.9922"/><text fill="#000000" font-family="sans-serif" font-size="13" font-weight="bold" lengthAdjust="spacing" textLength="343" x="505" y="763.4873">Add new address (optional) if user has default address</text><polygon fill="#181818" points="300,798.6953,310,802.6953,300,806.6953,304,802.6953" style="stroke:#181818;stroke-width:1.0;"/><line style="stroke:#181818;stroke-width:1.0;" x1="41" x2="306" y1="802.6953" y2="802.6953"/><text fill="#000000" font-family="sans-serif" font-size="13" lengthAdjust="spacing" textLength="143" x="48" y="797.8389">Click "Add new address"</text><polygon fill="#181818" points="800,829.0469,810,833.0469,800,837.0469,804,833.0469" style="stroke:#181818;stroke-width:1.0;"/><line style="stroke:#181818;stroke-width:1.0;" x1="322" x2="806" y1="833.0469" y2="833.0469"/><text fill="#000000" font-family="sans-serif" font-size="13" lengthAdjust="spacing" textLength="255" x="329" y="828.1904">POST /api/customer/storefront/user-address</text><polygon fill="#181818" points="333,859.3984,323,863.3984,333,867.3984,329,863.3984" style="stroke:#181818;stroke-width:1.0;"/><line style="stroke:#181818;stroke-width:1.0;stroke-dasharray:2.0,2.0;" x1="327" x2="816" y1="863.3984" y2="863.3984"/><text fill="#000000" font-family="sans-serif" font-size="13" lengthAdjust="spacing" textLength="86" x="339" y="858.542">201 CREATED</text><polygon fill="#181818" points="52,889.75,42,893.75,52,897.75,48,893.75" style="stroke:#181818;stroke-width:1.0;"/><line style="stroke:#181818;stroke-width:1.0;stroke-dasharray:2.0,2.0;" x1="46" x2="316" y1="893.75" y2="893.75"/><text fill="#000000" font-family="sans-serif" font-size="13" lengthAdjust="spacing" textLength="86" x="58" y="888.8936">201 CREATED</text><rect fill="#EEEEEE" height="3" style="stroke:#EEEEEE;stroke-width:1.0;" width="1355" x="0" y="922.9258"/><line style="stroke:#000000;stroke-width:1.0;" x1="0" x2="1355" y1="922.9258" y2="922.9258"/><line style="stroke:#000000;stroke-width:1.0;" x1="0" x2="1355" y1="925.9258" y2="925.9258"/><rect fill="#EEEEEE" height="24.3516" style="stroke:#000000;stroke-width:2.0;" width="94" x="630.5" y="911.75"/><text fill="#000000" font-family="sans-serif" font-size="13" font-weight="bold" lengthAdjust="spacing" textLength="80" x="636.5" y="929.2451">Create order</text><polygon fill="#181818" points="300,964.4531,310,968.4531,300,972.4531,304,968.4531" style="stroke:#181818;stroke-width:1.0;"/><line style="stroke:#181818;stroke-width:1.0;" x1="41" x2="306" y1="968.4531" y2="968.4531"/><text fill="#000000" font-family="sans-serif" font-size="13" lengthAdjust="spacing" textLength="160" x="48" y="963.5967">Click "Proceed to payment"</text><polygon fill="#181818" points="680,1046.8594,690,1050.8594,680,1054.8594,684,1050.8594" style="stroke:#181818;stroke-width:1.0;"/><line style="stroke:#181818;stroke-width:1.0;" x1="322" x2="686" y1="1050.8594" y2="1050.8594"/><text fill="#000000" font-family="sans-serif" font-size="13" lengthAdjust="spacing" textLength="191" x="329" y="1046.0029">POST /api/order/storefront/orders</text><path d="M707,981.4531 L707,1105.4531 L1078,1105.4531 L1078,991.4531 L1068,981.4531 L707,981.4531 " fill="#FEFFDD" style="stroke:#181818;stroke-width:0.5;"/><path d="M1068,981.4531 L1068,991.4531 L1078,991.4531 L1068,981.4531 " fill="#FEFFDD" style="stroke:#181818;stroke-width:0.5;"/><text fill="#000000" font-family="sans-serif" font-size="13" lengthAdjust="spacing" textLength="215" x="713" y="999.9482">Body = {checkoutId, email, note, tax,</text><text fill="#000000" font-family="sans-serif" font-size="13" lengthAdjust="spacing" textLength="291" x="713" y="1016.2998">discount, number of items, total price, delivery fee,</text><text fill="#000000" font-family="sans-serif" font-size="13" lengthAdjust="spacing" textLength="350" x="713" y="1032.6514">coupon code, delivery method, payment status="PENDING",</text><text fill="#000000" font-family="sans-serif" font-size="13" lengthAdjust="spacing" textLength="301" x="713" y="1049.0029">order items: [{id, product id, product name, quantity,</text><text fill="#000000" font-family="sans-serif" font-size="13" lengthAdjust="spacing" textLength="347" x="713" y="1065.3545">product price, note?, discount?, taxAmount?, taxPercent?}]}</text><text fill="#000000" font-family="sans-serif" font-size="13" lengthAdjust="spacing" textLength="4" x="713" y="1081.7061">&#160;</text><text fill="#000000" font-family="sans-serif" font-size="13" lengthAdjust="spacing" textLength="125" x="713" y="1098.0576">Header: Authorization</text><polygon fill="#181818" points="333,1129.2656,323,1133.2656,333,1137.2656,329,1133.2656" style="stroke:#181818;stroke-width:1.0;"/><line style="stroke:#181818;stroke-width:1.0;stroke-dasharray:2.0,2.0;" x1="327" x2="696" y1="1133.2656" y2="1133.2656"/><text fill="#000000" font-family="sans-serif" font-size="13" lengthAdjust="spacing" textLength="86" x="339" y="1128.4092">201 CREATED</text><polygon fill="#181818" points="52,1159.6172,42,1163.6172,52,1167.6172,48,1163.6172" style="stroke:#181818;stroke-width:1.0;"/><line style="stroke:#181818;stroke-width:1.0;stroke-dasharray:2.0,2.0;" x1="46" x2="311" y1="1163.6172" y2="1163.6172"/><text fill="#000000" font-family="sans-serif" font-size="13" lengthAdjust="spacing" textLength="86" x="58" y="1158.7607">201 CREATED</text><path d="M10,1178.6172 L71,1178.6172 L71,1186.9688 L61,1196.9688 L10,1196.9688 L10,1178.6172 " fill="#EEEEEE" style="stroke:#000000;stroke-width:1.5;"/><rect fill="none" height="701.9219" style="stroke:#000000;stroke-width:1.5;" width="1335" x="10" y="1178.6172"/><text fill="#000000" font-family="sans-serif" font-size="13" font-weight="bold" lengthAdjust="spacing" textLength="16" x="25" y="1193.1123">alt</text><text fill="#000000" font-family="sans-serif" font-size="11" font-weight="bold" lengthAdjust="spacing" textLength="72" x="86" y="1192.0361">[Paypal case]</text><polygon fill="#181818" points="1137,1215.3203,1147,1219.3203,1137,1223.3203,1141,1219.3203" style="stroke:#181818;stroke-width:1.0;"/><line style="stroke:#181818;stroke-width:1.0;" x1="322" x2="1143" y1="1219.3203" y2="1219.3203"/><text fill="#000000" font-family="sans-serif" font-size="13" lengthAdjust="spacing" textLength="177" x="329" y="1214.4639">POST /api/payment-paypal/init</text><polygon fill="#181818" points="1279,1245.6719,1289,1249.6719,1279,1253.6719,1283,1249.6719" style="stroke:#181818;stroke-width:1.0;"/><line style="stroke:#181818;stroke-width:1.0;" x1="1159" x2="1285" y1="1249.6719" y2="1249.6719"/><text fill="#000000" font-family="sans-serif" font-size="13" lengthAdjust="spacing" textLength="79" x="1166" y="1244.8154">POST /orders</text><polygon fill="#181818" points="1170,1276.0234,1160,1280.0234,1170,1284.0234,1166,1280.0234" style="stroke:#181818;stroke-width:1.0;"/><line style="stroke:#181818;stroke-width:1.0;stroke-dasharray:2.0,2.0;" x1="1164" x2="1295" y1="1280.0234" y2="1280.0234"/><text fill="#000000" font-family="sans-serif" font-size="13" lengthAdjust="spacing" textLength="73" x="1176" y="1275.167">Redirect API</text><polygon fill="#181818" points="333,1306.375,323,1310.375,333,1314.375,329,1310.375" style="stroke:#181818;stroke-width:1.0;"/><line style="stroke:#181818;stroke-width:1.0;stroke-dasharray:2.0,2.0;" x1="327" x2="1153" y1="1310.375" y2="1310.375"/><text fill="#000000" font-family="sans-serif" font-size="13" lengthAdjust="spacing" textLength="73" x="339" y="1305.5186">Redirect API</text><polygon fill="#181818" points="52,1336.7266,42,1340.7266,52,1344.7266,48,1340.7266" style="stroke:#181818;stroke-width:1.0;"/><line style="stroke:#181818;stroke-width:1.0;stroke-dasharray:2.0,2.0;" x1="46" x2="316" y1="1340.7266" y2="1340.7266"/><text fill="#000000" font-family="sans-serif" font-size="13" lengthAdjust="spacing" textLength="163" x="58" y="1335.8701">Redirect to PayPal payment</text><polygon fill="#181818" points="1279,1367.0781,1289,1371.0781,1279,1375.0781,1283,1371.0781" style="stroke:#181818;stroke-width:1.0;"/><line style="stroke:#181818;stroke-width:1.0;" x1="41" x2="1285" y1="1371.0781" y2="1371.0781"/><text fill="#000000" font-family="sans-serif" font-size="13" lengthAdjust="spacing" textLength="112" x="48" y="1366.2217">GET payment page</text><polygon fill="#181818" points="52,1397.4297,42,1401.4297,52,1405.4297,48,1401.4297" style="stroke:#181818;stroke-width:1.0;"/><line style="stroke:#181818;stroke-width:1.0;stroke-dasharray:2.0,2.0;" x1="46" x2="1290" y1="1401.4297" y2="1401.4297"/><text fill="#000000" font-family="sans-serif" font-size="13" lengthAdjust="spacing" textLength="44" x="58" y="1396.5732">200 OK</text><polygon fill="#181818" points="1279,1427.7813,1289,1431.7813,1279,1435.7813,1283,1431.7813" style="stroke:#181818;stroke-width:1.0;"/><line style="stroke:#181818;stroke-width:1.0;" x1="41" x2="1285" y1="1431.7813" y2="1431.7813"/><text fill="#000000" font-family="sans-serif" font-size="13" lengthAdjust="spacing" textLength="89" x="48" y="1426.9248">POST payment</text><polygon fill="#181818" points="52,1458.1328,42,1462.1328,52,1466.1328,48,1462.1328" style="stroke:#181818;stroke-width:1.0;"/><line style="stroke:#181818;stroke-width:1.0;stroke-dasharray:2.0,2.0;" x1="46" x2="1295" y1="1462.1328" y2="1462.1328"/><text fill="#000000" font-family="sans-serif" font-size="13" lengthAdjust="spacing" textLength="210" x="58" y="1457.2764">Redirect /complete-payment/capture</text><polygon fill="#181818" points="300,1488.4844,310,1492.4844,300,1496.4844,304,1492.4844" style="stroke:#181818;stroke-width:1.0;"/><line style="stroke:#181818;stroke-width:1.0;" x1="41" x2="306" y1="1492.4844" y2="1492.4844"/><text fill="#000000" font-family="sans-serif" font-size="13" lengthAdjust="spacing" textLength="188" x="48" y="1487.6279">GET /complete-payment/capture</text><polygon fill="#181818" points="1137,1518.8359,1147,1522.8359,1137,1526.8359,1141,1522.8359" style="stroke:#181818;stroke-width:1.0;"/><line style="stroke:#181818;stroke-width:1.0;" x1="322" x2="1143" y1="1522.8359" y2="1522.8359"/><text fill="#000000" font-family="sans-serif" font-size="13" lengthAdjust="spacing" textLength="203" x="329" y="1517.9795">POST /api/payment-paypal/capture</text><polygon fill="#181818" points="1279,1549.1875,1289,1553.1875,1279,1557.1875,1283,1553.1875" style="stroke:#181818;stroke-width:1.0;"/><line style="stroke:#181818;stroke-width:1.0;" x1="1159" x2="1285" y1="1553.1875" y2="1553.1875"/><text fill="#000000" font-family="sans-serif" font-size="13" lengthAdjust="spacing" textLength="113" x="1166" y="1548.3311">GET order captures</text><polygon fill="#181818" points="1170,1579.5391,1160,1583.5391,1170,1587.5391,1166,1583.5391" style="stroke:#181818;stroke-width:1.0;"/><line style="stroke:#181818;stroke-width:1.0;stroke-dasharray:2.0,2.0;" x1="1164" x2="1295" y1="1583.5391" y2="1583.5391"/><text fill="#000000" font-family="sans-serif" font-size="13" lengthAdjust="spacing" textLength="44" x="1176" y="1578.6826">200 OK</text><polygon fill="#181818" points="980,1609.8906,970,1613.8906,980,1617.8906,976,1613.8906" style="stroke:#181818;stroke-width:1.0;"/><line style="stroke:#181818;stroke-width:1.0;" x1="974" x2="1148" y1="1613.8906" y2="1613.8906"/><text fill="#000000" font-family="sans-serif" font-size="13" lengthAdjust="spacing" textLength="161" x="986" y="1609.0342">POST /api/payment/capture</text><polygon fill="#181818" points="713,1640.2422,703,1644.2422,713,1648.2422,709,1644.2422" style="stroke:#181818;stroke-width:1.0;"/><line style="stroke:#181818;stroke-width:1.0;" x1="707" x2="958" y1="1644.2422" y2="1644.2422"/><text fill="#000000" font-family="sans-serif" font-size="13" lengthAdjust="spacing" textLength="238" x="719" y="1639.3857">PUT /api/order/storefront/checkout/status</text><polygon fill="#181818" points="947,1670.5938,957,1674.5938,947,1678.5938,951,1674.5938" style="stroke:#181818;stroke-width:1.0;"/><line style="stroke:#181818;stroke-width:1.0;stroke-dasharray:2.0,2.0;" x1="697" x2="953" y1="1674.5938" y2="1674.5938"/><text fill="#000000" font-family="sans-serif" font-size="13" lengthAdjust="spacing" textLength="44" x="704" y="1669.7373">200 OK</text><polygon fill="#181818" points="713,1700.9453,703,1704.9453,713,1708.9453,709,1704.9453" style="stroke:#181818;stroke-width:1.0;"/><line style="stroke:#181818;stroke-width:1.0;" x1="707" x2="958" y1="1704.9453" y2="1704.9453"/><text fill="#000000" font-family="sans-serif" font-size="13" lengthAdjust="spacing" textLength="238" x="719" y="1700.0889">PUT /api/order/storefront/checkout/status</text><polygon fill="#181818" points="947,1731.2969,957,1735.2969,947,1739.2969,951,1735.2969" style="stroke:#181818;stroke-width:1.0;"/><line style="stroke:#181818;stroke-width:1.0;stroke-dasharray:2.0,2.0;" x1="697" x2="953" y1="1735.2969" y2="1735.2969"/><text fill="#000000" font-family="sans-serif" font-size="13" lengthAdjust="spacing" textLength="44" x="704" y="1730.4404">200 OK</text><polygon fill="#181818" points="1137,1761.6484,1147,1765.6484,1137,1769.6484,1141,1765.6484" style="stroke:#181818;stroke-width:1.0;"/><line style="stroke:#181818;stroke-width:1.0;stroke-dasharray:2.0,2.0;" x1="964" x2="1143" y1="1765.6484" y2="1765.6484"/><text fill="#000000" font-family="sans-serif" font-size="13" lengthAdjust="spacing" textLength="86" x="971" y="1760.792">201 CREATED</text><polygon fill="#181818" points="333,1792,323,1796,333,1800,329,1796" style="stroke:#181818;stroke-width:1.0;"/><line style="stroke:#181818;stroke-width:1.0;stroke-dasharray:2.0,2.0;" x1="327" x2="1153" y1="1796" y2="1796"/><text fill="#000000" font-family="sans-serif" font-size="13" lengthAdjust="spacing" textLength="86" x="339" y="1791.1436">201 CREATED</text><polygon fill="#181818" points="52,1822.3516,42,1826.3516,52,1830.3516,48,1826.3516" style="stroke:#181818;stroke-width:1.0;"/><line style="stroke:#181818;stroke-width:1.0;stroke-dasharray:2.0,2.0;" x1="46" x2="311" y1="1826.3516" y2="1826.3516"/><text fill="#000000" font-family="sans-serif" font-size="13" lengthAdjust="spacing" textLength="44" x="58" y="1821.4951">200 OK</text><line style="stroke:#000000;stroke-width:1.0;stroke-dasharray:2.0,2.0;" x1="10" x2="1345" y1="1835.3516" y2="1835.3516"/><text fill="#000000" font-family="sans-serif" font-size="11" font-weight="bold" lengthAdjust="spacing" textLength="60" x="15" y="1846.7705">[COD case]</text><polygon fill="#181818" points="52,1868.5391,42,1872.5391,52,1876.5391,48,1872.5391" style="stroke:#181818;stroke-width:1.0;"/><line style="stroke:#181818;stroke-width:1.0;" x1="46" x2="311" y1="1872.5391" y2="1872.5391"/><text fill="#000000" font-family="sans-serif" font-size="13" lengthAdjust="spacing" textLength="98" x="58" y="1867.6826">Not implemented</text><!--SRC=[pLR1Rjiu4BthAmRkPGlOSBU7HM502Lp7cwO54YF97egY1rOSDqGbKqjIQT8W_xv3YfGeMLPIzD3j8QN9DyEPDpEFOfcH2bQvm9r9liWxc7nSNatWnSbVw-NVRo0fcJ8Y4oNR6RWYA6wLf2NJS8vtvhtk05Qqla9rApAqY8n-Tiul54SL0QJztVLGQIEB3YZpMntSXjqN5744A-kTFch3yXXKiZp17GVAj8-ae-Nch4RH8adJKmb6kYp8-rTCqwJc2MP7Fli5l5NokqQOwuQRkJNG2SkCk6K60q_rVzRKdY_WT7qDSrOA1zypdp-4j6U2FxRE7AKkebaKnEjNh-3YGyAnYmjN4h8EV0ZfmqlJbK9dUOFPDrcPmMnf9_i6ausI6I9tx5Wu47uoah6hym8s5rS-PxVHIThVgfET90zAVBqnoLl9xzC7B9Z8fs3tfv39gfIxQL8goQlCwCMd1y7fa1Lq-6z5fHJcVWgbee8_VdvCadV8tDtBojn89Num8-JEjO1rsCPSjwBxswFsJrXThfVNwvEOjHe-I72B7pY-f1pHyZQKF1NThrpHXuhaMzB3VgujXszvicfDenuisY6FXpdjDs6NpgDcvgFRetiPvmgrHdqSS6SyVQZqth04vGYBfuOcu7zkS9QScWc_WmyB_f2bRJAMlmIn1HiMt92gSDooAZS1DZPVFOzZezKorKvNs8ivS-nuVyzdQB3tnsaQDEcBZAltCnN62_i4VabWtCQUka0AJU-UaOvqjCQmkoaaN6WIdPsXtQhuGWp9BGY3XIQ0D2oljMPAvSt5BQfxs2BzIcgX8htYyLc1f49qZyy9j66cqkbaipu_EJi_dKpzjBWB5b2BczSwYDSzmGjw68An2HpJlJxsOvVCicZN6rGP1N3yspMIvU7nfJTBOmBqhwshVQ_ZidhUPgMpc8kTCCwYkTCzy7R7BceFz9O75xu9UXRsiQzDxFi_QwwzH2uK4ga14EKMMzcB8ZR6pNnuGqz3iAEUhpzScc-QdXVV_dQt7I2VgDNBq5tsTNWwsPx23NfrzCNHx9ituSypMPGv6fnv0_gYAKsby327-pBWP7_KqH0RpswSGKU7UiV6KZUzDtjs1qMKZlJEKM1s8E03aSQLyCMELF2V9n_iMdUwJkjnjLljX3U13MVIclpFeeWgq4fDlmoTTkuDyPZTo0px036dRw_LnScGf0NekIH5j_rjWq1kvNPaplSVq_y0]--></g></svg>