<?xml version="1.0" encoding="us-ascii" standalone="no"?><svg xmlns="http://www.w3.org/2000/svg" xmlns:xlink="http://www.w3.org/1999/xlink" contentStyleType="text/css" height="2381px" preserveAspectRatio="none" style="width:4133px;height:2381px;background:#FFFFFF;" version="1.1" viewBox="0 0 4133 2381" width="4133px" zoomAndPan="magnify"><defs/><g><text fill="#000000" font-family="sans-serif" font-size="14" font-weight="bold" lengthAdjust="spacing" textLength="96" x="2020.25" y="29.5332">Payment Flow</text><rect fill="#DDDDDD" height="2330.5625" style="stroke:#181818;stroke-width:0.5;" width="2986.5" x="578" y="44.6094"/><text fill="#000000" font-family="sans-serif" font-size="13" font-weight="bold" lengthAdjust="spacing" textLength="26" x="2058.25" y="58.1045">YAS</text><rect fill="#EAFAF1" height="2330.5625" style="stroke:#181818;stroke-width:0.5;" width="555" x="3566.5" y="44.6094"/><text fill="#000000" font-family="sans-serif" font-size="13" font-weight="bold" lengthAdjust="spacing" textLength="114" x="3787" y="58.1045">Payment Provider</text><rect fill="#FFFFFF" height="30.3516" style="stroke:#181818;stroke-width:1.0;" width="10" x="48.5" y="1550.5703"/><rect fill="#FFFFFF" height="30.3516" style="stroke:#181818;stroke-width:1.0;" width="10" x="48.5" y="2031.75"/><rect fill="#FDF2E9" height="1397" style="stroke:#181818;stroke-width:1.0;" width="10" x="615.5" y="153.5703"/><rect fill="#FDF2E9" height="222.4609" style="stroke:#181818;stroke-width:1.0;" width="10" x="615.5" y="2062.1016"/><rect fill="#3498DB" height="1029.875" style="stroke:#181818;stroke-width:1.0;" width="10" x="1253.5" y="183.9219"/><rect fill="#3498DB" height="238.3672" style="stroke:#181818;stroke-width:1.0;" width="10" x="1253.5" y="1763.0313"/><rect fill="#3498DB" height="91.0547" style="stroke:#181818;stroke-width:1.0;" width="10" x="1253.5" y="2148.1563"/><rect fill="#3498DB" height="123.3125" style="stroke:#181818;stroke-width:1.0;" width="10" x="1629" y="1833.7344"/><rect fill="#3498DB" height="30.3516" style="stroke:#181818;stroke-width:1.0;" width="10" x="1629" y="2178.5078"/><rect fill="#A9CCE3" height="36.3516" style="stroke:#181818;stroke-width:1.0;" width="10" x="1807" y="1883.3438"/><rect fill="#8AF1F0" height="30.3516" style="stroke:#181818;stroke-width:1.0;" width="10" x="2002" y="304.2344"/><rect fill="#73C6B6" height="191.7188" style="stroke:#181818;stroke-width:1.0;" width="10" x="2136.5" y="875.9688"/><rect fill="#73C6B6" height="221.3672" style="stroke:#181818;stroke-width:1.0;" width="10" x="2136.5" y="1213.7969"/><rect fill="#73C6B6" height="30.3516" style="stroke:#181818;stroke-width:1.0;" width="10" x="2136.5" y="1482.8672"/><rect fill="#73C6B6" height="121.4063" style="stroke:#181818;stroke-width:1.0;" width="10" x="2136.5" y="1641.625"/><rect fill="#808B96" height="115.7578" style="stroke:#181818;stroke-width:1.0;" width="10" x="2268" y="457.9922"/><rect fill="#FAD7A0" height="30.3516" style="stroke:#181818;stroke-width:1.0;" width="10" x="3488.5" y="1702.3281"/><rect fill="#FAD7A0" height="30.3516" style="stroke:#181818;stroke-width:1.0;" width="10" x="3488.5" y="1971.0469"/><rect fill="#73C6B6" height="120.3125" style="stroke:#181818;stroke-width:1.0;" width="10" x="3628.5" y="1269.5"/><rect fill="#73C6B6" height="450.8281" style="stroke:#181818;stroke-width:1.0;" width="10" x="3628.5" y="1580.9219"/><rect fill="#F1948A" height="79.0547" style="stroke:#000000;stroke-width:1.5;" width="1309.5" x="10" y="349.5859"/><rect fill="#F1948A" height="109.4063" style="stroke:#000000;stroke-width:1.5;" width="2071.5" x="10" y="706.8594"/><rect fill="none" height="199.3672" style="stroke:#000000;stroke-width:1.5;" width="2056" x="2071.5" y="1228.7969"/><rect fill="none" height="79.0547" style="stroke:#000000;stroke-width:1.5;" width="1639.5" x="572" y="1442.1641"/><rect fill="none" height="170.1094" style="stroke:#000000;stroke-width:1.5;" width="1655.5" x="10" y="2107.4531"/><line style="stroke:#181818;stroke-width:0.5;stroke-dasharray:5.0,5.0;" x1="53" x2="53" y1="121.2188" y2="2294.5625"/><line style="stroke:#181818;stroke-width:0.5;stroke-dasharray:5.0,5.0;" x1="620" x2="620" y1="121.2188" y2="2294.5625"/><line style="stroke:#181818;stroke-width:0.5;stroke-dasharray:5.0,5.0;" x1="1258.5" x2="1258.5" y1="121.2188" y2="2294.5625"/><line style="stroke:#181818;stroke-width:0.5;stroke-dasharray:5.0,5.0;" x1="1546.5" x2="1546.5" y1="231.7266" y2="2294.5625"/><line style="stroke:#181818;stroke-width:0.5;stroke-dasharray:5.0,5.0;" x1="1633.5" x2="1633.5" y1="1841.1875" y2="2294.5625"/><line style="stroke:#181818;stroke-width:0.5;stroke-dasharray:5.0,5.0;" x1="1811.5" x2="1811.5" y1="121.2188" y2="2294.5625"/><line style="stroke:#181818;stroke-width:0.5;stroke-dasharray:5.0,5.0;" x1="2006.5" x2="2006.5" y1="121.2188" y2="2294.5625"/><line style="stroke:#181818;stroke-width:0.5;stroke-dasharray:5.0,5.0;" x1="2141.5" x2="2141.5" y1="121.2188" y2="2294.5625"/><line style="stroke:#181818;stroke-width:0.5;stroke-dasharray:5.0,5.0;" x1="2272.5" x2="2272.5" y1="121.2188" y2="2294.5625"/><line style="stroke:#181818;stroke-width:0.5;stroke-dasharray:5.0,5.0;" x1="3353.5" x2="3353.5" y1="1025.5313" y2="2294.5625"/><line style="stroke:#181818;stroke-width:0.5;stroke-dasharray:5.0,5.0;" x1="3493.5" x2="3493.5" y1="121.2188" y2="2294.5625"/><line style="stroke:#181818;stroke-width:0.5;stroke-dasharray:5.0,5.0;" x1="3633.5" x2="3633.5" y1="121.2188" y2="2294.5625"/><line style="stroke:#181818;stroke-width:0.5;stroke-dasharray:5.0,5.0;" x1="4024.5" x2="4024.5" y1="1317.3047" y2="2294.5625"/><text fill="#000000" font-family="sans-serif" font-size="14" lengthAdjust="spacing" textLength="61" x="20" y="118.1426">Customer</text><ellipse cx="53.5" cy="52.1094" fill="#FAD7A0" rx="8" ry="8" style="stroke:#181818;stroke-width:0.5;"/><path d="M53.5,60.1094 L53.5,87.1094 M40.5,68.1094 L66.5,68.1094 M53.5,87.1094 L40.5,102.1094 M53.5,87.1094 L66.5,102.1094 " fill="none" style="stroke:#181818;stroke-width:0.5;"/><text fill="#000000" font-family="sans-serif" font-size="14" lengthAdjust="spacing" textLength="61" x="20" y="2308.0957">Customer</text><ellipse cx="53.5" cy="2319.6719" fill="#FAD7A0" rx="8" ry="8" style="stroke:#181818;stroke-width:0.5;"/><path d="M53.5,2327.6719 L53.5,2354.6719 M40.5,2335.6719 L66.5,2335.6719 M53.5,2354.6719 L40.5,2369.6719 M53.5,2354.6719 L66.5,2369.6719 " fill="none" style="stroke:#181818;stroke-width:0.5;"/><rect fill="#FDF2E9" height="31.6094" rx="2.5" ry="2.5" style="stroke:#181818;stroke-width:0.5;" width="77" x="582" y="88.6094"/><text fill="#000000" font-family="sans-serif" font-size="14" lengthAdjust="spacing" textLength="63" x="589" y="110.1426">Storefront</text><rect fill="#FDF2E9" height="31.6094" rx="2.5" ry="2.5" style="stroke:#181818;stroke-width:0.5;" width="77" x="582" y="2293.5625"/><text fill="#000000" font-family="sans-serif" font-size="14" lengthAdjust="spacing" textLength="63" x="589" y="2315.0957">Storefront</text><rect fill="#3498DB" height="31.6094" rx="2.5" ry="2.5" style="stroke:#181818;stroke-width:0.5;" width="102" x="1207.5" y="88.6094"/><text fill="#000000" font-family="sans-serif" font-size="14" lengthAdjust="spacing" textLength="88" x="1214.5" y="110.1426">Order Service</text><rect fill="#3498DB" height="31.6094" rx="2.5" ry="2.5" style="stroke:#181818;stroke-width:0.5;" width="102" x="1207.5" y="2293.5625"/><text fill="#000000" font-family="sans-serif" font-size="14" lengthAdjust="spacing" textLength="88" x="1214.5" y="2315.0957">Order Service</text><text fill="#000000" font-family="sans-serif" font-size="14" lengthAdjust="spacing" textLength="60" x="1513.5" y="2308.0957">Checkout</text><ellipse cx="1546.5" cy="2327.1719" fill="#3498DB" rx="12" ry="12" style="stroke:#181818;stroke-width:0.5;"/><line style="stroke:#181818;stroke-width:0.5;" x1="1534.5" x2="1558.5" y1="2341.1719" y2="2341.1719"/><text fill="#000000" font-family="sans-serif" font-size="14" lengthAdjust="spacing" textLength="37" x="1612.5" y="2308.0957">Order</text><ellipse cx="1634" cy="2327.1719" fill="#3498DB" rx="12" ry="12" style="stroke:#181818;stroke-width:0.5;"/><line style="stroke:#181818;stroke-width:0.5;" x1="1622" x2="1646" y1="2341.1719" y2="2341.1719"/><rect fill="#A9CCE3" height="31.6094" rx="2.5" ry="2.5" style="stroke:#181818;stroke-width:0.5;" width="105" x="1759.5" y="88.6094"/><text fill="#000000" font-family="sans-serif" font-size="14" lengthAdjust="spacing" textLength="91" x="1766.5" y="110.1426">Shopping Cart</text><rect fill="#A9CCE3" height="31.6094" rx="2.5" ry="2.5" style="stroke:#181818;stroke-width:0.5;" width="105" x="1759.5" y="2293.5625"/><text fill="#000000" font-family="sans-serif" font-size="14" lengthAdjust="spacing" textLength="91" x="1766.5" y="2315.0957">Shopping Cart</text><rect fill="#8AF1F0" height="31.6094" rx="2.5" ry="2.5" style="stroke:#181818;stroke-width:0.5;" width="129" x="1942.5" y="88.6094"/><text fill="#000000" font-family="sans-serif" font-size="14" lengthAdjust="spacing" textLength="115" x="1949.5" y="110.1426">Promotion Service</text><rect fill="#8AF1F0" height="31.6094" rx="2.5" ry="2.5" style="stroke:#181818;stroke-width:0.5;" width="129" x="1942.5" y="2293.5625"/><text fill="#000000" font-family="sans-serif" font-size="14" lengthAdjust="spacing" textLength="115" x="1949.5" y="2315.0957">Promotion Service</text><rect fill="#73C6B6" height="31.6094" rx="2.5" ry="2.5" style="stroke:#181818;stroke-width:0.5;" width="120" x="2081.5" y="88.6094"/><text fill="#000000" font-family="sans-serif" font-size="14" lengthAdjust="spacing" textLength="106" x="2088.5" y="110.1426">Payment Service</text><rect fill="#73C6B6" height="31.6094" rx="2.5" ry="2.5" style="stroke:#181818;stroke-width:0.5;" width="120" x="2081.5" y="2293.5625"/><text fill="#000000" font-family="sans-serif" font-size="14" lengthAdjust="spacing" textLength="106" x="2088.5" y="2315.0957">Payment Service</text><rect fill="#808B96" height="31.6094" rx="2.5" ry="2.5" style="stroke:#181818;stroke-width:0.5;" width="123" x="2211.5" y="88.6094"/><text fill="#000000" font-family="sans-serif" font-size="14" lengthAdjust="spacing" textLength="109" x="2218.5" y="110.1426">Inventory Service</text><rect fill="#808B96" height="31.6094" rx="2.5" ry="2.5" style="stroke:#181818;stroke-width:0.5;" width="123" x="2211.5" y="2293.5625"/><text fill="#000000" font-family="sans-serif" font-size="14" lengthAdjust="spacing" textLength="109" x="2218.5" y="2315.0957">Inventory Service</text><text fill="#000000" font-family="sans-serif" font-size="14" lengthAdjust="spacing" textLength="119" x="3291.5" y="2308.0957">Checkout Payment</text><ellipse cx="3354" cy="2327.1719" fill="#73C6B6" rx="12" ry="12" style="stroke:#181818;stroke-width:0.5;"/><line style="stroke:#181818;stroke-width:0.5;" x1="3342" x2="3366" y1="2341.1719" y2="2341.1719"/><rect fill="#FAD7A0" height="31.6094" rx="2.5" ry="2.5" style="stroke:#181818;stroke-width:0.5;" width="134" x="3426.5" y="88.6094"/><text fill="#000000" font-family="sans-serif" font-size="14" lengthAdjust="spacing" textLength="120" x="3433.5" y="110.1426">Notification Service</text><rect fill="#FAD7A0" height="31.6094" rx="2.5" ry="2.5" style="stroke:#181818;stroke-width:0.5;" width="134" x="3426.5" y="2293.5625"/><text fill="#000000" font-family="sans-serif" font-size="14" lengthAdjust="spacing" textLength="120" x="3433.5" y="2315.0957">Notification Service</text><rect fill="#73C6B6" height="31.6094" rx="2.5" ry="2.5" style="stroke:#181818;stroke-width:0.5;" width="126" x="3570.5" y="88.6094"/><text fill="#000000" font-family="sans-serif" font-size="14" lengthAdjust="spacing" textLength="112" x="3577.5" y="110.1426">Payment Provider</text><rect fill="#73C6B6" height="31.6094" rx="2.5" ry="2.5" style="stroke:#181818;stroke-width:0.5;" width="126" x="3570.5" y="2293.5625"/><text fill="#000000" font-family="sans-serif" font-size="14" lengthAdjust="spacing" textLength="112" x="3577.5" y="2315.0957">Payment Provider</text><text fill="#000000" font-family="sans-serif" font-size="14" lengthAdjust="spacing" textLength="180" x="3931.5" y="2308.0957">Payment Provider: Checkout</text><ellipse cx="4024.5" cy="2327.1719" fill="#73C6B6" rx="12" ry="12" style="stroke:#181818;stroke-width:0.5;"/><line style="stroke:#181818;stroke-width:0.5;" x1="4012.5" x2="4036.5" y1="2341.1719" y2="2341.1719"/><rect fill="#FFFFFF" height="30.3516" style="stroke:#181818;stroke-width:1.0;" width="10" x="48.5" y="1550.5703"/><rect fill="#FFFFFF" height="30.3516" style="stroke:#181818;stroke-width:1.0;" width="10" x="48.5" y="2031.75"/><rect fill="#FDF2E9" height="1397" style="stroke:#181818;stroke-width:1.0;" width="10" x="615.5" y="153.5703"/><rect fill="#FDF2E9" height="222.4609" style="stroke:#181818;stroke-width:1.0;" width="10" x="615.5" y="2062.1016"/><rect fill="#3498DB" height="1029.875" style="stroke:#181818;stroke-width:1.0;" width="10" x="1253.5" y="183.9219"/><rect fill="#3498DB" height="238.3672" style="stroke:#181818;stroke-width:1.0;" width="10" x="1253.5" y="1763.0313"/><rect fill="#3498DB" height="91.0547" style="stroke:#181818;stroke-width:1.0;" width="10" x="1253.5" y="2148.1563"/><rect fill="#3498DB" height="123.3125" style="stroke:#181818;stroke-width:1.0;" width="10" x="1629" y="1833.7344"/><rect fill="#3498DB" height="30.3516" style="stroke:#181818;stroke-width:1.0;" width="10" x="1629" y="2178.5078"/><rect fill="#A9CCE3" height="36.3516" style="stroke:#181818;stroke-width:1.0;" width="10" x="1807" y="1883.3438"/><rect fill="#8AF1F0" height="30.3516" style="stroke:#181818;stroke-width:1.0;" width="10" x="2002" y="304.2344"/><rect fill="#73C6B6" height="191.7188" style="stroke:#181818;stroke-width:1.0;" width="10" x="2136.5" y="875.9688"/><rect fill="#73C6B6" height="221.3672" style="stroke:#181818;stroke-width:1.0;" width="10" x="2136.5" y="1213.7969"/><rect fill="#73C6B6" height="30.3516" style="stroke:#181818;stroke-width:1.0;" width="10" x="2136.5" y="1482.8672"/><rect fill="#73C6B6" height="121.4063" style="stroke:#181818;stroke-width:1.0;" width="10" x="2136.5" y="1641.625"/><rect fill="#808B96" height="115.7578" style="stroke:#181818;stroke-width:1.0;" width="10" x="2268" y="457.9922"/><rect fill="#FAD7A0" height="30.3516" style="stroke:#181818;stroke-width:1.0;" width="10" x="3488.5" y="1702.3281"/><rect fill="#FAD7A0" height="30.3516" style="stroke:#181818;stroke-width:1.0;" width="10" x="3488.5" y="1971.0469"/><rect fill="#73C6B6" height="120.3125" style="stroke:#181818;stroke-width:1.0;" width="10" x="3628.5" y="1269.5"/><rect fill="#73C6B6" height="450.8281" style="stroke:#181818;stroke-width:1.0;" width="10" x="3628.5" y="1580.9219"/><polygon fill="#181818" points="603.5,149.5703,613.5,153.5703,603.5,157.5703,607.5,153.5703" style="stroke:#181818;stroke-width:1.0;"/><line style="stroke:#181818;stroke-width:1.0;" x1="53.5" x2="609.5" y1="153.5703" y2="153.5703"/><text fill="#000000" font-family="sans-serif" font-size="13" lengthAdjust="spacing" textLength="117" x="60.5" y="148.7139">Proceed to payment</text><polygon fill="#181818" points="1241.5,179.9219,1251.5,183.9219,1241.5,187.9219,1245.5,183.9219" style="stroke:#181818;stroke-width:1.0;"/><line style="stroke:#181818;stroke-width:1.0;" x1="625.5" x2="1247.5" y1="183.9219" y2="183.9219"/><text fill="#000000" font-family="sans-serif" font-size="13" lengthAdjust="spacing" textLength="322" x="632.5" y="179.0654">POST /order/checkouts/{checkout_id}/process-payment</text><polygon fill="#181818" points="1501.5,210.2734,1511.5,214.2734,1501.5,218.2734,1505.5,214.2734" style="stroke:#181818;stroke-width:1.0;"/><line style="stroke:#181818;stroke-width:1.0;" x1="1263.5" x2="1507.5" y1="214.2734" y2="214.2734"/><text fill="#000000" font-family="sans-serif" font-size="13" lengthAdjust="spacing" textLength="120" x="1270.5" y="209.417">find by {checkout_id}</text><text fill="#000000" font-family="sans-serif" font-size="14" lengthAdjust="spacing" textLength="60" x="1513.5" y="238.4551">Checkout</text><ellipse cx="1546.5" cy="207.9219" fill="#3498DB" rx="12" ry="12" style="stroke:#181818;stroke-width:0.5;"/><line style="stroke:#181818;stroke-width:0.5;" x1="1534.5" x2="1558.5" y1="221.9219" y2="221.9219"/><polygon fill="#181818" points="1274.5,269.8828,1264.5,273.8828,1274.5,277.8828,1270.5,273.8828" style="stroke:#181818;stroke-width:1.0;"/><line style="stroke:#181818;stroke-width:1.0;stroke-dasharray:2.0,2.0;" x1="1268.5" x2="1545.5" y1="273.8828" y2="273.8828"/><text fill="#000000" font-family="sans-serif" font-size="13" lengthAdjust="spacing" textLength="53" x="1280.5" y="269.0264">checkout</text><polygon fill="#181818" points="1990,300.2344,2000,304.2344,1990,308.2344,1994,304.2344" style="stroke:#181818;stroke-width:1.0;"/><line style="stroke:#181818;stroke-width:1.0;" x1="1263.5" x2="1996" y1="304.2344" y2="304.2344"/><text fill="#000000" font-family="sans-serif" font-size="13" lengthAdjust="spacing" textLength="487" x="1270.5" y="299.3779">POST /promotion/promotions/{PROMOCODE}/usage {checkout_id, state: APPLIED}</text><polygon fill="#181818" points="1274.5,330.5859,1264.5,334.5859,1274.5,338.5859,1270.5,334.5859" style="stroke:#181818;stroke-width:1.0;"/><line style="stroke:#181818;stroke-width:1.0;stroke-dasharray:2.0,2.0;" x1="1268.5" x2="2006" y1="334.5859" y2="334.5859"/><text fill="#000000" font-family="sans-serif" font-size="13" lengthAdjust="spacing" textLength="86" x="1280.5" y="329.7295">201 CREATED</text><path d="M10,349.5859 L71,349.5859 L71,357.9375 L61,367.9375 L10,367.9375 L10,349.5859 " fill="#EEEEEE" style="stroke:#000000;stroke-width:1.5;"/><rect fill="none" height="79.0547" style="stroke:#000000;stroke-width:1.5;" width="1309.5" x="10" y="349.5859"/><text fill="#000000" font-family="sans-serif" font-size="13" font-weight="bold" lengthAdjust="spacing" textLength="16" x="25" y="364.0811">alt</text><text fill="#000000" font-family="sans-serif" font-size="11" font-weight="bold" lengthAdjust="spacing" textLength="82" x="86" y="363.0049">["Fail to apply"]</text><polygon fill="#181818" points="636.5,386.2891,626.5,390.2891,636.5,394.2891,632.5,390.2891" style="stroke:#181818;stroke-width:1.0;"/><line style="stroke:#181818;stroke-width:1.0;stroke-dasharray:2.0,2.0;" x1="630.5" x2="1252.5" y1="390.2891" y2="390.2891"/><text fill="#000000" font-family="sans-serif" font-size="13" lengthAdjust="spacing" textLength="536" x="642.5" y="385.4326">400 BAD REQUEST {ERROR_CODE: PROMOCODE_RAN_OUT| PROMOCODE_EXPIRED}</text><polygon fill="#181818" points="64.5,416.6406,54.5,420.6406,64.5,424.6406,60.5,420.6406" style="stroke:#181818;stroke-width:1.0;"/><line style="stroke:#181818;stroke-width:1.0;stroke-dasharray:2.0,2.0;" x1="58.5" x2="614.5" y1="420.6406" y2="420.6406"/><text fill="#000000" font-family="sans-serif" font-size="13" lengthAdjust="spacing" textLength="302" x="70.5" y="415.7842">PROMOCODE ran out of usage| Promocode expired</text><polygon fill="#181818" points="2256,453.9922,2266,457.9922,2256,461.9922,2260,457.9922" style="stroke:#181818;stroke-width:1.0;"/><line style="stroke:#181818;stroke-width:1.0;" x1="1263.5" x2="2262" y1="457.9922" y2="457.9922"/><text fill="#000000" font-family="sans-serif" font-size="13" lengthAdjust="spacing" textLength="293" x="1270.5" y="453.1357">POST /inventory/products/stocks { product_items }</text><path d="M1268,470.9922 L1268,545.9922 L1460,545.9922 L1460,480.9922 L1450,470.9922 L1268,470.9922 " fill="#FEFFDD" style="stroke:#181818;stroke-width:0.5;"/><path d="M1450,470.9922 L1450,480.9922 L1460,480.9922 L1450,470.9922 " fill="#FEFFDD" style="stroke:#181818;stroke-width:0.5;"/><text fill="#000000" font-family="sans-serif" font-size="13" lengthAdjust="spacing" textLength="171" x="1274" y="489.4873">lock stocks for product_items</text><text fill="#000000" font-family="sans-serif" font-size="13" lengthAdjust="spacing" textLength="86" x="1274" y="505.8389">product_items:</text><text fill="#000000" font-family="sans-serif" font-size="13" lengthAdjust="spacing" textLength="68" x="1282" y="522.1904">- product_id</text><text fill="#000000" font-family="sans-serif" font-size="13" lengthAdjust="spacing" textLength="54" x="1282" y="538.542">- quantity</text><polygon fill="#181818" points="1274.5,569.75,1264.5,573.75,1274.5,577.75,1270.5,573.75" style="stroke:#181818;stroke-width:1.0;"/><line style="stroke:#181818;stroke-width:1.0;stroke-dasharray:2.0,2.0;" x1="1268.5" x2="2272" y1="573.75" y2="573.75"/><text fill="#000000" font-family="sans-serif" font-size="13" lengthAdjust="spacing" textLength="172" x="1280.5" y="568.8936">confirmation { product_items }</text><path d="M2278,586.75 L2278,694.75 L2537,694.75 L2537,596.75 L2527,586.75 L2278,586.75 " fill="#FEFFDD" style="stroke:#181818;stroke-width:0.5;"/><path d="M2527,586.75 L2527,596.75 L2537,596.75 L2527,586.75 " fill="#FEFFDD" style="stroke:#181818;stroke-width:0.5;"/><text fill="#000000" font-family="sans-serif" font-size="13" lengthAdjust="spacing" textLength="238" x="2284" y="605.2451">Stock confirmation, list out state of stock</text><text fill="#000000" font-family="sans-serif" font-size="13" lengthAdjust="spacing" textLength="4" x="2284" y="621.5967">{</text><text fill="#000000" font-family="sans-serif" font-size="13" lengthAdjust="spacing" textLength="128" x="2292" y="637.9482">&lt;product_id_01&gt;: OK,</text><text fill="#000000" font-family="sans-serif" font-size="13" lengthAdjust="spacing" textLength="211" x="2292" y="654.2998">&lt;product_id_02&gt;: OUT_OF_STOCK,</text><text fill="#000000" font-family="sans-serif" font-size="13" lengthAdjust="spacing" textLength="124" x="2292" y="670.6514">&lt;product_id_03&gt;: OK</text><text fill="#000000" font-family="sans-serif" font-size="13" lengthAdjust="spacing" textLength="4" x="2284" y="687.0029">}</text><path d="M10,706.8594 L71,706.8594 L71,715.2109 L61,725.2109 L10,725.2109 L10,706.8594 " fill="#EEEEEE" style="stroke:#000000;stroke-width:1.5;"/><rect fill="none" height="109.4063" style="stroke:#000000;stroke-width:1.5;" width="2071.5" x="10" y="706.8594"/><text fill="#000000" font-family="sans-serif" font-size="13" font-weight="bold" lengthAdjust="spacing" textLength="16" x="25" y="721.3545">alt</text><text fill="#000000" font-family="sans-serif" font-size="11" font-weight="bold" lengthAdjust="spacing" textLength="106" x="86" y="720.2783">["any out of stock"]</text><polygon fill="#181818" points="1995,743.5625,2005,747.5625,1995,751.5625,1999,747.5625" style="stroke:#181818;stroke-width:1.0;"/><line style="stroke:#181818;stroke-width:1.0;stroke-dasharray:2.0,2.0;" x1="1263.5" x2="2001" y1="747.5625" y2="747.5625"/><text fill="#000000" font-family="sans-serif" font-size="13" lengthAdjust="spacing" textLength="192" x="1270.5" y="742.7061">Event: rollback promocode usage</text><polygon fill="#181818" points="636.5,773.9141,626.5,777.9141,636.5,781.9141,632.5,777.9141" style="stroke:#181818;stroke-width:1.0;"/><line style="stroke:#181818;stroke-width:1.0;stroke-dasharray:2.0,2.0;" x1="630.5" x2="1252.5" y1="777.9141" y2="777.9141"/><text fill="#000000" font-family="sans-serif" font-size="13" lengthAdjust="spacing" textLength="604" x="642.5" y="773.0576">400 Bad Request { ERROR_CODE: OUT_OF_STOCK, payload: { &lt;product_id_02&gt;: OUT_OF_STOCK } }</text><polygon fill="#181818" points="64.5,804.2656,54.5,808.2656,64.5,812.2656,60.5,808.2656" style="stroke:#181818;stroke-width:1.0;"/><line style="stroke:#181818;stroke-width:1.0;stroke-dasharray:2.0,2.0;" x1="58.5" x2="614.5" y1="808.2656" y2="808.2656"/><text fill="#000000" font-family="sans-serif" font-size="13" lengthAdjust="spacing" textLength="98" x="70.5" y="803.4092">out of stock error</text><polygon fill="#181818" points="1534.5,841.6172,1544.5,845.6172,1534.5,849.6172,1538.5,845.6172" style="stroke:#181818;stroke-width:1.0;"/><line style="stroke:#181818;stroke-width:1.0;" x1="1263.5" x2="1540.5" y1="845.6172" y2="845.6172"/><text fill="#000000" font-family="sans-serif" font-size="13" lengthAdjust="spacing" textLength="259" x="1270.5" y="840.7607">update { status=PAYMENT_PROCESSING }</text><polygon fill="#181818" points="2124.5,871.9688,2134.5,875.9688,2124.5,879.9688,2128.5,875.9688" style="stroke:#181818;stroke-width:1.0;"/><line style="stroke:#181818;stroke-width:1.0;" x1="1263.5" x2="2130.5" y1="875.9688" y2="875.9688"/><text fill="#000000" font-family="sans-serif" font-size="13" lengthAdjust="spacing" textLength="227" x="1270.5" y="871.1123">POST /payment/payments { checkout }</text><path d="M1268,888.9688 L1268,979.9688 L1405,979.9688 L1405,898.9688 L1395,888.9688 L1268,888.9688 " fill="#FEFFDD" style="stroke:#181818;stroke-width:0.5;"/><path d="M1395,888.9688 L1395,898.9688 L1405,898.9688 L1395,888.9688 " fill="#FEFFDD" style="stroke:#181818;stroke-width:0.5;"/><text fill="#000000" font-family="sans-serif" font-size="13" lengthAdjust="spacing" textLength="109" x="1274" y="907.4639">checkout includes:</text><text fill="#000000" font-family="sans-serif" font-size="13" lengthAdjust="spacing" textLength="108" x="1282" y="923.8154">- payment_method</text><text fill="#000000" font-family="sans-serif" font-size="13" lengthAdjust="spacing" textLength="90" x="1282" y="940.167">- product_items</text><text fill="#000000" font-family="sans-serif" font-size="13" lengthAdjust="spacing" textLength="92" x="1282" y="956.5186">- shipment_fees</text><text fill="#000000" font-family="sans-serif" font-size="13" lengthAdjust="spacing" textLength="40" x="1282" y="972.8701">- taxes</text><polygon fill="#181818" points="3279.5,1004.0781,3289.5,1008.0781,3279.5,1012.0781,3283.5,1008.0781" style="stroke:#181818;stroke-width:1.0;"/><line style="stroke:#181818;stroke-width:1.0;" x1="2146.5" x2="3285.5" y1="1008.0781" y2="1008.0781"/><text fill="#000000" font-family="sans-serif" font-size="13" lengthAdjust="spacing" textLength="1121" x="2153.5" y="1003.2217">create { status=(payment_type is COD ? PROCESSING : NEW), payment_provider_checkout_id, checkout_id, product_items, shipment_fees, taxes, payment_type: checkout.payment_method }</text><text fill="#000000" font-family="sans-serif" font-size="14" lengthAdjust="spacing" textLength="119" x="3291.5" y="1032.2598">Checkout Payment</text><ellipse cx="3354" cy="1001.7266" fill="#73C6B6" rx="12" ry="12" style="stroke:#181818;stroke-width:0.5;"/><line style="stroke:#181818;stroke-width:0.5;" x1="3342" x2="3366" y1="1015.7266" y2="1015.7266"/><polygon fill="#181818" points="1274.5,1063.6875,1264.5,1067.6875,1274.5,1071.6875,1270.5,1067.6875" style="stroke:#181818;stroke-width:1.0;"/><line style="stroke:#181818;stroke-width:1.0;stroke-dasharray:2.0,2.0;" x1="1268.5" x2="2140.5" y1="1067.6875" y2="1067.6875"/><text fill="#000000" font-family="sans-serif" font-size="13" lengthAdjust="spacing" textLength="110" x="1280.5" y="1062.8311">checkout_payment</text><path d="M1268,1080.6875 L1268,1155.6875 L1483,1155.6875 L1483,1090.6875 L1473,1080.6875 L1268,1080.6875 " fill="#FEFFDD" style="stroke:#181818;stroke-width:0.5;"/><path d="M1473,1080.6875 L1473,1090.6875 L1483,1090.6875 L1473,1080.6875 " fill="#FEFFDD" style="stroke:#181818;stroke-width:0.5;"/><text fill="#000000" font-family="sans-serif" font-size="13" lengthAdjust="spacing" textLength="114" x="1274" y="1099.1826">checkout_payment:</text><text fill="#000000" font-family="sans-serif" font-size="13" lengthAdjust="spacing" textLength="186" x="1282" y="1115.5342">- payment_provider_checkout_id</text><text fill="#000000" font-family="sans-serif" font-size="13" lengthAdjust="spacing" textLength="61" x="1282" y="1131.8857">- checkout</text><text fill="#000000" font-family="sans-serif" font-size="13" lengthAdjust="spacing" textLength="90" x="1282" y="1148.2373">- payment_type</text><polygon fill="#181818" points="636.5,1179.4453,626.5,1183.4453,636.5,1187.4453,632.5,1183.4453" style="stroke:#181818;stroke-width:1.0;"/><line style="stroke:#181818;stroke-width:1.0;stroke-dasharray:2.0,2.0;" x1="630.5" x2="1252.5" y1="1183.4453" y2="1183.4453"/><text fill="#000000" font-family="sans-serif" font-size="13" lengthAdjust="spacing" textLength="110" x="642.5" y="1178.5889">checkout_payment</text><polygon fill="#181818" points="2157.5,1209.7969,2147.5,1213.7969,2157.5,1217.7969,2153.5,1213.7969" style="stroke:#181818;stroke-width:1.0;"/><line style="stroke:#181818;stroke-width:1.0;stroke-dasharray:2.0,2.0;" x1="2151.5" x2="3353" y1="1213.7969" y2="1213.7969"/><text fill="#000000" font-family="sans-serif" font-size="13" lengthAdjust="spacing" textLength="113" x="2163.5" y="1208.9404">[CDC Create Event]</text><path d="M2071.5,1228.7969 L2132.5,1228.7969 L2132.5,1237.1484 L2122.5,1247.1484 L2071.5,1247.1484 L2071.5,1228.7969 " fill="#EEEEEE" style="stroke:#000000;stroke-width:1.5;"/><rect fill="none" height="199.3672" style="stroke:#000000;stroke-width:1.5;" width="2056" x="2071.5" y="1228.7969"/><text fill="#000000" font-family="sans-serif" font-size="13" font-weight="bold" lengthAdjust="spacing" textLength="16" x="2086.5" y="1243.292">alt</text><text fill="#000000" font-family="sans-serif" font-size="11" font-weight="bold" lengthAdjust="spacing" textLength="153" x="2147.5" y="1242.2158">[payment_type is NOT COD:]</text><polygon fill="#181818" points="3616.5,1265.5,3626.5,1269.5,3616.5,1273.5,3620.5,1269.5" style="stroke:#181818;stroke-width:1.0;"/><line style="stroke:#181818;stroke-width:1.0;" x1="2146.5" x2="3622.5" y1="1269.5" y2="1269.5"/><text fill="#000000" font-family="sans-serif" font-size="13" lengthAdjust="spacing" textLength="448" x="2153.5" y="1264.6436">POST /checkout/orders { checkout_id, product_items, shipment_fees, taxes }</text><polygon fill="#181818" points="3919.5,1295.8516,3929.5,1299.8516,3919.5,1303.8516,3923.5,1299.8516" style="stroke:#181818;stroke-width:1.0;"/><line style="stroke:#181818;stroke-width:1.0;" x1="3638.5" x2="3925.5" y1="1299.8516" y2="1299.8516"/><text fill="#000000" font-family="sans-serif" font-size="13" lengthAdjust="spacing" textLength="93" x="3645.5" y="1294.9951">create checkout</text><text fill="#000000" font-family="sans-serif" font-size="14" lengthAdjust="spacing" textLength="180" x="3931.5" y="1324.0332">Payment Provider: Checkout</text><ellipse cx="4024.5" cy="1293.5" fill="#73C6B6" rx="12" ry="12" style="stroke:#181818;stroke-width:0.5;"/><line style="stroke:#181818;stroke-width:0.5;" x1="4012.5" x2="4036.5" y1="1307.5" y2="1307.5"/><polygon fill="#181818" points="3649.5,1355.4609,3639.5,1359.4609,3649.5,1363.4609,3645.5,1359.4609" style="stroke:#181818;stroke-width:1.0;"/><line style="stroke:#181818;stroke-width:1.0;stroke-dasharray:2.0,2.0;" x1="3643.5" x2="4023.5" y1="1359.4609" y2="1359.4609"/><text fill="#000000" font-family="sans-serif" font-size="13" lengthAdjust="spacing" textLength="194" x="3655.5" y="1354.6045">{ payment_provider_checkout_id }</text><polygon fill="#181818" points="2157.5,1385.8125,2147.5,1389.8125,2157.5,1393.8125,2153.5,1389.8125" style="stroke:#181818;stroke-width:1.0;"/><line style="stroke:#181818;stroke-width:1.0;stroke-dasharray:2.0,2.0;" x1="2151.5" x2="3632.5" y1="1389.8125" y2="1389.8125"/><text fill="#000000" font-family="sans-serif" font-size="13" lengthAdjust="spacing" textLength="272" x="2163.5" y="1384.9561">{ checkout_id, payment_provider_checkout_id }</text><polygon fill="#181818" points="3342,1416.1641,3352,1420.1641,3342,1424.1641,3346,1420.1641" style="stroke:#181818;stroke-width:1.0;"/><line style="stroke:#181818;stroke-width:1.0;" x1="2146.5" x2="3348" y1="1420.1641" y2="1420.1641"/><text fill="#000000" font-family="sans-serif" font-size="13" lengthAdjust="spacing" textLength="375" x="2153.5" y="1415.3076">update { status=PROCESSING, payment_provider_checkout_id }</text><path d="M572,1442.1641 L645,1442.1641 L645,1450.5156 L635,1460.5156 L572,1460.5156 L572,1442.1641 " fill="#EEEEEE" style="stroke:#000000;stroke-width:1.5;"/><rect fill="none" height="79.0547" style="stroke:#000000;stroke-width:1.5;" width="1639.5" x="572" y="1442.1641"/><text fill="#000000" font-family="sans-serif" font-size="13" font-weight="bold" lengthAdjust="spacing" textLength="28" x="587" y="1456.6592">loop</text><text fill="#000000" font-family="sans-serif" font-size="11" font-weight="bold" lengthAdjust="spacing" textLength="701" x="660" y="1455.583">[reload to get payment information util payment status is PROCESSING and payment_provider_checkout_id existing (if not COD)]</text><polygon fill="#181818" points="2124.5,1478.8672,2134.5,1482.8672,2124.5,1486.8672,2128.5,1482.8672" style="stroke:#181818;stroke-width:1.0;"/><line style="stroke:#181818;stroke-width:1.0;" x1="625.5" x2="2130.5" y1="1482.8672" y2="1482.8672"/><text fill="#000000" font-family="sans-serif" font-size="13" lengthAdjust="spacing" textLength="284" x="632.5" y="1478.0107">GET /payment/payments/checkout/{checkout_id}</text><polygon fill="#181818" points="636.5,1509.2188,626.5,1513.2188,636.5,1517.2188,632.5,1513.2188" style="stroke:#181818;stroke-width:1.0;"/><line style="stroke:#181818;stroke-width:1.0;stroke-dasharray:2.0,2.0;" x1="630.5" x2="2140.5" y1="1513.2188" y2="1513.2188"/><text fill="#000000" font-family="sans-serif" font-size="13" lengthAdjust="spacing" textLength="332" x="642.5" y="1508.3623">{ status=PROCESSING, payment_provider_checkout_id }</text><polygon fill="#181818" points="69.5,1546.5703,59.5,1550.5703,69.5,1554.5703,65.5,1550.5703" style="stroke:#181818;stroke-width:1.0;"/><line style="stroke:#181818;stroke-width:1.0;stroke-dasharray:2.0,2.0;" x1="63.5" x2="619.5" y1="1550.5703" y2="1550.5703"/><text fill="#000000" font-family="sans-serif" font-size="13" lengthAdjust="spacing" textLength="538" x="75.5" y="1545.7139">redirect to payment_provider : Payment Provider: Checkout { payment_provider_checkout_id }</text><polygon fill="#181818" points="3616.5,1576.9219,3626.5,1580.9219,3616.5,1584.9219,3620.5,1580.9219" style="stroke:#181818;stroke-width:1.0;"/><line style="stroke:#181818;stroke-width:1.0;" x1="53.5" x2="3622.5" y1="1580.9219" y2="1580.9219"/><text fill="#000000" font-family="sans-serif" font-size="13" lengthAdjust="spacing" textLength="298" x="60.5" y="1576.0654">execute payment { payment_provider_checkout_id }</text><polygon fill="#181818" points="4012.5,1607.2734,4022.5,1611.2734,4012.5,1615.2734,4016.5,1611.2734" style="stroke:#181818;stroke-width:1.0;"/><line style="stroke:#181818;stroke-width:1.0;" x1="3638.5" x2="4018.5" y1="1611.2734" y2="1611.2734"/><text fill="#000000" font-family="sans-serif" font-size="13" lengthAdjust="spacing" textLength="362" x="3645.5" y="1606.417">update { status=COMPETED, payment_provider_checkout_id }</text><polygon fill="#181818" points="2157.5,1637.625,2147.5,1641.625,2157.5,1645.625,2153.5,1641.625" style="stroke:#181818;stroke-width:1.0;"/><line style="stroke:#181818;stroke-width:1.0;stroke-dasharray:2.0,2.0;" x1="2151.5" x2="3627.5" y1="1641.625" y2="1641.625"/><text fill="#000000" font-family="sans-serif" font-size="13" lengthAdjust="spacing" textLength="455" x="2163.5" y="1636.7686">{ checkout_id, payment_provider_checkout_id, status=COMPETED/FAILURE }</text><polygon fill="#181818" points="3342,1667.9766,3352,1671.9766,3342,1675.9766,3346,1671.9766" style="stroke:#181818;stroke-width:1.0;"/><line style="stroke:#181818;stroke-width:1.0;" x1="2146.5" x2="3348" y1="1671.9766" y2="1671.9766"/><text fill="#000000" font-family="sans-serif" font-size="13" lengthAdjust="spacing" textLength="183" x="2153.5" y="1667.1201">update { status=COMPLETED }</text><polygon fill="#181818" points="3476.5,1698.3281,3486.5,1702.3281,3476.5,1706.3281,3480.5,1702.3281" style="stroke:#181818;stroke-width:1.0;"/><line style="stroke:#181818;stroke-width:1.0;stroke-dasharray:2.0,2.0;" x1="2146.5" x2="3482.5" y1="1702.3281" y2="1702.3281"/><text fill="#000000" font-family="sans-serif" font-size="13" lengthAdjust="spacing" textLength="284" x="2153.5" y="1697.4717">Event: PaymentCompleted { checkout_payment }</text><polygon fill="#181818" points="64.5,1728.6797,54.5,1732.6797,64.5,1736.6797,60.5,1732.6797" style="stroke:#181818;stroke-width:1.0;"/><line style="stroke:#181818;stroke-width:1.0;stroke-dasharray:2.0,2.0;" x1="58.5" x2="3492.5" y1="1732.6797" y2="1732.6797"/><text fill="#000000" font-family="sans-serif" font-size="13" lengthAdjust="spacing" textLength="201" x="70.5" y="1727.8232">notification for payment completion</text><polygon fill="#181818" points="1274.5,1759.0313,1264.5,1763.0313,1274.5,1767.0313,1270.5,1763.0313" style="stroke:#181818;stroke-width:1.0;"/><line style="stroke:#181818;stroke-width:1.0;stroke-dasharray:2.0,2.0;" x1="1268.5" x2="2140.5" y1="1763.0313" y2="1763.0313"/><text fill="#000000" font-family="sans-serif" font-size="13" lengthAdjust="spacing" textLength="244" x="1280.5" y="1758.1748">Event: PaymentCompleted { checkout_id }</text><polygon fill="#181818" points="1534.5,1789.3828,1544.5,1793.3828,1534.5,1797.3828,1538.5,1793.3828" style="stroke:#181818;stroke-width:1.0;"/><line style="stroke:#181818;stroke-width:1.0;" x1="1263.5" x2="1540.5" y1="1793.3828" y2="1793.3828"/><text fill="#000000" font-family="sans-serif" font-size="13" lengthAdjust="spacing" textLength="250" x="1270.5" y="1788.5264">update { status=PAYMENT_CONFIRMED }</text><polygon fill="#181818" points="1600.5,1819.7344,1610.5,1823.7344,1600.5,1827.7344,1604.5,1823.7344" style="stroke:#181818;stroke-width:1.0;"/><line style="stroke:#181818;stroke-width:1.0;" x1="1263.5" x2="1606.5" y1="1823.7344" y2="1823.7344"/><text fill="#000000" font-family="sans-serif" font-size="13" lengthAdjust="spacing" textLength="325" x="1270.5" y="1818.8779">create { checkout_id, status=PAYMENT_CONFIRMED }</text><text fill="#000000" font-family="sans-serif" font-size="14" lengthAdjust="spacing" textLength="37" x="1612.5" y="1847.916">Order</text><ellipse cx="1634" cy="1817.3828" fill="#3498DB" rx="12" ry="12" style="stroke:#181818;stroke-width:0.5;"/><line style="stroke:#181818;stroke-width:0.5;" x1="1622" x2="1646" y1="1831.3828" y2="1831.3828"/><polygon fill="#181818" points="1795,1879.3438,1805,1883.3438,1795,1887.3438,1799,1883.3438" style="stroke:#181818;stroke-width:1.0;"/><line style="stroke:#181818;stroke-width:1.0;stroke-dasharray:2.0,2.0;" x1="1639" x2="1801" y1="1883.3438" y2="1883.3438"/><text fill="#000000" font-family="sans-serif" font-size="13" lengthAdjust="spacing" textLength="149" x="1646" y="1878.4873">[CDC Create Order Event]</text><line style="stroke:#181818;stroke-width:1.0;stroke-dasharray:2.0,2.0;" x1="1817" x2="1859" y1="1918.6953" y2="1918.6953"/><line style="stroke:#181818;stroke-width:1.0;stroke-dasharray:2.0,2.0;" x1="1859" x2="1859" y1="1918.6953" y2="1931.6953"/><line style="stroke:#181818;stroke-width:1.0;stroke-dasharray:2.0,2.0;" x1="1812" x2="1859" y1="1931.6953" y2="1931.6953"/><polygon fill="#181818" points="1822,1927.6953,1812,1931.6953,1822,1935.6953,1818,1931.6953" style="stroke:#181818;stroke-width:1.0;"/><text fill="#000000" font-family="sans-serif" font-size="13" lengthAdjust="spacing" textLength="171" x="1824" y="1913.8389">update for remove order items</text><polygon fill="#181818" points="1274.5,1953.0469,1264.5,1957.0469,1274.5,1961.0469,1270.5,1957.0469" style="stroke:#181818;stroke-width:1.0;"/><line style="stroke:#181818;stroke-width:1.0;stroke-dasharray:2.0,2.0;" x1="1268.5" x2="1633" y1="1957.0469" y2="1957.0469"/><text fill="#000000" font-family="sans-serif" font-size="13" lengthAdjust="spacing" textLength="29" x="1280.5" y="1952.1904">order</text><polygon fill="#181818" points="3476.5,1967.0469,3486.5,1971.0469,3476.5,1975.0469,3480.5,1971.0469" style="stroke:#181818;stroke-width:1.0;"/><line style="stroke:#181818;stroke-width:1.0;stroke-dasharray:2.0,2.0;" x1="1263.5" x2="3482.5" y1="1971.0469" y2="1971.0469"/><polygon fill="#181818" points="64.5,1997.3984,54.5,2001.3984,64.5,2005.3984,60.5,2001.3984" style="stroke:#181818;stroke-width:1.0;"/><line style="stroke:#181818;stroke-width:1.0;stroke-dasharray:2.0,2.0;" x1="58.5" x2="3492.5" y1="2001.3984" y2="2001.3984"/><text fill="#000000" font-family="sans-serif" font-size="13" lengthAdjust="spacing" textLength="163" x="70.5" y="1996.542">notification for order creation</text><polygon fill="#181818" points="69.5,2027.75,59.5,2031.75,69.5,2035.75,65.5,2031.75" style="stroke:#181818;stroke-width:1.0;"/><line style="stroke:#181818;stroke-width:1.0;stroke-dasharray:2.0,2.0;" x1="63.5" x2="3632.5" y1="2031.75" y2="2031.75"/><text fill="#000000" font-family="sans-serif" font-size="13" lengthAdjust="spacing" textLength="217" x="75.5" y="2026.8936">redirect to storefront with confirmation</text><polygon fill="#181818" points="603.5,2058.1016,613.5,2062.1016,603.5,2066.1016,607.5,2062.1016" style="stroke:#181818;stroke-width:1.0;"/><line style="stroke:#181818;stroke-width:1.0;" x1="53.5" x2="609.5" y1="2062.1016" y2="2062.1016"/><text fill="#000000" font-family="sans-serif" font-size="13" lengthAdjust="spacing" textLength="102" x="60.5" y="2057.2451">confirmation page</text><polygon fill="#181818" points="64.5,2088.4531,54.5,2092.4531,64.5,2096.4531,60.5,2092.4531" style="stroke:#181818;stroke-width:1.0;"/><line style="stroke:#181818;stroke-width:1.0;stroke-dasharray:2.0,2.0;" x1="58.5" x2="614.5" y1="2092.4531" y2="2092.4531"/><text fill="#000000" font-family="sans-serif" font-size="13" lengthAdjust="spacing" textLength="158" x="70.5" y="2087.5967">show payment confirmation</text><path d="M10,2107.4531 L83,2107.4531 L83,2115.8047 L73,2125.8047 L10,2125.8047 L10,2107.4531 " fill="#EEEEEE" style="stroke:#000000;stroke-width:1.5;"/><rect fill="none" height="170.1094" style="stroke:#000000;stroke-width:1.5;" width="1655.5" x="10" y="2107.4531"/><text fill="#000000" font-family="sans-serif" font-size="13" font-weight="bold" lengthAdjust="spacing" textLength="28" x="25" y="2121.9482">loop</text><text fill="#000000" font-family="sans-serif" font-size="11" font-weight="bold" lengthAdjust="spacing" textLength="122" x="98" y="2120.8721">["reload to get order"]</text><polygon fill="#181818" points="1241.5,2144.1563,1251.5,2148.1563,1241.5,2152.1563,1245.5,2148.1563" style="stroke:#181818;stroke-width:1.0;"/><line style="stroke:#181818;stroke-width:1.0;" x1="625.5" x2="1247.5" y1="2148.1563" y2="2148.1563"/><text fill="#000000" font-family="sans-serif" font-size="13" lengthAdjust="spacing" textLength="242" x="632.5" y="2143.2998">GET /order/orders/checkout/{checkout_id}</text><polygon fill="#181818" points="1617,2174.5078,1627,2178.5078,1617,2182.5078,1621,2178.5078" style="stroke:#181818;stroke-width:1.0;"/><line style="stroke:#181818;stroke-width:1.0;" x1="1263.5" x2="1623" y1="2178.5078" y2="2178.5078"/><text fill="#000000" font-family="sans-serif" font-size="13" lengthAdjust="spacing" textLength="153" x="1270.5" y="2173.6514">find order by {checkout_id}</text><polygon fill="#181818" points="1274.5,2204.8594,1264.5,2208.8594,1274.5,2212.8594,1270.5,2208.8594" style="stroke:#181818;stroke-width:1.0;"/><line style="stroke:#181818;stroke-width:1.0;stroke-dasharray:2.0,2.0;" x1="1268.5" x2="1633" y1="2208.8594" y2="2208.8594"/><text fill="#000000" font-family="sans-serif" font-size="13" lengthAdjust="spacing" textLength="29" x="1280.5" y="2204.0029">order</text><polygon fill="#181818" points="636.5,2235.2109,626.5,2239.2109,636.5,2243.2109,632.5,2239.2109" style="stroke:#181818;stroke-width:1.0;"/><line style="stroke:#181818;stroke-width:1.0;stroke-dasharray:2.0,2.0;" x1="630.5" x2="1257.5" y1="2239.2109" y2="2239.2109"/><text fill="#000000" font-family="sans-serif" font-size="13" lengthAdjust="spacing" textLength="29" x="642.5" y="2234.3545">order</text><polygon fill="#181818" points="64.5,2265.5625,54.5,2269.5625,64.5,2273.5625,60.5,2269.5625" style="stroke:#181818;stroke-width:1.0;"/><line style="stroke:#181818;stroke-width:1.0;stroke-dasharray:2.0,2.0;" x1="58.5" x2="614.5" y1="2269.5625" y2="2269.5625"/><text fill="#000000" font-family="sans-serif" font-size="13" lengthAdjust="spacing" textLength="133" x="70.5" y="2264.7061">redirect to order details</text><!--SRC=[jLXRRzis57xthpXmNjh1NfocQ1EXw-0fIX6iiJpRmLOCWw18L29KjbH9JcEa-U_ZNQH8oMw7-SKsoNFbznqUiaxh3C4ytAtHfeRBBFyw68HHdPVWRgiwNwCImWeYyVie2UEtuMGmkCqVuTDqEG3yASAoJgEq2B66uHBBegJCD_MGI5RoBvQDarVe7FZ75FNB69jOel8XZH2Lpib8KB4HE3fzVNuMtqfXx75Qxs3etgFeSxvb1YF-HwpMLb8BZMPjZHx5VLuKwUOEN3pA0k4ZGOH7u2WyZo9qQWhEotoTrsc-qU8en6WJorcOd2GJYmA-5Peu6sk4tvv6RsxVcC9NcmUyBYztcdWgHXNhaxFRypVMB0emQDaCk0lTfcSulYIDGYFsZJBHEC1nX3On42WnGCdWSHOVKhfLHoXCSAQwyzGiLH9Ly47DNH5eMz813K1j7K63AAwCEpqOI5gCtoj0TuZc2A4Owbne8vnA7y8QsGc1_LF6iJOD-5YXlrp1CHqy5kvKnqzoTzBu-RWWHgjgB2m2I9jM6j6Sw3FOi0psfvySI58IwGuqGnQvT-En57JaBxi1WmeYEZdH_C8XpXV-jU_w5zxpyROAxv3comXd3SVdm7G-_tZbNJ3VPDXxM6VCZit4lvgSWBlmfYllWjMS67MhPzOpih4dvw_FGXXUXcb6K10MHRORsXBIGixhoGH-crx0mllZniDPUV8M2tyHa0JWF8bS18lfBF1lLj-K8U-l-TL2f4054zbKZbC76W4emmsGZSuJe9dz1hHsHNcC03qMQObYJflOlfD6MH4xAIV8JiRR24CLsuy-L_04V2H8QxIkW7cBAmI2ChsxfyveTWRihCYmD70T2JwRD2ryZJRc3CGnCsucOcNmopQavK24I9tGuTDVDi4oRm5Gb6-Ij5opicWFlvq0GwzqUqaoeAaSGPPMDTr7IWKYJ_CaPPxaBu1tJIg2oSbx1_pVHrtJhyZqpIhmBuFbodUx5vvIFN9MnAJbL66DFJgDDU5c9v19OnbobIPrBCN48-eTAFCikmrnjWe9QehoJbK62yCO5kZB5k7qFe5AGoqhfC1dUHWxU55l_k1PfgQJdMhGWCeoB_iPsDJSRH6Jv3vH56ohN-RJJzVUR1LWkhlUSdar-m3F7VLOxoraDMR3ufjGLnuDXx9M2gIRADl6I6Sbjxj6zNqUs-YgS9kCL_TfGIKIXDJnEdpa_mNae7KCsBid47MZDQtaLNOzv32CIgIb-8KGh7S5XdK561tmAoWPTs3c_VborDrHq2DC-wC5Fz9Z7h5G6tt4S7FS_gndLABDFAgDBM_7QorBjXq6GzHHoiIuDt9jeTOpjAL9d7kgIYkazY58ecuNvlOUYrk5CJ6siUHlzy85bq62bfn_1ff3xMmTXaPI1jkmclah0Ysd0wugXmlPqJ8IYr1OvwXo-52mIHGP_hTRx6RZv1uQIosk1bh3oJbceC7GfCBOK4LgSH_oP51cDcrw7IDlX-YsW5EiFxpmM0gxB2y7-K7uCjZ3b2pF2oWHESL8htg790PnuSRT5czUjZNkPSK4yuR0Kwbt8JRMwnDwnCqAkLM_I1D2OuBhbqR3Qc7R1yzo93NmrkudXrL_yoYsLiOVpNjlmlccTBO1kFF6tNTKA_V71laETDzVz-DUyQintrnEXG_OE_LkQp82FQ9esmJtNOQbaRqrPV2TDSIaY-jVppryUTktQRHgcRPiMFoEOZ1gkt5yERtwUBFmA4eEWkWF5GbYxYEnnz5eAC5QRCyoidlc47FpTP6X6iLgq6BBMvVjtcSUsK-OItJegqlOJOzRYvWhUBZDBvlMpgXRJS01uN9AznBwlpoqTFVkhZ-xl5fSorqqLD01ScmslQaDV5twTAyrRxanTZ5I7pxrneSzsChsHrFQ_LvAwwusQp73aq8WKA9r_Y2yP1TdfSrGAvgcL5razi1qn65VRKGrWnqlDfsG-x_Pm790T_jm9lHqfTQAPp-8bDFgQrhVQwyGWxvcPz_XebwyjTUIWbpNUyyDyosrxrZ5yFYgr1F5VTu33VKcY2PhQ6bFMaM4DYViRPRrsHsDYOLqrbBHnNJ-7iimO7sLtSFfWtZGmOHzrwbk8ZKt5SwdW_eUvd-CwZ3DAj4psRkNVm40]--></g></svg>