<?xml version="1.0" encoding="us-ascii" standalone="no"?><svg xmlns="http://www.w3.org/2000/svg" xmlns:xlink="http://www.w3.org/1999/xlink" contentStyleType="text/css" height="2441px" preserveAspectRatio="none" style="width:4133px;height:2441px;background:#FFFFFF;" version="1.1" viewBox="0 0 4133 2441" width="4133px" zoomAndPan="magnify"><defs/><g><text fill="#000000" font-family="sans-serif" font-size="14" font-weight="bold" lengthAdjust="spacing" textLength="96" x="2020.25" y="29.5332">Payment Flow</text><rect fill="#DDDDDD" height="2391.2656" style="stroke:#181818;stroke-width:0.5;" width="2986.5" x="578" y="44.6094"/><text fill="#000000" font-family="sans-serif" font-size="13" font-weight="bold" lengthAdjust="spacing" textLength="26" x="2058.25" y="58.1045">YAS</text><rect fill="#EAFAF1" height="2391.2656" style="stroke:#181818;stroke-width:0.5;" width="555" x="3566.5" y="44.6094"/><text fill="#000000" font-family="sans-serif" font-size="13" font-weight="bold" lengthAdjust="spacing" textLength="114" x="3787" y="58.1045">Payment Provider</text><rect fill="#FFFFFF" height="30.3516" style="stroke:#181818;stroke-width:1.0;" width="10" x="48.5" y="1611.2734"/><rect fill="#FFFFFF" height="30.3516" style="stroke:#181818;stroke-width:1.0;" width="10" x="48.5" y="2092.4531"/><rect fill="#FDF2E9" height="1457.7031" style="stroke:#181818;stroke-width:1.0;" width="10" x="615.5" y="153.5703"/><rect fill="#FDF2E9" height="222.4609" style="stroke:#181818;stroke-width:1.0;" width="10" x="615.5" y="2122.8047"/><rect fill="#3498DB" height="1090.5781" style="stroke:#181818;stroke-width:1.0;" width="10" x="1253.5" y="183.9219"/><rect fill="#3498DB" height="238.3672" style="stroke:#181818;stroke-width:1.0;" width="10" x="1253.5" y="1823.7344"/><rect fill="#3498DB" height="91.0547" style="stroke:#181818;stroke-width:1.0;" width="10" x="1253.5" y="2208.8594"/><rect fill="#3498DB" height="123.3125" style="stroke:#181818;stroke-width:1.0;" width="10" x="1629" y="1894.4375"/><rect fill="#3498DB" height="30.3516" style="stroke:#181818;stroke-width:1.0;" width="10" x="1629" y="2239.2109"/><rect fill="#A9CCE3" height="36.3516" style="stroke:#181818;stroke-width:1.0;" width="10" x="1807" y="1944.0469"/><rect fill="#8AF1F0" height="86.0547" style="stroke:#181818;stroke-width:1.0;" width="10" x="2002" y="304.2344"/><rect fill="#73C6B6" height="191.7188" style="stroke:#181818;stroke-width:1.0;" width="10" x="2136.5" y="936.6719"/><rect fill="#73C6B6" height="221.3672" style="stroke:#181818;stroke-width:1.0;" width="10" x="2136.5" y="1274.5"/><rect fill="#73C6B6" height="30.3516" style="stroke:#181818;stroke-width:1.0;" width="10" x="2136.5" y="1543.5703"/><rect fill="#73C6B6" height="121.4063" style="stroke:#181818;stroke-width:1.0;" width="10" x="2136.5" y="1702.3281"/><rect fill="#808B96" height="115.7578" style="stroke:#181818;stroke-width:1.0;" width="10" x="2268" y="518.6953"/><rect fill="#FAD7A0" height="30.3516" style="stroke:#181818;stroke-width:1.0;" width="10" x="3488.5" y="1763.0313"/><rect fill="#FAD7A0" height="30.3516" style="stroke:#181818;stroke-width:1.0;" width="10" x="3488.5" y="2031.75"/><rect fill="#73C6B6" height="120.3125" style="stroke:#181818;stroke-width:1.0;" width="10" x="3628.5" y="1330.2031"/><rect fill="#73C6B6" height="450.8281" style="stroke:#181818;stroke-width:1.0;" width="10" x="3628.5" y="1641.625"/><rect fill="#F1948A" height="139.7578" style="stroke:#000000;stroke-width:1.5;" width="2071.5" x="10" y="349.5859"/><rect fill="#F1948A" height="109.4063" style="stroke:#000000;stroke-width:1.5;" width="2071.5" x="10" y="767.5625"/><rect fill="none" height="199.3672" style="stroke:#000000;stroke-width:1.5;" width="2056" x="2071.5" y="1289.5"/><rect fill="none" height="79.0547" style="stroke:#000000;stroke-width:1.5;" width="1639.5" x="572" y="1502.8672"/><rect fill="none" height="170.1094" style="stroke:#000000;stroke-width:1.5;" width="1655.5" x="10" y="2168.1563"/><line style="stroke:#181818;stroke-width:0.5;stroke-dasharray:5.0,5.0;" x1="53" x2="53" y1="121.2188" y2="2355.2656"/><line style="stroke:#181818;stroke-width:0.5;stroke-dasharray:5.0,5.0;" x1="620" x2="620" y1="121.2188" y2="2355.2656"/><line style="stroke:#181818;stroke-width:0.5;stroke-dasharray:5.0,5.0;" x1="1258.5" x2="1258.5" y1="121.2188" y2="2355.2656"/><line style="stroke:#181818;stroke-width:0.5;stroke-dasharray:5.0,5.0;" x1="1546.5" x2="1546.5" y1="231.7266" y2="2355.2656"/><line style="stroke:#181818;stroke-width:0.5;stroke-dasharray:5.0,5.0;" x1="1633.5" x2="1633.5" y1="1901.8906" y2="2355.2656"/><line style="stroke:#181818;stroke-width:0.5;stroke-dasharray:5.0,5.0;" x1="1811.5" x2="1811.5" y1="121.2188" y2="2355.2656"/><line style="stroke:#181818;stroke-width:0.5;stroke-dasharray:5.0,5.0;" x1="2006.5" x2="2006.5" y1="121.2188" y2="2355.2656"/><line style="stroke:#181818;stroke-width:0.5;stroke-dasharray:5.0,5.0;" x1="2141.5" x2="2141.5" y1="121.2188" y2="2355.2656"/><line style="stroke:#181818;stroke-width:0.5;stroke-dasharray:5.0,5.0;" x1="2272.5" x2="2272.5" y1="121.2188" y2="2355.2656"/><line style="stroke:#181818;stroke-width:0.5;stroke-dasharray:5.0,5.0;" x1="3353.5" x2="3353.5" y1="1086.2344" y2="2355.2656"/><line style="stroke:#181818;stroke-width:0.5;stroke-dasharray:5.0,5.0;" x1="3493.5" x2="3493.5" y1="121.2188" y2="2355.2656"/><line style="stroke:#181818;stroke-width:0.5;stroke-dasharray:5.0,5.0;" x1="3633.5" x2="3633.5" y1="121.2188" y2="2355.2656"/><line style="stroke:#181818;stroke-width:0.5;stroke-dasharray:5.0,5.0;" x1="4024.5" x2="4024.5" y1="1378.0078" y2="2355.2656"/><text fill="#000000" font-family="sans-serif" font-size="14" lengthAdjust="spacing" textLength="61" x="20" y="118.1426">Customer</text><ellipse cx="53.5" cy="52.1094" fill="#FAD7A0" rx="8" ry="8" style="stroke:#181818;stroke-width:0.5;"/><path d="M53.5,60.1094 L53.5,87.1094 M40.5,68.1094 L66.5,68.1094 M53.5,87.1094 L40.5,102.1094 M53.5,87.1094 L66.5,102.1094 " fill="none" style="stroke:#181818;stroke-width:0.5;"/><text fill="#000000" font-family="sans-serif" font-size="14" lengthAdjust="spacing" textLength="61" x="20" y="2368.7988">Customer</text><ellipse cx="53.5" cy="2380.375" fill="#FAD7A0" rx="8" ry="8" style="stroke:#181818;stroke-width:0.5;"/><path d="M53.5,2388.375 L53.5,2415.375 M40.5,2396.375 L66.5,2396.375 M53.5,2415.375 L40.5,2430.375 M53.5,2415.375 L66.5,2430.375 " fill="none" style="stroke:#181818;stroke-width:0.5;"/><rect fill="#FDF2E9" height="31.6094" rx="2.5" ry="2.5" style="stroke:#181818;stroke-width:0.5;" width="77" x="582" y="88.6094"/><text fill="#000000" font-family="sans-serif" font-size="14" lengthAdjust="spacing" textLength="63" x="589" y="110.1426">Storefront</text><rect fill="#FDF2E9" height="31.6094" rx="2.5" ry="2.5" style="stroke:#181818;stroke-width:0.5;" width="77" x="582" y="2354.2656"/><text fill="#000000" font-family="sans-serif" font-size="14" lengthAdjust="spacing" textLength="63" x="589" y="2375.7988">Storefront</text><rect fill="#3498DB" height="31.6094" rx="2.5" ry="2.5" style="stroke:#181818;stroke-width:0.5;" width="102" x="1207.5" y="88.6094"/><text fill="#000000" font-family="sans-serif" font-size="14" lengthAdjust="spacing" textLength="88" x="1214.5" y="110.1426">Order Service</text><rect fill="#3498DB" height="31.6094" rx="2.5" ry="2.5" style="stroke:#181818;stroke-width:0.5;" width="102" x="1207.5" y="2354.2656"/><text fill="#000000" font-family="sans-serif" font-size="14" lengthAdjust="spacing" textLength="88" x="1214.5" y="2375.7988">Order Service</text><text fill="#000000" font-family="sans-serif" font-size="14" lengthAdjust="spacing" textLength="60" x="1513.5" y="2368.7988">Checkout</text><ellipse cx="1546.5" cy="2387.875" fill="#3498DB" rx="12" ry="12" style="stroke:#181818;stroke-width:0.5;"/><line style="stroke:#181818;stroke-width:0.5;" x1="1534.5" x2="1558.5" y1="2401.875" y2="2401.875"/><text fill="#000000" font-family="sans-serif" font-size="14" lengthAdjust="spacing" textLength="37" x="1612.5" y="2368.7988">Order</text><ellipse cx="1634" cy="2387.875" fill="#3498DB" rx="12" ry="12" style="stroke:#181818;stroke-width:0.5;"/><line style="stroke:#181818;stroke-width:0.5;" x1="1622" x2="1646" y1="2401.875" y2="2401.875"/><rect fill="#A9CCE3" height="31.6094" rx="2.5" ry="2.5" style="stroke:#181818;stroke-width:0.5;" width="105" x="1759.5" y="88.6094"/><text fill="#000000" font-family="sans-serif" font-size="14" lengthAdjust="spacing" textLength="91" x="1766.5" y="110.1426">Shopping Cart</text><rect fill="#A9CCE3" height="31.6094" rx="2.5" ry="2.5" style="stroke:#181818;stroke-width:0.5;" width="105" x="1759.5" y="2354.2656"/><text fill="#000000" font-family="sans-serif" font-size="14" lengthAdjust="spacing" textLength="91" x="1766.5" y="2375.7988">Shopping Cart</text><rect fill="#8AF1F0" height="31.6094" rx="2.5" ry="2.5" style="stroke:#181818;stroke-width:0.5;" width="129" x="1942.5" y="88.6094"/><text fill="#000000" font-family="sans-serif" font-size="14" lengthAdjust="spacing" textLength="115" x="1949.5" y="110.1426">Promotion Service</text><rect fill="#8AF1F0" height="31.6094" rx="2.5" ry="2.5" style="stroke:#181818;stroke-width:0.5;" width="129" x="1942.5" y="2354.2656"/><text fill="#000000" font-family="sans-serif" font-size="14" lengthAdjust="spacing" textLength="115" x="1949.5" y="2375.7988">Promotion Service</text><rect fill="#73C6B6" height="31.6094" rx="2.5" ry="2.5" style="stroke:#181818;stroke-width:0.5;" width="120" x="2081.5" y="88.6094"/><text fill="#000000" font-family="sans-serif" font-size="14" lengthAdjust="spacing" textLength="106" x="2088.5" y="110.1426">Payment Service</text><rect fill="#73C6B6" height="31.6094" rx="2.5" ry="2.5" style="stroke:#181818;stroke-width:0.5;" width="120" x="2081.5" y="2354.2656"/><text fill="#000000" font-family="sans-serif" font-size="14" lengthAdjust="spacing" textLength="106" x="2088.5" y="2375.7988">Payment Service</text><rect fill="#808B96" height="31.6094" rx="2.5" ry="2.5" style="stroke:#181818;stroke-width:0.5;" width="123" x="2211.5" y="88.6094"/><text fill="#000000" font-family="sans-serif" font-size="14" lengthAdjust="spacing" textLength="109" x="2218.5" y="110.1426">Inventory Service</text><rect fill="#808B96" height="31.6094" rx="2.5" ry="2.5" style="stroke:#181818;stroke-width:0.5;" width="123" x="2211.5" y="2354.2656"/><text fill="#000000" font-family="sans-serif" font-size="14" lengthAdjust="spacing" textLength="109" x="2218.5" y="2375.7988">Inventory Service</text><text fill="#000000" font-family="sans-serif" font-size="14" lengthAdjust="spacing" textLength="119" x="3291.5" y="2368.7988">Checkout Payment</text><ellipse cx="3354" cy="2387.875" fill="#73C6B6" rx="12" ry="12" style="stroke:#181818;stroke-width:0.5;"/><line style="stroke:#181818;stroke-width:0.5;" x1="3342" x2="3366" y1="2401.875" y2="2401.875"/><rect fill="#FAD7A0" height="31.6094" rx="2.5" ry="2.5" style="stroke:#181818;stroke-width:0.5;" width="134" x="3426.5" y="88.6094"/><text fill="#000000" font-family="sans-serif" font-size="14" lengthAdjust="spacing" textLength="120" x="3433.5" y="110.1426">Notification Service</text><rect fill="#FAD7A0" height="31.6094" rx="2.5" ry="2.5" style="stroke:#181818;stroke-width:0.5;" width="134" x="3426.5" y="2354.2656"/><text fill="#000000" font-family="sans-serif" font-size="14" lengthAdjust="spacing" textLength="120" x="3433.5" y="2375.7988">Notification Service</text><rect fill="#73C6B6" height="31.6094" rx="2.5" ry="2.5" style="stroke:#181818;stroke-width:0.5;" width="126" x="3570.5" y="88.6094"/><text fill="#000000" font-family="sans-serif" font-size="14" lengthAdjust="spacing" textLength="112" x="3577.5" y="110.1426">Payment Provider</text><rect fill="#73C6B6" height="31.6094" rx="2.5" ry="2.5" style="stroke:#181818;stroke-width:0.5;" width="126" x="3570.5" y="2354.2656"/><text fill="#000000" font-family="sans-serif" font-size="14" lengthAdjust="spacing" textLength="112" x="3577.5" y="2375.7988">Payment Provider</text><text fill="#000000" font-family="sans-serif" font-size="14" lengthAdjust="spacing" textLength="180" x="3931.5" y="2368.7988">Payment Provider: Checkout</text><ellipse cx="4024.5" cy="2387.875" fill="#73C6B6" rx="12" ry="12" style="stroke:#181818;stroke-width:0.5;"/><line style="stroke:#181818;stroke-width:0.5;" x1="4012.5" x2="4036.5" y1="2401.875" y2="2401.875"/><rect fill="#FFFFFF" height="30.3516" style="stroke:#181818;stroke-width:1.0;" width="10" x="48.5" y="1611.2734"/><rect fill="#FFFFFF" height="30.3516" style="stroke:#181818;stroke-width:1.0;" width="10" x="48.5" y="2092.4531"/><rect fill="#FDF2E9" height="1457.7031" style="stroke:#181818;stroke-width:1.0;" width="10" x="615.5" y="153.5703"/><rect fill="#FDF2E9" height="222.4609" style="stroke:#181818;stroke-width:1.0;" width="10" x="615.5" y="2122.8047"/><rect fill="#3498DB" height="1090.5781" style="stroke:#181818;stroke-width:1.0;" width="10" x="1253.5" y="183.9219"/><rect fill="#3498DB" height="238.3672" style="stroke:#181818;stroke-width:1.0;" width="10" x="1253.5" y="1823.7344"/><rect fill="#3498DB" height="91.0547" style="stroke:#181818;stroke-width:1.0;" width="10" x="1253.5" y="2208.8594"/><rect fill="#3498DB" height="123.3125" style="stroke:#181818;stroke-width:1.0;" width="10" x="1629" y="1894.4375"/><rect fill="#3498DB" height="30.3516" style="stroke:#181818;stroke-width:1.0;" width="10" x="1629" y="2239.2109"/><rect fill="#A9CCE3" height="36.3516" style="stroke:#181818;stroke-width:1.0;" width="10" x="1807" y="1944.0469"/><rect fill="#8AF1F0" height="86.0547" style="stroke:#181818;stroke-width:1.0;" width="10" x="2002" y="304.2344"/><rect fill="#73C6B6" height="191.7188" style="stroke:#181818;stroke-width:1.0;" width="10" x="2136.5" y="936.6719"/><rect fill="#73C6B6" height="221.3672" style="stroke:#181818;stroke-width:1.0;" width="10" x="2136.5" y="1274.5"/><rect fill="#73C6B6" height="30.3516" style="stroke:#181818;stroke-width:1.0;" width="10" x="2136.5" y="1543.5703"/><rect fill="#73C6B6" height="121.4063" style="stroke:#181818;stroke-width:1.0;" width="10" x="2136.5" y="1702.3281"/><rect fill="#808B96" height="115.7578" style="stroke:#181818;stroke-width:1.0;" width="10" x="2268" y="518.6953"/><rect fill="#FAD7A0" height="30.3516" style="stroke:#181818;stroke-width:1.0;" width="10" x="3488.5" y="1763.0313"/><rect fill="#FAD7A0" height="30.3516" style="stroke:#181818;stroke-width:1.0;" width="10" x="3488.5" y="2031.75"/><rect fill="#73C6B6" height="120.3125" style="stroke:#181818;stroke-width:1.0;" width="10" x="3628.5" y="1330.2031"/><rect fill="#73C6B6" height="450.8281" style="stroke:#181818;stroke-width:1.0;" width="10" x="3628.5" y="1641.625"/><polygon fill="#181818" points="603.5,149.5703,613.5,153.5703,603.5,157.5703,607.5,153.5703" style="stroke:#181818;stroke-width:1.0;"/><line style="stroke:#181818;stroke-width:1.0;" x1="53.5" x2="609.5" y1="153.5703" y2="153.5703"/><text fill="#000000" font-family="sans-serif" font-size="13" lengthAdjust="spacing" textLength="117" x="60.5" y="148.7139">Proceed to payment</text><polygon fill="#181818" points="1241.5,179.9219,1251.5,183.9219,1241.5,187.9219,1245.5,183.9219" style="stroke:#181818;stroke-width:1.0;"/><line style="stroke:#181818;stroke-width:1.0;" x1="625.5" x2="1247.5" y1="183.9219" y2="183.9219"/><text fill="#000000" font-family="sans-serif" font-size="13" lengthAdjust="spacing" textLength="322" x="632.5" y="179.0654">POST /order/checkouts/{checkout_id}/process-payment</text><polygon fill="#181818" points="1501.5,210.2734,1511.5,214.2734,1501.5,218.2734,1505.5,214.2734" style="stroke:#181818;stroke-width:1.0;"/><line style="stroke:#181818;stroke-width:1.0;" x1="1263.5" x2="1507.5" y1="214.2734" y2="214.2734"/><text fill="#000000" font-family="sans-serif" font-size="13" lengthAdjust="spacing" textLength="120" x="1270.5" y="209.417">find by {checkout_id}</text><text fill="#000000" font-family="sans-serif" font-size="14" lengthAdjust="spacing" textLength="60" x="1513.5" y="238.4551">Checkout</text><ellipse cx="1546.5" cy="207.9219" fill="#3498DB" rx="12" ry="12" style="stroke:#181818;stroke-width:0.5;"/><line style="stroke:#181818;stroke-width:0.5;" x1="1534.5" x2="1558.5" y1="221.9219" y2="221.9219"/><polygon fill="#181818" points="1274.5,269.8828,1264.5,273.8828,1274.5,277.8828,1270.5,273.8828" style="stroke:#181818;stroke-width:1.0;"/><line style="stroke:#181818;stroke-width:1.0;stroke-dasharray:2.0,2.0;" x1="1268.5" x2="1545.5" y1="273.8828" y2="273.8828"/><text fill="#000000" font-family="sans-serif" font-size="13" lengthAdjust="spacing" textLength="53" x="1280.5" y="269.0264">checkout</text><polygon fill="#181818" points="1990,300.2344,2000,304.2344,1990,308.2344,1994,304.2344" style="stroke:#181818;stroke-width:1.0;"/><line style="stroke:#181818;stroke-width:1.0;" x1="1263.5" x2="1996" y1="304.2344" y2="304.2344"/><text fill="#000000" font-family="sans-serif" font-size="13" lengthAdjust="spacing" textLength="487" x="1270.5" y="299.3779">POST /promotion/promotions/{PROMOCODE}/usage {checkout_id, state: APPLIED}</text><polygon fill="#181818" points="1274.5,330.5859,1264.5,334.5859,1274.5,338.5859,1270.5,334.5859" style="stroke:#181818;stroke-width:1.0;"/><line style="stroke:#181818;stroke-width:1.0;stroke-dasharray:2.0,2.0;" x1="1268.5" x2="2001" y1="334.5859" y2="334.5859"/><text fill="#000000" font-family="sans-serif" font-size="13" lengthAdjust="spacing" textLength="86" x="1280.5" y="329.7295">201 CREATED</text><path d="M10,349.5859 L71,349.5859 L71,357.9375 L61,367.9375 L10,367.9375 L10,349.5859 " fill="#EEEEEE" style="stroke:#000000;stroke-width:1.5;"/><rect fill="none" height="139.7578" style="stroke:#000000;stroke-width:1.5;" width="2071.5" x="10" y="349.5859"/><text fill="#000000" font-family="sans-serif" font-size="13" font-weight="bold" lengthAdjust="spacing" textLength="16" x="25" y="364.0811">alt</text><text fill="#000000" font-family="sans-serif" font-size="11" font-weight="bold" lengthAdjust="spacing" textLength="82" x="86" y="363.0049">["Fail to apply"]</text><polygon fill="#181818" points="1274.5,386.2891,1264.5,390.2891,1274.5,394.2891,1270.5,390.2891" style="stroke:#181818;stroke-width:1.0;"/><line style="stroke:#181818;stroke-width:1.0;stroke-dasharray:2.0,2.0;" x1="1268.5" x2="2006" y1="390.2891" y2="390.2891"/><text fill="#000000" font-family="sans-serif" font-size="13" lengthAdjust="spacing" textLength="623" x="1280.5" y="385.4326">422 UNPROCESSABLE CONTENT {ERROR_CODE: PROMOCODE_RAN_OUT| PROMOCODE_EXPIRED}</text><polygon fill="#181818" points="1534.5,416.6406,1544.5,420.6406,1534.5,424.6406,1538.5,420.6406" style="stroke:#181818;stroke-width:1.0;"/><line style="stroke:#181818;stroke-width:1.0;stroke-dasharray:2.0,2.0;" x1="1263.5" x2="1540.5" y1="420.6406" y2="420.6406"/><text fill="#000000" font-family="sans-serif" font-size="13" lengthAdjust="spacing" textLength="118" x="1270.5" y="415.7842">Remove promo code</text><polygon fill="#181818" points="636.5,446.9922,626.5,450.9922,636.5,454.9922,632.5,450.9922" style="stroke:#181818;stroke-width:1.0;"/><line style="stroke:#181818;stroke-width:1.0;stroke-dasharray:2.0,2.0;" x1="630.5" x2="1252.5" y1="450.9922" y2="450.9922"/><text fill="#000000" font-family="sans-serif" font-size="13" lengthAdjust="spacing" textLength="536" x="642.5" y="446.1357">400 BAD REQUEST {ERROR_CODE: PROMOCODE_RAN_OUT| PROMOCODE_EXPIRED}</text><polygon fill="#181818" points="64.5,477.3438,54.5,481.3438,64.5,485.3438,60.5,481.3438" style="stroke:#181818;stroke-width:1.0;"/><line style="stroke:#181818;stroke-width:1.0;stroke-dasharray:2.0,2.0;" x1="58.5" x2="614.5" y1="481.3438" y2="481.3438"/><text fill="#000000" font-family="sans-serif" font-size="13" lengthAdjust="spacing" textLength="302" x="70.5" y="476.4873">PROMOCODE ran out of usage| Promocode expired</text><polygon fill="#181818" points="2256,514.6953,2266,518.6953,2256,522.6953,2260,518.6953" style="stroke:#181818;stroke-width:1.0;"/><line style="stroke:#181818;stroke-width:1.0;" x1="1263.5" x2="2262" y1="518.6953" y2="518.6953"/><text fill="#000000" font-family="sans-serif" font-size="13" lengthAdjust="spacing" textLength="293" x="1270.5" y="513.8389">POST /inventory/products/stocks { product_items }</text><path d="M1268,531.6953 L1268,606.6953 L1460,606.6953 L1460,541.6953 L1450,531.6953 L1268,531.6953 " fill="#FEFFDD" style="stroke:#181818;stroke-width:0.5;"/><path d="M1450,531.6953 L1450,541.6953 L1460,541.6953 L1450,531.6953 " fill="#FEFFDD" style="stroke:#181818;stroke-width:0.5;"/><text fill="#000000" font-family="sans-serif" font-size="13" lengthAdjust="spacing" textLength="171" x="1274" y="550.1904">lock stocks for product_items</text><text fill="#000000" font-family="sans-serif" font-size="13" lengthAdjust="spacing" textLength="86" x="1274" y="566.542">product_items:</text><text fill="#000000" font-family="sans-serif" font-size="13" lengthAdjust="spacing" textLength="68" x="1282" y="582.8936">- product_id</text><text fill="#000000" font-family="sans-serif" font-size="13" lengthAdjust="spacing" textLength="54" x="1282" y="599.2451">- quantity</text><polygon fill="#181818" points="1274.5,630.4531,1264.5,634.4531,1274.5,638.4531,1270.5,634.4531" style="stroke:#181818;stroke-width:1.0;"/><line style="stroke:#181818;stroke-width:1.0;stroke-dasharray:2.0,2.0;" x1="1268.5" x2="2272" y1="634.4531" y2="634.4531"/><text fill="#000000" font-family="sans-serif" font-size="13" lengthAdjust="spacing" textLength="172" x="1280.5" y="629.5967">confirmation { product_items }</text><path d="M2278,647.4531 L2278,755.4531 L2537,755.4531 L2537,657.4531 L2527,647.4531 L2278,647.4531 " fill="#FEFFDD" style="stroke:#181818;stroke-width:0.5;"/><path d="M2527,647.4531 L2527,657.4531 L2537,657.4531 L2527,647.4531 " fill="#FEFFDD" style="stroke:#181818;stroke-width:0.5;"/><text fill="#000000" font-family="sans-serif" font-size="13" lengthAdjust="spacing" textLength="238" x="2284" y="665.9482">Stock confirmation, list out state of stock</text><text fill="#000000" font-family="sans-serif" font-size="13" lengthAdjust="spacing" textLength="4" x="2284" y="682.2998">{</text><text fill="#000000" font-family="sans-serif" font-size="13" lengthAdjust="spacing" textLength="128" x="2292" y="698.6514">&lt;product_id_01&gt;: OK,</text><text fill="#000000" font-family="sans-serif" font-size="13" lengthAdjust="spacing" textLength="211" x="2292" y="715.0029">&lt;product_id_02&gt;: OUT_OF_STOCK,</text><text fill="#000000" font-family="sans-serif" font-size="13" lengthAdjust="spacing" textLength="124" x="2292" y="731.3545">&lt;product_id_03&gt;: OK</text><text fill="#000000" font-family="sans-serif" font-size="13" lengthAdjust="spacing" textLength="4" x="2284" y="747.7061">}</text><path d="M10,767.5625 L71,767.5625 L71,775.9141 L61,785.9141 L10,785.9141 L10,767.5625 " fill="#EEEEEE" style="stroke:#000000;stroke-width:1.5;"/><rect fill="none" height="109.4063" style="stroke:#000000;stroke-width:1.5;" width="2071.5" x="10" y="767.5625"/><text fill="#000000" font-family="sans-serif" font-size="13" font-weight="bold" lengthAdjust="spacing" textLength="16" x="25" y="782.0576">alt</text><text fill="#000000" font-family="sans-serif" font-size="11" font-weight="bold" lengthAdjust="spacing" textLength="106" x="86" y="780.9814">["any out of stock"]</text><polygon fill="#181818" points="1995,804.2656,2005,808.2656,1995,812.2656,1999,808.2656" style="stroke:#181818;stroke-width:1.0;"/><line style="stroke:#181818;stroke-width:1.0;stroke-dasharray:2.0,2.0;" x1="1263.5" x2="2001" y1="808.2656" y2="808.2656"/><text fill="#000000" font-family="sans-serif" font-size="13" lengthAdjust="spacing" textLength="192" x="1270.5" y="803.4092">Event: rollback promocode usage</text><polygon fill="#181818" points="636.5,834.6172,626.5,838.6172,636.5,842.6172,632.5,838.6172" style="stroke:#181818;stroke-width:1.0;"/><line style="stroke:#181818;stroke-width:1.0;stroke-dasharray:2.0,2.0;" x1="630.5" x2="1252.5" y1="838.6172" y2="838.6172"/><text fill="#000000" font-family="sans-serif" font-size="13" lengthAdjust="spacing" textLength="604" x="642.5" y="833.7607">400 Bad Request { ERROR_CODE: OUT_OF_STOCK, payload: { &lt;product_id_02&gt;: OUT_OF_STOCK } }</text><polygon fill="#181818" points="64.5,864.9688,54.5,868.9688,64.5,872.9688,60.5,868.9688" style="stroke:#181818;stroke-width:1.0;"/><line style="stroke:#181818;stroke-width:1.0;stroke-dasharray:2.0,2.0;" x1="58.5" x2="614.5" y1="868.9688" y2="868.9688"/><text fill="#000000" font-family="sans-serif" font-size="13" lengthAdjust="spacing" textLength="98" x="70.5" y="864.1123">out of stock error</text><polygon fill="#181818" points="1534.5,902.3203,1544.5,906.3203,1534.5,910.3203,1538.5,906.3203" style="stroke:#181818;stroke-width:1.0;"/><line style="stroke:#181818;stroke-width:1.0;" x1="1263.5" x2="1540.5" y1="906.3203" y2="906.3203"/><text fill="#000000" font-family="sans-serif" font-size="13" lengthAdjust="spacing" textLength="259" x="1270.5" y="901.4639">update { status=PAYMENT_PROCESSING }</text><polygon fill="#181818" points="2124.5,932.6719,2134.5,936.6719,2124.5,940.6719,2128.5,936.6719" style="stroke:#181818;stroke-width:1.0;"/><line style="stroke:#181818;stroke-width:1.0;" x1="1263.5" x2="2130.5" y1="936.6719" y2="936.6719"/><text fill="#000000" font-family="sans-serif" font-size="13" lengthAdjust="spacing" textLength="227" x="1270.5" y="931.8154">POST /payment/payments { checkout }</text><path d="M1268,949.6719 L1268,1040.6719 L1405,1040.6719 L1405,959.6719 L1395,949.6719 L1268,949.6719 " fill="#FEFFDD" style="stroke:#181818;stroke-width:0.5;"/><path d="M1395,949.6719 L1395,959.6719 L1405,959.6719 L1395,949.6719 " fill="#FEFFDD" style="stroke:#181818;stroke-width:0.5;"/><text fill="#000000" font-family="sans-serif" font-size="13" lengthAdjust="spacing" textLength="109" x="1274" y="968.167">checkout includes:</text><text fill="#000000" font-family="sans-serif" font-size="13" lengthAdjust="spacing" textLength="108" x="1282" y="984.5186">- payment_method</text><text fill="#000000" font-family="sans-serif" font-size="13" lengthAdjust="spacing" textLength="90" x="1282" y="1000.8701">- product_items</text><text fill="#000000" font-family="sans-serif" font-size="13" lengthAdjust="spacing" textLength="92" x="1282" y="1017.2217">- shipment_fees</text><text fill="#000000" font-family="sans-serif" font-size="13" lengthAdjust="spacing" textLength="40" x="1282" y="1033.5732">- taxes</text><polygon fill="#181818" points="3279.5,1064.7813,3289.5,1068.7813,3279.5,1072.7813,3283.5,1068.7813" style="stroke:#181818;stroke-width:1.0;"/><line style="stroke:#181818;stroke-width:1.0;" x1="2146.5" x2="3285.5" y1="1068.7813" y2="1068.7813"/><text fill="#000000" font-family="sans-serif" font-size="13" lengthAdjust="spacing" textLength="1121" x="2153.5" y="1063.9248">create { status=(payment_type is COD ? PROCESSING : NEW), payment_provider_checkout_id, checkout_id, product_items, shipment_fees, taxes, payment_type: checkout.payment_method }</text><text fill="#000000" font-family="sans-serif" font-size="14" lengthAdjust="spacing" textLength="119" x="3291.5" y="1092.9629">Checkout Payment</text><ellipse cx="3354" cy="1062.4297" fill="#73C6B6" rx="12" ry="12" style="stroke:#181818;stroke-width:0.5;"/><line style="stroke:#181818;stroke-width:0.5;" x1="3342" x2="3366" y1="1076.4297" y2="1076.4297"/><polygon fill="#181818" points="1274.5,1124.3906,1264.5,1128.3906,1274.5,1132.3906,1270.5,1128.3906" style="stroke:#181818;stroke-width:1.0;"/><line style="stroke:#181818;stroke-width:1.0;stroke-dasharray:2.0,2.0;" x1="1268.5" x2="2140.5" y1="1128.3906" y2="1128.3906"/><text fill="#000000" font-family="sans-serif" font-size="13" lengthAdjust="spacing" textLength="110" x="1280.5" y="1123.5342">checkout_payment</text><path d="M1268,1141.3906 L1268,1216.3906 L1483,1216.3906 L1483,1151.3906 L1473,1141.3906 L1268,1141.3906 " fill="#FEFFDD" style="stroke:#181818;stroke-width:0.5;"/><path d="M1473,1141.3906 L1473,1151.3906 L1483,1151.3906 L1473,1141.3906 " fill="#FEFFDD" style="stroke:#181818;stroke-width:0.5;"/><text fill="#000000" font-family="sans-serif" font-size="13" lengthAdjust="spacing" textLength="114" x="1274" y="1159.8857">checkout_payment:</text><text fill="#000000" font-family="sans-serif" font-size="13" lengthAdjust="spacing" textLength="186" x="1282" y="1176.2373">- payment_provider_checkout_id</text><text fill="#000000" font-family="sans-serif" font-size="13" lengthAdjust="spacing" textLength="61" x="1282" y="1192.5889">- checkout</text><text fill="#000000" font-family="sans-serif" font-size="13" lengthAdjust="spacing" textLength="90" x="1282" y="1208.9404">- payment_type</text><polygon fill="#181818" points="636.5,1240.1484,626.5,1244.1484,636.5,1248.1484,632.5,1244.1484" style="stroke:#181818;stroke-width:1.0;"/><line style="stroke:#181818;stroke-width:1.0;stroke-dasharray:2.0,2.0;" x1="630.5" x2="1252.5" y1="1244.1484" y2="1244.1484"/><text fill="#000000" font-family="sans-serif" font-size="13" lengthAdjust="spacing" textLength="110" x="642.5" y="1239.292">checkout_payment</text><polygon fill="#181818" points="2157.5,1270.5,2147.5,1274.5,2157.5,1278.5,2153.5,1274.5" style="stroke:#181818;stroke-width:1.0;"/><line style="stroke:#181818;stroke-width:1.0;stroke-dasharray:2.0,2.0;" x1="2151.5" x2="3353" y1="1274.5" y2="1274.5"/><text fill="#000000" font-family="sans-serif" font-size="13" lengthAdjust="spacing" textLength="113" x="2163.5" y="1269.6436">[CDC Create Event]</text><path d="M2071.5,1289.5 L2132.5,1289.5 L2132.5,1297.8516 L2122.5,1307.8516 L2071.5,1307.8516 L2071.5,1289.5 " fill="#EEEEEE" style="stroke:#000000;stroke-width:1.5;"/><rect fill="none" height="199.3672" style="stroke:#000000;stroke-width:1.5;" width="2056" x="2071.5" y="1289.5"/><text fill="#000000" font-family="sans-serif" font-size="13" font-weight="bold" lengthAdjust="spacing" textLength="16" x="2086.5" y="1303.9951">alt</text><text fill="#000000" font-family="sans-serif" font-size="11" font-weight="bold" lengthAdjust="spacing" textLength="153" x="2147.5" y="1302.9189">[payment_type is NOT COD:]</text><polygon fill="#181818" points="3616.5,1326.2031,3626.5,1330.2031,3616.5,1334.2031,3620.5,1330.2031" style="stroke:#181818;stroke-width:1.0;"/><line style="stroke:#181818;stroke-width:1.0;" x1="2146.5" x2="3622.5" y1="1330.2031" y2="1330.2031"/><text fill="#000000" font-family="sans-serif" font-size="13" lengthAdjust="spacing" textLength="448" x="2153.5" y="1325.3467">POST /checkout/orders { checkout_id, product_items, shipment_fees, taxes }</text><polygon fill="#181818" points="3919.5,1356.5547,3929.5,1360.5547,3919.5,1364.5547,3923.5,1360.5547" style="stroke:#181818;stroke-width:1.0;"/><line style="stroke:#181818;stroke-width:1.0;" x1="3638.5" x2="3925.5" y1="1360.5547" y2="1360.5547"/><text fill="#000000" font-family="sans-serif" font-size="13" lengthAdjust="spacing" textLength="93" x="3645.5" y="1355.6982">create checkout</text><text fill="#000000" font-family="sans-serif" font-size="14" lengthAdjust="spacing" textLength="180" x="3931.5" y="1384.7363">Payment Provider: Checkout</text><ellipse cx="4024.5" cy="1354.2031" fill="#73C6B6" rx="12" ry="12" style="stroke:#181818;stroke-width:0.5;"/><line style="stroke:#181818;stroke-width:0.5;" x1="4012.5" x2="4036.5" y1="1368.2031" y2="1368.2031"/><polygon fill="#181818" points="3649.5,1416.1641,3639.5,1420.1641,3649.5,1424.1641,3645.5,1420.1641" style="stroke:#181818;stroke-width:1.0;"/><line style="stroke:#181818;stroke-width:1.0;stroke-dasharray:2.0,2.0;" x1="3643.5" x2="4023.5" y1="1420.1641" y2="1420.1641"/><text fill="#000000" font-family="sans-serif" font-size="13" lengthAdjust="spacing" textLength="194" x="3655.5" y="1415.3076">{ payment_provider_checkout_id }</text><polygon fill="#181818" points="2157.5,1446.5156,2147.5,1450.5156,2157.5,1454.5156,2153.5,1450.5156" style="stroke:#181818;stroke-width:1.0;"/><line style="stroke:#181818;stroke-width:1.0;stroke-dasharray:2.0,2.0;" x1="2151.5" x2="3632.5" y1="1450.5156" y2="1450.5156"/><text fill="#000000" font-family="sans-serif" font-size="13" lengthAdjust="spacing" textLength="272" x="2163.5" y="1445.6592">{ checkout_id, payment_provider_checkout_id }</text><polygon fill="#181818" points="3342,1476.8672,3352,1480.8672,3342,1484.8672,3346,1480.8672" style="stroke:#181818;stroke-width:1.0;"/><line style="stroke:#181818;stroke-width:1.0;" x1="2146.5" x2="3348" y1="1480.8672" y2="1480.8672"/><text fill="#000000" font-family="sans-serif" font-size="13" lengthAdjust="spacing" textLength="375" x="2153.5" y="1476.0107">update { status=PROCESSING, payment_provider_checkout_id }</text><path d="M572,1502.8672 L645,1502.8672 L645,1511.2188 L635,1521.2188 L572,1521.2188 L572,1502.8672 " fill="#EEEEEE" style="stroke:#000000;stroke-width:1.5;"/><rect fill="none" height="79.0547" style="stroke:#000000;stroke-width:1.5;" width="1639.5" x="572" y="1502.8672"/><text fill="#000000" font-family="sans-serif" font-size="13" font-weight="bold" lengthAdjust="spacing" textLength="28" x="587" y="1517.3623">loop</text><text fill="#000000" font-family="sans-serif" font-size="11" font-weight="bold" lengthAdjust="spacing" textLength="701" x="660" y="1516.2861">[reload to get payment information util payment status is PROCESSING and payment_provider_checkout_id existing (if not COD)]</text><polygon fill="#181818" points="2124.5,1539.5703,2134.5,1543.5703,2124.5,1547.5703,2128.5,1543.5703" style="stroke:#181818;stroke-width:1.0;"/><line style="stroke:#181818;stroke-width:1.0;" x1="625.5" x2="2130.5" y1="1543.5703" y2="1543.5703"/><text fill="#000000" font-family="sans-serif" font-size="13" lengthAdjust="spacing" textLength="284" x="632.5" y="1538.7139">GET /payment/payments/checkout/{checkout_id}</text><polygon fill="#181818" points="636.5,1569.9219,626.5,1573.9219,636.5,1577.9219,632.5,1573.9219" style="stroke:#181818;stroke-width:1.0;"/><line style="stroke:#181818;stroke-width:1.0;stroke-dasharray:2.0,2.0;" x1="630.5" x2="2140.5" y1="1573.9219" y2="1573.9219"/><text fill="#000000" font-family="sans-serif" font-size="13" lengthAdjust="spacing" textLength="332" x="642.5" y="1569.0654">{ status=PROCESSING, payment_provider_checkout_id }</text><polygon fill="#181818" points="69.5,1607.2734,59.5,1611.2734,69.5,1615.2734,65.5,1611.2734" style="stroke:#181818;stroke-width:1.0;"/><line style="stroke:#181818;stroke-width:1.0;stroke-dasharray:2.0,2.0;" x1="63.5" x2="619.5" y1="1611.2734" y2="1611.2734"/><text fill="#000000" font-family="sans-serif" font-size="13" lengthAdjust="spacing" textLength="538" x="75.5" y="1606.417">redirect to payment_provider : Payment Provider: Checkout { payment_provider_checkout_id }</text><polygon fill="#181818" points="3616.5,1637.625,3626.5,1641.625,3616.5,1645.625,3620.5,1641.625" style="stroke:#181818;stroke-width:1.0;"/><line style="stroke:#181818;stroke-width:1.0;" x1="53.5" x2="3622.5" y1="1641.625" y2="1641.625"/><text fill="#000000" font-family="sans-serif" font-size="13" lengthAdjust="spacing" textLength="298" x="60.5" y="1636.7686">execute payment { payment_provider_checkout_id }</text><polygon fill="#181818" points="4012.5,1667.9766,4022.5,1671.9766,4012.5,1675.9766,4016.5,1671.9766" style="stroke:#181818;stroke-width:1.0;"/><line style="stroke:#181818;stroke-width:1.0;" x1="3638.5" x2="4018.5" y1="1671.9766" y2="1671.9766"/><text fill="#000000" font-family="sans-serif" font-size="13" lengthAdjust="spacing" textLength="362" x="3645.5" y="1667.1201">update { status=COMPETED, payment_provider_checkout_id }</text><polygon fill="#181818" points="2157.5,1698.3281,2147.5,1702.3281,2157.5,1706.3281,2153.5,1702.3281" style="stroke:#181818;stroke-width:1.0;"/><line style="stroke:#181818;stroke-width:1.0;stroke-dasharray:2.0,2.0;" x1="2151.5" x2="3627.5" y1="1702.3281" y2="1702.3281"/><text fill="#000000" font-family="sans-serif" font-size="13" lengthAdjust="spacing" textLength="455" x="2163.5" y="1697.4717">{ checkout_id, payment_provider_checkout_id, status=COMPETED/FAILURE }</text><polygon fill="#181818" points="3342,1728.6797,3352,1732.6797,3342,1736.6797,3346,1732.6797" style="stroke:#181818;stroke-width:1.0;"/><line style="stroke:#181818;stroke-width:1.0;" x1="2146.5" x2="3348" y1="1732.6797" y2="1732.6797"/><text fill="#000000" font-family="sans-serif" font-size="13" lengthAdjust="spacing" textLength="183" x="2153.5" y="1727.8232">update { status=COMPLETED }</text><polygon fill="#181818" points="3476.5,1759.0313,3486.5,1763.0313,3476.5,1767.0313,3480.5,1763.0313" style="stroke:#181818;stroke-width:1.0;"/><line style="stroke:#181818;stroke-width:1.0;stroke-dasharray:2.0,2.0;" x1="2146.5" x2="3482.5" y1="1763.0313" y2="1763.0313"/><text fill="#000000" font-family="sans-serif" font-size="13" lengthAdjust="spacing" textLength="284" x="2153.5" y="1758.1748">Event: PaymentCompleted { checkout_payment }</text><polygon fill="#181818" points="64.5,1789.3828,54.5,1793.3828,64.5,1797.3828,60.5,1793.3828" style="stroke:#181818;stroke-width:1.0;"/><line style="stroke:#181818;stroke-width:1.0;stroke-dasharray:2.0,2.0;" x1="58.5" x2="3492.5" y1="1793.3828" y2="1793.3828"/><text fill="#000000" font-family="sans-serif" font-size="13" lengthAdjust="spacing" textLength="201" x="70.5" y="1788.5264">notification for payment completion</text><polygon fill="#181818" points="1274.5,1819.7344,1264.5,1823.7344,1274.5,1827.7344,1270.5,1823.7344" style="stroke:#181818;stroke-width:1.0;"/><line style="stroke:#181818;stroke-width:1.0;stroke-dasharray:2.0,2.0;" x1="1268.5" x2="2140.5" y1="1823.7344" y2="1823.7344"/><text fill="#000000" font-family="sans-serif" font-size="13" lengthAdjust="spacing" textLength="244" x="1280.5" y="1818.8779">Event: PaymentCompleted { checkout_id }</text><polygon fill="#181818" points="1534.5,1850.0859,1544.5,1854.0859,1534.5,1858.0859,1538.5,1854.0859" style="stroke:#181818;stroke-width:1.0;"/><line style="stroke:#181818;stroke-width:1.0;" x1="1263.5" x2="1540.5" y1="1854.0859" y2="1854.0859"/><text fill="#000000" font-family="sans-serif" font-size="13" lengthAdjust="spacing" textLength="250" x="1270.5" y="1849.2295">update { status=PAYMENT_CONFIRMED }</text><polygon fill="#181818" points="1600.5,1880.4375,1610.5,1884.4375,1600.5,1888.4375,1604.5,1884.4375" style="stroke:#181818;stroke-width:1.0;"/><line style="stroke:#181818;stroke-width:1.0;" x1="1263.5" x2="1606.5" y1="1884.4375" y2="1884.4375"/><text fill="#000000" font-family="sans-serif" font-size="13" lengthAdjust="spacing" textLength="325" x="1270.5" y="1879.5811">create { checkout_id, status=PAYMENT_CONFIRMED }</text><text fill="#000000" font-family="sans-serif" font-size="14" lengthAdjust="spacing" textLength="37" x="1612.5" y="1908.6191">Order</text><ellipse cx="1634" cy="1878.0859" fill="#3498DB" rx="12" ry="12" style="stroke:#181818;stroke-width:0.5;"/><line style="stroke:#181818;stroke-width:0.5;" x1="1622" x2="1646" y1="1892.0859" y2="1892.0859"/><polygon fill="#181818" points="1795,1940.0469,1805,1944.0469,1795,1948.0469,1799,1944.0469" style="stroke:#181818;stroke-width:1.0;"/><line style="stroke:#181818;stroke-width:1.0;stroke-dasharray:2.0,2.0;" x1="1639" x2="1801" y1="1944.0469" y2="1944.0469"/><text fill="#000000" font-family="sans-serif" font-size="13" lengthAdjust="spacing" textLength="149" x="1646" y="1939.1904">[CDC Create Order Event]</text><line style="stroke:#181818;stroke-width:1.0;stroke-dasharray:2.0,2.0;" x1="1817" x2="1859" y1="1979.3984" y2="1979.3984"/><line style="stroke:#181818;stroke-width:1.0;stroke-dasharray:2.0,2.0;" x1="1859" x2="1859" y1="1979.3984" y2="1992.3984"/><line style="stroke:#181818;stroke-width:1.0;stroke-dasharray:2.0,2.0;" x1="1812" x2="1859" y1="1992.3984" y2="1992.3984"/><polygon fill="#181818" points="1822,1988.3984,1812,1992.3984,1822,1996.3984,1818,1992.3984" style="stroke:#181818;stroke-width:1.0;"/><text fill="#000000" font-family="sans-serif" font-size="13" lengthAdjust="spacing" textLength="171" x="1824" y="1974.542">update for remove order items</text><polygon fill="#181818" points="1274.5,2013.75,1264.5,2017.75,1274.5,2021.75,1270.5,2017.75" style="stroke:#181818;stroke-width:1.0;"/><line style="stroke:#181818;stroke-width:1.0;stroke-dasharray:2.0,2.0;" x1="1268.5" x2="1633" y1="2017.75" y2="2017.75"/><text fill="#000000" font-family="sans-serif" font-size="13" lengthAdjust="spacing" textLength="29" x="1280.5" y="2012.8936">order</text><polygon fill="#181818" points="3476.5,2027.75,3486.5,2031.75,3476.5,2035.75,3480.5,2031.75" style="stroke:#181818;stroke-width:1.0;"/><line style="stroke:#181818;stroke-width:1.0;stroke-dasharray:2.0,2.0;" x1="1263.5" x2="3482.5" y1="2031.75" y2="2031.75"/><polygon fill="#181818" points="64.5,2058.1016,54.5,2062.1016,64.5,2066.1016,60.5,2062.1016" style="stroke:#181818;stroke-width:1.0;"/><line style="stroke:#181818;stroke-width:1.0;stroke-dasharray:2.0,2.0;" x1="58.5" x2="3492.5" y1="2062.1016" y2="2062.1016"/><text fill="#000000" font-family="sans-serif" font-size="13" lengthAdjust="spacing" textLength="163" x="70.5" y="2057.2451">notification for order creation</text><polygon fill="#181818" points="69.5,2088.4531,59.5,2092.4531,69.5,2096.4531,65.5,2092.4531" style="stroke:#181818;stroke-width:1.0;"/><line style="stroke:#181818;stroke-width:1.0;stroke-dasharray:2.0,2.0;" x1="63.5" x2="3632.5" y1="2092.4531" y2="2092.4531"/><text fill="#000000" font-family="sans-serif" font-size="13" lengthAdjust="spacing" textLength="217" x="75.5" y="2087.5967">redirect to storefront with confirmation</text><polygon fill="#181818" points="603.5,2118.8047,613.5,2122.8047,603.5,2126.8047,607.5,2122.8047" style="stroke:#181818;stroke-width:1.0;"/><line style="stroke:#181818;stroke-width:1.0;" x1="53.5" x2="609.5" y1="2122.8047" y2="2122.8047"/><text fill="#000000" font-family="sans-serif" font-size="13" lengthAdjust="spacing" textLength="102" x="60.5" y="2117.9482">confirmation page</text><polygon fill="#181818" points="64.5,2149.1563,54.5,2153.1563,64.5,2157.1563,60.5,2153.1563" style="stroke:#181818;stroke-width:1.0;"/><line style="stroke:#181818;stroke-width:1.0;stroke-dasharray:2.0,2.0;" x1="58.5" x2="614.5" y1="2153.1563" y2="2153.1563"/><text fill="#000000" font-family="sans-serif" font-size="13" lengthAdjust="spacing" textLength="158" x="70.5" y="2148.2998">show payment confirmation</text><path d="M10,2168.1563 L83,2168.1563 L83,2176.5078 L73,2186.5078 L10,2186.5078 L10,2168.1563 " fill="#EEEEEE" style="stroke:#000000;stroke-width:1.5;"/><rect fill="none" height="170.1094" style="stroke:#000000;stroke-width:1.5;" width="1655.5" x="10" y="2168.1563"/><text fill="#000000" font-family="sans-serif" font-size="13" font-weight="bold" lengthAdjust="spacing" textLength="28" x="25" y="2182.6514">loop</text><text fill="#000000" font-family="sans-serif" font-size="11" font-weight="bold" lengthAdjust="spacing" textLength="122" x="98" y="2181.5752">["reload to get order"]</text><polygon fill="#181818" points="1241.5,2204.8594,1251.5,2208.8594,1241.5,2212.8594,1245.5,2208.8594" style="stroke:#181818;stroke-width:1.0;"/><line style="stroke:#181818;stroke-width:1.0;" x1="625.5" x2="1247.5" y1="2208.8594" y2="2208.8594"/><text fill="#000000" font-family="sans-serif" font-size="13" lengthAdjust="spacing" textLength="242" x="632.5" y="2204.0029">GET /order/orders/checkout/{checkout_id}</text><polygon fill="#181818" points="1617,2235.2109,1627,2239.2109,1617,2243.2109,1621,2239.2109" style="stroke:#181818;stroke-width:1.0;"/><line style="stroke:#181818;stroke-width:1.0;" x1="1263.5" x2="1623" y1="2239.2109" y2="2239.2109"/><text fill="#000000" font-family="sans-serif" font-size="13" lengthAdjust="spacing" textLength="153" x="1270.5" y="2234.3545">find order by {checkout_id}</text><polygon fill="#181818" points="1274.5,2265.5625,1264.5,2269.5625,1274.5,2273.5625,1270.5,2269.5625" style="stroke:#181818;stroke-width:1.0;"/><line style="stroke:#181818;stroke-width:1.0;stroke-dasharray:2.0,2.0;" x1="1268.5" x2="1633" y1="2269.5625" y2="2269.5625"/><text fill="#000000" font-family="sans-serif" font-size="13" lengthAdjust="spacing" textLength="29" x="1280.5" y="2264.7061">order</text><polygon fill="#181818" points="636.5,2295.9141,626.5,2299.9141,636.5,2303.9141,632.5,2299.9141" style="stroke:#181818;stroke-width:1.0;"/><line style="stroke:#181818;stroke-width:1.0;stroke-dasharray:2.0,2.0;" x1="630.5" x2="1257.5" y1="2299.9141" y2="2299.9141"/><text fill="#000000" font-family="sans-serif" font-size="13" lengthAdjust="spacing" textLength="29" x="642.5" y="2295.0576">order</text><polygon fill="#181818" points="64.5,2326.2656,54.5,2330.2656,64.5,2334.2656,60.5,2330.2656" style="stroke:#181818;stroke-width:1.0;"/><line style="stroke:#181818;stroke-width:1.0;stroke-dasharray:2.0,2.0;" x1="58.5" x2="614.5" y1="2330.2656" y2="2330.2656"/><text fill="#000000" font-family="sans-serif" font-size="13" lengthAdjust="spacing" textLength="133" x="70.5" y="2325.4092">redirect to order details</text><!--SRC=[jLXRRzis57xthpXmNjh2NfmBsaJeEhYAKWHBBCzsi1N382WIdGYLBLMIqnXf_lju5obIijjXVh5DybpvVOU7h98gHJ0Djokqhk0opRxrUc5KPGMucxBALgY0i8H8_3vOXl6xSDJhtMLFy7ayxm7-v65H9L6IXrX3VuvbqRB8rbMVI9RoBvQDbyVe7FZ75FMB69kOe-8nYH2LpiX8KB8HE3WvFJ-BxwGmzZYfjj1t7r3q9TimWn7_8rPhAwc5MhEsHe_Y8SlpP7qFBXvbWV2H8C8ZS12UHn4wCGMdHRRAgYHRQt7aOhIEvInS7Yr75WLyApHnDbOBlpk9tjwzDOMlrezuNLPiDV54Z2hMHsTtvs-jMHHWqB8PS1VQJKzmVCia2etOryf4xG374Lh7GA3402M3nrbyJEXM7Q1mYJFLdgTwgPAed0zgxef0cv8EQ01gwWXgH75btEbUJz9Y-441kaCqHmZ5K6L26-5KyXXMo4u8x9yoZhLfmCSA_Va23kdWeN2dF7oMkvF4BuSvCLgMGs4HGDgqqeZcH9_1XcMmRzuui4n8f5lG35datW-7Kj2Hl-m632g8wEH4_Gk7E9tvDxxhNtWlXviol4UQBmESDHoV0-FfzFhAks2-oR1tiCwO7Pg9FnuTWJlpnWllWjMSC2NxTdH-UXP2_p9CKhB9OPwds_x-Ma-FZ-5sWaDplVby_F7Q0zUVBBp90fwzsSoV1IHWd1SHUp0RJmB_Tl5T6VB-cbxDHCWnQW_QjWtAHZimGwliaGj2bCLj4Yh2JqSZ-3Y-W9dtnwqt_sc_LT0JdpYV7AW5e0ZNG02PBO4Yu3lG6aiS1VIK9mMAERrZE-ACyYSG9oS8uk9DX2c5xKTVIdW6FX8a5LgLmBp5bGn1aTm_K6SqEprsfgLO6hYE9Jv3DIryZJRczCHnEAmdOcNmwoQaPKk4I9tGOTvTti4oRu5abAsNIR5YvTiUVZC1XbxfzfnaG5CvW3GfAxgFbB94dkP9oZpBNm3lwrG4ewCF3lY_3zgcZydqxIBmBuFvmdVR5vvGFN9MnAJbLE6HFJgD_k5wAv19O-bpbIPrB4NF8-eTAB8qlGjnjd89QehoLbK62yCOC_Zh1k7qFeDAGoqhv21Aip1syABE_C6BJ4qhEzMW0HL5LdGpiAurcpmcoNscADYKlqx7dszmtGjuBRoQV8ANbdD3xu7agS66nJUXhZp2zcMj54ZMKRg9aSvARdU5geSijj5LuJOPBn-Id4ei4LB7g_29_nUGWyPnPU_oGDIDnhIILzcTaKCxAf2MubT2iDhc6DObFciku3TGCkx0nFlpzQ2zyw57hVP72twWnpnWeTRwYE6wBVX5pwX4czbI65lUZDTQbcmx38QeevI9OMVasaAjjsbAapXtL9L6ICr3a4JTBCpDFHQt7sDYQ6F9t-w52ow312qv__GqXvhPsW-Df0msOJNn5mHQJWjSLGxdilDc91QXi0vNvV2-O9CeClnlNWNgZPDxQ2ork1feZJ7dc846GvCAOqCLgSLTo9D1cTcqwNMClEsZsm9EiNx_mcCfxBAyxEK7uKjl1rFIBCkXGEGK8qttFP8On8KRTrkyUTbKk2aN4ymR0a-bteNOMATFw0atA-Js_ofP4XeJNBys6bOBspvvbYEfXhTsZzgl-fj7iRKo_cpUEnFEDwMr3S2TD-w-eqgvvzR8Tw3zdhqRzufVjVdw4YrymDwfTt2J4UW9HPiwk1yoB8tih2cz7wmX9brS_sRguKlchasZLSkqPSFY3nI3GTEDmylnrVNjpACesGkYFrKaYBbhOe-ZqL22jTYUZsJtp27cPgiyHHMArQ35bZSU1JgVesG_OIxHeQykOJSzRYrYhk3X9hziMbkZRZG1UuJBATr9wF_o8DJUkxl-vF9gTYDtqL111yYnMVUcDl2rwTEzrhpbnjZ5I7sWrHiVzh0isnzDQVkxBgsxsgp534yAWK31tb6OH-pYhBGPQaNJbAgBp1wOZZZiguceUh3bnQOLSlyt6rWEw6xlpuIEhjHQyUm7aN9QVKkg1-qLejVLxEmwNDIBj_PQafFhUkUvORxvTXsh61xVb7gYkCzxeBxU1D5azItjIQE8qEQ4lI6pFhkbCR6GpbegsfZEtuqP1golnpiulHSFMfYmwphLJgJwfiBvj5VVm_oFKHKcQIbw9dltyYy0]--></g></svg>