<?xml version="1.0" encoding="us-ascii" standalone="no"?><svg xmlns="http://www.w3.org/2000/svg" xmlns:xlink="http://www.w3.org/1999/xlink" contentStyleType="text/css" height="2093px" preserveAspectRatio="none" style="width:3717px;height:2093px;background:#FFFFFF;" version="1.1" viewBox="0 0 3717 2093" width="3717px" zoomAndPan="magnify"><defs/><g><text fill="#000000" font-family="sans-serif" font-size="14" font-weight="bold" lengthAdjust="spacing" textLength="96" x="1812.25" y="29.5332">Payment Flow</text><rect fill="#DDDDDD" height="2042.3984" style="stroke:#181818;stroke-width:0.5;" width="2570.5" x="578" y="44.6094"/><text fill="#000000" font-family="sans-serif" font-size="13" font-weight="bold" lengthAdjust="spacing" textLength="26" x="1850.25" y="58.1045">YAS</text><rect fill="#EAFAF1" height="2042.3984" style="stroke:#181818;stroke-width:0.5;" width="555" x="3150.5" y="44.6094"/><text fill="#000000" font-family="sans-serif" font-size="13" font-weight="bold" lengthAdjust="spacing" textLength="114" x="3371" y="58.1045">Payment Provider</text><rect fill="#FFFFFF" height="30.3516" style="stroke:#181818;stroke-width:1.0;" width="10" x="48.5" y="1366.4609"/><rect fill="#FFFFFF" height="30.3516" style="stroke:#181818;stroke-width:1.0;" width="10" x="48.5" y="1743.5859"/><rect fill="#FDF2E9" height="1212.8906" style="stroke:#181818;stroke-width:1.0;" width="10" x="615.5" y="153.5703"/><rect fill="#FDF2E9" height="222.4609" style="stroke:#181818;stroke-width:1.0;" width="10" x="615.5" y="1773.9375"/><rect fill="#3498DB" height="845.7656" style="stroke:#181818;stroke-width:1.0;" width="10" x="1253.5" y="183.9219"/><rect fill="#3498DB" height="134.3125" style="stroke:#181818;stroke-width:1.0;" width="10" x="1253.5" y="1578.9219"/><rect fill="#3498DB" height="91.0547" style="stroke:#181818;stroke-width:1.0;" width="10" x="1253.5" y="1859.9922"/><rect fill="#3498DB" height="30.3516" style="stroke:#181818;stroke-width:1.0;" width="10" x="1629" y="1890.3438"/><rect fill="#73C6B6" height="191.7188" style="stroke:#181818;stroke-width:1.0;" width="10" x="1720.5" y="691.8594"/><rect fill="#73C6B6" height="221.3672" style="stroke:#181818;stroke-width:1.0;" width="10" x="1720.5" y="1029.6875"/><rect fill="#73C6B6" height="30.3516" style="stroke:#181818;stroke-width:1.0;" width="10" x="1720.5" y="1298.7578"/><rect fill="#73C6B6" height="121.4063" style="stroke:#181818;stroke-width:1.0;" width="10" x="1720.5" y="1457.5156"/><rect fill="#808B96" height="115.7578" style="stroke:#181818;stroke-width:1.0;" width="10" x="1852" y="304.2344"/><rect fill="#FAD7A0" height="30.3516" style="stroke:#181818;stroke-width:1.0;" width="10" x="3072.5" y="1518.2188"/><rect fill="#FAD7A0" height="30.3516" style="stroke:#181818;stroke-width:1.0;" width="10" x="3072.5" y="1682.8828"/><rect fill="#73C6B6" height="120.3125" style="stroke:#181818;stroke-width:1.0;" width="10" x="3212.5" y="1085.3906"/><rect fill="#73C6B6" height="346.7734" style="stroke:#181818;stroke-width:1.0;" width="10" x="3212.5" y="1396.8125"/><rect fill="#F1948A" height="79.0547" style="stroke:#000000;stroke-width:1.5;" width="1309.5" x="10" y="553.1016"/><rect fill="none" height="199.3672" style="stroke:#000000;stroke-width:1.5;" width="2056" x="1655.5" y="1044.6875"/><rect fill="none" height="79.0547" style="stroke:#000000;stroke-width:1.5;" width="1223.5" x="572" y="1258.0547"/><rect fill="none" height="170.1094" style="stroke:#000000;stroke-width:1.5;" width="1655.5" x="10" y="1819.2891"/><line style="stroke:#181818;stroke-width:0.5;stroke-dasharray:5.0,5.0;" x1="53" x2="53" y1="121.2188" y2="2006.3984"/><line style="stroke:#181818;stroke-width:0.5;stroke-dasharray:5.0,5.0;" x1="620" x2="620" y1="121.2188" y2="2006.3984"/><line style="stroke:#181818;stroke-width:0.5;stroke-dasharray:5.0,5.0;" x1="1258.5" x2="1258.5" y1="121.2188" y2="2006.3984"/><line style="stroke:#181818;stroke-width:0.5;stroke-dasharray:5.0,5.0;" x1="1546.5" x2="1546.5" y1="231.7266" y2="2006.3984"/><line style="stroke:#181818;stroke-width:0.5;stroke-dasharray:5.0,5.0;" x1="1633.5" x2="1633.5" y1="1657.0781" y2="2006.3984"/><line style="stroke:#181818;stroke-width:0.5;stroke-dasharray:5.0,5.0;" x1="1725.5" x2="1725.5" y1="121.2188" y2="2006.3984"/><line style="stroke:#181818;stroke-width:0.5;stroke-dasharray:5.0,5.0;" x1="1856.5" x2="1856.5" y1="121.2188" y2="2006.3984"/><line style="stroke:#181818;stroke-width:0.5;stroke-dasharray:5.0,5.0;" x1="2937.5" x2="2937.5" y1="841.4219" y2="2006.3984"/><line style="stroke:#181818;stroke-width:0.5;stroke-dasharray:5.0,5.0;" x1="3077.5" x2="3077.5" y1="121.2188" y2="2006.3984"/><line style="stroke:#181818;stroke-width:0.5;stroke-dasharray:5.0,5.0;" x1="3217.5" x2="3217.5" y1="121.2188" y2="2006.3984"/><line style="stroke:#181818;stroke-width:0.5;stroke-dasharray:5.0,5.0;" x1="3608.5" x2="3608.5" y1="1133.1953" y2="2006.3984"/><text fill="#000000" font-family="sans-serif" font-size="14" lengthAdjust="spacing" textLength="61" x="20" y="118.1426">Customer</text><ellipse cx="53.5" cy="52.1094" fill="#FAD7A0" rx="8" ry="8" style="stroke:#181818;stroke-width:0.5;"/><path d="M53.5,60.1094 L53.5,87.1094 M40.5,68.1094 L66.5,68.1094 M53.5,87.1094 L40.5,102.1094 M53.5,87.1094 L66.5,102.1094 " fill="none" style="stroke:#181818;stroke-width:0.5;"/><text fill="#000000" font-family="sans-serif" font-size="14" lengthAdjust="spacing" textLength="61" x="20" y="2019.9316">Customer</text><ellipse cx="53.5" cy="2031.5078" fill="#FAD7A0" rx="8" ry="8" style="stroke:#181818;stroke-width:0.5;"/><path d="M53.5,2039.5078 L53.5,2066.5078 M40.5,2047.5078 L66.5,2047.5078 M53.5,2066.5078 L40.5,2081.5078 M53.5,2066.5078 L66.5,2081.5078 " fill="none" style="stroke:#181818;stroke-width:0.5;"/><rect fill="#FDF2E9" height="31.6094" rx="2.5" ry="2.5" style="stroke:#181818;stroke-width:0.5;" width="77" x="582" y="88.6094"/><text fill="#000000" font-family="sans-serif" font-size="14" lengthAdjust="spacing" textLength="63" x="589" y="110.1426">Storefront</text><rect fill="#FDF2E9" height="31.6094" rx="2.5" ry="2.5" style="stroke:#181818;stroke-width:0.5;" width="77" x="582" y="2005.3984"/><text fill="#000000" font-family="sans-serif" font-size="14" lengthAdjust="spacing" textLength="63" x="589" y="2026.9316">Storefront</text><rect fill="#3498DB" height="31.6094" rx="2.5" ry="2.5" style="stroke:#181818;stroke-width:0.5;" width="102" x="1207.5" y="88.6094"/><text fill="#000000" font-family="sans-serif" font-size="14" lengthAdjust="spacing" textLength="88" x="1214.5" y="110.1426">Order Service</text><rect fill="#3498DB" height="31.6094" rx="2.5" ry="2.5" style="stroke:#181818;stroke-width:0.5;" width="102" x="1207.5" y="2005.3984"/><text fill="#000000" font-family="sans-serif" font-size="14" lengthAdjust="spacing" textLength="88" x="1214.5" y="2026.9316">Order Service</text><text fill="#000000" font-family="sans-serif" font-size="14" lengthAdjust="spacing" textLength="60" x="1513.5" y="2019.9316">Checkout</text><ellipse cx="1546.5" cy="2039.0078" fill="#3498DB" rx="12" ry="12" style="stroke:#181818;stroke-width:0.5;"/><line style="stroke:#181818;stroke-width:0.5;" x1="1534.5" x2="1558.5" y1="2053.0078" y2="2053.0078"/><text fill="#000000" font-family="sans-serif" font-size="14" lengthAdjust="spacing" textLength="37" x="1612.5" y="2019.9316">Order</text><ellipse cx="1634" cy="2039.0078" fill="#3498DB" rx="12" ry="12" style="stroke:#181818;stroke-width:0.5;"/><line style="stroke:#181818;stroke-width:0.5;" x1="1622" x2="1646" y1="2053.0078" y2="2053.0078"/><rect fill="#73C6B6" height="31.6094" rx="2.5" ry="2.5" style="stroke:#181818;stroke-width:0.5;" width="120" x="1665.5" y="88.6094"/><text fill="#000000" font-family="sans-serif" font-size="14" lengthAdjust="spacing" textLength="106" x="1672.5" y="110.1426">Payment Service</text><rect fill="#73C6B6" height="31.6094" rx="2.5" ry="2.5" style="stroke:#181818;stroke-width:0.5;" width="120" x="1665.5" y="2005.3984"/><text fill="#000000" font-family="sans-serif" font-size="14" lengthAdjust="spacing" textLength="106" x="1672.5" y="2026.9316">Payment Service</text><rect fill="#808B96" height="31.6094" rx="2.5" ry="2.5" style="stroke:#181818;stroke-width:0.5;" width="123" x="1795.5" y="88.6094"/><text fill="#000000" font-family="sans-serif" font-size="14" lengthAdjust="spacing" textLength="109" x="1802.5" y="110.1426">Inventory Service</text><rect fill="#808B96" height="31.6094" rx="2.5" ry="2.5" style="stroke:#181818;stroke-width:0.5;" width="123" x="1795.5" y="2005.3984"/><text fill="#000000" font-family="sans-serif" font-size="14" lengthAdjust="spacing" textLength="109" x="1802.5" y="2026.9316">Inventory Service</text><text fill="#000000" font-family="sans-serif" font-size="14" lengthAdjust="spacing" textLength="119" x="2875.5" y="2019.9316">Checkout Payment</text><ellipse cx="2938" cy="2039.0078" fill="#73C6B6" rx="12" ry="12" style="stroke:#181818;stroke-width:0.5;"/><line style="stroke:#181818;stroke-width:0.5;" x1="2926" x2="2950" y1="2053.0078" y2="2053.0078"/><rect fill="#FAD7A0" height="31.6094" rx="2.5" ry="2.5" style="stroke:#181818;stroke-width:0.5;" width="134" x="3010.5" y="88.6094"/><text fill="#000000" font-family="sans-serif" font-size="14" lengthAdjust="spacing" textLength="120" x="3017.5" y="110.1426">Notification Service</text><rect fill="#FAD7A0" height="31.6094" rx="2.5" ry="2.5" style="stroke:#181818;stroke-width:0.5;" width="134" x="3010.5" y="2005.3984"/><text fill="#000000" font-family="sans-serif" font-size="14" lengthAdjust="spacing" textLength="120" x="3017.5" y="2026.9316">Notification Service</text><rect fill="#73C6B6" height="31.6094" rx="2.5" ry="2.5" style="stroke:#181818;stroke-width:0.5;" width="126" x="3154.5" y="88.6094"/><text fill="#000000" font-family="sans-serif" font-size="14" lengthAdjust="spacing" textLength="112" x="3161.5" y="110.1426">Payment Provider</text><rect fill="#73C6B6" height="31.6094" rx="2.5" ry="2.5" style="stroke:#181818;stroke-width:0.5;" width="126" x="3154.5" y="2005.3984"/><text fill="#000000" font-family="sans-serif" font-size="14" lengthAdjust="spacing" textLength="112" x="3161.5" y="2026.9316">Payment Provider</text><text fill="#000000" font-family="sans-serif" font-size="14" lengthAdjust="spacing" textLength="180" x="3515.5" y="2019.9316">Payment Provider: Checkout</text><ellipse cx="3608.5" cy="2039.0078" fill="#73C6B6" rx="12" ry="12" style="stroke:#181818;stroke-width:0.5;"/><line style="stroke:#181818;stroke-width:0.5;" x1="3596.5" x2="3620.5" y1="2053.0078" y2="2053.0078"/><rect fill="#FFFFFF" height="30.3516" style="stroke:#181818;stroke-width:1.0;" width="10" x="48.5" y="1366.4609"/><rect fill="#FFFFFF" height="30.3516" style="stroke:#181818;stroke-width:1.0;" width="10" x="48.5" y="1743.5859"/><rect fill="#FDF2E9" height="1212.8906" style="stroke:#181818;stroke-width:1.0;" width="10" x="615.5" y="153.5703"/><rect fill="#FDF2E9" height="222.4609" style="stroke:#181818;stroke-width:1.0;" width="10" x="615.5" y="1773.9375"/><rect fill="#3498DB" height="845.7656" style="stroke:#181818;stroke-width:1.0;" width="10" x="1253.5" y="183.9219"/><rect fill="#3498DB" height="134.3125" style="stroke:#181818;stroke-width:1.0;" width="10" x="1253.5" y="1578.9219"/><rect fill="#3498DB" height="91.0547" style="stroke:#181818;stroke-width:1.0;" width="10" x="1253.5" y="1859.9922"/><rect fill="#3498DB" height="30.3516" style="stroke:#181818;stroke-width:1.0;" width="10" x="1629" y="1890.3438"/><rect fill="#73C6B6" height="191.7188" style="stroke:#181818;stroke-width:1.0;" width="10" x="1720.5" y="691.8594"/><rect fill="#73C6B6" height="221.3672" style="stroke:#181818;stroke-width:1.0;" width="10" x="1720.5" y="1029.6875"/><rect fill="#73C6B6" height="30.3516" style="stroke:#181818;stroke-width:1.0;" width="10" x="1720.5" y="1298.7578"/><rect fill="#73C6B6" height="121.4063" style="stroke:#181818;stroke-width:1.0;" width="10" x="1720.5" y="1457.5156"/><rect fill="#808B96" height="115.7578" style="stroke:#181818;stroke-width:1.0;" width="10" x="1852" y="304.2344"/><rect fill="#FAD7A0" height="30.3516" style="stroke:#181818;stroke-width:1.0;" width="10" x="3072.5" y="1518.2188"/><rect fill="#FAD7A0" height="30.3516" style="stroke:#181818;stroke-width:1.0;" width="10" x="3072.5" y="1682.8828"/><rect fill="#73C6B6" height="120.3125" style="stroke:#181818;stroke-width:1.0;" width="10" x="3212.5" y="1085.3906"/><rect fill="#73C6B6" height="346.7734" style="stroke:#181818;stroke-width:1.0;" width="10" x="3212.5" y="1396.8125"/><polygon fill="#181818" points="603.5,149.5703,613.5,153.5703,603.5,157.5703,607.5,153.5703" style="stroke:#181818;stroke-width:1.0;"/><line style="stroke:#181818;stroke-width:1.0;" x1="53.5" x2="609.5" y1="153.5703" y2="153.5703"/><text fill="#000000" font-family="sans-serif" font-size="13" lengthAdjust="spacing" textLength="117" x="60.5" y="148.7139">Proceed to payment</text><polygon fill="#181818" points="1241.5,179.9219,1251.5,183.9219,1241.5,187.9219,1245.5,183.9219" style="stroke:#181818;stroke-width:1.0;"/><line style="stroke:#181818;stroke-width:1.0;" x1="625.5" x2="1247.5" y1="183.9219" y2="183.9219"/><text fill="#000000" font-family="sans-serif" font-size="13" lengthAdjust="spacing" textLength="322" x="632.5" y="179.0654">POST /order/checkouts/{checkout_id}/process-payment</text><polygon fill="#181818" points="1501.5,210.2734,1511.5,214.2734,1501.5,218.2734,1505.5,214.2734" style="stroke:#181818;stroke-width:1.0;"/><line style="stroke:#181818;stroke-width:1.0;" x1="1263.5" x2="1507.5" y1="214.2734" y2="214.2734"/><text fill="#000000" font-family="sans-serif" font-size="13" lengthAdjust="spacing" textLength="120" x="1270.5" y="209.417">find by {checkout_id}</text><text fill="#000000" font-family="sans-serif" font-size="14" lengthAdjust="spacing" textLength="60" x="1513.5" y="238.4551">Checkout</text><ellipse cx="1546.5" cy="207.9219" fill="#3498DB" rx="12" ry="12" style="stroke:#181818;stroke-width:0.5;"/><line style="stroke:#181818;stroke-width:0.5;" x1="1534.5" x2="1558.5" y1="221.9219" y2="221.9219"/><polygon fill="#181818" points="1274.5,269.8828,1264.5,273.8828,1274.5,277.8828,1270.5,273.8828" style="stroke:#181818;stroke-width:1.0;"/><line style="stroke:#181818;stroke-width:1.0;stroke-dasharray:2.0,2.0;" x1="1268.5" x2="1545.5" y1="273.8828" y2="273.8828"/><text fill="#000000" font-family="sans-serif" font-size="13" lengthAdjust="spacing" textLength="53" x="1280.5" y="269.0264">checkout</text><polygon fill="#181818" points="1840,300.2344,1850,304.2344,1840,308.2344,1844,304.2344" style="stroke:#181818;stroke-width:1.0;"/><line style="stroke:#181818;stroke-width:1.0;" x1="1263.5" x2="1846" y1="304.2344" y2="304.2344"/><text fill="#000000" font-family="sans-serif" font-size="13" lengthAdjust="spacing" textLength="293" x="1270.5" y="299.3779">POST /inventory/products/stocks { product_items }</text><path d="M1268,317.2344 L1268,392.2344 L1460,392.2344 L1460,327.2344 L1450,317.2344 L1268,317.2344 " fill="#FEFFDD" style="stroke:#181818;stroke-width:0.5;"/><path d="M1450,317.2344 L1450,327.2344 L1460,327.2344 L1450,317.2344 " fill="#FEFFDD" style="stroke:#181818;stroke-width:0.5;"/><text fill="#000000" font-family="sans-serif" font-size="13" lengthAdjust="spacing" textLength="171" x="1274" y="335.7295">lock stocks for product_items</text><text fill="#000000" font-family="sans-serif" font-size="13" lengthAdjust="spacing" textLength="86" x="1274" y="352.0811">product_items:</text><text fill="#000000" font-family="sans-serif" font-size="13" lengthAdjust="spacing" textLength="68" x="1282" y="368.4326">- product_id</text><text fill="#000000" font-family="sans-serif" font-size="13" lengthAdjust="spacing" textLength="54" x="1282" y="384.7842">- quantity</text><polygon fill="#181818" points="1274.5,415.9922,1264.5,419.9922,1274.5,423.9922,1270.5,419.9922" style="stroke:#181818;stroke-width:1.0;"/><line style="stroke:#181818;stroke-width:1.0;stroke-dasharray:2.0,2.0;" x1="1268.5" x2="1856" y1="419.9922" y2="419.9922"/><text fill="#000000" font-family="sans-serif" font-size="13" lengthAdjust="spacing" textLength="172" x="1280.5" y="415.1357">confirmation { product_items }</text><path d="M1862,432.9922 L1862,540.9922 L2121,540.9922 L2121,442.9922 L2111,432.9922 L1862,432.9922 " fill="#FEFFDD" style="stroke:#181818;stroke-width:0.5;"/><path d="M2111,432.9922 L2111,442.9922 L2121,442.9922 L2111,432.9922 " fill="#FEFFDD" style="stroke:#181818;stroke-width:0.5;"/><text fill="#000000" font-family="sans-serif" font-size="13" lengthAdjust="spacing" textLength="238" x="1868" y="451.4873">Stock confirmation, list out state of stock</text><text fill="#000000" font-family="sans-serif" font-size="13" lengthAdjust="spacing" textLength="4" x="1868" y="467.8389">{</text><text fill="#000000" font-family="sans-serif" font-size="13" lengthAdjust="spacing" textLength="128" x="1876" y="484.1904">&lt;product_id_01&gt;: OK,</text><text fill="#000000" font-family="sans-serif" font-size="13" lengthAdjust="spacing" textLength="211" x="1876" y="500.542">&lt;product_id_02&gt;: OUT_OF_STOCK,</text><text fill="#000000" font-family="sans-serif" font-size="13" lengthAdjust="spacing" textLength="124" x="1876" y="516.8936">&lt;product_id_03&gt;: OK</text><text fill="#000000" font-family="sans-serif" font-size="13" lengthAdjust="spacing" textLength="4" x="1868" y="533.2451">}</text><path d="M10,553.1016 L71,553.1016 L71,561.4531 L61,571.4531 L10,571.4531 L10,553.1016 " fill="#EEEEEE" style="stroke:#000000;stroke-width:1.5;"/><rect fill="none" height="79.0547" style="stroke:#000000;stroke-width:1.5;" width="1309.5" x="10" y="553.1016"/><text fill="#000000" font-family="sans-serif" font-size="13" font-weight="bold" lengthAdjust="spacing" textLength="16" x="25" y="567.5967">alt</text><text fill="#000000" font-family="sans-serif" font-size="11" font-weight="bold" lengthAdjust="spacing" textLength="106" x="86" y="566.5205">["any out of stock"]</text><polygon fill="#181818" points="636.5,589.8047,626.5,593.8047,636.5,597.8047,632.5,593.8047" style="stroke:#181818;stroke-width:1.0;"/><line style="stroke:#181818;stroke-width:1.0;stroke-dasharray:2.0,2.0;" x1="630.5" x2="1252.5" y1="593.8047" y2="593.8047"/><text fill="#000000" font-family="sans-serif" font-size="13" lengthAdjust="spacing" textLength="604" x="642.5" y="588.9482">400 Bad Request { ERROR_CODE: OUT_OF_STOCK, payload: { &lt;product_id_02&gt;: OUT_OF_STOCK } }</text><polygon fill="#181818" points="64.5,620.1563,54.5,624.1563,64.5,628.1563,60.5,624.1563" style="stroke:#181818;stroke-width:1.0;"/><line style="stroke:#181818;stroke-width:1.0;stroke-dasharray:2.0,2.0;" x1="58.5" x2="614.5" y1="624.1563" y2="624.1563"/><text fill="#000000" font-family="sans-serif" font-size="13" lengthAdjust="spacing" textLength="98" x="70.5" y="619.2998">out of stock error</text><polygon fill="#181818" points="1534.5,657.5078,1544.5,661.5078,1534.5,665.5078,1538.5,661.5078" style="stroke:#181818;stroke-width:1.0;"/><line style="stroke:#181818;stroke-width:1.0;" x1="1263.5" x2="1540.5" y1="661.5078" y2="661.5078"/><text fill="#000000" font-family="sans-serif" font-size="13" lengthAdjust="spacing" textLength="259" x="1270.5" y="656.6514">update { status=PAYMENT_PROCESSING }</text><polygon fill="#181818" points="1708.5,687.8594,1718.5,691.8594,1708.5,695.8594,1712.5,691.8594" style="stroke:#181818;stroke-width:1.0;"/><line style="stroke:#181818;stroke-width:1.0;" x1="1263.5" x2="1714.5" y1="691.8594" y2="691.8594"/><text fill="#000000" font-family="sans-serif" font-size="13" lengthAdjust="spacing" textLength="227" x="1270.5" y="687.0029">POST /payment/payments { checkout }</text><path d="M1268,704.8594 L1268,795.8594 L1405,795.8594 L1405,714.8594 L1395,704.8594 L1268,704.8594 " fill="#FEFFDD" style="stroke:#181818;stroke-width:0.5;"/><path d="M1395,704.8594 L1395,714.8594 L1405,714.8594 L1395,704.8594 " fill="#FEFFDD" style="stroke:#181818;stroke-width:0.5;"/><text fill="#000000" font-family="sans-serif" font-size="13" lengthAdjust="spacing" textLength="109" x="1274" y="723.3545">checkout includes:</text><text fill="#000000" font-family="sans-serif" font-size="13" lengthAdjust="spacing" textLength="108" x="1282" y="739.7061">- payment_method</text><text fill="#000000" font-family="sans-serif" font-size="13" lengthAdjust="spacing" textLength="90" x="1282" y="756.0576">- product_items</text><text fill="#000000" font-family="sans-serif" font-size="13" lengthAdjust="spacing" textLength="92" x="1282" y="772.4092">- shipment_fees</text><text fill="#000000" font-family="sans-serif" font-size="13" lengthAdjust="spacing" textLength="40" x="1282" y="788.7607">- taxes</text><polygon fill="#181818" points="2863.5,819.9688,2873.5,823.9688,2863.5,827.9688,2867.5,823.9688" style="stroke:#181818;stroke-width:1.0;"/><line style="stroke:#181818;stroke-width:1.0;" x1="1730.5" x2="2869.5" y1="823.9688" y2="823.9688"/><text fill="#000000" font-family="sans-serif" font-size="13" lengthAdjust="spacing" textLength="1121" x="1737.5" y="819.1123">create { status=(payment_type is COD ? PROCESSING : NEW), payment_provider_checkout_id, checkout_id, product_items, shipment_fees, taxes, payment_type: checkout.payment_method }</text><text fill="#000000" font-family="sans-serif" font-size="14" lengthAdjust="spacing" textLength="119" x="2875.5" y="848.1504">Checkout Payment</text><ellipse cx="2938" cy="817.6172" fill="#73C6B6" rx="12" ry="12" style="stroke:#181818;stroke-width:0.5;"/><line style="stroke:#181818;stroke-width:0.5;" x1="2926" x2="2950" y1="831.6172" y2="831.6172"/><polygon fill="#181818" points="1274.5,879.5781,1264.5,883.5781,1274.5,887.5781,1270.5,883.5781" style="stroke:#181818;stroke-width:1.0;"/><line style="stroke:#181818;stroke-width:1.0;stroke-dasharray:2.0,2.0;" x1="1268.5" x2="1724.5" y1="883.5781" y2="883.5781"/><text fill="#000000" font-family="sans-serif" font-size="13" lengthAdjust="spacing" textLength="110" x="1280.5" y="878.7217">checkout_payment</text><path d="M1268,896.5781 L1268,971.5781 L1483,971.5781 L1483,906.5781 L1473,896.5781 L1268,896.5781 " fill="#FEFFDD" style="stroke:#181818;stroke-width:0.5;"/><path d="M1473,896.5781 L1473,906.5781 L1483,906.5781 L1473,896.5781 " fill="#FEFFDD" style="stroke:#181818;stroke-width:0.5;"/><text fill="#000000" font-family="sans-serif" font-size="13" lengthAdjust="spacing" textLength="114" x="1274" y="915.0732">checkout_payment:</text><text fill="#000000" font-family="sans-serif" font-size="13" lengthAdjust="spacing" textLength="186" x="1282" y="931.4248">- payment_provider_checkout_id</text><text fill="#000000" font-family="sans-serif" font-size="13" lengthAdjust="spacing" textLength="61" x="1282" y="947.7764">- checkout</text><text fill="#000000" font-family="sans-serif" font-size="13" lengthAdjust="spacing" textLength="90" x="1282" y="964.1279">- payment_type</text><polygon fill="#181818" points="636.5,995.3359,626.5,999.3359,636.5,1003.3359,632.5,999.3359" style="stroke:#181818;stroke-width:1.0;"/><line style="stroke:#181818;stroke-width:1.0;stroke-dasharray:2.0,2.0;" x1="630.5" x2="1252.5" y1="999.3359" y2="999.3359"/><text fill="#000000" font-family="sans-serif" font-size="13" lengthAdjust="spacing" textLength="110" x="642.5" y="994.4795">checkout_payment</text><polygon fill="#181818" points="1741.5,1025.6875,1731.5,1029.6875,1741.5,1033.6875,1737.5,1029.6875" style="stroke:#181818;stroke-width:1.0;"/><line style="stroke:#181818;stroke-width:1.0;stroke-dasharray:2.0,2.0;" x1="1735.5" x2="2937" y1="1029.6875" y2="1029.6875"/><text fill="#000000" font-family="sans-serif" font-size="13" lengthAdjust="spacing" textLength="113" x="1747.5" y="1024.8311">[CDC Create Event]</text><path d="M1655.5,1044.6875 L1716.5,1044.6875 L1716.5,1053.0391 L1706.5,1063.0391 L1655.5,1063.0391 L1655.5,1044.6875 " fill="#EEEEEE" style="stroke:#000000;stroke-width:1.5;"/><rect fill="none" height="199.3672" style="stroke:#000000;stroke-width:1.5;" width="2056" x="1655.5" y="1044.6875"/><text fill="#000000" font-family="sans-serif" font-size="13" font-weight="bold" lengthAdjust="spacing" textLength="16" x="1670.5" y="1059.1826">alt</text><text fill="#000000" font-family="sans-serif" font-size="11" font-weight="bold" lengthAdjust="spacing" textLength="153" x="1731.5" y="1058.1064">[payment_type is NOT COD:]</text><polygon fill="#181818" points="3200.5,1081.3906,3210.5,1085.3906,3200.5,1089.3906,3204.5,1085.3906" style="stroke:#181818;stroke-width:1.0;"/><line style="stroke:#181818;stroke-width:1.0;" x1="1730.5" x2="3206.5" y1="1085.3906" y2="1085.3906"/><text fill="#000000" font-family="sans-serif" font-size="13" lengthAdjust="spacing" textLength="448" x="1737.5" y="1080.5342">POST /checkout/orders { checkout_id, product_items, shipment_fees, taxes }</text><polygon fill="#181818" points="3503.5,1111.7422,3513.5,1115.7422,3503.5,1119.7422,3507.5,1115.7422" style="stroke:#181818;stroke-width:1.0;"/><line style="stroke:#181818;stroke-width:1.0;" x1="3222.5" x2="3509.5" y1="1115.7422" y2="1115.7422"/><text fill="#000000" font-family="sans-serif" font-size="13" lengthAdjust="spacing" textLength="93" x="3229.5" y="1110.8857">create checkout</text><text fill="#000000" font-family="sans-serif" font-size="14" lengthAdjust="spacing" textLength="180" x="3515.5" y="1139.9238">Payment Provider: Checkout</text><ellipse cx="3608.5" cy="1109.3906" fill="#73C6B6" rx="12" ry="12" style="stroke:#181818;stroke-width:0.5;"/><line style="stroke:#181818;stroke-width:0.5;" x1="3596.5" x2="3620.5" y1="1123.3906" y2="1123.3906"/><polygon fill="#181818" points="3233.5,1171.3516,3223.5,1175.3516,3233.5,1179.3516,3229.5,1175.3516" style="stroke:#181818;stroke-width:1.0;"/><line style="stroke:#181818;stroke-width:1.0;stroke-dasharray:2.0,2.0;" x1="3227.5" x2="3607.5" y1="1175.3516" y2="1175.3516"/><text fill="#000000" font-family="sans-serif" font-size="13" lengthAdjust="spacing" textLength="194" x="3239.5" y="1170.4951">{ payment_provider_checkout_id }</text><polygon fill="#181818" points="1741.5,1201.7031,1731.5,1205.7031,1741.5,1209.7031,1737.5,1205.7031" style="stroke:#181818;stroke-width:1.0;"/><line style="stroke:#181818;stroke-width:1.0;stroke-dasharray:2.0,2.0;" x1="1735.5" x2="3216.5" y1="1205.7031" y2="1205.7031"/><text fill="#000000" font-family="sans-serif" font-size="13" lengthAdjust="spacing" textLength="272" x="1747.5" y="1200.8467">{ checkout_id, payment_provider_checkout_id }</text><polygon fill="#181818" points="2926,1232.0547,2936,1236.0547,2926,1240.0547,2930,1236.0547" style="stroke:#181818;stroke-width:1.0;"/><line style="stroke:#181818;stroke-width:1.0;" x1="1730.5" x2="2932" y1="1236.0547" y2="1236.0547"/><text fill="#000000" font-family="sans-serif" font-size="13" lengthAdjust="spacing" textLength="375" x="1737.5" y="1231.1982">update { status=PROCESSING, payment_provider_checkout_id }</text><path d="M572,1258.0547 L645,1258.0547 L645,1266.4063 L635,1276.4063 L572,1276.4063 L572,1258.0547 " fill="#EEEEEE" style="stroke:#000000;stroke-width:1.5;"/><rect fill="none" height="79.0547" style="stroke:#000000;stroke-width:1.5;" width="1223.5" x="572" y="1258.0547"/><text fill="#000000" font-family="sans-serif" font-size="13" font-weight="bold" lengthAdjust="spacing" textLength="28" x="587" y="1272.5498">loop</text><text fill="#000000" font-family="sans-serif" font-size="11" font-weight="bold" lengthAdjust="spacing" textLength="701" x="660" y="1271.4736">[reload to get payment information util payment status is PROCESSING and payment_provider_checkout_id existing (if not COD)]</text><polygon fill="#181818" points="1708.5,1294.7578,1718.5,1298.7578,1708.5,1302.7578,1712.5,1298.7578" style="stroke:#181818;stroke-width:1.0;"/><line style="stroke:#181818;stroke-width:1.0;" x1="625.5" x2="1714.5" y1="1298.7578" y2="1298.7578"/><text fill="#000000" font-family="sans-serif" font-size="13" lengthAdjust="spacing" textLength="284" x="632.5" y="1293.9014">GET /payment/payments/checkout/{checkout_id}</text><polygon fill="#181818" points="636.5,1325.1094,626.5,1329.1094,636.5,1333.1094,632.5,1329.1094" style="stroke:#181818;stroke-width:1.0;"/><line style="stroke:#181818;stroke-width:1.0;stroke-dasharray:2.0,2.0;" x1="630.5" x2="1724.5" y1="1329.1094" y2="1329.1094"/><text fill="#000000" font-family="sans-serif" font-size="13" lengthAdjust="spacing" textLength="332" x="642.5" y="1324.2529">{ status=PROCESSING, payment_provider_checkout_id }</text><polygon fill="#181818" points="69.5,1362.4609,59.5,1366.4609,69.5,1370.4609,65.5,1366.4609" style="stroke:#181818;stroke-width:1.0;"/><line style="stroke:#181818;stroke-width:1.0;stroke-dasharray:2.0,2.0;" x1="63.5" x2="619.5" y1="1366.4609" y2="1366.4609"/><text fill="#000000" font-family="sans-serif" font-size="13" lengthAdjust="spacing" textLength="538" x="75.5" y="1361.6045">redirect to payment_provider : Payment Provider: Checkout { payment_provider_checkout_id }</text><polygon fill="#181818" points="3200.5,1392.8125,3210.5,1396.8125,3200.5,1400.8125,3204.5,1396.8125" style="stroke:#181818;stroke-width:1.0;"/><line style="stroke:#181818;stroke-width:1.0;" x1="53.5" x2="3206.5" y1="1396.8125" y2="1396.8125"/><text fill="#000000" font-family="sans-serif" font-size="13" lengthAdjust="spacing" textLength="298" x="60.5" y="1391.9561">execute payment { payment_provider_checkout_id }</text><polygon fill="#181818" points="3596.5,1423.1641,3606.5,1427.1641,3596.5,1431.1641,3600.5,1427.1641" style="stroke:#181818;stroke-width:1.0;"/><line style="stroke:#181818;stroke-width:1.0;" x1="3222.5" x2="3602.5" y1="1427.1641" y2="1427.1641"/><text fill="#000000" font-family="sans-serif" font-size="13" lengthAdjust="spacing" textLength="362" x="3229.5" y="1422.3076">update { status=COMPETED, payment_provider_checkout_id }</text><polygon fill="#181818" points="1741.5,1453.5156,1731.5,1457.5156,1741.5,1461.5156,1737.5,1457.5156" style="stroke:#181818;stroke-width:1.0;"/><line style="stroke:#181818;stroke-width:1.0;stroke-dasharray:2.0,2.0;" x1="1735.5" x2="3211.5" y1="1457.5156" y2="1457.5156"/><text fill="#000000" font-family="sans-serif" font-size="13" lengthAdjust="spacing" textLength="455" x="1747.5" y="1452.6592">{ checkout_id, payment_provider_checkout_id, status=COMPETED/FAILURE }</text><polygon fill="#181818" points="2926,1483.8672,2936,1487.8672,2926,1491.8672,2930,1487.8672" style="stroke:#181818;stroke-width:1.0;"/><line style="stroke:#181818;stroke-width:1.0;" x1="1730.5" x2="2932" y1="1487.8672" y2="1487.8672"/><text fill="#000000" font-family="sans-serif" font-size="13" lengthAdjust="spacing" textLength="183" x="1737.5" y="1483.0107">update { status=COMPLETED }</text><polygon fill="#181818" points="3060.5,1514.2188,3070.5,1518.2188,3060.5,1522.2188,3064.5,1518.2188" style="stroke:#181818;stroke-width:1.0;"/><line style="stroke:#181818;stroke-width:1.0;stroke-dasharray:2.0,2.0;" x1="1730.5" x2="3066.5" y1="1518.2188" y2="1518.2188"/><text fill="#000000" font-family="sans-serif" font-size="13" lengthAdjust="spacing" textLength="284" x="1737.5" y="1513.3623">Event: PaymentCompleted { checkout_payment }</text><polygon fill="#181818" points="64.5,1544.5703,54.5,1548.5703,64.5,1552.5703,60.5,1548.5703" style="stroke:#181818;stroke-width:1.0;"/><line style="stroke:#181818;stroke-width:1.0;stroke-dasharray:2.0,2.0;" x1="58.5" x2="3076.5" y1="1548.5703" y2="1548.5703"/><text fill="#000000" font-family="sans-serif" font-size="13" lengthAdjust="spacing" textLength="201" x="70.5" y="1543.7139">notification for payment completion</text><polygon fill="#181818" points="1274.5,1574.9219,1264.5,1578.9219,1274.5,1582.9219,1270.5,1578.9219" style="stroke:#181818;stroke-width:1.0;"/><line style="stroke:#181818;stroke-width:1.0;stroke-dasharray:2.0,2.0;" x1="1268.5" x2="1724.5" y1="1578.9219" y2="1578.9219"/><text fill="#000000" font-family="sans-serif" font-size="13" lengthAdjust="spacing" textLength="244" x="1280.5" y="1574.0654">Event: PaymentCompleted { checkout_id }</text><polygon fill="#181818" points="1534.5,1605.2734,1544.5,1609.2734,1534.5,1613.2734,1538.5,1609.2734" style="stroke:#181818;stroke-width:1.0;"/><line style="stroke:#181818;stroke-width:1.0;" x1="1263.5" x2="1540.5" y1="1609.2734" y2="1609.2734"/><text fill="#000000" font-family="sans-serif" font-size="13" lengthAdjust="spacing" textLength="250" x="1270.5" y="1604.417">update { status=PAYMENT_CONFIRMED }</text><polygon fill="#181818" points="1600.5,1635.625,1610.5,1639.625,1600.5,1643.625,1604.5,1639.625" style="stroke:#181818;stroke-width:1.0;"/><line style="stroke:#181818;stroke-width:1.0;" x1="1263.5" x2="1606.5" y1="1639.625" y2="1639.625"/><text fill="#000000" font-family="sans-serif" font-size="13" lengthAdjust="spacing" textLength="325" x="1270.5" y="1634.7686">create { checkout_id, status=PAYMENT_CONFIRMED }</text><text fill="#000000" font-family="sans-serif" font-size="14" lengthAdjust="spacing" textLength="37" x="1612.5" y="1663.8066">Order</text><ellipse cx="1634" cy="1633.2734" fill="#3498DB" rx="12" ry="12" style="stroke:#181818;stroke-width:0.5;"/><line style="stroke:#181818;stroke-width:0.5;" x1="1622" x2="1646" y1="1647.2734" y2="1647.2734"/><polygon fill="#181818" points="3060.5,1678.8828,3070.5,1682.8828,3060.5,1686.8828,3064.5,1682.8828" style="stroke:#181818;stroke-width:1.0;"/><line style="stroke:#181818;stroke-width:1.0;stroke-dasharray:2.0,2.0;" x1="1263.5" x2="3066.5" y1="1682.8828" y2="1682.8828"/><polygon fill="#181818" points="64.5,1709.2344,54.5,1713.2344,64.5,1717.2344,60.5,1713.2344" style="stroke:#181818;stroke-width:1.0;"/><line style="stroke:#181818;stroke-width:1.0;stroke-dasharray:2.0,2.0;" x1="58.5" x2="3076.5" y1="1713.2344" y2="1713.2344"/><text fill="#000000" font-family="sans-serif" font-size="13" lengthAdjust="spacing" textLength="163" x="70.5" y="1708.3779">notification for order creation</text><polygon fill="#181818" points="69.5,1739.5859,59.5,1743.5859,69.5,1747.5859,65.5,1743.5859" style="stroke:#181818;stroke-width:1.0;"/><line style="stroke:#181818;stroke-width:1.0;stroke-dasharray:2.0,2.0;" x1="63.5" x2="3216.5" y1="1743.5859" y2="1743.5859"/><text fill="#000000" font-family="sans-serif" font-size="13" lengthAdjust="spacing" textLength="217" x="75.5" y="1738.7295">redirect to storefront with confirmation</text><polygon fill="#181818" points="603.5,1769.9375,613.5,1773.9375,603.5,1777.9375,607.5,1773.9375" style="stroke:#181818;stroke-width:1.0;"/><line style="stroke:#181818;stroke-width:1.0;" x1="53.5" x2="609.5" y1="1773.9375" y2="1773.9375"/><text fill="#000000" font-family="sans-serif" font-size="13" lengthAdjust="spacing" textLength="102" x="60.5" y="1769.0811">confirmation page</text><polygon fill="#181818" points="64.5,1800.2891,54.5,1804.2891,64.5,1808.2891,60.5,1804.2891" style="stroke:#181818;stroke-width:1.0;"/><line style="stroke:#181818;stroke-width:1.0;stroke-dasharray:2.0,2.0;" x1="58.5" x2="614.5" y1="1804.2891" y2="1804.2891"/><text fill="#000000" font-family="sans-serif" font-size="13" lengthAdjust="spacing" textLength="158" x="70.5" y="1799.4326">show payment confirmation</text><path d="M10,1819.2891 L83,1819.2891 L83,1827.6406 L73,1837.6406 L10,1837.6406 L10,1819.2891 " fill="#EEEEEE" style="stroke:#000000;stroke-width:1.5;"/><rect fill="none" height="170.1094" style="stroke:#000000;stroke-width:1.5;" width="1655.5" x="10" y="1819.2891"/><text fill="#000000" font-family="sans-serif" font-size="13" font-weight="bold" lengthAdjust="spacing" textLength="28" x="25" y="1833.7842">loop</text><text fill="#000000" font-family="sans-serif" font-size="11" font-weight="bold" lengthAdjust="spacing" textLength="122" x="98" y="1832.708">["reload to get order"]</text><polygon fill="#181818" points="1241.5,1855.9922,1251.5,1859.9922,1241.5,1863.9922,1245.5,1859.9922" style="stroke:#181818;stroke-width:1.0;"/><line style="stroke:#181818;stroke-width:1.0;" x1="625.5" x2="1247.5" y1="1859.9922" y2="1859.9922"/><text fill="#000000" font-family="sans-serif" font-size="13" lengthAdjust="spacing" textLength="242" x="632.5" y="1855.1357">GET /order/orders/checkout/{checkout_id}</text><polygon fill="#181818" points="1617,1886.3438,1627,1890.3438,1617,1894.3438,1621,1890.3438" style="stroke:#181818;stroke-width:1.0;"/><line style="stroke:#181818;stroke-width:1.0;" x1="1263.5" x2="1623" y1="1890.3438" y2="1890.3438"/><text fill="#000000" font-family="sans-serif" font-size="13" lengthAdjust="spacing" textLength="153" x="1270.5" y="1885.4873">find order by {checkout_id}</text><polygon fill="#181818" points="1274.5,1916.6953,1264.5,1920.6953,1274.5,1924.6953,1270.5,1920.6953" style="stroke:#181818;stroke-width:1.0;"/><line style="stroke:#181818;stroke-width:1.0;stroke-dasharray:2.0,2.0;" x1="1268.5" x2="1633" y1="1920.6953" y2="1920.6953"/><text fill="#000000" font-family="sans-serif" font-size="13" lengthAdjust="spacing" textLength="29" x="1280.5" y="1915.8389">order</text><polygon fill="#181818" points="636.5,1947.0469,626.5,1951.0469,636.5,1955.0469,632.5,1951.0469" style="stroke:#181818;stroke-width:1.0;"/><line style="stroke:#181818;stroke-width:1.0;stroke-dasharray:2.0,2.0;" x1="630.5" x2="1257.5" y1="1951.0469" y2="1951.0469"/><text fill="#000000" font-family="sans-serif" font-size="13" lengthAdjust="spacing" textLength="29" x="642.5" y="1946.1904">order</text><polygon fill="#181818" points="64.5,1977.3984,54.5,1981.3984,64.5,1985.3984,60.5,1981.3984" style="stroke:#181818;stroke-width:1.0;"/><line style="stroke:#181818;stroke-width:1.0;stroke-dasharray:2.0,2.0;" x1="58.5" x2="614.5" y1="1981.3984" y2="1981.3984"/><text fill="#000000" font-family="sans-serif" font-size="13" lengthAdjust="spacing" textLength="133" x="70.5" y="1976.542">redirect to order details</text><!--SRC=[lLXRJzj857xthpWABssLB50G1QlR5Hj2XLfYbAHQLQjLPEmn6JM9NNi2H17_VMVicV7Sx9YkjBoGpELSl- -SCo6OB17SXTiLMXEuNgPFdXT69CrXk2b8ka8vX0L4ulD14iOVmYFFkq-VuVlbr0FwbuKvmH7EGYgXDwLtKPAdQz9ZDmlvbTwDa_Ve0lYVVJN8OwfYYl977A7oTifMvaMr0WSdfnVdyRsyJ2t6P0kzuG95Fz9DfJ3YNyHfxMIfePQidT5C4G5HZScgjTgS3oVHsVsPVVbc_KZFfVbMkux5QYtW_EZy_kBCwOj8YURJd9lGh7gS4fpWA2GuNMlQryf6RG3F9bh7m19QfLKwVvUdZxWCs04Aap0vRevJVLG9LCONDNE5e-PD7xGqcZBcTLwvC6wqvqbm3ZufSFEPv0YX64Wgf35auyUG83SigNtAEfMcmOyA3AOpE2mN3uKvnU5EPWV7BuSPKreK0w4HGEfqWhcCYRv35Kjdtxtp8S7CqoreYXptFWu6yg8lFxaLM60KtiaDvacyYQY3D2RHZm9sm5VccA1L0PK955S8Slom890ckXwlulcItWOk8w5rHPF2psXhlYTAnA3UY9N5dvkm1177KrmQKNwHiMud6pZs1tQ-etITu7nLaSdjlXa0IwuqUyeYe8dimn8Nz1PDSq5AW2HLdEITdVm4yB4EnVpe-9CFmPT-q_PxjlrjDW-kvzDPC6m-U5BAaRl29oscCMgEQXNq9IFHySNfUGYzSBqjFHA-zBX80u46LK-FZk3FC8O9-hb1D2Ox64qcmMG-3Av6XYkCoyiqZ7rwgDLfU97-gAncxE85mzSi1PJdQIumrSvB7pPPp2AoArEtANw_k_n-EnhFvdUJO3YQJc_6d-75BSDe8u9uV5dyPtoJLQ0hrUG5l8wMcnZfLE9wLuWiqjZ5COMGRBrOuAoyaI2ahfFmcNyNE06TV0sD4WJPZMqbhhB1iReNvKWByHjnaMmpYiK2A3hW3r0YxiDuzDVRVdFpe43fW_P5Sxwl-zolNAtbCSLrPVrDZwX4crsLhPIR_ZfhYIl3O5tr5MuFMZtN3chjmRpD_DnJ2WoNF8Dcp6kpcfev5cESjJ5miUJluTKGXXKaHgmC_UDf1fdHweP6LhjCM8s36OEMtm1NbSEP75ug4WjNgY51vN1Ni4aKMVQRqrITE9b3wwZ3rBasMt2EMMYm9AamjaInMjo6FEcK7KsNND-AMnVP3d2AyzqBZwEmo_BIoGx65syFKvPfca6EM1TZm-a3aXYaXPkEI7pYs12yb1kLDGoUIhqBgR9Mcz0pdJ3m-W7Uu8JHcE7whSbL5zi-ZnmjgOQtDefsg_vsAtPMnb-DUsl0UL8Qnu0SnJX74L6U2ZNoVMX-gkp7lM9NhRv-XmWRg7NgCyPc17f6qQPsxbMAfPAzDSLxPGsnwJ8CRkz6iz7LlgILLSlMvSBYAuf1tpJZyFhovkktoQX4IIU8_bAHOEg-CdqSZPOGAiNr0lUhLYOXDanNsH8H-cZTsMtnHUTPwujUpXFs4Htwwf7gUSQrHPKfTDdabqjgezV64D31NKxfLaB_bpTry-m-3CRNDvDRcKLBHBd0scOzcxh0rr5U0oR-bonNFt-LNdJFSCkqvMIoky0gLVW9auNs9FRQclY-ega-ABMdUnO-eFPwQFySrDOkYaNwfF14CP_tzfxUtCjWzHnjro17sNIhdvUg-R6XuUe8QQP04uBvJqeL1fm_B9dY3R6kDmwNNFwp9p9rkVsPK9ziWfiSUJlryyh-694GBmin2xYxyhy0]--></g></svg>