<?xml version="1.0" encoding="us-ascii" standalone="no"?><svg xmlns="http://www.w3.org/2000/svg" xmlns:xlink="http://www.w3.org/1999/xlink" contentStyleType="text/css" height="2457px" preserveAspectRatio="none" style="width:4133px;height:2457px;background:#FFFFFF;" version="1.1" viewBox="0 0 4133 2457" width="4133px" zoomAndPan="magnify"><defs/><g><text fill="#000000" font-family="sans-serif" font-size="14" font-weight="bold" lengthAdjust="spacing" textLength="96" x="2020.25" y="29.5332">Payment Flow</text><rect fill="#DDDDDD" height="2407.1016" style="stroke:#181818;stroke-width:0.5;" width="2986.5" x="578" y="44.6094"/><text fill="#000000" font-family="sans-serif" font-size="13" font-weight="bold" lengthAdjust="spacing" textLength="26" x="2058.25" y="58.1045">YAS</text><rect fill="#EAFAF1" height="2407.1016" style="stroke:#181818;stroke-width:0.5;" width="555" x="3566.5" y="44.6094"/><text fill="#000000" font-family="sans-serif" font-size="13" font-weight="bold" lengthAdjust="spacing" textLength="114" x="3787" y="58.1045">Payment Provider</text><rect fill="#FFFFFF" height="30.3516" style="stroke:#181818;stroke-width:1.0;" width="10" x="48.5" y="1627.1094"/><rect fill="#FFFFFF" height="30.3516" style="stroke:#181818;stroke-width:1.0;" width="10" x="48.5" y="2108.2891"/><rect fill="#FDF2E9" height="1473.5391" style="stroke:#181818;stroke-width:1.0;" width="10" x="615.5" y="153.5703"/><rect fill="#FDF2E9" height="222.4609" style="stroke:#181818;stroke-width:1.0;" width="10" x="615.5" y="2138.6406"/><rect fill="#3498DB" height="1106.4141" style="stroke:#181818;stroke-width:1.0;" width="10" x="1253.5" y="183.9219"/><rect fill="#3498DB" height="238.3672" style="stroke:#181818;stroke-width:1.0;" width="10" x="1253.5" y="1839.5703"/><rect fill="#3498DB" height="91.0547" style="stroke:#181818;stroke-width:1.0;" width="10" x="1253.5" y="2224.6953"/><rect fill="#3498DB" height="123.3125" style="stroke:#181818;stroke-width:1.0;" width="10" x="1629" y="1910.2734"/><rect fill="#3498DB" height="30.3516" style="stroke:#181818;stroke-width:1.0;" width="10" x="1629" y="2255.0469"/><rect fill="#A9CCE3" height="36.3516" style="stroke:#181818;stroke-width:1.0;" width="10" x="1807" y="1959.8828"/><rect fill="#8AF1F0" height="207.9453" style="stroke:#181818;stroke-width:1.0;" width="10" x="2002" y="304.2344"/><rect fill="#73C6B6" height="191.7188" style="stroke:#181818;stroke-width:1.0;" width="10" x="2136.5" y="952.5078"/><rect fill="#73C6B6" height="221.3672" style="stroke:#181818;stroke-width:1.0;" width="10" x="2136.5" y="1290.3359"/><rect fill="#73C6B6" height="30.3516" style="stroke:#181818;stroke-width:1.0;" width="10" x="2136.5" y="1559.4063"/><rect fill="#73C6B6" height="121.4063" style="stroke:#181818;stroke-width:1.0;" width="10" x="2136.5" y="1718.1641"/><rect fill="#808B96" height="115.7578" style="stroke:#181818;stroke-width:1.0;" width="10" x="2268" y="534.5313"/><rect fill="#FAD7A0" height="30.3516" style="stroke:#181818;stroke-width:1.0;" width="10" x="3488.5" y="1778.8672"/><rect fill="#FAD7A0" height="30.3516" style="stroke:#181818;stroke-width:1.0;" width="10" x="3488.5" y="2047.5859"/><rect fill="#73C6B6" height="120.3125" style="stroke:#181818;stroke-width:1.0;" width="10" x="3628.5" y="1346.0391"/><rect fill="#73C6B6" height="450.8281" style="stroke:#181818;stroke-width:1.0;" width="10" x="3628.5" y="1657.4609"/><rect fill="#F1948A" height="185.9453" style="stroke:#000000;stroke-width:1.5;" width="2071.5" x="10" y="319.2344"/><rect fill="#BAF18A" height="46.1875" style="stroke:none;stroke-width:1.0;" width="2071.5" x="10" y="458.9922"/><rect fill="#F1948A" height="109.4063" style="stroke:#000000;stroke-width:1.5;" width="2071.5" x="10" y="783.3984"/><rect fill="none" height="199.3672" style="stroke:#000000;stroke-width:1.5;" width="2056" x="2071.5" y="1305.3359"/><rect fill="none" height="79.0547" style="stroke:#000000;stroke-width:1.5;" width="1639.5" x="572" y="1518.7031"/><rect fill="none" height="170.1094" style="stroke:#000000;stroke-width:1.5;" width="1655.5" x="10" y="2183.9922"/><line style="stroke:#181818;stroke-width:0.5;stroke-dasharray:5.0,5.0;" x1="53" x2="53" y1="121.2188" y2="2371.1016"/><line style="stroke:#181818;stroke-width:0.5;stroke-dasharray:5.0,5.0;" x1="620" x2="620" y1="121.2188" y2="2371.1016"/><line style="stroke:#181818;stroke-width:0.5;stroke-dasharray:5.0,5.0;" x1="1258.5" x2="1258.5" y1="121.2188" y2="2371.1016"/><line style="stroke:#181818;stroke-width:0.5;stroke-dasharray:5.0,5.0;" x1="1546.5" x2="1546.5" y1="231.7266" y2="2371.1016"/><line style="stroke:#181818;stroke-width:0.5;stroke-dasharray:5.0,5.0;" x1="1633.5" x2="1633.5" y1="1917.7266" y2="2371.1016"/><line style="stroke:#181818;stroke-width:0.5;stroke-dasharray:5.0,5.0;" x1="1811.5" x2="1811.5" y1="121.2188" y2="2371.1016"/><line style="stroke:#181818;stroke-width:0.5;stroke-dasharray:5.0,5.0;" x1="2006.5" x2="2006.5" y1="121.2188" y2="2371.1016"/><line style="stroke:#181818;stroke-width:0.5;stroke-dasharray:5.0,5.0;" x1="2141.5" x2="2141.5" y1="121.2188" y2="2371.1016"/><line style="stroke:#181818;stroke-width:0.5;stroke-dasharray:5.0,5.0;" x1="2272.5" x2="2272.5" y1="121.2188" y2="2371.1016"/><line style="stroke:#181818;stroke-width:0.5;stroke-dasharray:5.0,5.0;" x1="3353.5" x2="3353.5" y1="1102.0703" y2="2371.1016"/><line style="stroke:#181818;stroke-width:0.5;stroke-dasharray:5.0,5.0;" x1="3493.5" x2="3493.5" y1="121.2188" y2="2371.1016"/><line style="stroke:#181818;stroke-width:0.5;stroke-dasharray:5.0,5.0;" x1="3633.5" x2="3633.5" y1="121.2188" y2="2371.1016"/><line style="stroke:#181818;stroke-width:0.5;stroke-dasharray:5.0,5.0;" x1="4024.5" x2="4024.5" y1="1393.8438" y2="2371.1016"/><text fill="#000000" font-family="sans-serif" font-size="14" lengthAdjust="spacing" textLength="61" x="20" y="118.1426">Customer</text><ellipse cx="53.5" cy="52.1094" fill="#FAD7A0" rx="8" ry="8" style="stroke:#181818;stroke-width:0.5;"/><path d="M53.5,60.1094 L53.5,87.1094 M40.5,68.1094 L66.5,68.1094 M53.5,87.1094 L40.5,102.1094 M53.5,87.1094 L66.5,102.1094 " fill="none" style="stroke:#181818;stroke-width:0.5;"/><text fill="#000000" font-family="sans-serif" font-size="14" lengthAdjust="spacing" textLength="61" x="20" y="2384.6348">Customer</text><ellipse cx="53.5" cy="2396.2109" fill="#FAD7A0" rx="8" ry="8" style="stroke:#181818;stroke-width:0.5;"/><path d="M53.5,2404.2109 L53.5,2431.2109 M40.5,2412.2109 L66.5,2412.2109 M53.5,2431.2109 L40.5,2446.2109 M53.5,2431.2109 L66.5,2446.2109 " fill="none" style="stroke:#181818;stroke-width:0.5;"/><rect fill="#FDF2E9" height="31.6094" rx="2.5" ry="2.5" style="stroke:#181818;stroke-width:0.5;" width="77" x="582" y="88.6094"/><text fill="#000000" font-family="sans-serif" font-size="14" lengthAdjust="spacing" textLength="63" x="589" y="110.1426">Storefront</text><rect fill="#FDF2E9" height="31.6094" rx="2.5" ry="2.5" style="stroke:#181818;stroke-width:0.5;" width="77" x="582" y="2370.1016"/><text fill="#000000" font-family="sans-serif" font-size="14" lengthAdjust="spacing" textLength="63" x="589" y="2391.6348">Storefront</text><rect fill="#3498DB" height="31.6094" rx="2.5" ry="2.5" style="stroke:#181818;stroke-width:0.5;" width="102" x="1207.5" y="88.6094"/><text fill="#000000" font-family="sans-serif" font-size="14" lengthAdjust="spacing" textLength="88" x="1214.5" y="110.1426">Order Service</text><rect fill="#3498DB" height="31.6094" rx="2.5" ry="2.5" style="stroke:#181818;stroke-width:0.5;" width="102" x="1207.5" y="2370.1016"/><text fill="#000000" font-family="sans-serif" font-size="14" lengthAdjust="spacing" textLength="88" x="1214.5" y="2391.6348">Order Service</text><text fill="#000000" font-family="sans-serif" font-size="14" lengthAdjust="spacing" textLength="60" x="1513.5" y="2384.6348">Checkout</text><ellipse cx="1546.5" cy="2403.7109" fill="#3498DB" rx="12" ry="12" style="stroke:#181818;stroke-width:0.5;"/><line style="stroke:#181818;stroke-width:0.5;" x1="1534.5" x2="1558.5" y1="2417.7109" y2="2417.7109"/><text fill="#000000" font-family="sans-serif" font-size="14" lengthAdjust="spacing" textLength="37" x="1612.5" y="2384.6348">Order</text><ellipse cx="1634" cy="2403.7109" fill="#3498DB" rx="12" ry="12" style="stroke:#181818;stroke-width:0.5;"/><line style="stroke:#181818;stroke-width:0.5;" x1="1622" x2="1646" y1="2417.7109" y2="2417.7109"/><rect fill="#A9CCE3" height="31.6094" rx="2.5" ry="2.5" style="stroke:#181818;stroke-width:0.5;" width="105" x="1759.5" y="88.6094"/><text fill="#000000" font-family="sans-serif" font-size="14" lengthAdjust="spacing" textLength="91" x="1766.5" y="110.1426">Shopping Cart</text><rect fill="#A9CCE3" height="31.6094" rx="2.5" ry="2.5" style="stroke:#181818;stroke-width:0.5;" width="105" x="1759.5" y="2370.1016"/><text fill="#000000" font-family="sans-serif" font-size="14" lengthAdjust="spacing" textLength="91" x="1766.5" y="2391.6348">Shopping Cart</text><rect fill="#8AF1F0" height="31.6094" rx="2.5" ry="2.5" style="stroke:#181818;stroke-width:0.5;" width="129" x="1942.5" y="88.6094"/><text fill="#000000" font-family="sans-serif" font-size="14" lengthAdjust="spacing" textLength="115" x="1949.5" y="110.1426">Promotion Service</text><rect fill="#8AF1F0" height="31.6094" rx="2.5" ry="2.5" style="stroke:#181818;stroke-width:0.5;" width="129" x="1942.5" y="2370.1016"/><text fill="#000000" font-family="sans-serif" font-size="14" lengthAdjust="spacing" textLength="115" x="1949.5" y="2391.6348">Promotion Service</text><rect fill="#73C6B6" height="31.6094" rx="2.5" ry="2.5" style="stroke:#181818;stroke-width:0.5;" width="120" x="2081.5" y="88.6094"/><text fill="#000000" font-family="sans-serif" font-size="14" lengthAdjust="spacing" textLength="106" x="2088.5" y="110.1426">Payment Service</text><rect fill="#73C6B6" height="31.6094" rx="2.5" ry="2.5" style="stroke:#181818;stroke-width:0.5;" width="120" x="2081.5" y="2370.1016"/><text fill="#000000" font-family="sans-serif" font-size="14" lengthAdjust="spacing" textLength="106" x="2088.5" y="2391.6348">Payment Service</text><rect fill="#808B96" height="31.6094" rx="2.5" ry="2.5" style="stroke:#181818;stroke-width:0.5;" width="123" x="2211.5" y="88.6094"/><text fill="#000000" font-family="sans-serif" font-size="14" lengthAdjust="spacing" textLength="109" x="2218.5" y="110.1426">Inventory Service</text><rect fill="#808B96" height="31.6094" rx="2.5" ry="2.5" style="stroke:#181818;stroke-width:0.5;" width="123" x="2211.5" y="2370.1016"/><text fill="#000000" font-family="sans-serif" font-size="14" lengthAdjust="spacing" textLength="109" x="2218.5" y="2391.6348">Inventory Service</text><text fill="#000000" font-family="sans-serif" font-size="14" lengthAdjust="spacing" textLength="119" x="3291.5" y="2384.6348">Checkout Payment</text><ellipse cx="3354" cy="2403.7109" fill="#73C6B6" rx="12" ry="12" style="stroke:#181818;stroke-width:0.5;"/><line style="stroke:#181818;stroke-width:0.5;" x1="3342" x2="3366" y1="2417.7109" y2="2417.7109"/><rect fill="#FAD7A0" height="31.6094" rx="2.5" ry="2.5" style="stroke:#181818;stroke-width:0.5;" width="134" x="3426.5" y="88.6094"/><text fill="#000000" font-family="sans-serif" font-size="14" lengthAdjust="spacing" textLength="120" x="3433.5" y="110.1426">Notification Service</text><rect fill="#FAD7A0" height="31.6094" rx="2.5" ry="2.5" style="stroke:#181818;stroke-width:0.5;" width="134" x="3426.5" y="2370.1016"/><text fill="#000000" font-family="sans-serif" font-size="14" lengthAdjust="spacing" textLength="120" x="3433.5" y="2391.6348">Notification Service</text><rect fill="#73C6B6" height="31.6094" rx="2.5" ry="2.5" style="stroke:#181818;stroke-width:0.5;" width="126" x="3570.5" y="88.6094"/><text fill="#000000" font-family="sans-serif" font-size="14" lengthAdjust="spacing" textLength="112" x="3577.5" y="110.1426">Payment Provider</text><rect fill="#73C6B6" height="31.6094" rx="2.5" ry="2.5" style="stroke:#181818;stroke-width:0.5;" width="126" x="3570.5" y="2370.1016"/><text fill="#000000" font-family="sans-serif" font-size="14" lengthAdjust="spacing" textLength="112" x="3577.5" y="2391.6348">Payment Provider</text><text fill="#000000" font-family="sans-serif" font-size="14" lengthAdjust="spacing" textLength="180" x="3931.5" y="2384.6348">Payment Provider: Checkout</text><ellipse cx="4024.5" cy="2403.7109" fill="#73C6B6" rx="12" ry="12" style="stroke:#181818;stroke-width:0.5;"/><line style="stroke:#181818;stroke-width:0.5;" x1="4012.5" x2="4036.5" y1="2417.7109" y2="2417.7109"/><rect fill="#FFFFFF" height="30.3516" style="stroke:#181818;stroke-width:1.0;" width="10" x="48.5" y="1627.1094"/><rect fill="#FFFFFF" height="30.3516" style="stroke:#181818;stroke-width:1.0;" width="10" x="48.5" y="2108.2891"/><rect fill="#FDF2E9" height="1473.5391" style="stroke:#181818;stroke-width:1.0;" width="10" x="615.5" y="153.5703"/><rect fill="#FDF2E9" height="222.4609" style="stroke:#181818;stroke-width:1.0;" width="10" x="615.5" y="2138.6406"/><rect fill="#3498DB" height="1106.4141" style="stroke:#181818;stroke-width:1.0;" width="10" x="1253.5" y="183.9219"/><rect fill="#3498DB" height="238.3672" style="stroke:#181818;stroke-width:1.0;" width="10" x="1253.5" y="1839.5703"/><rect fill="#3498DB" height="91.0547" style="stroke:#181818;stroke-width:1.0;" width="10" x="1253.5" y="2224.6953"/><rect fill="#3498DB" height="123.3125" style="stroke:#181818;stroke-width:1.0;" width="10" x="1629" y="1910.2734"/><rect fill="#3498DB" height="30.3516" style="stroke:#181818;stroke-width:1.0;" width="10" x="1629" y="2255.0469"/><rect fill="#A9CCE3" height="36.3516" style="stroke:#181818;stroke-width:1.0;" width="10" x="1807" y="1959.8828"/><rect fill="#8AF1F0" height="207.9453" style="stroke:#181818;stroke-width:1.0;" width="10" x="2002" y="304.2344"/><rect fill="#73C6B6" height="191.7188" style="stroke:#181818;stroke-width:1.0;" width="10" x="2136.5" y="952.5078"/><rect fill="#73C6B6" height="221.3672" style="stroke:#181818;stroke-width:1.0;" width="10" x="2136.5" y="1290.3359"/><rect fill="#73C6B6" height="30.3516" style="stroke:#181818;stroke-width:1.0;" width="10" x="2136.5" y="1559.4063"/><rect fill="#73C6B6" height="121.4063" style="stroke:#181818;stroke-width:1.0;" width="10" x="2136.5" y="1718.1641"/><rect fill="#808B96" height="115.7578" style="stroke:#181818;stroke-width:1.0;" width="10" x="2268" y="534.5313"/><rect fill="#FAD7A0" height="30.3516" style="stroke:#181818;stroke-width:1.0;" width="10" x="3488.5" y="1778.8672"/><rect fill="#FAD7A0" height="30.3516" style="stroke:#181818;stroke-width:1.0;" width="10" x="3488.5" y="2047.5859"/><rect fill="#73C6B6" height="120.3125" style="stroke:#181818;stroke-width:1.0;" width="10" x="3628.5" y="1346.0391"/><rect fill="#73C6B6" height="450.8281" style="stroke:#181818;stroke-width:1.0;" width="10" x="3628.5" y="1657.4609"/><polygon fill="#181818" points="603.5,149.5703,613.5,153.5703,603.5,157.5703,607.5,153.5703" style="stroke:#181818;stroke-width:1.0;"/><line style="stroke:#181818;stroke-width:1.0;" x1="53.5" x2="609.5" y1="153.5703" y2="153.5703"/><text fill="#000000" font-family="sans-serif" font-size="13" lengthAdjust="spacing" textLength="117" x="60.5" y="148.7139">Proceed to payment</text><polygon fill="#181818" points="1241.5,179.9219,1251.5,183.9219,1241.5,187.9219,1245.5,183.9219" style="stroke:#181818;stroke-width:1.0;"/><line style="stroke:#181818;stroke-width:1.0;" x1="625.5" x2="1247.5" y1="183.9219" y2="183.9219"/><text fill="#000000" font-family="sans-serif" font-size="13" lengthAdjust="spacing" textLength="322" x="632.5" y="179.0654">POST /order/checkouts/{checkout_id}/process-payment</text><polygon fill="#181818" points="1501.5,210.2734,1511.5,214.2734,1501.5,218.2734,1505.5,214.2734" style="stroke:#181818;stroke-width:1.0;"/><line style="stroke:#181818;stroke-width:1.0;" x1="1263.5" x2="1507.5" y1="214.2734" y2="214.2734"/><text fill="#000000" font-family="sans-serif" font-size="13" lengthAdjust="spacing" textLength="120" x="1270.5" y="209.417">find by {checkout_id}</text><text fill="#000000" font-family="sans-serif" font-size="14" lengthAdjust="spacing" textLength="60" x="1513.5" y="238.4551">Checkout</text><ellipse cx="1546.5" cy="207.9219" fill="#3498DB" rx="12" ry="12" style="stroke:#181818;stroke-width:0.5;"/><line style="stroke:#181818;stroke-width:0.5;" x1="1534.5" x2="1558.5" y1="221.9219" y2="221.9219"/><polygon fill="#181818" points="1274.5,269.8828,1264.5,273.8828,1274.5,277.8828,1270.5,273.8828" style="stroke:#181818;stroke-width:1.0;"/><line style="stroke:#181818;stroke-width:1.0;stroke-dasharray:2.0,2.0;" x1="1268.5" x2="1545.5" y1="273.8828" y2="273.8828"/><text fill="#000000" font-family="sans-serif" font-size="13" lengthAdjust="spacing" textLength="53" x="1280.5" y="269.0264">checkout</text><polygon fill="#181818" points="1990,300.2344,2000,304.2344,1990,308.2344,1994,304.2344" style="stroke:#181818;stroke-width:1.0;"/><line style="stroke:#181818;stroke-width:1.0;" x1="1263.5" x2="1996" y1="304.2344" y2="304.2344"/><text fill="#000000" font-family="sans-serif" font-size="13" lengthAdjust="spacing" textLength="487" x="1270.5" y="299.3779">POST /promotion/promotions/{PROMOCODE}/usage {checkout_id, state: APPLIED}</text><path d="M10,319.2344 L71,319.2344 L71,327.5859 L61,337.5859 L10,337.5859 L10,319.2344 " fill="#EEEEEE" style="stroke:#000000;stroke-width:1.5;"/><rect fill="none" height="185.9453" style="stroke:#000000;stroke-width:1.5;" width="2071.5" x="10" y="319.2344"/><text fill="#000000" font-family="sans-serif" font-size="13" font-weight="bold" lengthAdjust="spacing" textLength="16" x="25" y="333.7295">alt</text><text fill="#000000" font-family="sans-serif" font-size="11" font-weight="bold" lengthAdjust="spacing" textLength="82" x="86" y="332.6533">["Fail to apply"]</text><polygon fill="#181818" points="1274.5,355.9375,1264.5,359.9375,1274.5,363.9375,1270.5,359.9375" style="stroke:#181818;stroke-width:1.0;"/><line style="stroke:#181818;stroke-width:1.0;stroke-dasharray:2.0,2.0;" x1="1268.5" x2="2001" y1="359.9375" y2="359.9375"/><text fill="#000000" font-family="sans-serif" font-size="13" lengthAdjust="spacing" textLength="623" x="1280.5" y="355.0811">422 UNPROCESSABLE CONTENT {ERROR_CODE: PROMOCODE_RAN_OUT| PROMOCODE_EXPIRED}</text><polygon fill="#181818" points="1534.5,386.2891,1544.5,390.2891,1534.5,394.2891,1538.5,390.2891" style="stroke:#181818;stroke-width:1.0;"/><line style="stroke:#181818;stroke-width:1.0;stroke-dasharray:2.0,2.0;" x1="1263.5" x2="1540.5" y1="390.2891" y2="390.2891"/><text fill="#000000" font-family="sans-serif" font-size="13" lengthAdjust="spacing" textLength="118" x="1270.5" y="385.4326">Remove promo code</text><polygon fill="#181818" points="636.5,416.6406,626.5,420.6406,636.5,424.6406,632.5,420.6406" style="stroke:#181818;stroke-width:1.0;"/><line style="stroke:#181818;stroke-width:1.0;stroke-dasharray:2.0,2.0;" x1="630.5" x2="1252.5" y1="420.6406" y2="420.6406"/><text fill="#000000" font-family="sans-serif" font-size="13" lengthAdjust="spacing" textLength="536" x="642.5" y="415.7842">400 BAD REQUEST {ERROR_CODE: PROMOCODE_RAN_OUT| PROMOCODE_EXPIRED}</text><polygon fill="#181818" points="64.5,446.9922,54.5,450.9922,64.5,454.9922,60.5,450.9922" style="stroke:#181818;stroke-width:1.0;"/><line style="stroke:#181818;stroke-width:1.0;stroke-dasharray:2.0,2.0;" x1="58.5" x2="614.5" y1="450.9922" y2="450.9922"/><text fill="#000000" font-family="sans-serif" font-size="13" lengthAdjust="spacing" textLength="302" x="70.5" y="446.1357">PROMOCODE ran out of usage| Promocode expired</text><line style="stroke:#000000;stroke-width:1.0;stroke-dasharray:2.0,2.0;" x1="10" x2="2081.5" y1="459.9922" y2="459.9922"/><text fill="#000000" font-family="sans-serif" font-size="11" font-weight="bold" lengthAdjust="spacing" textLength="122" x="15" y="471.4111">["Apply successfully"]</text><polygon fill="#181818" points="1274.5,493.1797,1264.5,497.1797,1274.5,501.1797,1270.5,497.1797" style="stroke:#181818;stroke-width:1.0;"/><line style="stroke:#181818;stroke-width:1.0;stroke-dasharray:2.0,2.0;" x1="1268.5" x2="2001" y1="497.1797" y2="497.1797"/><text fill="#000000" font-family="sans-serif" font-size="13" lengthAdjust="spacing" textLength="86" x="1280.5" y="492.3232">201 CREATED</text><polygon fill="#181818" points="2256,530.5313,2266,534.5313,2256,538.5313,2260,534.5313" style="stroke:#181818;stroke-width:1.0;"/><line style="stroke:#181818;stroke-width:1.0;" x1="1263.5" x2="2262" y1="534.5313" y2="534.5313"/><text fill="#000000" font-family="sans-serif" font-size="13" lengthAdjust="spacing" textLength="293" x="1270.5" y="529.6748">POST /inventory/products/stocks { product_items }</text><path d="M1268,547.5313 L1268,622.5313 L1460,622.5313 L1460,557.5313 L1450,547.5313 L1268,547.5313 " fill="#FEFFDD" style="stroke:#181818;stroke-width:0.5;"/><path d="M1450,547.5313 L1450,557.5313 L1460,557.5313 L1450,547.5313 " fill="#FEFFDD" style="stroke:#181818;stroke-width:0.5;"/><text fill="#000000" font-family="sans-serif" font-size="13" lengthAdjust="spacing" textLength="171" x="1274" y="566.0264">lock stocks for product_items</text><text fill="#000000" font-family="sans-serif" font-size="13" lengthAdjust="spacing" textLength="86" x="1274" y="582.3779">product_items:</text><text fill="#000000" font-family="sans-serif" font-size="13" lengthAdjust="spacing" textLength="68" x="1282" y="598.7295">- product_id</text><text fill="#000000" font-family="sans-serif" font-size="13" lengthAdjust="spacing" textLength="54" x="1282" y="615.0811">- quantity</text><polygon fill="#181818" points="1274.5,646.2891,1264.5,650.2891,1274.5,654.2891,1270.5,650.2891" style="stroke:#181818;stroke-width:1.0;"/><line style="stroke:#181818;stroke-width:1.0;stroke-dasharray:2.0,2.0;" x1="1268.5" x2="2272" y1="650.2891" y2="650.2891"/><text fill="#000000" font-family="sans-serif" font-size="13" lengthAdjust="spacing" textLength="172" x="1280.5" y="645.4326">confirmation { product_items }</text><path d="M2278,663.2891 L2278,771.2891 L2537,771.2891 L2537,673.2891 L2527,663.2891 L2278,663.2891 " fill="#FEFFDD" style="stroke:#181818;stroke-width:0.5;"/><path d="M2527,663.2891 L2527,673.2891 L2537,673.2891 L2527,663.2891 " fill="#FEFFDD" style="stroke:#181818;stroke-width:0.5;"/><text fill="#000000" font-family="sans-serif" font-size="13" lengthAdjust="spacing" textLength="238" x="2284" y="681.7842">Stock confirmation, list out state of stock</text><text fill="#000000" font-family="sans-serif" font-size="13" lengthAdjust="spacing" textLength="4" x="2284" y="698.1357">{</text><text fill="#000000" font-family="sans-serif" font-size="13" lengthAdjust="spacing" textLength="128" x="2292" y="714.4873">&lt;product_id_01&gt;: OK,</text><text fill="#000000" font-family="sans-serif" font-size="13" lengthAdjust="spacing" textLength="211" x="2292" y="730.8389">&lt;product_id_02&gt;: OUT_OF_STOCK,</text><text fill="#000000" font-family="sans-serif" font-size="13" lengthAdjust="spacing" textLength="124" x="2292" y="747.1904">&lt;product_id_03&gt;: OK</text><text fill="#000000" font-family="sans-serif" font-size="13" lengthAdjust="spacing" textLength="4" x="2284" y="763.542">}</text><path d="M10,783.3984 L71,783.3984 L71,791.75 L61,801.75 L10,801.75 L10,783.3984 " fill="#EEEEEE" style="stroke:#000000;stroke-width:1.5;"/><rect fill="none" height="109.4063" style="stroke:#000000;stroke-width:1.5;" width="2071.5" x="10" y="783.3984"/><text fill="#000000" font-family="sans-serif" font-size="13" font-weight="bold" lengthAdjust="spacing" textLength="16" x="25" y="797.8936">alt</text><text fill="#000000" font-family="sans-serif" font-size="11" font-weight="bold" lengthAdjust="spacing" textLength="106" x="86" y="796.8174">["any out of stock"]</text><polygon fill="#181818" points="1995,820.1016,2005,824.1016,1995,828.1016,1999,824.1016" style="stroke:#181818;stroke-width:1.0;"/><line style="stroke:#181818;stroke-width:1.0;stroke-dasharray:2.0,2.0;" x1="1263.5" x2="2001" y1="824.1016" y2="824.1016"/><text fill="#000000" font-family="sans-serif" font-size="13" lengthAdjust="spacing" textLength="192" x="1270.5" y="819.2451">Event: rollback promocode usage</text><polygon fill="#181818" points="636.5,850.4531,626.5,854.4531,636.5,858.4531,632.5,854.4531" style="stroke:#181818;stroke-width:1.0;"/><line style="stroke:#181818;stroke-width:1.0;stroke-dasharray:2.0,2.0;" x1="630.5" x2="1252.5" y1="854.4531" y2="854.4531"/><text fill="#000000" font-family="sans-serif" font-size="13" lengthAdjust="spacing" textLength="604" x="642.5" y="849.5967">400 Bad Request { ERROR_CODE: OUT_OF_STOCK, payload: { &lt;product_id_02&gt;: OUT_OF_STOCK } }</text><polygon fill="#181818" points="64.5,880.8047,54.5,884.8047,64.5,888.8047,60.5,884.8047" style="stroke:#181818;stroke-width:1.0;"/><line style="stroke:#181818;stroke-width:1.0;stroke-dasharray:2.0,2.0;" x1="58.5" x2="614.5" y1="884.8047" y2="884.8047"/><text fill="#000000" font-family="sans-serif" font-size="13" lengthAdjust="spacing" textLength="98" x="70.5" y="879.9482">out of stock error</text><polygon fill="#181818" points="1534.5,918.1563,1544.5,922.1563,1534.5,926.1563,1538.5,922.1563" style="stroke:#181818;stroke-width:1.0;"/><line style="stroke:#181818;stroke-width:1.0;" x1="1263.5" x2="1540.5" y1="922.1563" y2="922.1563"/><text fill="#000000" font-family="sans-serif" font-size="13" lengthAdjust="spacing" textLength="259" x="1270.5" y="917.2998">update { status=PAYMENT_PROCESSING }</text><polygon fill="#181818" points="2124.5,948.5078,2134.5,952.5078,2124.5,956.5078,2128.5,952.5078" style="stroke:#181818;stroke-width:1.0;"/><line style="stroke:#181818;stroke-width:1.0;" x1="1263.5" x2="2130.5" y1="952.5078" y2="952.5078"/><text fill="#000000" font-family="sans-serif" font-size="13" lengthAdjust="spacing" textLength="227" x="1270.5" y="947.6514">POST /payment/payments { checkout }</text><path d="M1268,965.5078 L1268,1056.5078 L1405,1056.5078 L1405,975.5078 L1395,965.5078 L1268,965.5078 " fill="#FEFFDD" style="stroke:#181818;stroke-width:0.5;"/><path d="M1395,965.5078 L1395,975.5078 L1405,975.5078 L1395,965.5078 " fill="#FEFFDD" style="stroke:#181818;stroke-width:0.5;"/><text fill="#000000" font-family="sans-serif" font-size="13" lengthAdjust="spacing" textLength="109" x="1274" y="984.0029">checkout includes:</text><text fill="#000000" font-family="sans-serif" font-size="13" lengthAdjust="spacing" textLength="108" x="1282" y="1000.3545">- payment_method</text><text fill="#000000" font-family="sans-serif" font-size="13" lengthAdjust="spacing" textLength="90" x="1282" y="1016.7061">- product_items</text><text fill="#000000" font-family="sans-serif" font-size="13" lengthAdjust="spacing" textLength="92" x="1282" y="1033.0576">- shipment_fees</text><text fill="#000000" font-family="sans-serif" font-size="13" lengthAdjust="spacing" textLength="40" x="1282" y="1049.4092">- taxes</text><polygon fill="#181818" points="3279.5,1080.6172,3289.5,1084.6172,3279.5,1088.6172,3283.5,1084.6172" style="stroke:#181818;stroke-width:1.0;"/><line style="stroke:#181818;stroke-width:1.0;" x1="2146.5" x2="3285.5" y1="1084.6172" y2="1084.6172"/><text fill="#000000" font-family="sans-serif" font-size="13" lengthAdjust="spacing" textLength="1121" x="2153.5" y="1079.7607">create { status=(payment_type is COD ? PROCESSING : NEW), payment_provider_checkout_id, checkout_id, product_items, shipment_fees, taxes, payment_type: checkout.payment_method }</text><text fill="#000000" font-family="sans-serif" font-size="14" lengthAdjust="spacing" textLength="119" x="3291.5" y="1108.7988">Checkout Payment</text><ellipse cx="3354" cy="1078.2656" fill="#73C6B6" rx="12" ry="12" style="stroke:#181818;stroke-width:0.5;"/><line style="stroke:#181818;stroke-width:0.5;" x1="3342" x2="3366" y1="1092.2656" y2="1092.2656"/><polygon fill="#181818" points="1274.5,1140.2266,1264.5,1144.2266,1274.5,1148.2266,1270.5,1144.2266" style="stroke:#181818;stroke-width:1.0;"/><line style="stroke:#181818;stroke-width:1.0;stroke-dasharray:2.0,2.0;" x1="1268.5" x2="2140.5" y1="1144.2266" y2="1144.2266"/><text fill="#000000" font-family="sans-serif" font-size="13" lengthAdjust="spacing" textLength="110" x="1280.5" y="1139.3701">checkout_payment</text><path d="M1268,1157.2266 L1268,1232.2266 L1483,1232.2266 L1483,1167.2266 L1473,1157.2266 L1268,1157.2266 " fill="#FEFFDD" style="stroke:#181818;stroke-width:0.5;"/><path d="M1473,1157.2266 L1473,1167.2266 L1483,1167.2266 L1473,1157.2266 " fill="#FEFFDD" style="stroke:#181818;stroke-width:0.5;"/><text fill="#000000" font-family="sans-serif" font-size="13" lengthAdjust="spacing" textLength="114" x="1274" y="1175.7217">checkout_payment:</text><text fill="#000000" font-family="sans-serif" font-size="13" lengthAdjust="spacing" textLength="186" x="1282" y="1192.0732">- payment_provider_checkout_id</text><text fill="#000000" font-family="sans-serif" font-size="13" lengthAdjust="spacing" textLength="61" x="1282" y="1208.4248">- checkout</text><text fill="#000000" font-family="sans-serif" font-size="13" lengthAdjust="spacing" textLength="90" x="1282" y="1224.7764">- payment_type</text><polygon fill="#181818" points="636.5,1255.9844,626.5,1259.9844,636.5,1263.9844,632.5,1259.9844" style="stroke:#181818;stroke-width:1.0;"/><line style="stroke:#181818;stroke-width:1.0;stroke-dasharray:2.0,2.0;" x1="630.5" x2="1252.5" y1="1259.9844" y2="1259.9844"/><text fill="#000000" font-family="sans-serif" font-size="13" lengthAdjust="spacing" textLength="110" x="642.5" y="1255.1279">checkout_payment</text><polygon fill="#181818" points="2157.5,1286.3359,2147.5,1290.3359,2157.5,1294.3359,2153.5,1290.3359" style="stroke:#181818;stroke-width:1.0;"/><line style="stroke:#181818;stroke-width:1.0;stroke-dasharray:2.0,2.0;" x1="2151.5" x2="3353" y1="1290.3359" y2="1290.3359"/><text fill="#000000" font-family="sans-serif" font-size="13" lengthAdjust="spacing" textLength="113" x="2163.5" y="1285.4795">[CDC Create Event]</text><path d="M2071.5,1305.3359 L2132.5,1305.3359 L2132.5,1313.6875 L2122.5,1323.6875 L2071.5,1323.6875 L2071.5,1305.3359 " fill="#EEEEEE" style="stroke:#000000;stroke-width:1.5;"/><rect fill="none" height="199.3672" style="stroke:#000000;stroke-width:1.5;" width="2056" x="2071.5" y="1305.3359"/><text fill="#000000" font-family="sans-serif" font-size="13" font-weight="bold" lengthAdjust="spacing" textLength="16" x="2086.5" y="1319.8311">alt</text><text fill="#000000" font-family="sans-serif" font-size="11" font-weight="bold" lengthAdjust="spacing" textLength="153" x="2147.5" y="1318.7549">[payment_type is NOT COD:]</text><polygon fill="#181818" points="3616.5,1342.0391,3626.5,1346.0391,3616.5,1350.0391,3620.5,1346.0391" style="stroke:#181818;stroke-width:1.0;"/><line style="stroke:#181818;stroke-width:1.0;" x1="2146.5" x2="3622.5" y1="1346.0391" y2="1346.0391"/><text fill="#000000" font-family="sans-serif" font-size="13" lengthAdjust="spacing" textLength="448" x="2153.5" y="1341.1826">POST /checkout/orders { checkout_id, product_items, shipment_fees, taxes }</text><polygon fill="#181818" points="3919.5,1372.3906,3929.5,1376.3906,3919.5,1380.3906,3923.5,1376.3906" style="stroke:#181818;stroke-width:1.0;"/><line style="stroke:#181818;stroke-width:1.0;" x1="3638.5" x2="3925.5" y1="1376.3906" y2="1376.3906"/><text fill="#000000" font-family="sans-serif" font-size="13" lengthAdjust="spacing" textLength="93" x="3645.5" y="1371.5342">create checkout</text><text fill="#000000" font-family="sans-serif" font-size="14" lengthAdjust="spacing" textLength="180" x="3931.5" y="1400.5723">Payment Provider: Checkout</text><ellipse cx="4024.5" cy="1370.0391" fill="#73C6B6" rx="12" ry="12" style="stroke:#181818;stroke-width:0.5;"/><line style="stroke:#181818;stroke-width:0.5;" x1="4012.5" x2="4036.5" y1="1384.0391" y2="1384.0391"/><polygon fill="#181818" points="3649.5,1432,3639.5,1436,3649.5,1440,3645.5,1436" style="stroke:#181818;stroke-width:1.0;"/><line style="stroke:#181818;stroke-width:1.0;stroke-dasharray:2.0,2.0;" x1="3643.5" x2="4023.5" y1="1436" y2="1436"/><text fill="#000000" font-family="sans-serif" font-size="13" lengthAdjust="spacing" textLength="194" x="3655.5" y="1431.1436">{ payment_provider_checkout_id }</text><polygon fill="#181818" points="2157.5,1462.3516,2147.5,1466.3516,2157.5,1470.3516,2153.5,1466.3516" style="stroke:#181818;stroke-width:1.0;"/><line style="stroke:#181818;stroke-width:1.0;stroke-dasharray:2.0,2.0;" x1="2151.5" x2="3632.5" y1="1466.3516" y2="1466.3516"/><text fill="#000000" font-family="sans-serif" font-size="13" lengthAdjust="spacing" textLength="272" x="2163.5" y="1461.4951">{ checkout_id, payment_provider_checkout_id }</text><polygon fill="#181818" points="3342,1492.7031,3352,1496.7031,3342,1500.7031,3346,1496.7031" style="stroke:#181818;stroke-width:1.0;"/><line style="stroke:#181818;stroke-width:1.0;" x1="2146.5" x2="3348" y1="1496.7031" y2="1496.7031"/><text fill="#000000" font-family="sans-serif" font-size="13" lengthAdjust="spacing" textLength="375" x="2153.5" y="1491.8467">update { status=PROCESSING, payment_provider_checkout_id }</text><path d="M572,1518.7031 L645,1518.7031 L645,1527.0547 L635,1537.0547 L572,1537.0547 L572,1518.7031 " fill="#EEEEEE" style="stroke:#000000;stroke-width:1.5;"/><rect fill="none" height="79.0547" style="stroke:#000000;stroke-width:1.5;" width="1639.5" x="572" y="1518.7031"/><text fill="#000000" font-family="sans-serif" font-size="13" font-weight="bold" lengthAdjust="spacing" textLength="28" x="587" y="1533.1982">loop</text><text fill="#000000" font-family="sans-serif" font-size="11" font-weight="bold" lengthAdjust="spacing" textLength="701" x="660" y="1532.1221">[reload to get payment information util payment status is PROCESSING and payment_provider_checkout_id existing (if not COD)]</text><polygon fill="#181818" points="2124.5,1555.4063,2134.5,1559.4063,2124.5,1563.4063,2128.5,1559.4063" style="stroke:#181818;stroke-width:1.0;"/><line style="stroke:#181818;stroke-width:1.0;" x1="625.5" x2="2130.5" y1="1559.4063" y2="1559.4063"/><text fill="#000000" font-family="sans-serif" font-size="13" lengthAdjust="spacing" textLength="284" x="632.5" y="1554.5498">GET /payment/payments/checkout/{checkout_id}</text><polygon fill="#181818" points="636.5,1585.7578,626.5,1589.7578,636.5,1593.7578,632.5,1589.7578" style="stroke:#181818;stroke-width:1.0;"/><line style="stroke:#181818;stroke-width:1.0;stroke-dasharray:2.0,2.0;" x1="630.5" x2="2140.5" y1="1589.7578" y2="1589.7578"/><text fill="#000000" font-family="sans-serif" font-size="13" lengthAdjust="spacing" textLength="332" x="642.5" y="1584.9014">{ status=PROCESSING, payment_provider_checkout_id }</text><polygon fill="#181818" points="69.5,1623.1094,59.5,1627.1094,69.5,1631.1094,65.5,1627.1094" style="stroke:#181818;stroke-width:1.0;"/><line style="stroke:#181818;stroke-width:1.0;stroke-dasharray:2.0,2.0;" x1="63.5" x2="619.5" y1="1627.1094" y2="1627.1094"/><text fill="#000000" font-family="sans-serif" font-size="13" lengthAdjust="spacing" textLength="538" x="75.5" y="1622.2529">redirect to payment_provider : Payment Provider: Checkout { payment_provider_checkout_id }</text><polygon fill="#181818" points="3616.5,1653.4609,3626.5,1657.4609,3616.5,1661.4609,3620.5,1657.4609" style="stroke:#181818;stroke-width:1.0;"/><line style="stroke:#181818;stroke-width:1.0;" x1="53.5" x2="3622.5" y1="1657.4609" y2="1657.4609"/><text fill="#000000" font-family="sans-serif" font-size="13" lengthAdjust="spacing" textLength="298" x="60.5" y="1652.6045">execute payment { payment_provider_checkout_id }</text><polygon fill="#181818" points="4012.5,1683.8125,4022.5,1687.8125,4012.5,1691.8125,4016.5,1687.8125" style="stroke:#181818;stroke-width:1.0;"/><line style="stroke:#181818;stroke-width:1.0;" x1="3638.5" x2="4018.5" y1="1687.8125" y2="1687.8125"/><text fill="#000000" font-family="sans-serif" font-size="13" lengthAdjust="spacing" textLength="362" x="3645.5" y="1682.9561">update { status=COMPETED, payment_provider_checkout_id }</text><polygon fill="#181818" points="2157.5,1714.1641,2147.5,1718.1641,2157.5,1722.1641,2153.5,1718.1641" style="stroke:#181818;stroke-width:1.0;"/><line style="stroke:#181818;stroke-width:1.0;stroke-dasharray:2.0,2.0;" x1="2151.5" x2="3627.5" y1="1718.1641" y2="1718.1641"/><text fill="#000000" font-family="sans-serif" font-size="13" lengthAdjust="spacing" textLength="455" x="2163.5" y="1713.3076">{ checkout_id, payment_provider_checkout_id, status=COMPETED/FAILURE }</text><polygon fill="#181818" points="3342,1744.5156,3352,1748.5156,3342,1752.5156,3346,1748.5156" style="stroke:#181818;stroke-width:1.0;"/><line style="stroke:#181818;stroke-width:1.0;" x1="2146.5" x2="3348" y1="1748.5156" y2="1748.5156"/><text fill="#000000" font-family="sans-serif" font-size="13" lengthAdjust="spacing" textLength="183" x="2153.5" y="1743.6592">update { status=COMPLETED }</text><polygon fill="#181818" points="3476.5,1774.8672,3486.5,1778.8672,3476.5,1782.8672,3480.5,1778.8672" style="stroke:#181818;stroke-width:1.0;"/><line style="stroke:#181818;stroke-width:1.0;stroke-dasharray:2.0,2.0;" x1="2146.5" x2="3482.5" y1="1778.8672" y2="1778.8672"/><text fill="#000000" font-family="sans-serif" font-size="13" lengthAdjust="spacing" textLength="284" x="2153.5" y="1774.0107">Event: PaymentCompleted { checkout_payment }</text><polygon fill="#181818" points="64.5,1805.2188,54.5,1809.2188,64.5,1813.2188,60.5,1809.2188" style="stroke:#181818;stroke-width:1.0;"/><line style="stroke:#181818;stroke-width:1.0;stroke-dasharray:2.0,2.0;" x1="58.5" x2="3492.5" y1="1809.2188" y2="1809.2188"/><text fill="#000000" font-family="sans-serif" font-size="13" lengthAdjust="spacing" textLength="201" x="70.5" y="1804.3623">notification for payment completion</text><polygon fill="#181818" points="1274.5,1835.5703,1264.5,1839.5703,1274.5,1843.5703,1270.5,1839.5703" style="stroke:#181818;stroke-width:1.0;"/><line style="stroke:#181818;stroke-width:1.0;stroke-dasharray:2.0,2.0;" x1="1268.5" x2="2140.5" y1="1839.5703" y2="1839.5703"/><text fill="#000000" font-family="sans-serif" font-size="13" lengthAdjust="spacing" textLength="244" x="1280.5" y="1834.7139">Event: PaymentCompleted { checkout_id }</text><polygon fill="#181818" points="1534.5,1865.9219,1544.5,1869.9219,1534.5,1873.9219,1538.5,1869.9219" style="stroke:#181818;stroke-width:1.0;"/><line style="stroke:#181818;stroke-width:1.0;" x1="1263.5" x2="1540.5" y1="1869.9219" y2="1869.9219"/><text fill="#000000" font-family="sans-serif" font-size="13" lengthAdjust="spacing" textLength="250" x="1270.5" y="1865.0654">update { status=PAYMENT_CONFIRMED }</text><polygon fill="#181818" points="1600.5,1896.2734,1610.5,1900.2734,1600.5,1904.2734,1604.5,1900.2734" style="stroke:#181818;stroke-width:1.0;"/><line style="stroke:#181818;stroke-width:1.0;" x1="1263.5" x2="1606.5" y1="1900.2734" y2="1900.2734"/><text fill="#000000" font-family="sans-serif" font-size="13" lengthAdjust="spacing" textLength="325" x="1270.5" y="1895.417">create { checkout_id, status=PAYMENT_CONFIRMED }</text><text fill="#000000" font-family="sans-serif" font-size="14" lengthAdjust="spacing" textLength="37" x="1612.5" y="1924.4551">Order</text><ellipse cx="1634" cy="1893.9219" fill="#3498DB" rx="12" ry="12" style="stroke:#181818;stroke-width:0.5;"/><line style="stroke:#181818;stroke-width:0.5;" x1="1622" x2="1646" y1="1907.9219" y2="1907.9219"/><polygon fill="#181818" points="1795,1955.8828,1805,1959.8828,1795,1963.8828,1799,1959.8828" style="stroke:#181818;stroke-width:1.0;"/><line style="stroke:#181818;stroke-width:1.0;stroke-dasharray:2.0,2.0;" x1="1639" x2="1801" y1="1959.8828" y2="1959.8828"/><text fill="#000000" font-family="sans-serif" font-size="13" lengthAdjust="spacing" textLength="149" x="1646" y="1955.0264">[CDC Create Order Event]</text><line style="stroke:#181818;stroke-width:1.0;stroke-dasharray:2.0,2.0;" x1="1817" x2="1859" y1="1995.2344" y2="1995.2344"/><line style="stroke:#181818;stroke-width:1.0;stroke-dasharray:2.0,2.0;" x1="1859" x2="1859" y1="1995.2344" y2="2008.2344"/><line style="stroke:#181818;stroke-width:1.0;stroke-dasharray:2.0,2.0;" x1="1812" x2="1859" y1="2008.2344" y2="2008.2344"/><polygon fill="#181818" points="1822,2004.2344,1812,2008.2344,1822,2012.2344,1818,2008.2344" style="stroke:#181818;stroke-width:1.0;"/><text fill="#000000" font-family="sans-serif" font-size="13" lengthAdjust="spacing" textLength="171" x="1824" y="1990.3779">update for remove order items</text><polygon fill="#181818" points="1274.5,2029.5859,1264.5,2033.5859,1274.5,2037.5859,1270.5,2033.5859" style="stroke:#181818;stroke-width:1.0;"/><line style="stroke:#181818;stroke-width:1.0;stroke-dasharray:2.0,2.0;" x1="1268.5" x2="1633" y1="2033.5859" y2="2033.5859"/><text fill="#000000" font-family="sans-serif" font-size="13" lengthAdjust="spacing" textLength="29" x="1280.5" y="2028.7295">order</text><polygon fill="#181818" points="3476.5,2043.5859,3486.5,2047.5859,3476.5,2051.5859,3480.5,2047.5859" style="stroke:#181818;stroke-width:1.0;"/><line style="stroke:#181818;stroke-width:1.0;stroke-dasharray:2.0,2.0;" x1="1263.5" x2="3482.5" y1="2047.5859" y2="2047.5859"/><polygon fill="#181818" points="64.5,2073.9375,54.5,2077.9375,64.5,2081.9375,60.5,2077.9375" style="stroke:#181818;stroke-width:1.0;"/><line style="stroke:#181818;stroke-width:1.0;stroke-dasharray:2.0,2.0;" x1="58.5" x2="3492.5" y1="2077.9375" y2="2077.9375"/><text fill="#000000" font-family="sans-serif" font-size="13" lengthAdjust="spacing" textLength="163" x="70.5" y="2073.0811">notification for order creation</text><polygon fill="#181818" points="69.5,2104.2891,59.5,2108.2891,69.5,2112.2891,65.5,2108.2891" style="stroke:#181818;stroke-width:1.0;"/><line style="stroke:#181818;stroke-width:1.0;stroke-dasharray:2.0,2.0;" x1="63.5" x2="3632.5" y1="2108.2891" y2="2108.2891"/><text fill="#000000" font-family="sans-serif" font-size="13" lengthAdjust="spacing" textLength="217" x="75.5" y="2103.4326">redirect to storefront with confirmation</text><polygon fill="#181818" points="603.5,2134.6406,613.5,2138.6406,603.5,2142.6406,607.5,2138.6406" style="stroke:#181818;stroke-width:1.0;"/><line style="stroke:#181818;stroke-width:1.0;" x1="53.5" x2="609.5" y1="2138.6406" y2="2138.6406"/><text fill="#000000" font-family="sans-serif" font-size="13" lengthAdjust="spacing" textLength="102" x="60.5" y="2133.7842">confirmation page</text><polygon fill="#181818" points="64.5,2164.9922,54.5,2168.9922,64.5,2172.9922,60.5,2168.9922" style="stroke:#181818;stroke-width:1.0;"/><line style="stroke:#181818;stroke-width:1.0;stroke-dasharray:2.0,2.0;" x1="58.5" x2="614.5" y1="2168.9922" y2="2168.9922"/><text fill="#000000" font-family="sans-serif" font-size="13" lengthAdjust="spacing" textLength="158" x="70.5" y="2164.1357">show payment confirmation</text><path d="M10,2183.9922 L83,2183.9922 L83,2192.3438 L73,2202.3438 L10,2202.3438 L10,2183.9922 " fill="#EEEEEE" style="stroke:#000000;stroke-width:1.5;"/><rect fill="none" height="170.1094" style="stroke:#000000;stroke-width:1.5;" width="1655.5" x="10" y="2183.9922"/><text fill="#000000" font-family="sans-serif" font-size="13" font-weight="bold" lengthAdjust="spacing" textLength="28" x="25" y="2198.4873">loop</text><text fill="#000000" font-family="sans-serif" font-size="11" font-weight="bold" lengthAdjust="spacing" textLength="122" x="98" y="2197.4111">["reload to get order"]</text><polygon fill="#181818" points="1241.5,2220.6953,1251.5,2224.6953,1241.5,2228.6953,1245.5,2224.6953" style="stroke:#181818;stroke-width:1.0;"/><line style="stroke:#181818;stroke-width:1.0;" x1="625.5" x2="1247.5" y1="2224.6953" y2="2224.6953"/><text fill="#000000" font-family="sans-serif" font-size="13" lengthAdjust="spacing" textLength="242" x="632.5" y="2219.8389">GET /order/orders/checkout/{checkout_id}</text><polygon fill="#181818" points="1617,2251.0469,1627,2255.0469,1617,2259.0469,1621,2255.0469" style="stroke:#181818;stroke-width:1.0;"/><line style="stroke:#181818;stroke-width:1.0;" x1="1263.5" x2="1623" y1="2255.0469" y2="2255.0469"/><text fill="#000000" font-family="sans-serif" font-size="13" lengthAdjust="spacing" textLength="153" x="1270.5" y="2250.1904">find order by {checkout_id}</text><polygon fill="#181818" points="1274.5,2281.3984,1264.5,2285.3984,1274.5,2289.3984,1270.5,2285.3984" style="stroke:#181818;stroke-width:1.0;"/><line style="stroke:#181818;stroke-width:1.0;stroke-dasharray:2.0,2.0;" x1="1268.5" x2="1633" y1="2285.3984" y2="2285.3984"/><text fill="#000000" font-family="sans-serif" font-size="13" lengthAdjust="spacing" textLength="29" x="1280.5" y="2280.542">order</text><polygon fill="#181818" points="636.5,2311.75,626.5,2315.75,636.5,2319.75,632.5,2315.75" style="stroke:#181818;stroke-width:1.0;"/><line style="stroke:#181818;stroke-width:1.0;stroke-dasharray:2.0,2.0;" x1="630.5" x2="1257.5" y1="2315.75" y2="2315.75"/><text fill="#000000" font-family="sans-serif" font-size="13" lengthAdjust="spacing" textLength="29" x="642.5" y="2310.8936">order</text><polygon fill="#181818" points="64.5,2342.1016,54.5,2346.1016,64.5,2350.1016,60.5,2346.1016" style="stroke:#181818;stroke-width:1.0;"/><line style="stroke:#181818;stroke-width:1.0;stroke-dasharray:2.0,2.0;" x1="58.5" x2="614.5" y1="2346.1016" y2="2346.1016"/><text fill="#000000" font-family="sans-serif" font-size="13" lengthAdjust="spacing" textLength="133" x="70.5" y="2341.2451">redirect to order details</text><!--SRC=[jLXRRzis57xthpXmNjh2NfmBqaJeEhYAKWHBBCzsi1N3O2WIbGYLBLMIanXf_lju5obIjfDXVh5zo7FbTovabLGfWd6mNg1b1HTfzjZf166L5U2koYfRe0A24aBnUoyEee_1eDEvpPxWst3Q0Vp9Ww9AmYGFi8Jk5FEYkCYMLPTmbl8lvetYGtG6_6Eo-aM4LKnHyP24Y79dX38l6GNsZexFJgDRoOmjJgerTDrx57xFLanXoF-8tTfEgg6MhEtHlRZFyZnPte6BgSmHJfc7c09xmLaOeYEJSLnaYwnAigNcHowejI-dGNmG3om2-55ex8nMCtyy2azkJqpco-K3tfSLQuqz4LH5- -3qzkp46aK11YsQSsv2k-eHzYzEmi3mVQair0Pm7A5b10HA353IUHp5XuGUrHuAOXofzZZLMvL0vPoecIiSRN8we06eAMDU8ueBuqPtEZ8j-fyLe3j4SeXG15Kcf96SIXw22jaJ0jkdqB4q3VXOe3-TmJubxWjpolrdUJf9zBAV4wLbsHSQ0QHEQnhHcEWhMB5qziC71-A4UBe6JP65xrE_BnaT-Skkm4W5uPrSg7zX5ySJ_zft_NFlPNzL1dT8iwM7euRzSs0u7bzTUkVCDkdsvgmBKd821sV7fm5qBu8a9SSLv7cwxZAq6Tnzys2E3m_XPeIDTBtfTFZboWFN7ysyqGoUlSd4dyo9wTX3uSLyCXpD_PlPJuNa_JM-d0ZZ6_5IJiI12Lfa3zmj2BC8jN2eK3mU3E3By1mctXyttlJDPgde93Pnu3jGCq0HB84W9uk17jLFeCMG60heAKyA5B4yJ4jy4hVu94ZaXoJYKAv20jvubRug_8U30t0dtd3cdOkMm7H4g1q5TbmQHLBWKYuGN4Qh42SUTZxyNi8pSCeygT2Y11OgNEyG5CdTFOs4fgV3Eb-AkO7BY76drQJmFHhDwOYcsQyN8eNuOnNGuYPYG8tGas5p4m3BkYNUORQCasB1YhpT_MO03BdIx2c9W2Qo1sbILXH4DB49FusJv7cMlm0-rQ6O3mu-E-3_tcjRFYJBDxEvVp6VpdotVUCHbIDNXKzQJ1LmsRtJIakmN8kqeBvqkKWpRosbqIFY7IYoDBqDSBHocL4qnLf56IKWY73v-B52EBpFeDO0BIgaNQLP43buqyRumOiCJMjfK9q6L1HPeQLeQ-jnO9L79BZF50MhyjVnyDirhgbpNcSlHr_XfQMxw9EIx2sCBBv9wif6jslMIePa6QQh2EbPoVKkK7MVHRPqLNARqClx9ASSCK8glGgU-7y1EMWqDVii2A9kD9QLkCePZhJsi41QYDy9ncgTOrYNk8-Tms-WHDo1aVVd-rxxV4GRilP7Sxwd-znZhjRoYE9wUFX5ZwX4cpbu64VUzDTQbcmd30QhevI9_aRFjOtQ1DJa9dvkgIeDbveTc7ZTBCpDCnPt96EXRykIlzrp5rm62Lfo_kbe1ZMZjHiQIHbimchapmYqd1QugZcSo_cS9R5mXSt1QWxl2ZQ98iF-veMXFZXvXiPMYwbpRNpcEMQWmP2amjWGHMhn9kH9fyneskGwHjnsaMq1fzY_U-6n57PPNdQoW-HBPqkcf5cMGu585oC3_HsI6CI56qzRV7XPLNZW5mlC6W9FfTu5MDb6cz0J7bR86y6x92PfJ73ztfYMBTdsrREqf1hUscrhj-fljc9hPNnht3S6d1zAwnY0ntuy-eULSXkkaUz0-sryE-uLkshrzLLRs82jKs_gPaQW9nIkQkTUfLWgsLfJEg-i8MQwkFxrsCDtdMs7HgkMgSk6nLSKWrxJZFsBuUNLpSIZADa9ecyg4aJT5T77qMW8mL9iZqnoUkOGSxD5dg8AHQhJuiWRJmSR7wtaF65kqQ6lRc4tFQujPAPWSZE_R59RlMuC0JkuorDwOqB_bsUZzjdTzKSNbvDhUOg624eWRREUJMtWQvEdMwrPovMnYv7wZAiFFkpvMOu_cj3srrzQTxLLYneU50A1WZtYC8lOnLaPCzIAfWbLDvapCAKuxAk9g9hOybpK2hd_EnjO3EXfxvu96wPIQyMpDoAbMpqcrRts2j7PDEniQoxgnLjxBSd9TNrZtp1VXZUrLGoFHwMUAERp6QYh3q4qM5tBUD8e8dGuOI_DRCvk6KmiIMSj5MsPpb-N6GQiRynRSdgdF6Z9X6tNgVP4gcygF9zscdkO_H6gWYGjnSnadrx-1G00]--></g></svg>