<?xml version="1.0" encoding="us-ascii" standalone="no"?><svg xmlns="http://www.w3.org/2000/svg" xmlns:xlink="http://www.w3.org/1999/xlink" contentStyleType="text/css" height="2414px" preserveAspectRatio="none" style="width:4042px;height:2414px;background:#FFFFFF;" version="1.1" viewBox="0 0 4042 2414" width="4042px" zoomAndPan="magnify"><defs/><g><text fill="#000000" font-family="sans-serif" font-size="14" font-weight="bold" lengthAdjust="spacing" textLength="96" x="1974.5" y="29.5332">Payment Flow</text><rect fill="#DDDDDD" height="2363.75" style="stroke:#181818;stroke-width:0.5;" width="2895" x="578" y="44.6094"/><text fill="#000000" font-family="sans-serif" font-size="13" font-weight="bold" lengthAdjust="spacing" textLength="26" x="2012.5" y="58.1045">YAS</text><rect fill="#EAFAF1" height="2363.75" style="stroke:#181818;stroke-width:0.5;" width="555" x="3475" y="44.6094"/><text fill="#000000" font-family="sans-serif" font-size="13" font-weight="bold" lengthAdjust="spacing" textLength="114" x="3695.5" y="58.1045">Payment Provider</text><rect fill="#FFFFFF" height="30.3516" style="stroke:#181818;stroke-width:1.0;" width="10" x="48.5" y="1627.1094"/><rect fill="#FFFFFF" height="30.3516" style="stroke:#181818;stroke-width:1.0;" width="10" x="48.5" y="2064.9375"/><rect fill="#FDF2E9" height="1473.5391" style="stroke:#181818;stroke-width:1.0;" width="10" x="615.5" y="153.5703"/><rect fill="#FDF2E9" height="222.4609" style="stroke:#181818;stroke-width:1.0;" width="10" x="615.5" y="2095.2891"/><rect fill="#3498DB" height="1106.4141" style="stroke:#181818;stroke-width:1.0;" width="10" x="1253.5" y="183.9219"/><rect fill="#3498DB" height="195.0156" style="stroke:#181818;stroke-width:1.0;" width="10" x="1253.5" y="1839.5703"/><rect fill="#3498DB" height="91.0547" style="stroke:#181818;stroke-width:1.0;" width="10" x="1253.5" y="2181.3438"/><rect fill="#3498DB" height="30.3516" style="stroke:#181818;stroke-width:1.0;" width="10" x="1629" y="2211.6953"/><rect fill="#8AF1F0" height="207.9453" style="stroke:#181818;stroke-width:1.0;" width="10" x="1910.5" y="304.2344"/><rect fill="#73C6B6" height="191.7188" style="stroke:#181818;stroke-width:1.0;" width="10" x="2045" y="952.5078"/><rect fill="#73C6B6" height="221.3672" style="stroke:#181818;stroke-width:1.0;" width="10" x="2045" y="1290.3359"/><rect fill="#73C6B6" height="30.3516" style="stroke:#181818;stroke-width:1.0;" width="10" x="2045" y="1559.4063"/><rect fill="#73C6B6" height="121.4063" style="stroke:#181818;stroke-width:1.0;" width="10" x="2045" y="1718.1641"/><rect fill="#808B96" height="115.7578" style="stroke:#181818;stroke-width:1.0;" width="10" x="2176.5" y="534.5313"/><rect fill="#FAD7A0" height="30.3516" style="stroke:#181818;stroke-width:1.0;" width="10" x="3397" y="1778.8672"/><rect fill="#FAD7A0" height="30.3516" style="stroke:#181818;stroke-width:1.0;" width="10" x="3397" y="2004.2344"/><rect fill="#73C6B6" height="120.3125" style="stroke:#181818;stroke-width:1.0;" width="10" x="3537" y="1346.0391"/><rect fill="#73C6B6" height="407.4766" style="stroke:#181818;stroke-width:1.0;" width="10" x="3537" y="1657.4609"/><rect fill="#F1948A" height="185.9453" style="stroke:#000000;stroke-width:1.5;" width="1980" x="10" y="319.2344"/><rect fill="#BAF18A" height="46.1875" style="stroke:none;stroke-width:1.0;" width="1980" x="10" y="458.9922"/><rect fill="#F1948A" height="109.4063" style="stroke:#000000;stroke-width:1.5;" width="1980" x="10" y="783.3984"/><rect fill="none" height="199.3672" style="stroke:#000000;stroke-width:1.5;" width="2056" x="1980" y="1305.3359"/><rect fill="none" height="79.0547" style="stroke:#000000;stroke-width:1.5;" width="1548" x="572" y="1518.7031"/><rect fill="none" height="170.1094" style="stroke:#000000;stroke-width:1.5;" width="1655.5" x="10" y="2140.6406"/><line style="stroke:#181818;stroke-width:0.5;stroke-dasharray:5.0,5.0;" x1="53" x2="53" y1="121.2188" y2="2327.75"/><line style="stroke:#181818;stroke-width:0.5;stroke-dasharray:5.0,5.0;" x1="620" x2="620" y1="121.2188" y2="2327.75"/><line style="stroke:#181818;stroke-width:0.5;stroke-dasharray:5.0,5.0;" x1="1258.5" x2="1258.5" y1="121.2188" y2="2327.75"/><line style="stroke:#181818;stroke-width:0.5;stroke-dasharray:5.0,5.0;" x1="1546.5" x2="1546.5" y1="231.7266" y2="2327.75"/><line style="stroke:#181818;stroke-width:0.5;stroke-dasharray:5.0,5.0;" x1="1633.5" x2="1633.5" y1="1917.7266" y2="2327.75"/><line style="stroke:#181818;stroke-width:0.5;stroke-dasharray:5.0,5.0;" x1="1717.5" x2="1717.5" y1="121.2188" y2="2327.75"/><line style="stroke:#181818;stroke-width:0.5;stroke-dasharray:5.0,5.0;" x1="1915" x2="1915" y1="121.2188" y2="2327.75"/><line style="stroke:#181818;stroke-width:0.5;stroke-dasharray:5.0,5.0;" x1="2050" x2="2050" y1="121.2188" y2="2327.75"/><line style="stroke:#181818;stroke-width:0.5;stroke-dasharray:5.0,5.0;" x1="2181" x2="2181" y1="121.2188" y2="2327.75"/><line style="stroke:#181818;stroke-width:0.5;stroke-dasharray:5.0,5.0;" x1="3262" x2="3262" y1="1102.0703" y2="2327.75"/><line style="stroke:#181818;stroke-width:0.5;stroke-dasharray:5.0,5.0;" x1="3402" x2="3402" y1="121.2188" y2="2327.75"/><line style="stroke:#181818;stroke-width:0.5;stroke-dasharray:5.0,5.0;" x1="3542" x2="3542" y1="121.2188" y2="2327.75"/><line style="stroke:#181818;stroke-width:0.5;stroke-dasharray:5.0,5.0;" x1="3933" x2="3933" y1="1393.8438" y2="2327.75"/><text fill="#000000" font-family="sans-serif" font-size="14" lengthAdjust="spacing" textLength="61" x="20" y="118.1426">Customer</text><ellipse cx="53.5" cy="52.1094" fill="#FAD7A0" rx="8" ry="8" style="stroke:#181818;stroke-width:0.5;"/><path d="M53.5,60.1094 L53.5,87.1094 M40.5,68.1094 L66.5,68.1094 M53.5,87.1094 L40.5,102.1094 M53.5,87.1094 L66.5,102.1094 " fill="none" style="stroke:#181818;stroke-width:0.5;"/><text fill="#000000" font-family="sans-serif" font-size="14" lengthAdjust="spacing" textLength="61" x="20" y="2341.2832">Customer</text><ellipse cx="53.5" cy="2352.8594" fill="#FAD7A0" rx="8" ry="8" style="stroke:#181818;stroke-width:0.5;"/><path d="M53.5,2360.8594 L53.5,2387.8594 M40.5,2368.8594 L66.5,2368.8594 M53.5,2387.8594 L40.5,2402.8594 M53.5,2387.8594 L66.5,2402.8594 " fill="none" style="stroke:#181818;stroke-width:0.5;"/><rect fill="#FDF2E9" height="31.6094" rx="2.5" ry="2.5" style="stroke:#181818;stroke-width:0.5;" width="77" x="582" y="88.6094"/><text fill="#000000" font-family="sans-serif" font-size="14" lengthAdjust="spacing" textLength="63" x="589" y="110.1426">Storefront</text><rect fill="#FDF2E9" height="31.6094" rx="2.5" ry="2.5" style="stroke:#181818;stroke-width:0.5;" width="77" x="582" y="2326.75"/><text fill="#000000" font-family="sans-serif" font-size="14" lengthAdjust="spacing" textLength="63" x="589" y="2348.2832">Storefront</text><rect fill="#3498DB" height="31.6094" rx="2.5" ry="2.5" style="stroke:#181818;stroke-width:0.5;" width="102" x="1207.5" y="88.6094"/><text fill="#000000" font-family="sans-serif" font-size="14" lengthAdjust="spacing" textLength="88" x="1214.5" y="110.1426">Order Service</text><rect fill="#3498DB" height="31.6094" rx="2.5" ry="2.5" style="stroke:#181818;stroke-width:0.5;" width="102" x="1207.5" y="2326.75"/><text fill="#000000" font-family="sans-serif" font-size="14" lengthAdjust="spacing" textLength="88" x="1214.5" y="2348.2832">Order Service</text><text fill="#000000" font-family="sans-serif" font-size="14" lengthAdjust="spacing" textLength="60" x="1513.5" y="2341.2832">Checkout</text><ellipse cx="1546.5" cy="2360.3594" fill="#3498DB" rx="12" ry="12" style="stroke:#181818;stroke-width:0.5;"/><line style="stroke:#181818;stroke-width:0.5;" x1="1534.5" x2="1558.5" y1="2374.3594" y2="2374.3594"/><text fill="#000000" font-family="sans-serif" font-size="14" lengthAdjust="spacing" textLength="37" x="1612.5" y="2341.2832">Order</text><ellipse cx="1634" cy="2360.3594" fill="#3498DB" rx="12" ry="12" style="stroke:#181818;stroke-width:0.5;"/><line style="stroke:#181818;stroke-width:0.5;" x1="1622" x2="1646" y1="2374.3594" y2="2374.3594"/><rect fill="#A9CCE3" height="31.6094" rx="2.5" ry="2.5" style="stroke:#181818;stroke-width:0.5;" width="105" x="1665.5" y="88.6094"/><text fill="#000000" font-family="sans-serif" font-size="14" lengthAdjust="spacing" textLength="91" x="1672.5" y="110.1426">Shopping Cart</text><rect fill="#A9CCE3" height="31.6094" rx="2.5" ry="2.5" style="stroke:#181818;stroke-width:0.5;" width="105" x="1665.5" y="2326.75"/><text fill="#000000" font-family="sans-serif" font-size="14" lengthAdjust="spacing" textLength="91" x="1672.5" y="2348.2832">Shopping Cart</text><rect fill="#8AF1F0" height="31.6094" rx="2.5" ry="2.5" style="stroke:#181818;stroke-width:0.5;" width="129" x="1851" y="88.6094"/><text fill="#000000" font-family="sans-serif" font-size="14" lengthAdjust="spacing" textLength="115" x="1858" y="110.1426">Promotion Service</text><rect fill="#8AF1F0" height="31.6094" rx="2.5" ry="2.5" style="stroke:#181818;stroke-width:0.5;" width="129" x="1851" y="2326.75"/><text fill="#000000" font-family="sans-serif" font-size="14" lengthAdjust="spacing" textLength="115" x="1858" y="2348.2832">Promotion Service</text><rect fill="#73C6B6" height="31.6094" rx="2.5" ry="2.5" style="stroke:#181818;stroke-width:0.5;" width="120" x="1990" y="88.6094"/><text fill="#000000" font-family="sans-serif" font-size="14" lengthAdjust="spacing" textLength="106" x="1997" y="110.1426">Payment Service</text><rect fill="#73C6B6" height="31.6094" rx="2.5" ry="2.5" style="stroke:#181818;stroke-width:0.5;" width="120" x="1990" y="2326.75"/><text fill="#000000" font-family="sans-serif" font-size="14" lengthAdjust="spacing" textLength="106" x="1997" y="2348.2832">Payment Service</text><rect fill="#808B96" height="31.6094" rx="2.5" ry="2.5" style="stroke:#181818;stroke-width:0.5;" width="123" x="2120" y="88.6094"/><text fill="#000000" font-family="sans-serif" font-size="14" lengthAdjust="spacing" textLength="109" x="2127" y="110.1426">Inventory Service</text><rect fill="#808B96" height="31.6094" rx="2.5" ry="2.5" style="stroke:#181818;stroke-width:0.5;" width="123" x="2120" y="2326.75"/><text fill="#000000" font-family="sans-serif" font-size="14" lengthAdjust="spacing" textLength="109" x="2127" y="2348.2832">Inventory Service</text><text fill="#000000" font-family="sans-serif" font-size="14" lengthAdjust="spacing" textLength="119" x="3200" y="2341.2832">Checkout Payment</text><ellipse cx="3262.5" cy="2360.3594" fill="#73C6B6" rx="12" ry="12" style="stroke:#181818;stroke-width:0.5;"/><line style="stroke:#181818;stroke-width:0.5;" x1="3250.5" x2="3274.5" y1="2374.3594" y2="2374.3594"/><rect fill="#FAD7A0" height="31.6094" rx="2.5" ry="2.5" style="stroke:#181818;stroke-width:0.5;" width="134" x="3335" y="88.6094"/><text fill="#000000" font-family="sans-serif" font-size="14" lengthAdjust="spacing" textLength="120" x="3342" y="110.1426">Notification Service</text><rect fill="#FAD7A0" height="31.6094" rx="2.5" ry="2.5" style="stroke:#181818;stroke-width:0.5;" width="134" x="3335" y="2326.75"/><text fill="#000000" font-family="sans-serif" font-size="14" lengthAdjust="spacing" textLength="120" x="3342" y="2348.2832">Notification Service</text><rect fill="#73C6B6" height="31.6094" rx="2.5" ry="2.5" style="stroke:#181818;stroke-width:0.5;" width="126" x="3479" y="88.6094"/><text fill="#000000" font-family="sans-serif" font-size="14" lengthAdjust="spacing" textLength="112" x="3486" y="110.1426">Payment Provider</text><rect fill="#73C6B6" height="31.6094" rx="2.5" ry="2.5" style="stroke:#181818;stroke-width:0.5;" width="126" x="3479" y="2326.75"/><text fill="#000000" font-family="sans-serif" font-size="14" lengthAdjust="spacing" textLength="112" x="3486" y="2348.2832">Payment Provider</text><text fill="#000000" font-family="sans-serif" font-size="14" lengthAdjust="spacing" textLength="180" x="3840" y="2341.2832">Payment Provider: Checkout</text><ellipse cx="3933" cy="2360.3594" fill="#73C6B6" rx="12" ry="12" style="stroke:#181818;stroke-width:0.5;"/><line style="stroke:#181818;stroke-width:0.5;" x1="3921" x2="3945" y1="2374.3594" y2="2374.3594"/><rect fill="#FFFFFF" height="30.3516" style="stroke:#181818;stroke-width:1.0;" width="10" x="48.5" y="1627.1094"/><rect fill="#FFFFFF" height="30.3516" style="stroke:#181818;stroke-width:1.0;" width="10" x="48.5" y="2064.9375"/><rect fill="#FDF2E9" height="1473.5391" style="stroke:#181818;stroke-width:1.0;" width="10" x="615.5" y="153.5703"/><rect fill="#FDF2E9" height="222.4609" style="stroke:#181818;stroke-width:1.0;" width="10" x="615.5" y="2095.2891"/><rect fill="#3498DB" height="1106.4141" style="stroke:#181818;stroke-width:1.0;" width="10" x="1253.5" y="183.9219"/><rect fill="#3498DB" height="195.0156" style="stroke:#181818;stroke-width:1.0;" width="10" x="1253.5" y="1839.5703"/><rect fill="#3498DB" height="91.0547" style="stroke:#181818;stroke-width:1.0;" width="10" x="1253.5" y="2181.3438"/><rect fill="#3498DB" height="30.3516" style="stroke:#181818;stroke-width:1.0;" width="10" x="1629" y="2211.6953"/><rect fill="#8AF1F0" height="207.9453" style="stroke:#181818;stroke-width:1.0;" width="10" x="1910.5" y="304.2344"/><rect fill="#73C6B6" height="191.7188" style="stroke:#181818;stroke-width:1.0;" width="10" x="2045" y="952.5078"/><rect fill="#73C6B6" height="221.3672" style="stroke:#181818;stroke-width:1.0;" width="10" x="2045" y="1290.3359"/><rect fill="#73C6B6" height="30.3516" style="stroke:#181818;stroke-width:1.0;" width="10" x="2045" y="1559.4063"/><rect fill="#73C6B6" height="121.4063" style="stroke:#181818;stroke-width:1.0;" width="10" x="2045" y="1718.1641"/><rect fill="#808B96" height="115.7578" style="stroke:#181818;stroke-width:1.0;" width="10" x="2176.5" y="534.5313"/><rect fill="#FAD7A0" height="30.3516" style="stroke:#181818;stroke-width:1.0;" width="10" x="3397" y="1778.8672"/><rect fill="#FAD7A0" height="30.3516" style="stroke:#181818;stroke-width:1.0;" width="10" x="3397" y="2004.2344"/><rect fill="#73C6B6" height="120.3125" style="stroke:#181818;stroke-width:1.0;" width="10" x="3537" y="1346.0391"/><rect fill="#73C6B6" height="407.4766" style="stroke:#181818;stroke-width:1.0;" width="10" x="3537" y="1657.4609"/><polygon fill="#181818" points="603.5,149.5703,613.5,153.5703,603.5,157.5703,607.5,153.5703" style="stroke:#181818;stroke-width:1.0;"/><line style="stroke:#181818;stroke-width:1.0;" x1="53.5" x2="609.5" y1="153.5703" y2="153.5703"/><text fill="#000000" font-family="sans-serif" font-size="13" lengthAdjust="spacing" textLength="117" x="60.5" y="148.7139">Proceed to payment</text><polygon fill="#181818" points="1241.5,179.9219,1251.5,183.9219,1241.5,187.9219,1245.5,183.9219" style="stroke:#181818;stroke-width:1.0;"/><line style="stroke:#181818;stroke-width:1.0;" x1="625.5" x2="1247.5" y1="183.9219" y2="183.9219"/><text fill="#000000" font-family="sans-serif" font-size="13" lengthAdjust="spacing" textLength="322" x="632.5" y="179.0654">POST /order/checkouts/{checkout_id}/process-payment</text><polygon fill="#181818" points="1501.5,210.2734,1511.5,214.2734,1501.5,218.2734,1505.5,214.2734" style="stroke:#181818;stroke-width:1.0;"/><line style="stroke:#181818;stroke-width:1.0;" x1="1263.5" x2="1507.5" y1="214.2734" y2="214.2734"/><text fill="#000000" font-family="sans-serif" font-size="13" lengthAdjust="spacing" textLength="120" x="1270.5" y="209.417">find by {checkout_id}</text><text fill="#000000" font-family="sans-serif" font-size="14" lengthAdjust="spacing" textLength="60" x="1513.5" y="238.4551">Checkout</text><ellipse cx="1546.5" cy="207.9219" fill="#3498DB" rx="12" ry="12" style="stroke:#181818;stroke-width:0.5;"/><line style="stroke:#181818;stroke-width:0.5;" x1="1534.5" x2="1558.5" y1="221.9219" y2="221.9219"/><polygon fill="#181818" points="1274.5,269.8828,1264.5,273.8828,1274.5,277.8828,1270.5,273.8828" style="stroke:#181818;stroke-width:1.0;"/><line style="stroke:#181818;stroke-width:1.0;stroke-dasharray:2.0,2.0;" x1="1268.5" x2="1545.5" y1="273.8828" y2="273.8828"/><text fill="#000000" font-family="sans-serif" font-size="13" lengthAdjust="spacing" textLength="53" x="1280.5" y="269.0264">checkout</text><polygon fill="#181818" points="1898.5,300.2344,1908.5,304.2344,1898.5,308.2344,1902.5,304.2344" style="stroke:#181818;stroke-width:1.0;"/><line style="stroke:#181818;stroke-width:1.0;" x1="1263.5" x2="1904.5" y1="304.2344" y2="304.2344"/><text fill="#000000" font-family="sans-serif" font-size="13" lengthAdjust="spacing" textLength="487" x="1270.5" y="299.3779">POST /promotion/promotions/{PROMOCODE}/usage {checkout_id, state: APPLIED}</text><path d="M10,319.2344 L71,319.2344 L71,327.5859 L61,337.5859 L10,337.5859 L10,319.2344 " fill="#EEEEEE" style="stroke:#000000;stroke-width:1.5;"/><rect fill="none" height="185.9453" style="stroke:#000000;stroke-width:1.5;" width="1980" x="10" y="319.2344"/><text fill="#000000" font-family="sans-serif" font-size="13" font-weight="bold" lengthAdjust="spacing" textLength="16" x="25" y="333.7295">alt</text><text fill="#000000" font-family="sans-serif" font-size="11" font-weight="bold" lengthAdjust="spacing" textLength="82" x="86" y="332.6533">["Fail to apply"]</text><polygon fill="#181818" points="1274.5,355.9375,1264.5,359.9375,1274.5,363.9375,1270.5,359.9375" style="stroke:#181818;stroke-width:1.0;"/><line style="stroke:#181818;stroke-width:1.0;stroke-dasharray:2.0,2.0;" x1="1268.5" x2="1909.5" y1="359.9375" y2="359.9375"/><text fill="#000000" font-family="sans-serif" font-size="13" lengthAdjust="spacing" textLength="623" x="1280.5" y="355.0811">422 UNPROCESSABLE CONTENT {ERROR_CODE: PROMOCODE_RAN_OUT| PROMOCODE_EXPIRED}</text><polygon fill="#181818" points="1534.5,386.2891,1544.5,390.2891,1534.5,394.2891,1538.5,390.2891" style="stroke:#181818;stroke-width:1.0;"/><line style="stroke:#181818;stroke-width:1.0;stroke-dasharray:2.0,2.0;" x1="1263.5" x2="1540.5" y1="390.2891" y2="390.2891"/><text fill="#000000" font-family="sans-serif" font-size="13" lengthAdjust="spacing" textLength="118" x="1270.5" y="385.4326">Remove promo code</text><polygon fill="#181818" points="636.5,416.6406,626.5,420.6406,636.5,424.6406,632.5,420.6406" style="stroke:#181818;stroke-width:1.0;"/><line style="stroke:#181818;stroke-width:1.0;stroke-dasharray:2.0,2.0;" x1="630.5" x2="1252.5" y1="420.6406" y2="420.6406"/><text fill="#000000" font-family="sans-serif" font-size="13" lengthAdjust="spacing" textLength="536" x="642.5" y="415.7842">400 BAD REQUEST {ERROR_CODE: PROMOCODE_RAN_OUT| PROMOCODE_EXPIRED}</text><polygon fill="#181818" points="64.5,446.9922,54.5,450.9922,64.5,454.9922,60.5,450.9922" style="stroke:#181818;stroke-width:1.0;"/><line style="stroke:#181818;stroke-width:1.0;stroke-dasharray:2.0,2.0;" x1="58.5" x2="614.5" y1="450.9922" y2="450.9922"/><text fill="#000000" font-family="sans-serif" font-size="13" lengthAdjust="spacing" textLength="302" x="70.5" y="446.1357">PROMOCODE ran out of usage| Promocode expired</text><line style="stroke:#000000;stroke-width:1.0;stroke-dasharray:2.0,2.0;" x1="10" x2="1990" y1="459.9922" y2="459.9922"/><text fill="#000000" font-family="sans-serif" font-size="11" font-weight="bold" lengthAdjust="spacing" textLength="122" x="15" y="471.4111">["Apply successfully"]</text><polygon fill="#181818" points="1274.5,493.1797,1264.5,497.1797,1274.5,501.1797,1270.5,497.1797" style="stroke:#181818;stroke-width:1.0;"/><line style="stroke:#181818;stroke-width:1.0;stroke-dasharray:2.0,2.0;" x1="1268.5" x2="1909.5" y1="497.1797" y2="497.1797"/><text fill="#000000" font-family="sans-serif" font-size="13" lengthAdjust="spacing" textLength="86" x="1280.5" y="492.3232">201 CREATED</text><polygon fill="#181818" points="2164.5,530.5313,2174.5,534.5313,2164.5,538.5313,2168.5,534.5313" style="stroke:#181818;stroke-width:1.0;"/><line style="stroke:#181818;stroke-width:1.0;" x1="1263.5" x2="2170.5" y1="534.5313" y2="534.5313"/><text fill="#000000" font-family="sans-serif" font-size="13" lengthAdjust="spacing" textLength="293" x="1270.5" y="529.6748">POST /inventory/products/stocks { product_items }</text><path d="M1268,547.5313 L1268,622.5313 L1460,622.5313 L1460,557.5313 L1450,547.5313 L1268,547.5313 " fill="#FEFFDD" style="stroke:#181818;stroke-width:0.5;"/><path d="M1450,547.5313 L1450,557.5313 L1460,557.5313 L1450,547.5313 " fill="#FEFFDD" style="stroke:#181818;stroke-width:0.5;"/><text fill="#000000" font-family="sans-serif" font-size="13" lengthAdjust="spacing" textLength="171" x="1274" y="566.0264">lock stocks for product_items</text><text fill="#000000" font-family="sans-serif" font-size="13" lengthAdjust="spacing" textLength="86" x="1274" y="582.3779">product_items:</text><text fill="#000000" font-family="sans-serif" font-size="13" lengthAdjust="spacing" textLength="68" x="1282" y="598.7295">- product_id</text><text fill="#000000" font-family="sans-serif" font-size="13" lengthAdjust="spacing" textLength="54" x="1282" y="615.0811">- quantity</text><polygon fill="#181818" points="1274.5,646.2891,1264.5,650.2891,1274.5,654.2891,1270.5,650.2891" style="stroke:#181818;stroke-width:1.0;"/><line style="stroke:#181818;stroke-width:1.0;stroke-dasharray:2.0,2.0;" x1="1268.5" x2="2180.5" y1="650.2891" y2="650.2891"/><text fill="#000000" font-family="sans-serif" font-size="13" lengthAdjust="spacing" textLength="172" x="1280.5" y="645.4326">confirmation { product_items }</text><path d="M2186,663.2891 L2186,771.2891 L2445,771.2891 L2445,673.2891 L2435,663.2891 L2186,663.2891 " fill="#FEFFDD" style="stroke:#181818;stroke-width:0.5;"/><path d="M2435,663.2891 L2435,673.2891 L2445,673.2891 L2435,663.2891 " fill="#FEFFDD" style="stroke:#181818;stroke-width:0.5;"/><text fill="#000000" font-family="sans-serif" font-size="13" lengthAdjust="spacing" textLength="238" x="2192" y="681.7842">Stock confirmation, list out state of stock</text><text fill="#000000" font-family="sans-serif" font-size="13" lengthAdjust="spacing" textLength="4" x="2192" y="698.1357">{</text><text fill="#000000" font-family="sans-serif" font-size="13" lengthAdjust="spacing" textLength="128" x="2200" y="714.4873">&lt;product_id_01&gt;: OK,</text><text fill="#000000" font-family="sans-serif" font-size="13" lengthAdjust="spacing" textLength="211" x="2200" y="730.8389">&lt;product_id_02&gt;: OUT_OF_STOCK,</text><text fill="#000000" font-family="sans-serif" font-size="13" lengthAdjust="spacing" textLength="124" x="2200" y="747.1904">&lt;product_id_03&gt;: OK</text><text fill="#000000" font-family="sans-serif" font-size="13" lengthAdjust="spacing" textLength="4" x="2192" y="763.542">}</text><path d="M10,783.3984 L71,783.3984 L71,791.75 L61,801.75 L10,801.75 L10,783.3984 " fill="#EEEEEE" style="stroke:#000000;stroke-width:1.5;"/><rect fill="none" height="109.4063" style="stroke:#000000;stroke-width:1.5;" width="1980" x="10" y="783.3984"/><text fill="#000000" font-family="sans-serif" font-size="13" font-weight="bold" lengthAdjust="spacing" textLength="16" x="25" y="797.8936">alt</text><text fill="#000000" font-family="sans-serif" font-size="11" font-weight="bold" lengthAdjust="spacing" textLength="106" x="86" y="796.8174">["any out of stock"]</text><polygon fill="#181818" points="1903.5,820.1016,1913.5,824.1016,1903.5,828.1016,1907.5,824.1016" style="stroke:#181818;stroke-width:1.0;"/><line style="stroke:#181818;stroke-width:1.0;stroke-dasharray:2.0,2.0;" x1="1263.5" x2="1909.5" y1="824.1016" y2="824.1016"/><text fill="#000000" font-family="sans-serif" font-size="13" lengthAdjust="spacing" textLength="192" x="1270.5" y="819.2451">Event: rollback promocode usage</text><polygon fill="#181818" points="636.5,850.4531,626.5,854.4531,636.5,858.4531,632.5,854.4531" style="stroke:#181818;stroke-width:1.0;"/><line style="stroke:#181818;stroke-width:1.0;stroke-dasharray:2.0,2.0;" x1="630.5" x2="1252.5" y1="854.4531" y2="854.4531"/><text fill="#000000" font-family="sans-serif" font-size="13" lengthAdjust="spacing" textLength="604" x="642.5" y="849.5967">400 Bad Request { ERROR_CODE: OUT_OF_STOCK, payload: { &lt;product_id_02&gt;: OUT_OF_STOCK } }</text><polygon fill="#181818" points="64.5,880.8047,54.5,884.8047,64.5,888.8047,60.5,884.8047" style="stroke:#181818;stroke-width:1.0;"/><line style="stroke:#181818;stroke-width:1.0;stroke-dasharray:2.0,2.0;" x1="58.5" x2="614.5" y1="884.8047" y2="884.8047"/><text fill="#000000" font-family="sans-serif" font-size="13" lengthAdjust="spacing" textLength="98" x="70.5" y="879.9482">out of stock error</text><polygon fill="#181818" points="1534.5,918.1563,1544.5,922.1563,1534.5,926.1563,1538.5,922.1563" style="stroke:#181818;stroke-width:1.0;"/><line style="stroke:#181818;stroke-width:1.0;" x1="1263.5" x2="1540.5" y1="922.1563" y2="922.1563"/><text fill="#000000" font-family="sans-serif" font-size="13" lengthAdjust="spacing" textLength="259" x="1270.5" y="917.2998">update { status=PAYMENT_PROCESSING }</text><polygon fill="#181818" points="2033,948.5078,2043,952.5078,2033,956.5078,2037,952.5078" style="stroke:#181818;stroke-width:1.0;"/><line style="stroke:#181818;stroke-width:1.0;" x1="1263.5" x2="2039" y1="952.5078" y2="952.5078"/><text fill="#000000" font-family="sans-serif" font-size="13" lengthAdjust="spacing" textLength="227" x="1270.5" y="947.6514">POST /payment/payments { checkout }</text><path d="M1268,965.5078 L1268,1056.5078 L1405,1056.5078 L1405,975.5078 L1395,965.5078 L1268,965.5078 " fill="#FEFFDD" style="stroke:#181818;stroke-width:0.5;"/><path d="M1395,965.5078 L1395,975.5078 L1405,975.5078 L1395,965.5078 " fill="#FEFFDD" style="stroke:#181818;stroke-width:0.5;"/><text fill="#000000" font-family="sans-serif" font-size="13" lengthAdjust="spacing" textLength="109" x="1274" y="984.0029">checkout includes:</text><text fill="#000000" font-family="sans-serif" font-size="13" lengthAdjust="spacing" textLength="108" x="1282" y="1000.3545">- payment_method</text><text fill="#000000" font-family="sans-serif" font-size="13" lengthAdjust="spacing" textLength="90" x="1282" y="1016.7061">- product_items</text><text fill="#000000" font-family="sans-serif" font-size="13" lengthAdjust="spacing" textLength="92" x="1282" y="1033.0576">- shipment_fees</text><text fill="#000000" font-family="sans-serif" font-size="13" lengthAdjust="spacing" textLength="40" x="1282" y="1049.4092">- taxes</text><polygon fill="#181818" points="3188,1080.6172,3198,1084.6172,3188,1088.6172,3192,1084.6172" style="stroke:#181818;stroke-width:1.0;"/><line style="stroke:#181818;stroke-width:1.0;" x1="2055" x2="3194" y1="1084.6172" y2="1084.6172"/><text fill="#000000" font-family="sans-serif" font-size="13" lengthAdjust="spacing" textLength="1121" x="2062" y="1079.7607">create { status=(payment_type is COD ? PROCESSING : NEW), payment_provider_checkout_id, checkout_id, product_items, shipment_fees, taxes, payment_type: checkout.payment_method }</text><text fill="#000000" font-family="sans-serif" font-size="14" lengthAdjust="spacing" textLength="119" x="3200" y="1108.7988">Checkout Payment</text><ellipse cx="3262.5" cy="1078.2656" fill="#73C6B6" rx="12" ry="12" style="stroke:#181818;stroke-width:0.5;"/><line style="stroke:#181818;stroke-width:0.5;" x1="3250.5" x2="3274.5" y1="1092.2656" y2="1092.2656"/><polygon fill="#181818" points="1274.5,1140.2266,1264.5,1144.2266,1274.5,1148.2266,1270.5,1144.2266" style="stroke:#181818;stroke-width:1.0;"/><line style="stroke:#181818;stroke-width:1.0;stroke-dasharray:2.0,2.0;" x1="1268.5" x2="2049" y1="1144.2266" y2="1144.2266"/><text fill="#000000" font-family="sans-serif" font-size="13" lengthAdjust="spacing" textLength="110" x="1280.5" y="1139.3701">checkout_payment</text><path d="M1268,1157.2266 L1268,1232.2266 L1483,1232.2266 L1483,1167.2266 L1473,1157.2266 L1268,1157.2266 " fill="#FEFFDD" style="stroke:#181818;stroke-width:0.5;"/><path d="M1473,1157.2266 L1473,1167.2266 L1483,1167.2266 L1473,1157.2266 " fill="#FEFFDD" style="stroke:#181818;stroke-width:0.5;"/><text fill="#000000" font-family="sans-serif" font-size="13" lengthAdjust="spacing" textLength="114" x="1274" y="1175.7217">checkout_payment:</text><text fill="#000000" font-family="sans-serif" font-size="13" lengthAdjust="spacing" textLength="186" x="1282" y="1192.0732">- payment_provider_checkout_id</text><text fill="#000000" font-family="sans-serif" font-size="13" lengthAdjust="spacing" textLength="61" x="1282" y="1208.4248">- checkout</text><text fill="#000000" font-family="sans-serif" font-size="13" lengthAdjust="spacing" textLength="90" x="1282" y="1224.7764">- payment_type</text><polygon fill="#181818" points="636.5,1255.9844,626.5,1259.9844,636.5,1263.9844,632.5,1259.9844" style="stroke:#181818;stroke-width:1.0;"/><line style="stroke:#181818;stroke-width:1.0;stroke-dasharray:2.0,2.0;" x1="630.5" x2="1252.5" y1="1259.9844" y2="1259.9844"/><text fill="#000000" font-family="sans-serif" font-size="13" lengthAdjust="spacing" textLength="110" x="642.5" y="1255.1279">checkout_payment</text><polygon fill="#181818" points="2066,1286.3359,2056,1290.3359,2066,1294.3359,2062,1290.3359" style="stroke:#181818;stroke-width:1.0;"/><line style="stroke:#181818;stroke-width:1.0;stroke-dasharray:2.0,2.0;" x1="2060" x2="3261.5" y1="1290.3359" y2="1290.3359"/><text fill="#000000" font-family="sans-serif" font-size="13" lengthAdjust="spacing" textLength="113" x="2072" y="1285.4795">[CDC Create Event]</text><path d="M1980,1305.3359 L2041,1305.3359 L2041,1313.6875 L2031,1323.6875 L1980,1323.6875 L1980,1305.3359 " fill="#EEEEEE" style="stroke:#000000;stroke-width:1.5;"/><rect fill="none" height="199.3672" style="stroke:#000000;stroke-width:1.5;" width="2056" x="1980" y="1305.3359"/><text fill="#000000" font-family="sans-serif" font-size="13" font-weight="bold" lengthAdjust="spacing" textLength="16" x="1995" y="1319.8311">alt</text><text fill="#000000" font-family="sans-serif" font-size="11" font-weight="bold" lengthAdjust="spacing" textLength="153" x="2056" y="1318.7549">[payment_type is NOT COD:]</text><polygon fill="#181818" points="3525,1342.0391,3535,1346.0391,3525,1350.0391,3529,1346.0391" style="stroke:#181818;stroke-width:1.0;"/><line style="stroke:#181818;stroke-width:1.0;" x1="2055" x2="3531" y1="1346.0391" y2="1346.0391"/><text fill="#000000" font-family="sans-serif" font-size="13" lengthAdjust="spacing" textLength="448" x="2062" y="1341.1826">POST /checkout/orders { checkout_id, product_items, shipment_fees, taxes }</text><polygon fill="#181818" points="3828,1372.3906,3838,1376.3906,3828,1380.3906,3832,1376.3906" style="stroke:#181818;stroke-width:1.0;"/><line style="stroke:#181818;stroke-width:1.0;" x1="3547" x2="3834" y1="1376.3906" y2="1376.3906"/><text fill="#000000" font-family="sans-serif" font-size="13" lengthAdjust="spacing" textLength="93" x="3554" y="1371.5342">create checkout</text><text fill="#000000" font-family="sans-serif" font-size="14" lengthAdjust="spacing" textLength="180" x="3840" y="1400.5723">Payment Provider: Checkout</text><ellipse cx="3933" cy="1370.0391" fill="#73C6B6" rx="12" ry="12" style="stroke:#181818;stroke-width:0.5;"/><line style="stroke:#181818;stroke-width:0.5;" x1="3921" x2="3945" y1="1384.0391" y2="1384.0391"/><polygon fill="#181818" points="3558,1432,3548,1436,3558,1440,3554,1436" style="stroke:#181818;stroke-width:1.0;"/><line style="stroke:#181818;stroke-width:1.0;stroke-dasharray:2.0,2.0;" x1="3552" x2="3932" y1="1436" y2="1436"/><text fill="#000000" font-family="sans-serif" font-size="13" lengthAdjust="spacing" textLength="194" x="3564" y="1431.1436">{ payment_provider_checkout_id }</text><polygon fill="#181818" points="2066,1462.3516,2056,1466.3516,2066,1470.3516,2062,1466.3516" style="stroke:#181818;stroke-width:1.0;"/><line style="stroke:#181818;stroke-width:1.0;stroke-dasharray:2.0,2.0;" x1="2060" x2="3541" y1="1466.3516" y2="1466.3516"/><text fill="#000000" font-family="sans-serif" font-size="13" lengthAdjust="spacing" textLength="272" x="2072" y="1461.4951">{ checkout_id, payment_provider_checkout_id }</text><polygon fill="#181818" points="3250.5,1492.7031,3260.5,1496.7031,3250.5,1500.7031,3254.5,1496.7031" style="stroke:#181818;stroke-width:1.0;"/><line style="stroke:#181818;stroke-width:1.0;" x1="2055" x2="3256.5" y1="1496.7031" y2="1496.7031"/><text fill="#000000" font-family="sans-serif" font-size="13" lengthAdjust="spacing" textLength="375" x="2062" y="1491.8467">update { status=PROCESSING, payment_provider_checkout_id }</text><path d="M572,1518.7031 L645,1518.7031 L645,1527.0547 L635,1537.0547 L572,1537.0547 L572,1518.7031 " fill="#EEEEEE" style="stroke:#000000;stroke-width:1.5;"/><rect fill="none" height="79.0547" style="stroke:#000000;stroke-width:1.5;" width="1548" x="572" y="1518.7031"/><text fill="#000000" font-family="sans-serif" font-size="13" font-weight="bold" lengthAdjust="spacing" textLength="28" x="587" y="1533.1982">loop</text><text fill="#000000" font-family="sans-serif" font-size="11" font-weight="bold" lengthAdjust="spacing" textLength="701" x="660" y="1532.1221">[reload to get payment information util payment status is PROCESSING and payment_provider_checkout_id existing (if not COD)]</text><polygon fill="#181818" points="2033,1555.4063,2043,1559.4063,2033,1563.4063,2037,1559.4063" style="stroke:#181818;stroke-width:1.0;"/><line style="stroke:#181818;stroke-width:1.0;" x1="625.5" x2="2039" y1="1559.4063" y2="1559.4063"/><text fill="#000000" font-family="sans-serif" font-size="13" lengthAdjust="spacing" textLength="284" x="632.5" y="1554.5498">GET /payment/payments/checkout/{checkout_id}</text><polygon fill="#181818" points="636.5,1585.7578,626.5,1589.7578,636.5,1593.7578,632.5,1589.7578" style="stroke:#181818;stroke-width:1.0;"/><line style="stroke:#181818;stroke-width:1.0;stroke-dasharray:2.0,2.0;" x1="630.5" x2="2049" y1="1589.7578" y2="1589.7578"/><text fill="#000000" font-family="sans-serif" font-size="13" lengthAdjust="spacing" textLength="332" x="642.5" y="1584.9014">{ status=PROCESSING, payment_provider_checkout_id }</text><polygon fill="#181818" points="69.5,1623.1094,59.5,1627.1094,69.5,1631.1094,65.5,1627.1094" style="stroke:#181818;stroke-width:1.0;"/><line style="stroke:#181818;stroke-width:1.0;stroke-dasharray:2.0,2.0;" x1="63.5" x2="619.5" y1="1627.1094" y2="1627.1094"/><text fill="#000000" font-family="sans-serif" font-size="13" lengthAdjust="spacing" textLength="538" x="75.5" y="1622.2529">redirect to payment_provider : Payment Provider: Checkout { payment_provider_checkout_id }</text><polygon fill="#181818" points="3525,1653.4609,3535,1657.4609,3525,1661.4609,3529,1657.4609" style="stroke:#181818;stroke-width:1.0;"/><line style="stroke:#181818;stroke-width:1.0;" x1="53.5" x2="3531" y1="1657.4609" y2="1657.4609"/><text fill="#000000" font-family="sans-serif" font-size="13" lengthAdjust="spacing" textLength="298" x="60.5" y="1652.6045">execute payment { payment_provider_checkout_id }</text><polygon fill="#181818" points="3921,1683.8125,3931,1687.8125,3921,1691.8125,3925,1687.8125" style="stroke:#181818;stroke-width:1.0;"/><line style="stroke:#181818;stroke-width:1.0;" x1="3547" x2="3927" y1="1687.8125" y2="1687.8125"/><text fill="#000000" font-family="sans-serif" font-size="13" lengthAdjust="spacing" textLength="362" x="3554" y="1682.9561">update { status=COMPETED, payment_provider_checkout_id }</text><polygon fill="#181818" points="2066,1714.1641,2056,1718.1641,2066,1722.1641,2062,1718.1641" style="stroke:#181818;stroke-width:1.0;"/><line style="stroke:#181818;stroke-width:1.0;stroke-dasharray:2.0,2.0;" x1="2060" x2="3536" y1="1718.1641" y2="1718.1641"/><text fill="#000000" font-family="sans-serif" font-size="13" lengthAdjust="spacing" textLength="455" x="2072" y="1713.3076">{ checkout_id, payment_provider_checkout_id, status=COMPETED/FAILURE }</text><polygon fill="#181818" points="3250.5,1744.5156,3260.5,1748.5156,3250.5,1752.5156,3254.5,1748.5156" style="stroke:#181818;stroke-width:1.0;"/><line style="stroke:#181818;stroke-width:1.0;" x1="2055" x2="3256.5" y1="1748.5156" y2="1748.5156"/><text fill="#000000" font-family="sans-serif" font-size="13" lengthAdjust="spacing" textLength="183" x="2062" y="1743.6592">update { status=COMPLETED }</text><polygon fill="#181818" points="3385,1774.8672,3395,1778.8672,3385,1782.8672,3389,1778.8672" style="stroke:#181818;stroke-width:1.0;"/><line style="stroke:#181818;stroke-width:1.0;stroke-dasharray:2.0,2.0;" x1="2055" x2="3391" y1="1778.8672" y2="1778.8672"/><text fill="#000000" font-family="sans-serif" font-size="13" lengthAdjust="spacing" textLength="284" x="2062" y="1774.0107">Event: PaymentCompleted { checkout_payment }</text><polygon fill="#181818" points="64.5,1805.2188,54.5,1809.2188,64.5,1813.2188,60.5,1809.2188" style="stroke:#181818;stroke-width:1.0;"/><line style="stroke:#181818;stroke-width:1.0;stroke-dasharray:2.0,2.0;" x1="58.5" x2="3401" y1="1809.2188" y2="1809.2188"/><text fill="#000000" font-family="sans-serif" font-size="13" lengthAdjust="spacing" textLength="201" x="70.5" y="1804.3623">notification for payment completion</text><polygon fill="#181818" points="1274.5,1835.5703,1264.5,1839.5703,1274.5,1843.5703,1270.5,1839.5703" style="stroke:#181818;stroke-width:1.0;"/><line style="stroke:#181818;stroke-width:1.0;stroke-dasharray:2.0,2.0;" x1="1268.5" x2="2049" y1="1839.5703" y2="1839.5703"/><text fill="#000000" font-family="sans-serif" font-size="13" lengthAdjust="spacing" textLength="244" x="1280.5" y="1834.7139">Event: PaymentCompleted { checkout_id }</text><polygon fill="#181818" points="1534.5,1865.9219,1544.5,1869.9219,1534.5,1873.9219,1538.5,1869.9219" style="stroke:#181818;stroke-width:1.0;"/><line style="stroke:#181818;stroke-width:1.0;" x1="1263.5" x2="1540.5" y1="1869.9219" y2="1869.9219"/><text fill="#000000" font-family="sans-serif" font-size="13" lengthAdjust="spacing" textLength="250" x="1270.5" y="1865.0654">update { status=PAYMENT_CONFIRMED }</text><polygon fill="#181818" points="1600.5,1896.2734,1610.5,1900.2734,1600.5,1904.2734,1604.5,1900.2734" style="stroke:#181818;stroke-width:1.0;"/><line style="stroke:#181818;stroke-width:1.0;" x1="1263.5" x2="1606.5" y1="1900.2734" y2="1900.2734"/><text fill="#000000" font-family="sans-serif" font-size="13" lengthAdjust="spacing" textLength="325" x="1270.5" y="1895.417">create { checkout_id, status=PAYMENT_CONFIRMED }</text><text fill="#000000" font-family="sans-serif" font-size="14" lengthAdjust="spacing" textLength="37" x="1612.5" y="1924.4551">Order</text><ellipse cx="1634" cy="1893.9219" fill="#3498DB" rx="12" ry="12" style="stroke:#181818;stroke-width:0.5;"/><line style="stroke:#181818;stroke-width:0.5;" x1="1622" x2="1646" y1="1907.9219" y2="1907.9219"/><polygon fill="#181818" points="1274.5,1955.8828,1264.5,1959.8828,1274.5,1963.8828,1270.5,1959.8828" style="stroke:#181818;stroke-width:1.0;"/><line style="stroke:#181818;stroke-width:1.0;stroke-dasharray:2.0,2.0;" x1="1268.5" x2="1633" y1="1959.8828" y2="1959.8828"/><text fill="#000000" font-family="sans-serif" font-size="13" lengthAdjust="spacing" textLength="29" x="1280.5" y="1955.0264">order</text><polygon fill="#181818" points="1706,1986.2344,1716,1990.2344,1706,1994.2344,1710,1990.2344" style="stroke:#181818;stroke-width:1.0;"/><line style="stroke:#181818;stroke-width:1.0;stroke-dasharray:2.0,2.0;" x1="1263.5" x2="1712" y1="1990.2344" y2="1990.2344"/><text fill="#000000" font-family="sans-serif" font-size="13" lengthAdjust="spacing" textLength="311" x="1270.5" y="1985.3779">DELETE cart/items?{products:[{productIds, quantity}]}</text><polygon fill="#181818" points="3385,2000.2344,3395,2004.2344,3385,2008.2344,3389,2004.2344" style="stroke:#181818;stroke-width:1.0;"/><line style="stroke:#181818;stroke-width:1.0;stroke-dasharray:2.0,2.0;" x1="1263.5" x2="3391" y1="2004.2344" y2="2004.2344"/><polygon fill="#181818" points="64.5,2030.5859,54.5,2034.5859,64.5,2038.5859,60.5,2034.5859" style="stroke:#181818;stroke-width:1.0;"/><line style="stroke:#181818;stroke-width:1.0;stroke-dasharray:2.0,2.0;" x1="58.5" x2="3401" y1="2034.5859" y2="2034.5859"/><text fill="#000000" font-family="sans-serif" font-size="13" lengthAdjust="spacing" textLength="163" x="70.5" y="2029.7295">notification for order creation</text><polygon fill="#181818" points="69.5,2060.9375,59.5,2064.9375,69.5,2068.9375,65.5,2064.9375" style="stroke:#181818;stroke-width:1.0;"/><line style="stroke:#181818;stroke-width:1.0;stroke-dasharray:2.0,2.0;" x1="63.5" x2="3541" y1="2064.9375" y2="2064.9375"/><text fill="#000000" font-family="sans-serif" font-size="13" lengthAdjust="spacing" textLength="217" x="75.5" y="2060.0811">redirect to storefront with confirmation</text><polygon fill="#181818" points="603.5,2091.2891,613.5,2095.2891,603.5,2099.2891,607.5,2095.2891" style="stroke:#181818;stroke-width:1.0;"/><line style="stroke:#181818;stroke-width:1.0;" x1="53.5" x2="609.5" y1="2095.2891" y2="2095.2891"/><text fill="#000000" font-family="sans-serif" font-size="13" lengthAdjust="spacing" textLength="102" x="60.5" y="2090.4326">confirmation page</text><polygon fill="#181818" points="64.5,2121.6406,54.5,2125.6406,64.5,2129.6406,60.5,2125.6406" style="stroke:#181818;stroke-width:1.0;"/><line style="stroke:#181818;stroke-width:1.0;stroke-dasharray:2.0,2.0;" x1="58.5" x2="614.5" y1="2125.6406" y2="2125.6406"/><text fill="#000000" font-family="sans-serif" font-size="13" lengthAdjust="spacing" textLength="158" x="70.5" y="2120.7842">show payment confirmation</text><path d="M10,2140.6406 L83,2140.6406 L83,2148.9922 L73,2158.9922 L10,2158.9922 L10,2140.6406 " fill="#EEEEEE" style="stroke:#000000;stroke-width:1.5;"/><rect fill="none" height="170.1094" style="stroke:#000000;stroke-width:1.5;" width="1655.5" x="10" y="2140.6406"/><text fill="#000000" font-family="sans-serif" font-size="13" font-weight="bold" lengthAdjust="spacing" textLength="28" x="25" y="2155.1357">loop</text><text fill="#000000" font-family="sans-serif" font-size="11" font-weight="bold" lengthAdjust="spacing" textLength="122" x="98" y="2154.0596">["reload to get order"]</text><polygon fill="#181818" points="1241.5,2177.3438,1251.5,2181.3438,1241.5,2185.3438,1245.5,2181.3438" style="stroke:#181818;stroke-width:1.0;"/><line style="stroke:#181818;stroke-width:1.0;" x1="625.5" x2="1247.5" y1="2181.3438" y2="2181.3438"/><text fill="#000000" font-family="sans-serif" font-size="13" lengthAdjust="spacing" textLength="242" x="632.5" y="2176.4873">GET /order/orders/checkout/{checkout_id}</text><polygon fill="#181818" points="1617,2207.6953,1627,2211.6953,1617,2215.6953,1621,2211.6953" style="stroke:#181818;stroke-width:1.0;"/><line style="stroke:#181818;stroke-width:1.0;" x1="1263.5" x2="1623" y1="2211.6953" y2="2211.6953"/><text fill="#000000" font-family="sans-serif" font-size="13" lengthAdjust="spacing" textLength="153" x="1270.5" y="2206.8389">find order by {checkout_id}</text><polygon fill="#181818" points="1274.5,2238.0469,1264.5,2242.0469,1274.5,2246.0469,1270.5,2242.0469" style="stroke:#181818;stroke-width:1.0;"/><line style="stroke:#181818;stroke-width:1.0;stroke-dasharray:2.0,2.0;" x1="1268.5" x2="1633" y1="2242.0469" y2="2242.0469"/><text fill="#000000" font-family="sans-serif" font-size="13" lengthAdjust="spacing" textLength="29" x="1280.5" y="2237.1904">order</text><polygon fill="#181818" points="636.5,2268.3984,626.5,2272.3984,636.5,2276.3984,632.5,2272.3984" style="stroke:#181818;stroke-width:1.0;"/><line style="stroke:#181818;stroke-width:1.0;stroke-dasharray:2.0,2.0;" x1="630.5" x2="1257.5" y1="2272.3984" y2="2272.3984"/><text fill="#000000" font-family="sans-serif" font-size="13" lengthAdjust="spacing" textLength="29" x="642.5" y="2267.542">order</text><polygon fill="#181818" points="64.5,2298.75,54.5,2302.75,64.5,2306.75,60.5,2302.75" style="stroke:#181818;stroke-width:1.0;"/><line style="stroke:#181818;stroke-width:1.0;stroke-dasharray:2.0,2.0;" x1="58.5" x2="614.5" y1="2302.75" y2="2302.75"/><text fill="#000000" font-family="sans-serif" font-size="13" lengthAdjust="spacing" textLength="133" x="70.5" y="2297.8936">redirect to order details</text><!--SRC=[jLXRRzis57xthpXmNjh1dfqBsaJeMhYoKXXBBCzsi1L5OIWIbGYLBLMIqnXk_lj8YgH8aLAS3ijBh4EUAxzp8OkeY17ClDqQRGguZ9CVdOxd5qa6zZOlaZNAmCl1vx-FGYzuwmqxdTla4JwF5Xt0VwcN5P4VfHwMq5rWNXHcoQRe4ivSV6BU83n15y3-T5Ot2x2A1SeU8XzHxeHGLdb9WQFJiulpu5OmOukZOWTT-nxvtv9jgT1d7totifDgg2GhUrGlxfCqZJPtO6DgwGYZh7nCWIFlmlVHgSuuov9rKaJ9Hl4ZvTJAbtClF0w71W7iA1JsabOnlptrtzo-qPadcmUyBybs2dl4gPBsuVdjnHjZ53aOb6Ykc0dDggVOlp3oFSttZRHG6S1mX3O142YLW1BEuoW-HFIeZf0NuaWrnwdQAWKgPKJ5NEvedTC21K1r6QiAKKmOCxhJ4MdHVoy1tIAIVOG2A18kZUHKzE0Lo9mGs3w9ZgKfmCS2tSKI1fGuuERaWxqudIXu6gH4QPxtkKO0eTEOHZGcwWfMB9pzxJSBmeXukWD5aO7lNRyl62tnown0ImNkdLYeVc4NPtFtshNTiVCqsERU7L9iwU6eOVyi6CrcLnDdNDect6xFEYyc9t1ySNRkGVVIYs9oN5wQnhjkYJQDkwyVpDd92TnCiP6sirYCFbuvOBlJfJDTmjwPpztvYfYEFUHUhEQZwSgzMVwKICu_iycS6r-BbtGY5ipHEdbWRe6V1AY1GuRYsN087qTZc3j_tJYBNpPBHYUnYG7VWee1Ccy313b92FIeVW8jXiHGG8zfbA6WpCCunoTnYq-2H7v48WxvrYVW3RVnYy9_CZm6U-wCbiwOjuHIHu2QKM36fLOaEIx50i5biFLnuc7d_Myvx85HLb61rZcKeSBr3a4MtTtJI2XwEcNdYp4tC1aXxhIA5BP7eLaTtZJxrK8W4RzlFLhSU0oe4Meoj3S1CAmRukqdcp3ArcMHDxjV3u0cLvYz815GHFOWZlA2WeWcDk6dSH8yU_4Bu5qLYjNm-Bq5xf-zfkKJidopNBcNgyNIjPitdb8vOfNxfCHK0fVPEwMqU9iTJmlgIvU9rFFMK1eT8jw2B8dZMmz7AnKPHLEiKPHM0hm0bu_lMuJ3kmUv1YXH8UqgJhp0mfjQumTF8ZIDfK5s6b2M9PcIeesjnu9j6f3WxYaAjlaViz7dQrnJLwpEJgQVuAcXkwYJakWj9Pd_9wah6jsXMIiOeeqVRmEaPYNJkqR5VHAOqbNARKBFxwEKSeG8oVJ2UsJV779GQshcMH1utQWjIt4LCnnfxNw6b12_uep5BiMmpd4V6yC7a29kmTJv-tMlUJwY3LdvK9plgJxtIbShUKHnDJpyhaPKe4qVFBGZh_jhB4kc4mQDrPBAHB_LSsMZCW7LkOcVprILcalr3aoyhXVc-XdpEvAsq3TboHTxR8DTGeAMdAyTnQ1wj0v38oc3TLXDtIM1bjK0Lpc7Kp6VbqdCNIddO3c73mMRG95cV_t2K1sSE4Djgy7KbJ8-inpJqA19ac6iYIArk0rvmYazcYQvbXQtGsGRmCdt7rvu38LTb9U3x23vqdacK-8aII53f8kHWVuE2GpYmesdBJQyR0iyyFE5qXe2JwdUULXPgqte4Gyhv8tWLHIID2QuVgrDouPi- -GOMb85R-MsTLZrrrkniJB-QjnR0yuEfN4Cm6C_7ltzGheDLyYteFas_Zpk9RigzTLLczk0hPDlwdf6e4VaRoldNgHOA7csfdHUM4FqTB7Twvc3xphF7HgjMhek4nPVK0nwTJC6bwF9rStSeIWv2AA_L2I8kYkYZw5H4uAbc1wPnFJC86OdwpH61Gfaf_cHrvuEMX-jn3oXRr6XBsyfRtfCcr-QWidr_399RVIwDWGSu2vBwTQ4_Y_FHispk-rEBoVpQt6AcWXA86spcarDu6kLPueA_MnwAP4VTIqOEmHdG3u6T8puiETtVkiB_pa9y3Z1BznFNvkURHeFyl_6M1a86iF3yTKowndhYBcyIptWHrJSAtVxJji8yLp9bg-poXj4IYx1hTLOVszjQrOO43-aB9NCPvD5LnqjQB2wXgPV0o5j-UNxRJczDhHx5I7D2TYKF-pDjiI0yUMsBhucrdJ3OfAhHDBnOXv06ZEn2MvYu3vecYZj3r3XHN7E9n7pJF0l]--></g></svg>