<?xml version="1.0" encoding="us-ascii" standalone="no"?><svg xmlns="http://www.w3.org/2000/svg" xmlns:xlink="http://www.w3.org/1999/xlink" contentStyleType="text/css" height="1533px" preserveAspectRatio="none" style="width:2694px;height:1533px;background:#FFFFFF;" version="1.1" viewBox="0 0 2694 1533" width="2694px" zoomAndPan="magnify"><defs/><g><text fill="#000000" font-family="sans-serif" font-size="14" font-weight="bold" lengthAdjust="spacing" textLength="96" x="1296.25" y="29.5332">Payment Flow</text><rect fill="#DDDDDD" height="1482.6641" style="stroke:#181818;stroke-width:0.5;" width="1553.5" x="578" y="44.6094"/><text fill="#000000" font-family="sans-serif" font-size="13" font-weight="bold" lengthAdjust="spacing" textLength="26" x="1341.75" y="58.1045">YAS</text><rect fill="#EAFAF1" height="1482.6641" style="stroke:#181818;stroke-width:0.5;" width="555" x="2133.5" y="44.6094"/><text fill="#000000" font-family="sans-serif" font-size="13" font-weight="bold" lengthAdjust="spacing" textLength="114" x="2354" y="58.1045">Payment Provider</text><rect fill="#FFFFFF" height="30.3516" style="stroke:#181818;stroke-width:1.0;" width="10" x="48.5" y="806.7266"/><rect fill="#FDF2E9" height="653.1563" style="stroke:#181818;stroke-width:1.0;" width="10" x="615.5" y="153.5703"/><rect fill="#FDF2E9" height="222.4609" style="stroke:#181818;stroke-width:1.0;" width="10" x="615.5" y="1214.2031"/><rect fill="#3498DB" height="592.4531" style="stroke:#181818;stroke-width:1.0;" width="10" x="966.5" y="183.9219"/><rect fill="#3498DB" height="134.3125" style="stroke:#181818;stroke-width:1.0;" width="10" x="966.5" y="1019.1875"/><rect fill="#3498DB" height="60.7031" style="stroke:#181818;stroke-width:1.0;" width="10" x="966.5" y="1300.2578"/><rect fill="#73C6B6" height="372.7344" style="stroke:#181818;stroke-width:1.0;" width="10" x="1433.5" y="304.2344"/><rect fill="#73C6B6" height="121.4063" style="stroke:#181818;stroke-width:1.0;" width="10" x="1433.5" y="897.7813"/><rect fill="#FAD7A0" height="30.3516" style="stroke:#181818;stroke-width:1.0;" width="10" x="2055.5" y="958.4844"/><rect fill="#FAD7A0" height="30.3516" style="stroke:#181818;stroke-width:1.0;" width="10" x="2055.5" y="1123.1484"/><rect fill="#73C6B6" height="120.3125" style="stroke:#181818;stroke-width:1.0;" width="10" x="2195.5" y="495.9531"/><rect fill="#73C6B6" height="346.7734" style="stroke:#181818;stroke-width:1.0;" width="10" x="2195.5" y="837.0781"/><rect fill="none" height="170.1094" style="stroke:#000000;stroke-width:1.5;" width="1368.5" x="10" y="1259.5547"/><line style="stroke:#181818;stroke-width:0.5;stroke-dasharray:5.0,5.0;" x1="53" x2="53" y1="121.2188" y2="1446.6641"/><line style="stroke:#181818;stroke-width:0.5;stroke-dasharray:5.0,5.0;" x1="620" x2="620" y1="121.2188" y2="1446.6641"/><line style="stroke:#181818;stroke-width:0.5;stroke-dasharray:5.0,5.0;" x1="971.5" x2="971.5" y1="121.2188" y2="1446.6641"/><line style="stroke:#181818;stroke-width:0.5;stroke-dasharray:5.0,5.0;" x1="1250.5" x2="1250.5" y1="231.7266" y2="1446.6641"/><line style="stroke:#181818;stroke-width:0.5;stroke-dasharray:5.0,5.0;" x1="1346.5" x2="1346.5" y1="1097.3438" y2="1446.6641"/><line style="stroke:#181818;stroke-width:0.5;stroke-dasharray:5.0,5.0;" x1="1438.5" x2="1438.5" y1="121.2188" y2="1446.6641"/><line style="stroke:#181818;stroke-width:0.5;stroke-dasharray:5.0,5.0;" x1="1920.5" x2="1920.5" y1="453.7969" y2="1446.6641"/><line style="stroke:#181818;stroke-width:0.5;stroke-dasharray:5.0,5.0;" x1="2060.5" x2="2060.5" y1="121.2188" y2="1446.6641"/><line style="stroke:#181818;stroke-width:0.5;stroke-dasharray:5.0,5.0;" x1="2200.5" x2="2200.5" y1="121.2188" y2="1446.6641"/><line style="stroke:#181818;stroke-width:0.5;stroke-dasharray:5.0,5.0;" x1="2591.5" x2="2591.5" y1="543.7578" y2="1446.6641"/><text fill="#000000" font-family="sans-serif" font-size="14" lengthAdjust="spacing" textLength="61" x="20" y="118.1426">Customer</text><ellipse cx="53.5" cy="52.1094" fill="#FAD7A0" rx="8" ry="8" style="stroke:#181818;stroke-width:0.5;"/><path d="M53.5,60.1094 L53.5,87.1094 M40.5,68.1094 L66.5,68.1094 M53.5,87.1094 L40.5,102.1094 M53.5,87.1094 L66.5,102.1094 " fill="none" style="stroke:#181818;stroke-width:0.5;"/><text fill="#000000" font-family="sans-serif" font-size="14" lengthAdjust="spacing" textLength="61" x="20" y="1460.1973">Customer</text><ellipse cx="53.5" cy="1471.7734" fill="#FAD7A0" rx="8" ry="8" style="stroke:#181818;stroke-width:0.5;"/><path d="M53.5,1479.7734 L53.5,1506.7734 M40.5,1487.7734 L66.5,1487.7734 M53.5,1506.7734 L40.5,1521.7734 M53.5,1506.7734 L66.5,1521.7734 " fill="none" style="stroke:#181818;stroke-width:0.5;"/><rect fill="#FDF2E9" height="31.6094" rx="2.5" ry="2.5" style="stroke:#181818;stroke-width:0.5;" width="77" x="582" y="88.6094"/><text fill="#000000" font-family="sans-serif" font-size="14" lengthAdjust="spacing" textLength="63" x="589" y="110.1426">Storefront</text><rect fill="#FDF2E9" height="31.6094" rx="2.5" ry="2.5" style="stroke:#181818;stroke-width:0.5;" width="77" x="582" y="1445.6641"/><text fill="#000000" font-family="sans-serif" font-size="14" lengthAdjust="spacing" textLength="63" x="589" y="1467.1973">Storefront</text><rect fill="#3498DB" height="31.6094" rx="2.5" ry="2.5" style="stroke:#181818;stroke-width:0.5;" width="102" x="920.5" y="88.6094"/><text fill="#000000" font-family="sans-serif" font-size="14" lengthAdjust="spacing" textLength="88" x="927.5" y="110.1426">Order Service</text><rect fill="#3498DB" height="31.6094" rx="2.5" ry="2.5" style="stroke:#181818;stroke-width:0.5;" width="102" x="920.5" y="1445.6641"/><text fill="#000000" font-family="sans-serif" font-size="14" lengthAdjust="spacing" textLength="88" x="927.5" y="1467.1973">Order Service</text><text fill="#000000" font-family="sans-serif" font-size="14" lengthAdjust="spacing" textLength="60" x="1217.5" y="1460.1973">Checkout</text><ellipse cx="1250.5" cy="1479.2734" fill="#3498DB" rx="12" ry="12" style="stroke:#181818;stroke-width:0.5;"/><line style="stroke:#181818;stroke-width:0.5;" x1="1238.5" x2="1262.5" y1="1493.2734" y2="1493.2734"/><text fill="#000000" font-family="sans-serif" font-size="14" lengthAdjust="spacing" textLength="37" x="1325.5" y="1460.1973">Order</text><ellipse cx="1347" cy="1479.2734" fill="#3498DB" rx="12" ry="12" style="stroke:#181818;stroke-width:0.5;"/><line style="stroke:#181818;stroke-width:0.5;" x1="1335" x2="1359" y1="1493.2734" y2="1493.2734"/><rect fill="#73C6B6" height="31.6094" rx="2.5" ry="2.5" style="stroke:#181818;stroke-width:0.5;" width="120" x="1378.5" y="88.6094"/><text fill="#000000" font-family="sans-serif" font-size="14" lengthAdjust="spacing" textLength="106" x="1385.5" y="110.1426">Payment Service</text><rect fill="#73C6B6" height="31.6094" rx="2.5" ry="2.5" style="stroke:#181818;stroke-width:0.5;" width="120" x="1378.5" y="1445.6641"/><text fill="#000000" font-family="sans-serif" font-size="14" lengthAdjust="spacing" textLength="106" x="1385.5" y="1467.1973">Payment Service</text><text fill="#000000" font-family="sans-serif" font-size="14" lengthAdjust="spacing" textLength="119" x="1858.5" y="1460.1973">Checkout Payment</text><ellipse cx="1921" cy="1479.2734" fill="#73C6B6" rx="12" ry="12" style="stroke:#181818;stroke-width:0.5;"/><line style="stroke:#181818;stroke-width:0.5;" x1="1909" x2="1933" y1="1493.2734" y2="1493.2734"/><rect fill="#FAD7A0" height="31.6094" rx="2.5" ry="2.5" style="stroke:#181818;stroke-width:0.5;" width="134" x="1993.5" y="88.6094"/><text fill="#000000" font-family="sans-serif" font-size="14" lengthAdjust="spacing" textLength="120" x="2000.5" y="110.1426">Notification Service</text><rect fill="#FAD7A0" height="31.6094" rx="2.5" ry="2.5" style="stroke:#181818;stroke-width:0.5;" width="134" x="1993.5" y="1445.6641"/><text fill="#000000" font-family="sans-serif" font-size="14" lengthAdjust="spacing" textLength="120" x="2000.5" y="1467.1973">Notification Service</text><rect fill="#73C6B6" height="31.6094" rx="2.5" ry="2.5" style="stroke:#181818;stroke-width:0.5;" width="126" x="2137.5" y="88.6094"/><text fill="#000000" font-family="sans-serif" font-size="14" lengthAdjust="spacing" textLength="112" x="2144.5" y="110.1426">Payment Provider</text><rect fill="#73C6B6" height="31.6094" rx="2.5" ry="2.5" style="stroke:#181818;stroke-width:0.5;" width="126" x="2137.5" y="1445.6641"/><text fill="#000000" font-family="sans-serif" font-size="14" lengthAdjust="spacing" textLength="112" x="2144.5" y="1467.1973">Payment Provider</text><text fill="#000000" font-family="sans-serif" font-size="14" lengthAdjust="spacing" textLength="180" x="2498.5" y="1460.1973">Payment Provider: Checkout</text><ellipse cx="2591.5" cy="1479.2734" fill="#73C6B6" rx="12" ry="12" style="stroke:#181818;stroke-width:0.5;"/><line style="stroke:#181818;stroke-width:0.5;" x1="2579.5" x2="2603.5" y1="1493.2734" y2="1493.2734"/><rect fill="#FFFFFF" height="30.3516" style="stroke:#181818;stroke-width:1.0;" width="10" x="48.5" y="806.7266"/><rect fill="#FDF2E9" height="653.1563" style="stroke:#181818;stroke-width:1.0;" width="10" x="615.5" y="153.5703"/><rect fill="#FDF2E9" height="222.4609" style="stroke:#181818;stroke-width:1.0;" width="10" x="615.5" y="1214.2031"/><rect fill="#3498DB" height="592.4531" style="stroke:#181818;stroke-width:1.0;" width="10" x="966.5" y="183.9219"/><rect fill="#3498DB" height="134.3125" style="stroke:#181818;stroke-width:1.0;" width="10" x="966.5" y="1019.1875"/><rect fill="#3498DB" height="60.7031" style="stroke:#181818;stroke-width:1.0;" width="10" x="966.5" y="1300.2578"/><rect fill="#73C6B6" height="372.7344" style="stroke:#181818;stroke-width:1.0;" width="10" x="1433.5" y="304.2344"/><rect fill="#73C6B6" height="121.4063" style="stroke:#181818;stroke-width:1.0;" width="10" x="1433.5" y="897.7813"/><rect fill="#FAD7A0" height="30.3516" style="stroke:#181818;stroke-width:1.0;" width="10" x="2055.5" y="958.4844"/><rect fill="#FAD7A0" height="30.3516" style="stroke:#181818;stroke-width:1.0;" width="10" x="2055.5" y="1123.1484"/><rect fill="#73C6B6" height="120.3125" style="stroke:#181818;stroke-width:1.0;" width="10" x="2195.5" y="495.9531"/><rect fill="#73C6B6" height="346.7734" style="stroke:#181818;stroke-width:1.0;" width="10" x="2195.5" y="837.0781"/><polygon fill="#181818" points="603.5,149.5703,613.5,153.5703,603.5,157.5703,607.5,153.5703" style="stroke:#181818;stroke-width:1.0;"/><line style="stroke:#181818;stroke-width:1.0;" x1="53.5" x2="609.5" y1="153.5703" y2="153.5703"/><text fill="#000000" font-family="sans-serif" font-size="13" lengthAdjust="spacing" textLength="120" x="60.5" y="148.7139">Proceed to checkout</text><polygon fill="#181818" points="954.5,179.9219,964.5,183.9219,954.5,187.9219,958.5,183.9219" style="stroke:#181818;stroke-width:1.0;"/><line style="stroke:#181818;stroke-width:1.0;" x1="625.5" x2="960.5" y1="183.9219" y2="183.9219"/><text fill="#000000" font-family="sans-serif" font-size="13" lengthAdjust="spacing" textLength="322" x="632.5" y="179.0654">POST /order/checkouts/{checkout_id}/process-payment</text><polygon fill="#181818" points="1205.5,210.2734,1215.5,214.2734,1205.5,218.2734,1209.5,214.2734" style="stroke:#181818;stroke-width:1.0;"/><line style="stroke:#181818;stroke-width:1.0;" x1="976.5" x2="1211.5" y1="214.2734" y2="214.2734"/><text fill="#000000" font-family="sans-serif" font-size="13" lengthAdjust="spacing" textLength="120" x="983.5" y="209.417">find by {checkout_id}</text><text fill="#000000" font-family="sans-serif" font-size="14" lengthAdjust="spacing" textLength="60" x="1217.5" y="238.4551">Checkout</text><ellipse cx="1250.5" cy="207.9219" fill="#3498DB" rx="12" ry="12" style="stroke:#181818;stroke-width:0.5;"/><line style="stroke:#181818;stroke-width:0.5;" x1="1238.5" x2="1262.5" y1="221.9219" y2="221.9219"/><polygon fill="#181818" points="987.5,269.8828,977.5,273.8828,987.5,277.8828,983.5,273.8828" style="stroke:#181818;stroke-width:1.0;"/><line style="stroke:#181818;stroke-width:1.0;stroke-dasharray:2.0,2.0;" x1="981.5" x2="1249.5" y1="273.8828" y2="273.8828"/><text fill="#000000" font-family="sans-serif" font-size="13" lengthAdjust="spacing" textLength="53" x="993.5" y="269.0264">checkout</text><polygon fill="#181818" points="1421.5,300.2344,1431.5,304.2344,1421.5,308.2344,1425.5,304.2344" style="stroke:#181818;stroke-width:1.0;"/><line style="stroke:#181818;stroke-width:1.0;" x1="976.5" x2="1427.5" y1="304.2344" y2="304.2344"/><text fill="#000000" font-family="sans-serif" font-size="13" lengthAdjust="spacing" textLength="227" x="983.5" y="299.3779">POST /payment/payments { checkout }</text><path d="M981,317.2344 L981,408.2344 L1118,408.2344 L1118,327.2344 L1108,317.2344 L981,317.2344 " fill="#FEFFDD" style="stroke:#181818;stroke-width:0.5;"/><path d="M1108,317.2344 L1108,327.2344 L1118,327.2344 L1108,317.2344 " fill="#FEFFDD" style="stroke:#181818;stroke-width:0.5;"/><text fill="#000000" font-family="sans-serif" font-size="13" lengthAdjust="spacing" textLength="109" x="987" y="335.7295">checkout includes:</text><text fill="#000000" font-family="sans-serif" font-size="13" lengthAdjust="spacing" textLength="108" x="995" y="352.0811">- payment_method</text><text fill="#000000" font-family="sans-serif" font-size="13" lengthAdjust="spacing" textLength="90" x="995" y="368.4326">- product_items</text><text fill="#000000" font-family="sans-serif" font-size="13" lengthAdjust="spacing" textLength="92" x="995" y="384.7842">- shipment_fees</text><text fill="#000000" font-family="sans-serif" font-size="13" lengthAdjust="spacing" textLength="40" x="995" y="401.1357">- taxes</text><polygon fill="#181818" points="1846.5,432.3438,1856.5,436.3438,1846.5,440.3438,1850.5,436.3438" style="stroke:#181818;stroke-width:1.0;"/><line style="stroke:#181818;stroke-width:1.0;" x1="1443.5" x2="1852.5" y1="436.3438" y2="436.3438"/><text fill="#000000" font-family="sans-serif" font-size="13" lengthAdjust="spacing" textLength="391" x="1450.5" y="431.4873">{ checkout_id, product_items, shipment_fees, taxes, status=NEW }</text><text fill="#000000" font-family="sans-serif" font-size="14" lengthAdjust="spacing" textLength="119" x="1858.5" y="460.5254">Checkout Payment</text><ellipse cx="1921" cy="429.9922" fill="#73C6B6" rx="12" ry="12" style="stroke:#181818;stroke-width:0.5;"/><line style="stroke:#181818;stroke-width:0.5;" x1="1909" x2="1933" y1="443.9922" y2="443.9922"/><polygon fill="#181818" points="2183.5,491.9531,2193.5,495.9531,2183.5,499.9531,2187.5,495.9531" style="stroke:#181818;stroke-width:1.0;"/><line style="stroke:#181818;stroke-width:1.0;" x1="1443.5" x2="2189.5" y1="495.9531" y2="495.9531"/><text fill="#000000" font-family="sans-serif" font-size="13" lengthAdjust="spacing" textLength="448" x="1450.5" y="491.0967">POST /checkout/orders { checkout_id, product_items, shipment_fees, taxes }</text><polygon fill="#181818" points="2486.5,522.3047,2496.5,526.3047,2486.5,530.3047,2490.5,526.3047" style="stroke:#181818;stroke-width:1.0;"/><line style="stroke:#181818;stroke-width:1.0;" x1="2205.5" x2="2492.5" y1="526.3047" y2="526.3047"/><text fill="#000000" font-family="sans-serif" font-size="13" lengthAdjust="spacing" textLength="93" x="2212.5" y="521.4482">create checkout</text><text fill="#000000" font-family="sans-serif" font-size="14" lengthAdjust="spacing" textLength="180" x="2498.5" y="550.4863">Payment Provider: Checkout</text><ellipse cx="2591.5" cy="519.9531" fill="#73C6B6" rx="12" ry="12" style="stroke:#181818;stroke-width:0.5;"/><line style="stroke:#181818;stroke-width:0.5;" x1="2579.5" x2="2603.5" y1="533.9531" y2="533.9531"/><polygon fill="#181818" points="2216.5,581.9141,2206.5,585.9141,2216.5,589.9141,2212.5,585.9141" style="stroke:#181818;stroke-width:1.0;"/><line style="stroke:#181818;stroke-width:1.0;stroke-dasharray:2.0,2.0;" x1="2210.5" x2="2590.5" y1="585.9141" y2="585.9141"/><text fill="#000000" font-family="sans-serif" font-size="13" lengthAdjust="spacing" textLength="194" x="2222.5" y="581.0576">{ payment_provider_checkout_id }</text><polygon fill="#181818" points="1454.5,612.2656,1444.5,616.2656,1454.5,620.2656,1450.5,616.2656" style="stroke:#181818;stroke-width:1.0;"/><line style="stroke:#181818;stroke-width:1.0;stroke-dasharray:2.0,2.0;" x1="1448.5" x2="2199.5" y1="616.2656" y2="616.2656"/><text fill="#000000" font-family="sans-serif" font-size="13" lengthAdjust="spacing" textLength="272" x="1460.5" y="611.4092">{ checkout_id, payment_provider_checkout_id }</text><polygon fill="#181818" points="1909,642.6172,1919,646.6172,1909,650.6172,1913,646.6172" style="stroke:#181818;stroke-width:1.0;"/><line style="stroke:#181818;stroke-width:1.0;" x1="1443.5" x2="1915" y1="646.6172" y2="646.6172"/><text fill="#000000" font-family="sans-serif" font-size="13" lengthAdjust="spacing" textLength="375" x="1450.5" y="641.7607">update { status=PROCESSING, payment_provider_checkout_id }</text><polygon fill="#181818" points="987.5,672.9688,977.5,676.9688,987.5,680.9688,983.5,676.9688" style="stroke:#181818;stroke-width:1.0;"/><line style="stroke:#181818;stroke-width:1.0;stroke-dasharray:2.0,2.0;" x1="981.5" x2="1437.5" y1="676.9688" y2="676.9688"/><text fill="#000000" font-family="sans-serif" font-size="13" lengthAdjust="spacing" textLength="308" x="993.5" y="672.1123">checkout_payment { payment_provider_checkout_id }</text><path d="M981,689.9688 L981,748.9688 L1196,748.9688 L1196,699.9688 L1186,689.9688 L981,689.9688 " fill="#FEFFDD" style="stroke:#181818;stroke-width:0.5;"/><path d="M1186,689.9688 L1186,699.9688 L1196,699.9688 L1186,689.9688 " fill="#FEFFDD" style="stroke:#181818;stroke-width:0.5;"/><text fill="#000000" font-family="sans-serif" font-size="13" lengthAdjust="spacing" textLength="114" x="987" y="708.4639">checkout_payment:</text><text fill="#000000" font-family="sans-serif" font-size="13" lengthAdjust="spacing" textLength="186" x="995" y="724.8154">- payment_provider_checkout_id</text><text fill="#000000" font-family="sans-serif" font-size="13" lengthAdjust="spacing" textLength="61" x="995" y="741.167">- checkout</text><polygon fill="#181818" points="636.5,772.375,626.5,776.375,636.5,780.375,632.5,776.375" style="stroke:#181818;stroke-width:1.0;"/><line style="stroke:#181818;stroke-width:1.0;stroke-dasharray:2.0,2.0;" x1="630.5" x2="970.5" y1="776.375" y2="776.375"/><text fill="#000000" font-family="sans-serif" font-size="13" lengthAdjust="spacing" textLength="110" x="642.5" y="771.5186">checkout_payment</text><polygon fill="#181818" points="69.5,802.7266,59.5,806.7266,69.5,810.7266,65.5,806.7266" style="stroke:#181818;stroke-width:1.0;"/><line style="stroke:#181818;stroke-width:1.0;stroke-dasharray:2.0,2.0;" x1="63.5" x2="619.5" y1="806.7266" y2="806.7266"/><text fill="#000000" font-family="sans-serif" font-size="13" lengthAdjust="spacing" textLength="538" x="75.5" y="801.8701">redirect to payment_provider : Payment Provider: Checkout { payment_provider_checkout_id }</text><polygon fill="#181818" points="2183.5,833.0781,2193.5,837.0781,2183.5,841.0781,2187.5,837.0781" style="stroke:#181818;stroke-width:1.0;"/><line style="stroke:#181818;stroke-width:1.0;" x1="53.5" x2="2189.5" y1="837.0781" y2="837.0781"/><text fill="#000000" font-family="sans-serif" font-size="13" lengthAdjust="spacing" textLength="298" x="60.5" y="832.2217">execute payment { payment_provider_checkout_id }</text><polygon fill="#181818" points="2579.5,863.4297,2589.5,867.4297,2579.5,871.4297,2583.5,867.4297" style="stroke:#181818;stroke-width:1.0;"/><line style="stroke:#181818;stroke-width:1.0;" x1="2205.5" x2="2585.5" y1="867.4297" y2="867.4297"/><text fill="#000000" font-family="sans-serif" font-size="13" lengthAdjust="spacing" textLength="362" x="2212.5" y="862.5732">update { status=COMPETED, payment_provider_checkout_id }</text><polygon fill="#181818" points="1454.5,893.7813,1444.5,897.7813,1454.5,901.7813,1450.5,897.7813" style="stroke:#181818;stroke-width:1.0;"/><line style="stroke:#181818;stroke-width:1.0;stroke-dasharray:2.0,2.0;" x1="1448.5" x2="2194.5" y1="897.7813" y2="897.7813"/><text fill="#000000" font-family="sans-serif" font-size="13" lengthAdjust="spacing" textLength="455" x="1460.5" y="892.9248">{ checkout_id, payment_provider_checkout_id, status=COMPETED/FAILURE }</text><polygon fill="#181818" points="1909,924.1328,1919,928.1328,1909,932.1328,1913,928.1328" style="stroke:#181818;stroke-width:1.0;"/><line style="stroke:#181818;stroke-width:1.0;" x1="1443.5" x2="1915" y1="928.1328" y2="928.1328"/><text fill="#000000" font-family="sans-serif" font-size="13" lengthAdjust="spacing" textLength="183" x="1450.5" y="923.2764">update { status=COMPLETED }</text><polygon fill="#181818" points="2043.5,954.4844,2053.5,958.4844,2043.5,962.4844,2047.5,958.4844" style="stroke:#181818;stroke-width:1.0;"/><line style="stroke:#181818;stroke-width:1.0;stroke-dasharray:2.0,2.0;" x1="1443.5" x2="2049.5" y1="958.4844" y2="958.4844"/><text fill="#000000" font-family="sans-serif" font-size="13" lengthAdjust="spacing" textLength="284" x="1450.5" y="953.6279">Event: PaymentCompleted { checkout_payment }</text><polygon fill="#181818" points="64.5,984.8359,54.5,988.8359,64.5,992.8359,60.5,988.8359" style="stroke:#181818;stroke-width:1.0;"/><line style="stroke:#181818;stroke-width:1.0;stroke-dasharray:2.0,2.0;" x1="58.5" x2="2059.5" y1="988.8359" y2="988.8359"/><text fill="#000000" font-family="sans-serif" font-size="13" lengthAdjust="spacing" textLength="201" x="70.5" y="983.9795">notification for payment completion</text><polygon fill="#181818" points="987.5,1015.1875,977.5,1019.1875,987.5,1023.1875,983.5,1019.1875" style="stroke:#181818;stroke-width:1.0;"/><line style="stroke:#181818;stroke-width:1.0;stroke-dasharray:2.0,2.0;" x1="981.5" x2="1437.5" y1="1019.1875" y2="1019.1875"/><text fill="#000000" font-family="sans-serif" font-size="13" lengthAdjust="spacing" textLength="244" x="993.5" y="1014.3311">Event: PaymentCompleted { checkout_id }</text><polygon fill="#181818" points="1238.5,1045.5391,1248.5,1049.5391,1238.5,1053.5391,1242.5,1049.5391" style="stroke:#181818;stroke-width:1.0;"/><line style="stroke:#181818;stroke-width:1.0;" x1="976.5" x2="1244.5" y1="1049.5391" y2="1049.5391"/><text fill="#000000" font-family="sans-serif" font-size="13" lengthAdjust="spacing" textLength="250" x="983.5" y="1044.6826">update { status=PAYMENT_CONFIRMED }</text><polygon fill="#181818" points="1313.5,1075.8906,1323.5,1079.8906,1313.5,1083.8906,1317.5,1079.8906" style="stroke:#181818;stroke-width:1.0;"/><line style="stroke:#181818;stroke-width:1.0;" x1="976.5" x2="1319.5" y1="1079.8906" y2="1079.8906"/><text fill="#000000" font-family="sans-serif" font-size="13" lengthAdjust="spacing" textLength="325" x="983.5" y="1075.0342">create { checkout_id, status=PAYMENT_CONFIRMED }</text><text fill="#000000" font-family="sans-serif" font-size="14" lengthAdjust="spacing" textLength="37" x="1325.5" y="1104.0723">Order</text><ellipse cx="1347" cy="1073.5391" fill="#3498DB" rx="12" ry="12" style="stroke:#181818;stroke-width:0.5;"/><line style="stroke:#181818;stroke-width:0.5;" x1="1335" x2="1359" y1="1087.5391" y2="1087.5391"/><polygon fill="#181818" points="2043.5,1119.1484,2053.5,1123.1484,2043.5,1127.1484,2047.5,1123.1484" style="stroke:#181818;stroke-width:1.0;"/><line style="stroke:#181818;stroke-width:1.0;stroke-dasharray:2.0,2.0;" x1="976.5" x2="2049.5" y1="1123.1484" y2="1123.1484"/><polygon fill="#181818" points="64.5,1149.5,54.5,1153.5,64.5,1157.5,60.5,1153.5" style="stroke:#181818;stroke-width:1.0;"/><line style="stroke:#181818;stroke-width:1.0;stroke-dasharray:2.0,2.0;" x1="58.5" x2="2059.5" y1="1153.5" y2="1153.5"/><text fill="#000000" font-family="sans-serif" font-size="13" lengthAdjust="spacing" textLength="163" x="70.5" y="1148.6436">notification for order creation</text><polygon fill="#181818" points="64.5,1179.8516,54.5,1183.8516,64.5,1187.8516,60.5,1183.8516" style="stroke:#181818;stroke-width:1.0;"/><line style="stroke:#181818;stroke-width:1.0;stroke-dasharray:2.0,2.0;" x1="58.5" x2="2199.5" y1="1183.8516" y2="1183.8516"/><text fill="#000000" font-family="sans-serif" font-size="13" lengthAdjust="spacing" textLength="217" x="70.5" y="1178.9951">redirect to storefront with confirmation</text><polygon fill="#181818" points="603.5,1210.2031,613.5,1214.2031,603.5,1218.2031,607.5,1214.2031" style="stroke:#181818;stroke-width:1.0;"/><line style="stroke:#181818;stroke-width:1.0;" x1="53.5" x2="609.5" y1="1214.2031" y2="1214.2031"/><text fill="#000000" font-family="sans-serif" font-size="13" lengthAdjust="spacing" textLength="102" x="60.5" y="1209.3467">confirmation page</text><polygon fill="#181818" points="64.5,1240.5547,54.5,1244.5547,64.5,1248.5547,60.5,1244.5547" style="stroke:#181818;stroke-width:1.0;"/><line style="stroke:#181818;stroke-width:1.0;stroke-dasharray:2.0,2.0;" x1="58.5" x2="614.5" y1="1244.5547" y2="1244.5547"/><text fill="#000000" font-family="sans-serif" font-size="13" lengthAdjust="spacing" textLength="124" x="70.5" y="1239.6982">payment confirmation</text><path d="M10,1259.5547 L83,1259.5547 L83,1267.9063 L73,1277.9063 L10,1277.9063 L10,1259.5547 " fill="#EEEEEE" style="stroke:#000000;stroke-width:1.5;"/><rect fill="none" height="170.1094" style="stroke:#000000;stroke-width:1.5;" width="1368.5" x="10" y="1259.5547"/><text fill="#000000" font-family="sans-serif" font-size="13" font-weight="bold" lengthAdjust="spacing" textLength="28" x="25" y="1274.0498">loop</text><text fill="#000000" font-family="sans-serif" font-size="11" font-weight="bold" lengthAdjust="spacing" textLength="122" x="98" y="1272.9736">["reload to get order"]</text><polygon fill="#181818" points="954.5,1296.2578,964.5,1300.2578,954.5,1304.2578,958.5,1300.2578" style="stroke:#181818;stroke-width:1.0;"/><line style="stroke:#181818;stroke-width:1.0;" x1="625.5" x2="960.5" y1="1300.2578" y2="1300.2578"/><text fill="#000000" font-family="sans-serif" font-size="13" lengthAdjust="spacing" textLength="242" x="632.5" y="1295.4014">GET /order/orders/checkout/{checkout_id}</text><polygon fill="#181818" points="1335,1326.6094,1345,1330.6094,1335,1334.6094,1339,1330.6094" style="stroke:#181818;stroke-width:1.0;"/><line style="stroke:#181818;stroke-width:1.0;" x1="976.5" x2="1341" y1="1330.6094" y2="1330.6094"/><text fill="#000000" font-family="sans-serif" font-size="13" lengthAdjust="spacing" textLength="153" x="983.5" y="1325.7529">find order by {checkout_id}</text><polygon fill="#181818" points="982.5,1356.9609,972.5,1360.9609,982.5,1364.9609,978.5,1360.9609" style="stroke:#181818;stroke-width:1.0;"/><line style="stroke:#181818;stroke-width:1.0;stroke-dasharray:2.0,2.0;" x1="976.5" x2="1346" y1="1360.9609" y2="1360.9609"/><text fill="#000000" font-family="sans-serif" font-size="13" lengthAdjust="spacing" textLength="29" x="988.5" y="1356.1045">order</text><polygon fill="#181818" points="636.5,1387.3125,626.5,1391.3125,636.5,1395.3125,632.5,1391.3125" style="stroke:#181818;stroke-width:1.0;"/><line style="stroke:#181818;stroke-width:1.0;stroke-dasharray:2.0,2.0;" x1="630.5" x2="970.5" y1="1391.3125" y2="1391.3125"/><text fill="#000000" font-family="sans-serif" font-size="13" lengthAdjust="spacing" textLength="29" x="642.5" y="1386.4561">order</text><polygon fill="#181818" points="64.5,1417.6641,54.5,1421.6641,64.5,1425.6641,60.5,1421.6641" style="stroke:#181818;stroke-width:1.0;"/><line style="stroke:#181818;stroke-width:1.0;stroke-dasharray:2.0,2.0;" x1="58.5" x2="614.5" y1="1421.6641" y2="1421.6641"/><text fill="#000000" font-family="sans-serif" font-size="13" lengthAdjust="spacing" textLength="133" x="70.5" y="1416.8076">redirect to order details</text><!--SRC=[lLTjQzim4FxkNo7IRoKXspgwrMo3ahcbq2QXwHZz55HPRiIIoDXANmZzxzERPScI4wU3zKlgi-xkkRldT6T6s1A3ANnTuJK35qlw74KGCLg0qQPaT8KB04k0gl-FCfX-WH-Yw86-WFlpMGJuNmuBHX398RVGct5Td1LqpNf2ipIFN3VDFk4peFzyrKcHSXSpN3mHXAKs5P9vgIJWwEJpsTVqmIXpn8IzWjveWT4Vkb4EaNweJZidfOVQidF6WL8bn0QJAraDvyi9Edqu3KAfCkf0cciBZgRZTamPoGY2ZD2rutjjlQW1w6BWTGf4FLHL3FPfGP-8ZFS8mmnc7zl3h8zQSUPQ60oqgHa3fmfD6_EwBDgO1Xr5Xbk37nPROc4POPm2Haq21JF94sGuJ2iEq99pSmvzkCN9x0uCfN1OcIo7MrCUahuDS-6rB0Sw06xI-0oIKIR5VSCTcsYFZsEG4H7gAt0S1VI-3GP6CQvZ3ZfeSB6AJOkhtn9iQoZA9ISI1WLvN310CzTkfFhIA90rMcvINCPHrR83utU5sOAczek2fXl4GsDuLLhoSa5ogP5XRCiPVD7FWWWIbNmosMxfDklk0DuPA_EcrqG5h3JmtFTTi7qNOrz1ur86sQRyFav-wzG5_JM9NbMYygVeLhu3WV7gfIJOc3O-So00SEvm4nLOM7R85hGaoDbgAkRXjRxayPfG_1I6xCPUjhhOJd5hehhJ9GQRF1KcjbNzfxUJKJARNOqlE-BmczfhLe-a7TEtltc17v5vO_Tlo8rpiC48jqa3gRPXM9Um2Bzn2tl1gtwsR3O3iozrKJCzC69Gu9GK634n8pp6ng1zHkrFk0MdTb_Fdme3HsVFBv_9-0MZJPsdWnmR9rrkW8DwtwVvQ78pJUwId_j8Bclb-mgDf0EQkD-4CRmulxh-TPj8wk-R2T6xcrkuknR-T8jvHhYLqEeLW-H96jGK6z5LliICRojRdzzlxc3RkSgPFlUFkDItZu2Ch-kLDwIWS76pLKDMMwDkD6s7S1Kxchtitm__iay5hkVp-vjaV3SVJSONLxStffAU2IcGou2UUGrw7cQlXHV_fTBgqqL6qRtAEwxNO3U7Brdh9ducRC79jiv8iL90TWtWjYNVDi2r7l6k5N_NAAZfRo42O4bf3de5Nb8eloGUCLFnzvgJokVyPMA-5jGILozr_YhVWTLjfDHV2AgimU-4q5AXLULFamF-Ph1x9DT6EerQXJJ539AbsE75Sj0oCFy2]--></g></svg>